G04 #@! TF.GenerationSoftware,KiCad,Pcbnew,7.0.10-7.0.10~ubuntu22.04.1*
G04 #@! TF.CreationDate,2024-02-26T11:42:44-05:00*
G04 #@! TF.ProjectId,CapController,43617043-6f6e-4747-926f-6c6c65722e6b,rev?*
G04 #@! TF.SameCoordinates,Original*
G04 #@! TF.FileFunction,Copper,L2,Bot*
G04 #@! TF.FilePolarity,Positive*
%FSLAX46Y46*%
G04 Gerber Fmt 4.6, Leading zero omitted, Abs format (unit mm)*
G04 Created by KiCad (PCBNEW 7.0.10-7.0.10~ubuntu22.04.1) date 2024-02-26 11:42:44*
%MOMM*%
%LPD*%
G01*
G04 APERTURE LIST*
G04 Aperture macros list*
%AMRoundRect*
0 Rectangle with rounded corners*
0 $1 Rounding radius*
0 $2 $3 $4 $5 $6 $7 $8 $9 X,Y pos of 4 corners*
0 Add a 4 corners polygon primitive as box body*
4,1,4,$2,$3,$4,$5,$6,$7,$8,$9,$2,$3,0*
0 Add four circle primitives for the rounded corners*
1,1,$1+$1,$2,$3*
1,1,$1+$1,$4,$5*
1,1,$1+$1,$6,$7*
1,1,$1+$1,$8,$9*
0 Add four rect primitives between the rounded corners*
20,1,$1+$1,$2,$3,$4,$5,0*
20,1,$1+$1,$4,$5,$6,$7,0*
20,1,$1+$1,$6,$7,$8,$9,0*
20,1,$1+$1,$8,$9,$2,$3,0*%
G04 Aperture macros list end*
G04 #@! TA.AperFunction,ComponentPad*
%ADD10R,3.960000X1.980000*%
G04 #@! TD*
G04 #@! TA.AperFunction,ComponentPad*
%ADD11O,3.960000X1.980000*%
G04 #@! TD*
G04 #@! TA.AperFunction,ComponentPad*
%ADD12C,1.600000*%
G04 #@! TD*
G04 #@! TA.AperFunction,ComponentPad*
%ADD13O,1.600000X1.600000*%
G04 #@! TD*
G04 #@! TA.AperFunction,ComponentPad*
%ADD14R,1.980000X3.960000*%
G04 #@! TD*
G04 #@! TA.AperFunction,ComponentPad*
%ADD15O,1.980000X3.960000*%
G04 #@! TD*
G04 #@! TA.AperFunction,ComponentPad*
%ADD16C,1.524000*%
G04 #@! TD*
G04 #@! TA.AperFunction,ComponentPad*
%ADD17R,1.524000X2.524000*%
G04 #@! TD*
G04 #@! TA.AperFunction,ComponentPad*
%ADD18O,1.524000X2.524000*%
G04 #@! TD*
G04 #@! TA.AperFunction,ComponentPad*
%ADD19C,1.727200*%
G04 #@! TD*
G04 #@! TA.AperFunction,ComponentPad*
%ADD20R,1.727200X1.727200*%
G04 #@! TD*
G04 #@! TA.AperFunction,ComponentPad*
%ADD21RoundRect,0.250000X-0.600000X-0.600000X0.600000X-0.600000X0.600000X0.600000X-0.600000X0.600000X0*%
G04 #@! TD*
G04 #@! TA.AperFunction,ComponentPad*
%ADD22C,1.700000*%
G04 #@! TD*
G04 #@! TA.AperFunction,Conductor*
%ADD23C,0.250000*%
G04 #@! TD*
G04 APERTURE END LIST*
D10*
X104010449Y-43253198D03*
D11*
X104010449Y-48253198D03*
X104010449Y-53253198D03*
D12*
X114400000Y-127100000D03*
D13*
X114400000Y-114400000D03*
D12*
X140200000Y-149200000D03*
D13*
X140200000Y-161900000D03*
D14*
X141140449Y-25273198D03*
D15*
X136140449Y-25273198D03*
D16*
X112490449Y-64883198D03*
X112490449Y-59883198D03*
X104990449Y-59883198D03*
X104990449Y-64883198D03*
D12*
X128200000Y-127150000D03*
D13*
X128200000Y-114450000D03*
D12*
X126200000Y-149200000D03*
D13*
X126200000Y-161900000D03*
D12*
X104400000Y-149200000D03*
D13*
X104400000Y-161900000D03*
D12*
X130000000Y-149200000D03*
D13*
X130000000Y-161900000D03*
D16*
X122360000Y-165200000D03*
X122360000Y-170200000D03*
X129860000Y-170200000D03*
X129860000Y-165200000D03*
D12*
X103000000Y-127100000D03*
D13*
X103000000Y-114400000D03*
D12*
X112000000Y-149200000D03*
D13*
X112000000Y-161900000D03*
D12*
X132000000Y-127150000D03*
D13*
X132000000Y-114450000D03*
D16*
X104540000Y-165200000D03*
X104540000Y-170200000D03*
X112040000Y-170200000D03*
X112040000Y-165200000D03*
D12*
X141800000Y-127150000D03*
D13*
X141800000Y-114450000D03*
D12*
X124400000Y-127150000D03*
D13*
X124400000Y-114450000D03*
D12*
X108200000Y-149200000D03*
D13*
X108200000Y-161900000D03*
D12*
X147800000Y-149200000D03*
D13*
X147800000Y-161900000D03*
D12*
X120600000Y-127150000D03*
D13*
X120600000Y-114450000D03*
D12*
X106800000Y-127100000D03*
D13*
X106800000Y-114400000D03*
D12*
X145600000Y-127150000D03*
D13*
X145600000Y-114450000D03*
D17*
X139000000Y-145840000D03*
D18*
X141540000Y-145840000D03*
X144080000Y-145840000D03*
X146620000Y-145840000D03*
X149160000Y-145840000D03*
X149160000Y-130600000D03*
X146620000Y-130600000D03*
X144080000Y-130600000D03*
X141540000Y-130600000D03*
X139000000Y-130600000D03*
D12*
X138000000Y-127150000D03*
D13*
X138000000Y-114450000D03*
D16*
X112490449Y-74753198D03*
X112490449Y-69753198D03*
X104990449Y-69753198D03*
X104990449Y-74753198D03*
D12*
X122400000Y-149200000D03*
D13*
X122400000Y-161900000D03*
D10*
X104000449Y-25708198D03*
D11*
X104000449Y-30708198D03*
X104000449Y-35708198D03*
D19*
X133600449Y-73223198D03*
X133600449Y-47823198D03*
X133600449Y-68143198D03*
X133600449Y-65603198D03*
X133600449Y-63063198D03*
X133600449Y-60523198D03*
X133600449Y-57983198D03*
X133600449Y-55443198D03*
X133600449Y-52903198D03*
X133600449Y-50363198D03*
X133600449Y-70683198D03*
X118360449Y-42743198D03*
X118360449Y-40203198D03*
X118360449Y-50363198D03*
X118360449Y-52903198D03*
X118360449Y-55443198D03*
X118360449Y-57983198D03*
X118360449Y-60523198D03*
X118360449Y-63063198D03*
X118360449Y-65603198D03*
X118360449Y-68143198D03*
X118360449Y-70683198D03*
X118360449Y-73223198D03*
X118360449Y-75763198D03*
X133600449Y-75763198D03*
D20*
X118360449Y-47823198D03*
X133600449Y-42743198D03*
D19*
X118360449Y-45283198D03*
X133600449Y-45283198D03*
X133600449Y-40203198D03*
D16*
X112840449Y-108263198D03*
X112840449Y-105723198D03*
X112840449Y-103183198D03*
X112840449Y-100643198D03*
X112840449Y-98103198D03*
X112840449Y-95563198D03*
X112840449Y-93023198D03*
X112840449Y-90483198D03*
X104840449Y-90483198D03*
X104840449Y-93023198D03*
X104840449Y-95563198D03*
X104840449Y-98103198D03*
X104840449Y-100643198D03*
X104840449Y-103183198D03*
X104840449Y-105723198D03*
X104840449Y-108263198D03*
D12*
X110600000Y-127100000D03*
D13*
X110600000Y-114400000D03*
D17*
X121070000Y-145840000D03*
D18*
X123610000Y-145840000D03*
X126150000Y-145840000D03*
X128690000Y-145840000D03*
X131230000Y-145840000D03*
X131230000Y-130600000D03*
X128690000Y-130600000D03*
X126150000Y-130600000D03*
X123610000Y-130600000D03*
X121070000Y-130600000D03*
D16*
X130440449Y-108263198D03*
X130440449Y-105723198D03*
X130440449Y-103183198D03*
X130440449Y-100643198D03*
X130440449Y-98103198D03*
X130440449Y-95563198D03*
X130440449Y-93023198D03*
X130440449Y-90483198D03*
X122440449Y-90483198D03*
X122440449Y-93023198D03*
X122440449Y-95563198D03*
X122440449Y-98103198D03*
X122440449Y-100643198D03*
X122440449Y-103183198D03*
X122440449Y-105723198D03*
X122440449Y-108263198D03*
D12*
X144000000Y-149200000D03*
D13*
X144000000Y-161900000D03*
D17*
X103290000Y-145840000D03*
D18*
X105830000Y-145840000D03*
X108370000Y-145840000D03*
X110910000Y-145840000D03*
X113450000Y-145840000D03*
X113450000Y-130600000D03*
X110910000Y-130600000D03*
X108370000Y-130600000D03*
X105830000Y-130600000D03*
X103290000Y-130600000D03*
D16*
X140100000Y-165200000D03*
X140100000Y-170200000D03*
X147600000Y-170200000D03*
X147600000Y-165200000D03*
X147840449Y-108263198D03*
X147840449Y-105723198D03*
X147840449Y-103183198D03*
X147840449Y-100643198D03*
X147840449Y-98103198D03*
X147840449Y-95563198D03*
X147840449Y-93023198D03*
X147840449Y-90483198D03*
X139840449Y-90483198D03*
X139840449Y-93023198D03*
X139840449Y-95563198D03*
X139840449Y-98103198D03*
X139840449Y-100643198D03*
X139840449Y-103183198D03*
X139840449Y-105723198D03*
X139840449Y-108263198D03*
D21*
X140602949Y-50693198D03*
D22*
X143142949Y-50693198D03*
X140602949Y-53233198D03*
X143142949Y-53233198D03*
X140602949Y-55773198D03*
X143142949Y-55773198D03*
X140602949Y-58313198D03*
X143142949Y-58313198D03*
X140602949Y-60853198D03*
X143142949Y-60853198D03*
X140602949Y-63393198D03*
X143142949Y-63393198D03*
D12*
X149400000Y-127150000D03*
D13*
X149400000Y-114450000D03*
D23*
X143142949Y-60853198D02*
X146763449Y-64473698D01*
X147600000Y-165200000D02*
X146513000Y-166287000D01*
X146763449Y-89256198D02*
X147850449Y-90343198D01*
X113127000Y-166287000D02*
X112040000Y-165200000D01*
X146675000Y-148435000D02*
X144080000Y-145840000D01*
X126150000Y-130600000D02*
X126150000Y-129023000D01*
X144317949Y-59678198D02*
X143142949Y-60853198D01*
X112350449Y-90343198D02*
X113437449Y-89256198D01*
X144080000Y-104352748D02*
X143463626Y-103736374D01*
X142413000Y-129013000D02*
X144080000Y-130680000D01*
X118360449Y-47823198D02*
X119711849Y-46471798D01*
X119711849Y-37211476D02*
X118208571Y-35708198D01*
X144080000Y-145920000D02*
X142493000Y-147507000D01*
X108790449Y-53253198D02*
X104010449Y-53253198D01*
X128773000Y-166287000D02*
X113127000Y-166287000D01*
X112930449Y-53253198D02*
X118360449Y-47823198D01*
X144286549Y-46471798D02*
X144317949Y-46503198D01*
X108990449Y-53453198D02*
X108790449Y-53253198D01*
X144317949Y-28450698D02*
X144317949Y-46503198D01*
X139143449Y-99416198D02*
X140230449Y-100503198D01*
X122230449Y-99676198D02*
X122490449Y-99416198D01*
X108370000Y-145840000D02*
X110037000Y-147507000D01*
X108990449Y-53453198D02*
X108990449Y-53253198D01*
X126150000Y-145840000D02*
X126150000Y-147497000D01*
X143463626Y-103736374D02*
X143910449Y-104183198D01*
X130947000Y-166287000D02*
X129860000Y-165200000D01*
X108990449Y-53253198D02*
X112930449Y-53253198D01*
X118208571Y-35708198D02*
X104000449Y-35708198D01*
X126160000Y-129013000D02*
X142413000Y-129013000D01*
X142493000Y-147507000D02*
X126160000Y-147507000D01*
X104730449Y-100503198D02*
X105817449Y-99416198D01*
X122230449Y-100503198D02*
X122230449Y-99676198D01*
X143142949Y-60853198D02*
X140602949Y-60853198D01*
X129860000Y-165200000D02*
X128773000Y-166287000D01*
X129990449Y-89256198D02*
X146763449Y-89256198D01*
X144080000Y-130600000D02*
X144080000Y-104352748D01*
X141140449Y-25273198D02*
X144317949Y-28450698D01*
X110037000Y-147507000D02*
X126160000Y-147507000D01*
X105817449Y-99416198D02*
X122490449Y-99416198D01*
X146763449Y-64473698D02*
X146763449Y-89256198D01*
X109957000Y-129013000D02*
X126160000Y-129013000D01*
X140230449Y-100503198D02*
X141317449Y-99416198D01*
X122490449Y-99416198D02*
X139143449Y-99416198D01*
X119711849Y-46471798D02*
X119711849Y-37211476D01*
X106077449Y-73666198D02*
X106077449Y-65970198D01*
X113437449Y-89256198D02*
X129990449Y-89256198D01*
X146513000Y-166287000D02*
X130947000Y-166287000D01*
X141317449Y-99416198D02*
X141317449Y-96876198D01*
X147600000Y-165200000D02*
X146675000Y-164275000D01*
X105240449Y-64883198D02*
X108990449Y-61133198D01*
X104990449Y-74753198D02*
X106077449Y-73666198D01*
X141317449Y-96876198D02*
X147850449Y-90343198D01*
X129850449Y-90343198D02*
X129850449Y-89396198D01*
X108370000Y-130600000D02*
X109957000Y-129013000D01*
X106077449Y-65970198D02*
X104990449Y-64883198D01*
X140230449Y-100503198D02*
X143463626Y-103736374D01*
X144317949Y-46503198D02*
X144317949Y-59678198D01*
X144080000Y-130600000D02*
X144080000Y-145840000D01*
X119711849Y-46471798D02*
X144286549Y-46471798D01*
X126150000Y-147497000D02*
X126160000Y-147507000D01*
X126150000Y-129023000D02*
X126160000Y-129013000D01*
X129850449Y-89396198D02*
X129990449Y-89256198D01*
X108990449Y-61133198D02*
X108990449Y-53453198D01*
X146675000Y-164275000D02*
X146675000Y-148435000D01*
X140602949Y-66220698D02*
X133600449Y-73223198D01*
X104730449Y-108123198D02*
X103643449Y-107036198D01*
X103725449Y-49568198D02*
X101705449Y-51588198D01*
X122230449Y-108970198D02*
X121850449Y-109350198D01*
X122230449Y-108123198D02*
X122230449Y-108970198D01*
X123527449Y-109350198D02*
X122440449Y-108263198D01*
X106315449Y-45558198D02*
X106315449Y-48797889D01*
X134875449Y-79368198D02*
X131490449Y-82753198D01*
X105545140Y-49568198D02*
X103725449Y-49568198D01*
X122230449Y-94076198D02*
X122490449Y-94336198D01*
X133600449Y-73223198D02*
X134875449Y-74498198D01*
X106315449Y-48797889D02*
X105545140Y-49568198D01*
X104730449Y-92883198D02*
X103643449Y-91796198D01*
X131490449Y-82753198D02*
X103643449Y-82753198D01*
X103643449Y-91796198D02*
X103643449Y-82753198D01*
X104010449Y-43253198D02*
X106315449Y-45558198D01*
X103643449Y-93970198D02*
X104730449Y-92883198D01*
X140602949Y-63393198D02*
X143142949Y-63393198D01*
X140230449Y-92883198D02*
X138777449Y-94336198D01*
X105927449Y-109350198D02*
X104840449Y-108263198D01*
X121850449Y-109350198D02*
X105927449Y-109350198D01*
X122490449Y-94336198D02*
X106183449Y-94336198D01*
X101705449Y-51588198D02*
X101705449Y-80815198D01*
X105817449Y-109210198D02*
X104730449Y-108123198D01*
X103643449Y-107036198D02*
X103643449Y-93970198D01*
X101705449Y-80815198D02*
X103643449Y-82753198D01*
X139003449Y-109350198D02*
X123527449Y-109350198D01*
X104010449Y-43253198D02*
X101695449Y-40938198D01*
X134875449Y-74498198D02*
X134875449Y-79368198D01*
X138777449Y-94336198D02*
X122490449Y-94336198D01*
X122230449Y-92883198D02*
X122230449Y-94076198D01*
X106183449Y-94336198D02*
X104730449Y-92883198D01*
X140602949Y-63393198D02*
X140602949Y-66220698D01*
X140230449Y-108123198D02*
X139003449Y-109350198D01*
X101695449Y-28013198D02*
X104000449Y-25708198D01*
X101695449Y-40938198D02*
X101695449Y-28013198D01*
M02*
