G04 #@! TF.GenerationSoftware,KiCad,Pcbnew,7.0.10-7.0.10~ubuntu22.04.1*
G04 #@! TF.CreationDate,2024-02-26T11:42:44-05:00*
G04 #@! TF.ProjectId,CapController,43617043-6f6e-4747-926f-6c6c65722e6b,rev?*
G04 #@! TF.SameCoordinates,Original*
G04 #@! TF.FileFunction,Legend,Bot*
G04 #@! TF.FilePolarity,Positive*
%FSLAX46Y46*%
G04 Gerber Fmt 4.6, Leading zero omitted, Abs format (unit mm)*
G04 Created by KiCad (PCBNEW 7.0.10-7.0.10~ubuntu22.04.1) date 2024-02-26 11:42:44*
%MOMM*%
%LPD*%
G01*
G04 APERTURE LIST*
G04 Aperture macros list*
%AMRoundRect*
0 Rectangle with rounded corners*
0 $1 Rounding radius*
0 $2 $3 $4 $5 $6 $7 $8 $9 X,Y pos of 4 corners*
0 Add a 4 corners polygon primitive as box body*
4,1,4,$2,$3,$4,$5,$6,$7,$8,$9,$2,$3,0*
0 Add four circle primitives for the rounded corners*
1,1,$1+$1,$2,$3*
1,1,$1+$1,$4,$5*
1,1,$1+$1,$6,$7*
1,1,$1+$1,$8,$9*
0 Add four rect primitives between the rounded corners*
20,1,$1+$1,$2,$3,$4,$5,0*
20,1,$1+$1,$4,$5,$6,$7,0*
20,1,$1+$1,$6,$7,$8,$9,0*
20,1,$1+$1,$8,$9,$2,$3,0*%
G04 Aperture macros list end*
%ADD10C,0.150000*%
%ADD11R,3.960000X1.980000*%
%ADD12O,3.960000X1.980000*%
%ADD13C,1.600000*%
%ADD14O,1.600000X1.600000*%
%ADD15R,1.980000X3.960000*%
%ADD16O,1.980000X3.960000*%
%ADD17C,1.524000*%
%ADD18R,1.524000X2.524000*%
%ADD19O,1.524000X2.524000*%
%ADD20C,1.800000*%
%ADD21C,1.727200*%
%ADD22R,1.727200X1.727200*%
%ADD23RoundRect,0.250000X-0.600000X-0.600000X0.600000X-0.600000X0.600000X0.600000X-0.600000X0.600000X0*%
%ADD24C,1.700000*%
G04 APERTURE END LIST*
D10*
X119810629Y-43481292D02*
X120810629Y-43481292D01*
X120810629Y-43481292D02*
X120810629Y-43243197D01*
X120810629Y-43243197D02*
X120763010Y-43100340D01*
X120763010Y-43100340D02*
X120667772Y-43005102D01*
X120667772Y-43005102D02*
X120572534Y-42957483D01*
X120572534Y-42957483D02*
X120382058Y-42909864D01*
X120382058Y-42909864D02*
X120239201Y-42909864D01*
X120239201Y-42909864D02*
X120048725Y-42957483D01*
X120048725Y-42957483D02*
X119953487Y-43005102D01*
X119953487Y-43005102D02*
X119858249Y-43100340D01*
X119858249Y-43100340D02*
X119810629Y-43243197D01*
X119810629Y-43243197D02*
X119810629Y-43481292D01*
X120810629Y-42290816D02*
X120810629Y-42195578D01*
X120810629Y-42195578D02*
X120763010Y-42100340D01*
X120763010Y-42100340D02*
X120715391Y-42052721D01*
X120715391Y-42052721D02*
X120620153Y-42005102D01*
X120620153Y-42005102D02*
X120429677Y-41957483D01*
X120429677Y-41957483D02*
X120191582Y-41957483D01*
X120191582Y-41957483D02*
X120001106Y-42005102D01*
X120001106Y-42005102D02*
X119905868Y-42052721D01*
X119905868Y-42052721D02*
X119858249Y-42100340D01*
X119858249Y-42100340D02*
X119810629Y-42195578D01*
X119810629Y-42195578D02*
X119810629Y-42290816D01*
X119810629Y-42290816D02*
X119858249Y-42386054D01*
X119858249Y-42386054D02*
X119905868Y-42433673D01*
X119905868Y-42433673D02*
X120001106Y-42481292D01*
X120001106Y-42481292D02*
X120191582Y-42528911D01*
X120191582Y-42528911D02*
X120429677Y-42528911D01*
X120429677Y-42528911D02*
X120620153Y-42481292D01*
X120620153Y-42481292D02*
X120715391Y-42433673D01*
X120715391Y-42433673D02*
X120763010Y-42386054D01*
X120763010Y-42386054D02*
X120810629Y-42290816D01*
%LPC*%
D11*
X104010449Y-43253198D03*
D12*
X104010449Y-48253198D03*
X104010449Y-53253198D03*
D13*
X114400000Y-127100000D03*
D14*
X114400000Y-114400000D03*
D13*
X140200000Y-149200000D03*
D14*
X140200000Y-161900000D03*
D15*
X141140449Y-25273198D03*
D16*
X136140449Y-25273198D03*
D17*
X112490449Y-64883198D03*
X112490449Y-59883198D03*
X104990449Y-59883198D03*
X104990449Y-64883198D03*
D13*
X128200000Y-127150000D03*
D14*
X128200000Y-114450000D03*
D13*
X126200000Y-149200000D03*
D14*
X126200000Y-161900000D03*
D13*
X104400000Y-149200000D03*
D14*
X104400000Y-161900000D03*
D13*
X130000000Y-149200000D03*
D14*
X130000000Y-161900000D03*
D17*
X122360000Y-165200000D03*
X122360000Y-170200000D03*
X129860000Y-170200000D03*
X129860000Y-165200000D03*
D13*
X103000000Y-127100000D03*
D14*
X103000000Y-114400000D03*
D13*
X112000000Y-149200000D03*
D14*
X112000000Y-161900000D03*
D13*
X132000000Y-127150000D03*
D14*
X132000000Y-114450000D03*
D17*
X104540000Y-165200000D03*
X104540000Y-170200000D03*
X112040000Y-170200000D03*
X112040000Y-165200000D03*
D13*
X141800000Y-127150000D03*
D14*
X141800000Y-114450000D03*
D13*
X124400000Y-127150000D03*
D14*
X124400000Y-114450000D03*
D13*
X108200000Y-149200000D03*
D14*
X108200000Y-161900000D03*
D13*
X147800000Y-149200000D03*
D14*
X147800000Y-161900000D03*
D13*
X120600000Y-127150000D03*
D14*
X120600000Y-114450000D03*
D13*
X106800000Y-127100000D03*
D14*
X106800000Y-114400000D03*
D13*
X145600000Y-127150000D03*
D14*
X145600000Y-114450000D03*
D18*
X139000000Y-145840000D03*
D19*
X141540000Y-145840000D03*
X144080000Y-145840000D03*
X146620000Y-145840000D03*
X149160000Y-145840000D03*
X149160000Y-130600000D03*
X146620000Y-130600000D03*
X144080000Y-130600000D03*
X141540000Y-130600000D03*
X139000000Y-130600000D03*
D13*
X138000000Y-127150000D03*
D14*
X138000000Y-114450000D03*
D17*
X112490449Y-74753198D03*
X112490449Y-69753198D03*
X104990449Y-69753198D03*
X104990449Y-74753198D03*
D13*
X122400000Y-149200000D03*
D14*
X122400000Y-161900000D03*
D11*
X104000449Y-25708198D03*
D12*
X104000449Y-30708198D03*
X104000449Y-35708198D03*
D20*
X118360449Y-37663198D03*
X118360449Y-78303198D03*
X133600449Y-37663198D03*
X133600449Y-78303198D03*
D21*
X133600449Y-73223198D03*
X133600449Y-47823198D03*
X133600449Y-68143198D03*
X133600449Y-65603198D03*
X133600449Y-63063198D03*
X133600449Y-60523198D03*
X133600449Y-57983198D03*
X133600449Y-55443198D03*
X133600449Y-52903198D03*
X133600449Y-50363198D03*
X133600449Y-70683198D03*
X118360449Y-42743198D03*
X118360449Y-40203198D03*
X118360449Y-50363198D03*
X118360449Y-52903198D03*
X118360449Y-55443198D03*
X118360449Y-57983198D03*
X118360449Y-60523198D03*
X118360449Y-63063198D03*
X118360449Y-65603198D03*
X118360449Y-68143198D03*
X118360449Y-70683198D03*
X118360449Y-73223198D03*
X118360449Y-75763198D03*
X133600449Y-75763198D03*
D22*
X118360449Y-47823198D03*
X133600449Y-42743198D03*
D21*
X118360449Y-45283198D03*
X133600449Y-45283198D03*
X133600449Y-40203198D03*
D17*
X112840449Y-108263198D03*
X112840449Y-105723198D03*
X112840449Y-103183198D03*
X112840449Y-100643198D03*
X112840449Y-98103198D03*
X112840449Y-95563198D03*
X112840449Y-93023198D03*
X112840449Y-90483198D03*
X104840449Y-90483198D03*
X104840449Y-93023198D03*
X104840449Y-95563198D03*
X104840449Y-98103198D03*
X104840449Y-100643198D03*
X104840449Y-103183198D03*
X104840449Y-105723198D03*
X104840449Y-108263198D03*
D13*
X110600000Y-127100000D03*
D14*
X110600000Y-114400000D03*
D18*
X121070000Y-145840000D03*
D19*
X123610000Y-145840000D03*
X126150000Y-145840000D03*
X128690000Y-145840000D03*
X131230000Y-145840000D03*
X131230000Y-130600000D03*
X128690000Y-130600000D03*
X126150000Y-130600000D03*
X123610000Y-130600000D03*
X121070000Y-130600000D03*
D17*
X130440449Y-108263198D03*
X130440449Y-105723198D03*
X130440449Y-103183198D03*
X130440449Y-100643198D03*
X130440449Y-98103198D03*
X130440449Y-95563198D03*
X130440449Y-93023198D03*
X130440449Y-90483198D03*
X122440449Y-90483198D03*
X122440449Y-93023198D03*
X122440449Y-95563198D03*
X122440449Y-98103198D03*
X122440449Y-100643198D03*
X122440449Y-103183198D03*
X122440449Y-105723198D03*
X122440449Y-108263198D03*
D13*
X144000000Y-149200000D03*
D14*
X144000000Y-161900000D03*
D18*
X103290000Y-145840000D03*
D19*
X105830000Y-145840000D03*
X108370000Y-145840000D03*
X110910000Y-145840000D03*
X113450000Y-145840000D03*
X113450000Y-130600000D03*
X110910000Y-130600000D03*
X108370000Y-130600000D03*
X105830000Y-130600000D03*
X103290000Y-130600000D03*
D17*
X140100000Y-165200000D03*
X140100000Y-170200000D03*
X147600000Y-170200000D03*
X147600000Y-165200000D03*
X147840449Y-108263198D03*
X147840449Y-105723198D03*
X147840449Y-103183198D03*
X147840449Y-100643198D03*
X147840449Y-98103198D03*
X147840449Y-95563198D03*
X147840449Y-93023198D03*
X147840449Y-90483198D03*
X139840449Y-90483198D03*
X139840449Y-93023198D03*
X139840449Y-95563198D03*
X139840449Y-98103198D03*
X139840449Y-100643198D03*
X139840449Y-103183198D03*
X139840449Y-105723198D03*
X139840449Y-108263198D03*
D23*
X140602949Y-50693198D03*
D24*
X143142949Y-50693198D03*
X140602949Y-53233198D03*
X143142949Y-53233198D03*
X140602949Y-55773198D03*
X143142949Y-55773198D03*
X140602949Y-58313198D03*
X143142949Y-58313198D03*
X140602949Y-60853198D03*
X143142949Y-60853198D03*
X140602949Y-63393198D03*
X143142949Y-63393198D03*
D13*
X149400000Y-127150000D03*
D14*
X149400000Y-114450000D03*
%LPD*%
M02*
