G04 #@! TF.GenerationSoftware,KiCad,Pcbnew,7.0.10-7.0.10~ubuntu22.04.1*
G04 #@! TF.CreationDate,2024-02-26T11:42:44-05:00*
G04 #@! TF.ProjectId,CapController,43617043-6f6e-4747-926f-6c6c65722e6b,rev?*
G04 #@! TF.SameCoordinates,Original*
G04 #@! TF.FileFunction,Legend,Top*
G04 #@! TF.FilePolarity,Positive*
%FSLAX46Y46*%
G04 Gerber Fmt 4.6, Leading zero omitted, Abs format (unit mm)*
G04 Created by KiCad (PCBNEW 7.0.10-7.0.10~ubuntu22.04.1) date 2024-02-26 11:42:44*
%MOMM*%
%LPD*%
G01*
G04 APERTURE LIST*
G04 Aperture macros list*
%AMRoundRect*
0 Rectangle with rounded corners*
0 $1 Rounding radius*
0 $2 $3 $4 $5 $6 $7 $8 $9 X,Y pos of 4 corners*
0 Add a 4 corners polygon primitive as box body*
4,1,4,$2,$3,$4,$5,$6,$7,$8,$9,$2,$3,0*
0 Add four circle primitives for the rounded corners*
1,1,$1+$1,$2,$3*
1,1,$1+$1,$4,$5*
1,1,$1+$1,$6,$7*
1,1,$1+$1,$8,$9*
0 Add four rect primitives between the rounded corners*
20,1,$1+$1,$2,$3,$4,$5,0*
20,1,$1+$1,$4,$5,$6,$7,0*
20,1,$1+$1,$6,$7,$8,$9,0*
20,1,$1+$1,$8,$9,$2,$3,0*%
G04 Aperture macros list end*
%ADD10C,0.150000*%
%ADD11C,0.100000*%
%ADD12C,0.120000*%
%ADD13R,3.960000X1.980000*%
%ADD14O,3.960000X1.980000*%
%ADD15C,1.600000*%
%ADD16O,1.600000X1.600000*%
%ADD17R,1.980000X3.960000*%
%ADD18O,1.980000X3.960000*%
%ADD19C,1.524000*%
%ADD20R,1.524000X2.524000*%
%ADD21O,1.524000X2.524000*%
%ADD22C,1.800000*%
%ADD23C,1.727200*%
%ADD24R,1.727200X1.727200*%
%ADD25RoundRect,0.250000X-0.600000X-0.600000X0.600000X-0.600000X0.600000X0.600000X-0.600000X0.600000X0*%
%ADD26C,1.700000*%
G04 APERTURE END LIST*
D10*
X110565268Y-52348436D02*
X111565268Y-52110341D01*
X111565268Y-52110341D02*
X110850982Y-51919865D01*
X110850982Y-51919865D02*
X111565268Y-51729389D01*
X111565268Y-51729389D02*
X110565268Y-51491294D01*
X111565268Y-51110341D02*
X110565268Y-51110341D01*
X111565268Y-50681770D02*
X111041458Y-50681770D01*
X111041458Y-50681770D02*
X110946220Y-50729389D01*
X110946220Y-50729389D02*
X110898601Y-50824627D01*
X110898601Y-50824627D02*
X110898601Y-50967484D01*
X110898601Y-50967484D02*
X110946220Y-51062722D01*
X110946220Y-51062722D02*
X110993839Y-51110341D01*
X111517649Y-49824627D02*
X111565268Y-49919865D01*
X111565268Y-49919865D02*
X111565268Y-50110341D01*
X111565268Y-50110341D02*
X111517649Y-50205579D01*
X111517649Y-50205579D02*
X111422410Y-50253198D01*
X111422410Y-50253198D02*
X111041458Y-50253198D01*
X111041458Y-50253198D02*
X110946220Y-50205579D01*
X110946220Y-50205579D02*
X110898601Y-50110341D01*
X110898601Y-50110341D02*
X110898601Y-49919865D01*
X110898601Y-49919865D02*
X110946220Y-49824627D01*
X110946220Y-49824627D02*
X111041458Y-49777008D01*
X111041458Y-49777008D02*
X111136696Y-49777008D01*
X111136696Y-49777008D02*
X111231934Y-50253198D01*
X111517649Y-48967484D02*
X111565268Y-49062722D01*
X111565268Y-49062722D02*
X111565268Y-49253198D01*
X111565268Y-49253198D02*
X111517649Y-49348436D01*
X111517649Y-49348436D02*
X111422410Y-49396055D01*
X111422410Y-49396055D02*
X111041458Y-49396055D01*
X111041458Y-49396055D02*
X110946220Y-49348436D01*
X110946220Y-49348436D02*
X110898601Y-49253198D01*
X110898601Y-49253198D02*
X110898601Y-49062722D01*
X110898601Y-49062722D02*
X110946220Y-48967484D01*
X110946220Y-48967484D02*
X111041458Y-48919865D01*
X111041458Y-48919865D02*
X111136696Y-48919865D01*
X111136696Y-48919865D02*
X111231934Y-49396055D01*
X111565268Y-48348436D02*
X111517649Y-48443674D01*
X111517649Y-48443674D02*
X111422410Y-48491293D01*
X111422410Y-48491293D02*
X110565268Y-48491293D01*
X111660506Y-48205579D02*
X111660506Y-47443674D01*
X111565268Y-47205578D02*
X110565268Y-47205578D01*
X110565268Y-47205578D02*
X110565268Y-46824626D01*
X110565268Y-46824626D02*
X110612887Y-46729388D01*
X110612887Y-46729388D02*
X110660506Y-46681769D01*
X110660506Y-46681769D02*
X110755744Y-46634150D01*
X110755744Y-46634150D02*
X110898601Y-46634150D01*
X110898601Y-46634150D02*
X110993839Y-46681769D01*
X110993839Y-46681769D02*
X111041458Y-46729388D01*
X111041458Y-46729388D02*
X111089077Y-46824626D01*
X111089077Y-46824626D02*
X111089077Y-47205578D01*
X111565268Y-46062721D02*
X111517649Y-46157959D01*
X111517649Y-46157959D02*
X111470029Y-46205578D01*
X111470029Y-46205578D02*
X111374791Y-46253197D01*
X111374791Y-46253197D02*
X111089077Y-46253197D01*
X111089077Y-46253197D02*
X110993839Y-46205578D01*
X110993839Y-46205578D02*
X110946220Y-46157959D01*
X110946220Y-46157959D02*
X110898601Y-46062721D01*
X110898601Y-46062721D02*
X110898601Y-45919864D01*
X110898601Y-45919864D02*
X110946220Y-45824626D01*
X110946220Y-45824626D02*
X110993839Y-45777007D01*
X110993839Y-45777007D02*
X111089077Y-45729388D01*
X111089077Y-45729388D02*
X111374791Y-45729388D01*
X111374791Y-45729388D02*
X111470029Y-45777007D01*
X111470029Y-45777007D02*
X111517649Y-45824626D01*
X111517649Y-45824626D02*
X111565268Y-45919864D01*
X111565268Y-45919864D02*
X111565268Y-46062721D01*
X110898601Y-45443673D02*
X110898601Y-45062721D01*
X110565268Y-45300816D02*
X111422410Y-45300816D01*
X111422410Y-45300816D02*
X111517649Y-45253197D01*
X111517649Y-45253197D02*
X111565268Y-45157959D01*
X111565268Y-45157959D02*
X111565268Y-45062721D01*
X111565268Y-44205578D02*
X111565268Y-44777006D01*
X111565268Y-44491292D02*
X110565268Y-44491292D01*
X110565268Y-44491292D02*
X110708125Y-44586530D01*
X110708125Y-44586530D02*
X110803363Y-44681768D01*
X110803363Y-44681768D02*
X110850982Y-44777006D01*
X137036639Y-32718017D02*
X137036639Y-31718017D01*
X137036639Y-31718017D02*
X137417591Y-31718017D01*
X137417591Y-31718017D02*
X137512829Y-31765636D01*
X137512829Y-31765636D02*
X137560448Y-31813255D01*
X137560448Y-31813255D02*
X137608067Y-31908493D01*
X137608067Y-31908493D02*
X137608067Y-32051350D01*
X137608067Y-32051350D02*
X137560448Y-32146588D01*
X137560448Y-32146588D02*
X137512829Y-32194207D01*
X137512829Y-32194207D02*
X137417591Y-32241826D01*
X137417591Y-32241826D02*
X137036639Y-32241826D01*
X138179496Y-32718017D02*
X138084258Y-32670398D01*
X138084258Y-32670398D02*
X138036639Y-32622778D01*
X138036639Y-32622778D02*
X137989020Y-32527540D01*
X137989020Y-32527540D02*
X137989020Y-32241826D01*
X137989020Y-32241826D02*
X138036639Y-32146588D01*
X138036639Y-32146588D02*
X138084258Y-32098969D01*
X138084258Y-32098969D02*
X138179496Y-32051350D01*
X138179496Y-32051350D02*
X138322353Y-32051350D01*
X138322353Y-32051350D02*
X138417591Y-32098969D01*
X138417591Y-32098969D02*
X138465210Y-32146588D01*
X138465210Y-32146588D02*
X138512829Y-32241826D01*
X138512829Y-32241826D02*
X138512829Y-32527540D01*
X138512829Y-32527540D02*
X138465210Y-32622778D01*
X138465210Y-32622778D02*
X138417591Y-32670398D01*
X138417591Y-32670398D02*
X138322353Y-32718017D01*
X138322353Y-32718017D02*
X138179496Y-32718017D01*
X138846163Y-32051350D02*
X139036639Y-32718017D01*
X139036639Y-32718017D02*
X139227115Y-32241826D01*
X139227115Y-32241826D02*
X139417591Y-32718017D01*
X139417591Y-32718017D02*
X139608067Y-32051350D01*
X140369972Y-32670398D02*
X140274734Y-32718017D01*
X140274734Y-32718017D02*
X140084258Y-32718017D01*
X140084258Y-32718017D02*
X139989020Y-32670398D01*
X139989020Y-32670398D02*
X139941401Y-32575159D01*
X139941401Y-32575159D02*
X139941401Y-32194207D01*
X139941401Y-32194207D02*
X139989020Y-32098969D01*
X139989020Y-32098969D02*
X140084258Y-32051350D01*
X140084258Y-32051350D02*
X140274734Y-32051350D01*
X140274734Y-32051350D02*
X140369972Y-32098969D01*
X140369972Y-32098969D02*
X140417591Y-32194207D01*
X140417591Y-32194207D02*
X140417591Y-32289445D01*
X140417591Y-32289445D02*
X139941401Y-32384683D01*
X140846163Y-32718017D02*
X140846163Y-32051350D01*
X140846163Y-32241826D02*
X140893782Y-32146588D01*
X140893782Y-32146588D02*
X140941401Y-32098969D01*
X140941401Y-32098969D02*
X141036639Y-32051350D01*
X141036639Y-32051350D02*
X141131877Y-32051350D01*
X141227116Y-32813255D02*
X141989020Y-32813255D01*
X142084259Y-31718017D02*
X142655687Y-31718017D01*
X142369973Y-32718017D02*
X142369973Y-31718017D01*
X143369973Y-32670398D02*
X143274735Y-32718017D01*
X143274735Y-32718017D02*
X143084259Y-32718017D01*
X143084259Y-32718017D02*
X142989021Y-32670398D01*
X142989021Y-32670398D02*
X142941402Y-32575159D01*
X142941402Y-32575159D02*
X142941402Y-32194207D01*
X142941402Y-32194207D02*
X142989021Y-32098969D01*
X142989021Y-32098969D02*
X143084259Y-32051350D01*
X143084259Y-32051350D02*
X143274735Y-32051350D01*
X143274735Y-32051350D02*
X143369973Y-32098969D01*
X143369973Y-32098969D02*
X143417592Y-32194207D01*
X143417592Y-32194207D02*
X143417592Y-32289445D01*
X143417592Y-32289445D02*
X142941402Y-32384683D01*
X143846164Y-32718017D02*
X143846164Y-32051350D01*
X143846164Y-32241826D02*
X143893783Y-32146588D01*
X143893783Y-32146588D02*
X143941402Y-32098969D01*
X143941402Y-32098969D02*
X144036640Y-32051350D01*
X144036640Y-32051350D02*
X144131878Y-32051350D01*
X144465212Y-32718017D02*
X144465212Y-32051350D01*
X144465212Y-32146588D02*
X144512831Y-32098969D01*
X144512831Y-32098969D02*
X144608069Y-32051350D01*
X144608069Y-32051350D02*
X144750926Y-32051350D01*
X144750926Y-32051350D02*
X144846164Y-32098969D01*
X144846164Y-32098969D02*
X144893783Y-32194207D01*
X144893783Y-32194207D02*
X144893783Y-32718017D01*
X144893783Y-32194207D02*
X144941402Y-32098969D01*
X144941402Y-32098969D02*
X145036640Y-32051350D01*
X145036640Y-32051350D02*
X145179497Y-32051350D01*
X145179497Y-32051350D02*
X145274736Y-32098969D01*
X145274736Y-32098969D02*
X145322355Y-32194207D01*
X145322355Y-32194207D02*
X145322355Y-32718017D01*
X145798545Y-32718017D02*
X145798545Y-32051350D01*
X145798545Y-31718017D02*
X145750926Y-31765636D01*
X145750926Y-31765636D02*
X145798545Y-31813255D01*
X145798545Y-31813255D02*
X145846164Y-31765636D01*
X145846164Y-31765636D02*
X145798545Y-31718017D01*
X145798545Y-31718017D02*
X145798545Y-31813255D01*
X146274735Y-32051350D02*
X146274735Y-32718017D01*
X146274735Y-32146588D02*
X146322354Y-32098969D01*
X146322354Y-32098969D02*
X146417592Y-32051350D01*
X146417592Y-32051350D02*
X146560449Y-32051350D01*
X146560449Y-32051350D02*
X146655687Y-32098969D01*
X146655687Y-32098969D02*
X146703306Y-32194207D01*
X146703306Y-32194207D02*
X146703306Y-32718017D01*
X147608068Y-32718017D02*
X147608068Y-32194207D01*
X147608068Y-32194207D02*
X147560449Y-32098969D01*
X147560449Y-32098969D02*
X147465211Y-32051350D01*
X147465211Y-32051350D02*
X147274735Y-32051350D01*
X147274735Y-32051350D02*
X147179497Y-32098969D01*
X147608068Y-32670398D02*
X147512830Y-32718017D01*
X147512830Y-32718017D02*
X147274735Y-32718017D01*
X147274735Y-32718017D02*
X147179497Y-32670398D01*
X147179497Y-32670398D02*
X147131878Y-32575159D01*
X147131878Y-32575159D02*
X147131878Y-32479921D01*
X147131878Y-32479921D02*
X147179497Y-32384683D01*
X147179497Y-32384683D02*
X147274735Y-32337064D01*
X147274735Y-32337064D02*
X147512830Y-32337064D01*
X147512830Y-32337064D02*
X147608068Y-32289445D01*
X148227116Y-32718017D02*
X148131878Y-32670398D01*
X148131878Y-32670398D02*
X148084259Y-32575159D01*
X148084259Y-32575159D02*
X148084259Y-31718017D01*
X149131878Y-32718017D02*
X148560450Y-32718017D01*
X148846164Y-32718017D02*
X148846164Y-31718017D01*
X148846164Y-31718017D02*
X148750926Y-31860874D01*
X148750926Y-31860874D02*
X148655688Y-31956112D01*
X148655688Y-31956112D02*
X148560450Y-32003731D01*
D11*
X103030924Y-66862998D02*
X103173781Y-66910617D01*
X103173781Y-66910617D02*
X103411876Y-66910617D01*
X103411876Y-66910617D02*
X103507114Y-66862998D01*
X103507114Y-66862998D02*
X103554733Y-66815378D01*
X103554733Y-66815378D02*
X103602352Y-66720140D01*
X103602352Y-66720140D02*
X103602352Y-66624902D01*
X103602352Y-66624902D02*
X103554733Y-66529664D01*
X103554733Y-66529664D02*
X103507114Y-66482045D01*
X103507114Y-66482045D02*
X103411876Y-66434426D01*
X103411876Y-66434426D02*
X103221400Y-66386807D01*
X103221400Y-66386807D02*
X103126162Y-66339188D01*
X103126162Y-66339188D02*
X103078543Y-66291569D01*
X103078543Y-66291569D02*
X103030924Y-66196331D01*
X103030924Y-66196331D02*
X103030924Y-66101093D01*
X103030924Y-66101093D02*
X103078543Y-66005855D01*
X103078543Y-66005855D02*
X103126162Y-65958236D01*
X103126162Y-65958236D02*
X103221400Y-65910617D01*
X103221400Y-65910617D02*
X103459495Y-65910617D01*
X103459495Y-65910617D02*
X103602352Y-65958236D01*
X103935686Y-65910617D02*
X104173781Y-66910617D01*
X104173781Y-66910617D02*
X104364257Y-66196331D01*
X104364257Y-66196331D02*
X104554733Y-66910617D01*
X104554733Y-66910617D02*
X104792829Y-65910617D01*
X104935686Y-67005855D02*
X105697590Y-67005855D01*
X105888067Y-66862998D02*
X106030924Y-66910617D01*
X106030924Y-66910617D02*
X106269019Y-66910617D01*
X106269019Y-66910617D02*
X106364257Y-66862998D01*
X106364257Y-66862998D02*
X106411876Y-66815378D01*
X106411876Y-66815378D02*
X106459495Y-66720140D01*
X106459495Y-66720140D02*
X106459495Y-66624902D01*
X106459495Y-66624902D02*
X106411876Y-66529664D01*
X106411876Y-66529664D02*
X106364257Y-66482045D01*
X106364257Y-66482045D02*
X106269019Y-66434426D01*
X106269019Y-66434426D02*
X106078543Y-66386807D01*
X106078543Y-66386807D02*
X105983305Y-66339188D01*
X105983305Y-66339188D02*
X105935686Y-66291569D01*
X105935686Y-66291569D02*
X105888067Y-66196331D01*
X105888067Y-66196331D02*
X105888067Y-66101093D01*
X105888067Y-66101093D02*
X105935686Y-66005855D01*
X105935686Y-66005855D02*
X105983305Y-65958236D01*
X105983305Y-65958236D02*
X106078543Y-65910617D01*
X106078543Y-65910617D02*
X106316638Y-65910617D01*
X106316638Y-65910617D02*
X106459495Y-65958236D01*
X106745210Y-66243950D02*
X107126162Y-66243950D01*
X106888067Y-65910617D02*
X106888067Y-66767759D01*
X106888067Y-66767759D02*
X106935686Y-66862998D01*
X106935686Y-66862998D02*
X107030924Y-66910617D01*
X107030924Y-66910617D02*
X107126162Y-66910617D01*
X107602353Y-66910617D02*
X107507115Y-66862998D01*
X107507115Y-66862998D02*
X107459496Y-66815378D01*
X107459496Y-66815378D02*
X107411877Y-66720140D01*
X107411877Y-66720140D02*
X107411877Y-66434426D01*
X107411877Y-66434426D02*
X107459496Y-66339188D01*
X107459496Y-66339188D02*
X107507115Y-66291569D01*
X107507115Y-66291569D02*
X107602353Y-66243950D01*
X107602353Y-66243950D02*
X107745210Y-66243950D01*
X107745210Y-66243950D02*
X107840448Y-66291569D01*
X107840448Y-66291569D02*
X107888067Y-66339188D01*
X107888067Y-66339188D02*
X107935686Y-66434426D01*
X107935686Y-66434426D02*
X107935686Y-66720140D01*
X107935686Y-66720140D02*
X107888067Y-66815378D01*
X107888067Y-66815378D02*
X107840448Y-66862998D01*
X107840448Y-66862998D02*
X107745210Y-66910617D01*
X107745210Y-66910617D02*
X107602353Y-66910617D01*
X108364258Y-66243950D02*
X108364258Y-67243950D01*
X108364258Y-66291569D02*
X108459496Y-66243950D01*
X108459496Y-66243950D02*
X108649972Y-66243950D01*
X108649972Y-66243950D02*
X108745210Y-66291569D01*
X108745210Y-66291569D02*
X108792829Y-66339188D01*
X108792829Y-66339188D02*
X108840448Y-66434426D01*
X108840448Y-66434426D02*
X108840448Y-66720140D01*
X108840448Y-66720140D02*
X108792829Y-66815378D01*
X108792829Y-66815378D02*
X108745210Y-66862998D01*
X108745210Y-66862998D02*
X108649972Y-66910617D01*
X108649972Y-66910617D02*
X108459496Y-66910617D01*
X108459496Y-66910617D02*
X108364258Y-66862998D01*
X109030925Y-67005855D02*
X109792829Y-67005855D01*
X110602353Y-66910617D02*
X110269020Y-66434426D01*
X110030925Y-66910617D02*
X110030925Y-65910617D01*
X110030925Y-65910617D02*
X110411877Y-65910617D01*
X110411877Y-65910617D02*
X110507115Y-65958236D01*
X110507115Y-65958236D02*
X110554734Y-66005855D01*
X110554734Y-66005855D02*
X110602353Y-66101093D01*
X110602353Y-66101093D02*
X110602353Y-66243950D01*
X110602353Y-66243950D02*
X110554734Y-66339188D01*
X110554734Y-66339188D02*
X110507115Y-66386807D01*
X110507115Y-66386807D02*
X110411877Y-66434426D01*
X110411877Y-66434426D02*
X110030925Y-66434426D01*
X111411877Y-66862998D02*
X111316639Y-66910617D01*
X111316639Y-66910617D02*
X111126163Y-66910617D01*
X111126163Y-66910617D02*
X111030925Y-66862998D01*
X111030925Y-66862998D02*
X110983306Y-66767759D01*
X110983306Y-66767759D02*
X110983306Y-66386807D01*
X110983306Y-66386807D02*
X111030925Y-66291569D01*
X111030925Y-66291569D02*
X111126163Y-66243950D01*
X111126163Y-66243950D02*
X111316639Y-66243950D01*
X111316639Y-66243950D02*
X111411877Y-66291569D01*
X111411877Y-66291569D02*
X111459496Y-66386807D01*
X111459496Y-66386807D02*
X111459496Y-66482045D01*
X111459496Y-66482045D02*
X110983306Y-66577283D01*
X111840449Y-66862998D02*
X111935687Y-66910617D01*
X111935687Y-66910617D02*
X112126163Y-66910617D01*
X112126163Y-66910617D02*
X112221401Y-66862998D01*
X112221401Y-66862998D02*
X112269020Y-66767759D01*
X112269020Y-66767759D02*
X112269020Y-66720140D01*
X112269020Y-66720140D02*
X112221401Y-66624902D01*
X112221401Y-66624902D02*
X112126163Y-66577283D01*
X112126163Y-66577283D02*
X111983306Y-66577283D01*
X111983306Y-66577283D02*
X111888068Y-66529664D01*
X111888068Y-66529664D02*
X111840449Y-66434426D01*
X111840449Y-66434426D02*
X111840449Y-66386807D01*
X111840449Y-66386807D02*
X111888068Y-66291569D01*
X111888068Y-66291569D02*
X111983306Y-66243950D01*
X111983306Y-66243950D02*
X112126163Y-66243950D01*
X112126163Y-66243950D02*
X112221401Y-66291569D01*
X113078544Y-66862998D02*
X112983306Y-66910617D01*
X112983306Y-66910617D02*
X112792830Y-66910617D01*
X112792830Y-66910617D02*
X112697592Y-66862998D01*
X112697592Y-66862998D02*
X112649973Y-66767759D01*
X112649973Y-66767759D02*
X112649973Y-66386807D01*
X112649973Y-66386807D02*
X112697592Y-66291569D01*
X112697592Y-66291569D02*
X112792830Y-66243950D01*
X112792830Y-66243950D02*
X112983306Y-66243950D01*
X112983306Y-66243950D02*
X113078544Y-66291569D01*
X113078544Y-66291569D02*
X113126163Y-66386807D01*
X113126163Y-66386807D02*
X113126163Y-66482045D01*
X113126163Y-66482045D02*
X112649973Y-66577283D01*
X113411878Y-66243950D02*
X113792830Y-66243950D01*
X113554735Y-65910617D02*
X113554735Y-66767759D01*
X113554735Y-66767759D02*
X113602354Y-66862998D01*
X113602354Y-66862998D02*
X113697592Y-66910617D01*
X113697592Y-66910617D02*
X113792830Y-66910617D01*
X114649973Y-66910617D02*
X114078545Y-66910617D01*
X114364259Y-66910617D02*
X114364259Y-65910617D01*
X114364259Y-65910617D02*
X114269021Y-66053474D01*
X114269021Y-66053474D02*
X114173783Y-66148712D01*
X114173783Y-66148712D02*
X114078545Y-66196331D01*
X123123809Y-171859800D02*
X123266666Y-171907419D01*
X123266666Y-171907419D02*
X123504761Y-171907419D01*
X123504761Y-171907419D02*
X123599999Y-171859800D01*
X123599999Y-171859800D02*
X123647618Y-171812180D01*
X123647618Y-171812180D02*
X123695237Y-171716942D01*
X123695237Y-171716942D02*
X123695237Y-171621704D01*
X123695237Y-171621704D02*
X123647618Y-171526466D01*
X123647618Y-171526466D02*
X123599999Y-171478847D01*
X123599999Y-171478847D02*
X123504761Y-171431228D01*
X123504761Y-171431228D02*
X123314285Y-171383609D01*
X123314285Y-171383609D02*
X123219047Y-171335990D01*
X123219047Y-171335990D02*
X123171428Y-171288371D01*
X123171428Y-171288371D02*
X123123809Y-171193133D01*
X123123809Y-171193133D02*
X123123809Y-171097895D01*
X123123809Y-171097895D02*
X123171428Y-171002657D01*
X123171428Y-171002657D02*
X123219047Y-170955038D01*
X123219047Y-170955038D02*
X123314285Y-170907419D01*
X123314285Y-170907419D02*
X123552380Y-170907419D01*
X123552380Y-170907419D02*
X123695237Y-170955038D01*
X124028571Y-170907419D02*
X124266666Y-171907419D01*
X124266666Y-171907419D02*
X124457142Y-171193133D01*
X124457142Y-171193133D02*
X124647618Y-171907419D01*
X124647618Y-171907419D02*
X124885714Y-170907419D01*
X125028571Y-172002657D02*
X125790475Y-172002657D01*
X126599999Y-171812180D02*
X126552380Y-171859800D01*
X126552380Y-171859800D02*
X126409523Y-171907419D01*
X126409523Y-171907419D02*
X126314285Y-171907419D01*
X126314285Y-171907419D02*
X126171428Y-171859800D01*
X126171428Y-171859800D02*
X126076190Y-171764561D01*
X126076190Y-171764561D02*
X126028571Y-171669323D01*
X126028571Y-171669323D02*
X125980952Y-171478847D01*
X125980952Y-171478847D02*
X125980952Y-171335990D01*
X125980952Y-171335990D02*
X126028571Y-171145514D01*
X126028571Y-171145514D02*
X126076190Y-171050276D01*
X126076190Y-171050276D02*
X126171428Y-170955038D01*
X126171428Y-170955038D02*
X126314285Y-170907419D01*
X126314285Y-170907419D02*
X126409523Y-170907419D01*
X126409523Y-170907419D02*
X126552380Y-170955038D01*
X126552380Y-170955038D02*
X126599999Y-171002657D01*
X127457142Y-171907419D02*
X127457142Y-171383609D01*
X127457142Y-171383609D02*
X127409523Y-171288371D01*
X127409523Y-171288371D02*
X127314285Y-171240752D01*
X127314285Y-171240752D02*
X127123809Y-171240752D01*
X127123809Y-171240752D02*
X127028571Y-171288371D01*
X127457142Y-171859800D02*
X127361904Y-171907419D01*
X127361904Y-171907419D02*
X127123809Y-171907419D01*
X127123809Y-171907419D02*
X127028571Y-171859800D01*
X127028571Y-171859800D02*
X126980952Y-171764561D01*
X126980952Y-171764561D02*
X126980952Y-171669323D01*
X126980952Y-171669323D02*
X127028571Y-171574085D01*
X127028571Y-171574085D02*
X127123809Y-171526466D01*
X127123809Y-171526466D02*
X127361904Y-171526466D01*
X127361904Y-171526466D02*
X127457142Y-171478847D01*
X127933333Y-171907419D02*
X127933333Y-171240752D01*
X127933333Y-171431228D02*
X127980952Y-171335990D01*
X127980952Y-171335990D02*
X128028571Y-171288371D01*
X128028571Y-171288371D02*
X128123809Y-171240752D01*
X128123809Y-171240752D02*
X128219047Y-171240752D01*
X128504762Y-171002657D02*
X128552381Y-170955038D01*
X128552381Y-170955038D02*
X128647619Y-170907419D01*
X128647619Y-170907419D02*
X128885714Y-170907419D01*
X128885714Y-170907419D02*
X128980952Y-170955038D01*
X128980952Y-170955038D02*
X129028571Y-171002657D01*
X129028571Y-171002657D02*
X129076190Y-171097895D01*
X129076190Y-171097895D02*
X129076190Y-171193133D01*
X129076190Y-171193133D02*
X129028571Y-171335990D01*
X129028571Y-171335990D02*
X128457143Y-171907419D01*
X128457143Y-171907419D02*
X129076190Y-171907419D01*
X105373809Y-171859800D02*
X105516666Y-171907419D01*
X105516666Y-171907419D02*
X105754761Y-171907419D01*
X105754761Y-171907419D02*
X105849999Y-171859800D01*
X105849999Y-171859800D02*
X105897618Y-171812180D01*
X105897618Y-171812180D02*
X105945237Y-171716942D01*
X105945237Y-171716942D02*
X105945237Y-171621704D01*
X105945237Y-171621704D02*
X105897618Y-171526466D01*
X105897618Y-171526466D02*
X105849999Y-171478847D01*
X105849999Y-171478847D02*
X105754761Y-171431228D01*
X105754761Y-171431228D02*
X105564285Y-171383609D01*
X105564285Y-171383609D02*
X105469047Y-171335990D01*
X105469047Y-171335990D02*
X105421428Y-171288371D01*
X105421428Y-171288371D02*
X105373809Y-171193133D01*
X105373809Y-171193133D02*
X105373809Y-171097895D01*
X105373809Y-171097895D02*
X105421428Y-171002657D01*
X105421428Y-171002657D02*
X105469047Y-170955038D01*
X105469047Y-170955038D02*
X105564285Y-170907419D01*
X105564285Y-170907419D02*
X105802380Y-170907419D01*
X105802380Y-170907419D02*
X105945237Y-170955038D01*
X106278571Y-170907419D02*
X106516666Y-171907419D01*
X106516666Y-171907419D02*
X106707142Y-171193133D01*
X106707142Y-171193133D02*
X106897618Y-171907419D01*
X106897618Y-171907419D02*
X107135714Y-170907419D01*
X107278571Y-172002657D02*
X108040475Y-172002657D01*
X108849999Y-171812180D02*
X108802380Y-171859800D01*
X108802380Y-171859800D02*
X108659523Y-171907419D01*
X108659523Y-171907419D02*
X108564285Y-171907419D01*
X108564285Y-171907419D02*
X108421428Y-171859800D01*
X108421428Y-171859800D02*
X108326190Y-171764561D01*
X108326190Y-171764561D02*
X108278571Y-171669323D01*
X108278571Y-171669323D02*
X108230952Y-171478847D01*
X108230952Y-171478847D02*
X108230952Y-171335990D01*
X108230952Y-171335990D02*
X108278571Y-171145514D01*
X108278571Y-171145514D02*
X108326190Y-171050276D01*
X108326190Y-171050276D02*
X108421428Y-170955038D01*
X108421428Y-170955038D02*
X108564285Y-170907419D01*
X108564285Y-170907419D02*
X108659523Y-170907419D01*
X108659523Y-170907419D02*
X108802380Y-170955038D01*
X108802380Y-170955038D02*
X108849999Y-171002657D01*
X109707142Y-171907419D02*
X109707142Y-171383609D01*
X109707142Y-171383609D02*
X109659523Y-171288371D01*
X109659523Y-171288371D02*
X109564285Y-171240752D01*
X109564285Y-171240752D02*
X109373809Y-171240752D01*
X109373809Y-171240752D02*
X109278571Y-171288371D01*
X109707142Y-171859800D02*
X109611904Y-171907419D01*
X109611904Y-171907419D02*
X109373809Y-171907419D01*
X109373809Y-171907419D02*
X109278571Y-171859800D01*
X109278571Y-171859800D02*
X109230952Y-171764561D01*
X109230952Y-171764561D02*
X109230952Y-171669323D01*
X109230952Y-171669323D02*
X109278571Y-171574085D01*
X109278571Y-171574085D02*
X109373809Y-171526466D01*
X109373809Y-171526466D02*
X109611904Y-171526466D01*
X109611904Y-171526466D02*
X109707142Y-171478847D01*
X110183333Y-171907419D02*
X110183333Y-171240752D01*
X110183333Y-171431228D02*
X110230952Y-171335990D01*
X110230952Y-171335990D02*
X110278571Y-171288371D01*
X110278571Y-171288371D02*
X110373809Y-171240752D01*
X110373809Y-171240752D02*
X110469047Y-171240752D01*
X111326190Y-171907419D02*
X110754762Y-171907419D01*
X111040476Y-171907419D02*
X111040476Y-170907419D01*
X111040476Y-170907419D02*
X110945238Y-171050276D01*
X110945238Y-171050276D02*
X110850000Y-171145514D01*
X110850000Y-171145514D02*
X110754762Y-171193133D01*
D10*
X151064819Y-142802380D02*
X151064819Y-142135714D01*
X151064819Y-142135714D02*
X152064819Y-142564285D01*
X152160057Y-141992857D02*
X152160057Y-141230952D01*
X152017200Y-141040475D02*
X152064819Y-140897618D01*
X152064819Y-140897618D02*
X152064819Y-140659523D01*
X152064819Y-140659523D02*
X152017200Y-140564285D01*
X152017200Y-140564285D02*
X151969580Y-140516666D01*
X151969580Y-140516666D02*
X151874342Y-140469047D01*
X151874342Y-140469047D02*
X151779104Y-140469047D01*
X151779104Y-140469047D02*
X151683866Y-140516666D01*
X151683866Y-140516666D02*
X151636247Y-140564285D01*
X151636247Y-140564285D02*
X151588628Y-140659523D01*
X151588628Y-140659523D02*
X151541009Y-140849999D01*
X151541009Y-140849999D02*
X151493390Y-140945237D01*
X151493390Y-140945237D02*
X151445771Y-140992856D01*
X151445771Y-140992856D02*
X151350533Y-141040475D01*
X151350533Y-141040475D02*
X151255295Y-141040475D01*
X151255295Y-141040475D02*
X151160057Y-140992856D01*
X151160057Y-140992856D02*
X151112438Y-140945237D01*
X151112438Y-140945237D02*
X151064819Y-140849999D01*
X151064819Y-140849999D02*
X151064819Y-140611904D01*
X151064819Y-140611904D02*
X151112438Y-140469047D01*
X152017200Y-139659523D02*
X152064819Y-139754761D01*
X152064819Y-139754761D02*
X152064819Y-139945237D01*
X152064819Y-139945237D02*
X152017200Y-140040475D01*
X152017200Y-140040475D02*
X151921961Y-140088094D01*
X151921961Y-140088094D02*
X151541009Y-140088094D01*
X151541009Y-140088094D02*
X151445771Y-140040475D01*
X151445771Y-140040475D02*
X151398152Y-139945237D01*
X151398152Y-139945237D02*
X151398152Y-139754761D01*
X151398152Y-139754761D02*
X151445771Y-139659523D01*
X151445771Y-139659523D02*
X151541009Y-139611904D01*
X151541009Y-139611904D02*
X151636247Y-139611904D01*
X151636247Y-139611904D02*
X151731485Y-140088094D01*
X151398152Y-138754761D02*
X152207676Y-138754761D01*
X152207676Y-138754761D02*
X152302914Y-138802380D01*
X152302914Y-138802380D02*
X152350533Y-138849999D01*
X152350533Y-138849999D02*
X152398152Y-138945237D01*
X152398152Y-138945237D02*
X152398152Y-139088094D01*
X152398152Y-139088094D02*
X152350533Y-139183332D01*
X152017200Y-138754761D02*
X152064819Y-138849999D01*
X152064819Y-138849999D02*
X152064819Y-139040475D01*
X152064819Y-139040475D02*
X152017200Y-139135713D01*
X152017200Y-139135713D02*
X151969580Y-139183332D01*
X151969580Y-139183332D02*
X151874342Y-139230951D01*
X151874342Y-139230951D02*
X151588628Y-139230951D01*
X151588628Y-139230951D02*
X151493390Y-139183332D01*
X151493390Y-139183332D02*
X151445771Y-139135713D01*
X151445771Y-139135713D02*
X151398152Y-139040475D01*
X151398152Y-139040475D02*
X151398152Y-138849999D01*
X151398152Y-138849999D02*
X151445771Y-138754761D01*
X152160057Y-138516666D02*
X152160057Y-137754761D01*
X152064819Y-137516665D02*
X151064819Y-137516665D01*
X151064819Y-137516665D02*
X151064819Y-137278570D01*
X151064819Y-137278570D02*
X151112438Y-137135713D01*
X151112438Y-137135713D02*
X151207676Y-137040475D01*
X151207676Y-137040475D02*
X151302914Y-136992856D01*
X151302914Y-136992856D02*
X151493390Y-136945237D01*
X151493390Y-136945237D02*
X151636247Y-136945237D01*
X151636247Y-136945237D02*
X151826723Y-136992856D01*
X151826723Y-136992856D02*
X151921961Y-137040475D01*
X151921961Y-137040475D02*
X152017200Y-137135713D01*
X152017200Y-137135713D02*
X152064819Y-137278570D01*
X152064819Y-137278570D02*
X152064819Y-137516665D01*
X152064819Y-136516665D02*
X151398152Y-136516665D01*
X151064819Y-136516665D02*
X151112438Y-136564284D01*
X151112438Y-136564284D02*
X151160057Y-136516665D01*
X151160057Y-136516665D02*
X151112438Y-136469046D01*
X151112438Y-136469046D02*
X151064819Y-136516665D01*
X151064819Y-136516665D02*
X151160057Y-136516665D01*
X152017200Y-136088094D02*
X152064819Y-135992856D01*
X152064819Y-135992856D02*
X152064819Y-135802380D01*
X152064819Y-135802380D02*
X152017200Y-135707142D01*
X152017200Y-135707142D02*
X151921961Y-135659523D01*
X151921961Y-135659523D02*
X151874342Y-135659523D01*
X151874342Y-135659523D02*
X151779104Y-135707142D01*
X151779104Y-135707142D02*
X151731485Y-135802380D01*
X151731485Y-135802380D02*
X151731485Y-135945237D01*
X151731485Y-135945237D02*
X151683866Y-136040475D01*
X151683866Y-136040475D02*
X151588628Y-136088094D01*
X151588628Y-136088094D02*
X151541009Y-136088094D01*
X151541009Y-136088094D02*
X151445771Y-136040475D01*
X151445771Y-136040475D02*
X151398152Y-135945237D01*
X151398152Y-135945237D02*
X151398152Y-135802380D01*
X151398152Y-135802380D02*
X151445771Y-135707142D01*
X152160057Y-135469047D02*
X152160057Y-134707142D01*
X151064819Y-134564284D02*
X151064819Y-133945237D01*
X151064819Y-133945237D02*
X151445771Y-134278570D01*
X151445771Y-134278570D02*
X151445771Y-134135713D01*
X151445771Y-134135713D02*
X151493390Y-134040475D01*
X151493390Y-134040475D02*
X151541009Y-133992856D01*
X151541009Y-133992856D02*
X151636247Y-133945237D01*
X151636247Y-133945237D02*
X151874342Y-133945237D01*
X151874342Y-133945237D02*
X151969580Y-133992856D01*
X151969580Y-133992856D02*
X152017200Y-134040475D01*
X152017200Y-134040475D02*
X152064819Y-134135713D01*
X152064819Y-134135713D02*
X152064819Y-134421427D01*
X152064819Y-134421427D02*
X152017200Y-134516665D01*
X152017200Y-134516665D02*
X151969580Y-134564284D01*
D11*
X105316639Y-76862998D02*
X105459496Y-76910617D01*
X105459496Y-76910617D02*
X105697591Y-76910617D01*
X105697591Y-76910617D02*
X105792829Y-76862998D01*
X105792829Y-76862998D02*
X105840448Y-76815378D01*
X105840448Y-76815378D02*
X105888067Y-76720140D01*
X105888067Y-76720140D02*
X105888067Y-76624902D01*
X105888067Y-76624902D02*
X105840448Y-76529664D01*
X105840448Y-76529664D02*
X105792829Y-76482045D01*
X105792829Y-76482045D02*
X105697591Y-76434426D01*
X105697591Y-76434426D02*
X105507115Y-76386807D01*
X105507115Y-76386807D02*
X105411877Y-76339188D01*
X105411877Y-76339188D02*
X105364258Y-76291569D01*
X105364258Y-76291569D02*
X105316639Y-76196331D01*
X105316639Y-76196331D02*
X105316639Y-76101093D01*
X105316639Y-76101093D02*
X105364258Y-76005855D01*
X105364258Y-76005855D02*
X105411877Y-75958236D01*
X105411877Y-75958236D02*
X105507115Y-75910617D01*
X105507115Y-75910617D02*
X105745210Y-75910617D01*
X105745210Y-75910617D02*
X105888067Y-75958236D01*
X106221401Y-75910617D02*
X106459496Y-76910617D01*
X106459496Y-76910617D02*
X106649972Y-76196331D01*
X106649972Y-76196331D02*
X106840448Y-76910617D01*
X106840448Y-76910617D02*
X107078544Y-75910617D01*
X107221401Y-77005855D02*
X107983305Y-77005855D01*
X108173782Y-76862998D02*
X108316639Y-76910617D01*
X108316639Y-76910617D02*
X108554734Y-76910617D01*
X108554734Y-76910617D02*
X108649972Y-76862998D01*
X108649972Y-76862998D02*
X108697591Y-76815378D01*
X108697591Y-76815378D02*
X108745210Y-76720140D01*
X108745210Y-76720140D02*
X108745210Y-76624902D01*
X108745210Y-76624902D02*
X108697591Y-76529664D01*
X108697591Y-76529664D02*
X108649972Y-76482045D01*
X108649972Y-76482045D02*
X108554734Y-76434426D01*
X108554734Y-76434426D02*
X108364258Y-76386807D01*
X108364258Y-76386807D02*
X108269020Y-76339188D01*
X108269020Y-76339188D02*
X108221401Y-76291569D01*
X108221401Y-76291569D02*
X108173782Y-76196331D01*
X108173782Y-76196331D02*
X108173782Y-76101093D01*
X108173782Y-76101093D02*
X108221401Y-76005855D01*
X108221401Y-76005855D02*
X108269020Y-75958236D01*
X108269020Y-75958236D02*
X108364258Y-75910617D01*
X108364258Y-75910617D02*
X108602353Y-75910617D01*
X108602353Y-75910617D02*
X108745210Y-75958236D01*
X109030925Y-76243950D02*
X109411877Y-76243950D01*
X109173782Y-75910617D02*
X109173782Y-76767759D01*
X109173782Y-76767759D02*
X109221401Y-76862998D01*
X109221401Y-76862998D02*
X109316639Y-76910617D01*
X109316639Y-76910617D02*
X109411877Y-76910617D01*
X110173782Y-76910617D02*
X110173782Y-76386807D01*
X110173782Y-76386807D02*
X110126163Y-76291569D01*
X110126163Y-76291569D02*
X110030925Y-76243950D01*
X110030925Y-76243950D02*
X109840449Y-76243950D01*
X109840449Y-76243950D02*
X109745211Y-76291569D01*
X110173782Y-76862998D02*
X110078544Y-76910617D01*
X110078544Y-76910617D02*
X109840449Y-76910617D01*
X109840449Y-76910617D02*
X109745211Y-76862998D01*
X109745211Y-76862998D02*
X109697592Y-76767759D01*
X109697592Y-76767759D02*
X109697592Y-76672521D01*
X109697592Y-76672521D02*
X109745211Y-76577283D01*
X109745211Y-76577283D02*
X109840449Y-76529664D01*
X109840449Y-76529664D02*
X110078544Y-76529664D01*
X110078544Y-76529664D02*
X110173782Y-76482045D01*
X110649973Y-76910617D02*
X110649973Y-76243950D01*
X110649973Y-76434426D02*
X110697592Y-76339188D01*
X110697592Y-76339188D02*
X110745211Y-76291569D01*
X110745211Y-76291569D02*
X110840449Y-76243950D01*
X110840449Y-76243950D02*
X110935687Y-76243950D01*
X111126164Y-76243950D02*
X111507116Y-76243950D01*
X111269021Y-75910617D02*
X111269021Y-76767759D01*
X111269021Y-76767759D02*
X111316640Y-76862998D01*
X111316640Y-76862998D02*
X111411878Y-76910617D01*
X111411878Y-76910617D02*
X111507116Y-76910617D01*
X112364259Y-76910617D02*
X111792831Y-76910617D01*
X112078545Y-76910617D02*
X112078545Y-75910617D01*
X112078545Y-75910617D02*
X111983307Y-76053474D01*
X111983307Y-76053474D02*
X111888069Y-76148712D01*
X111888069Y-76148712D02*
X111792831Y-76196331D01*
D10*
X110555268Y-35279626D02*
X110555268Y-34708198D01*
X111555268Y-34993912D02*
X110555268Y-34993912D01*
X111555268Y-34374864D02*
X110888601Y-34374864D01*
X111079077Y-34374864D02*
X110983839Y-34327245D01*
X110983839Y-34327245D02*
X110936220Y-34279626D01*
X110936220Y-34279626D02*
X110888601Y-34184388D01*
X110888601Y-34184388D02*
X110888601Y-34089150D01*
X111555268Y-33755816D02*
X110888601Y-33755816D01*
X110555268Y-33755816D02*
X110602887Y-33803435D01*
X110602887Y-33803435D02*
X110650506Y-33755816D01*
X110650506Y-33755816D02*
X110602887Y-33708197D01*
X110602887Y-33708197D02*
X110555268Y-33755816D01*
X110555268Y-33755816D02*
X110650506Y-33755816D01*
X110888601Y-32851055D02*
X111698125Y-32851055D01*
X111698125Y-32851055D02*
X111793363Y-32898674D01*
X111793363Y-32898674D02*
X111840982Y-32946293D01*
X111840982Y-32946293D02*
X111888601Y-33041531D01*
X111888601Y-33041531D02*
X111888601Y-33184388D01*
X111888601Y-33184388D02*
X111840982Y-33279626D01*
X111507649Y-32851055D02*
X111555268Y-32946293D01*
X111555268Y-32946293D02*
X111555268Y-33136769D01*
X111555268Y-33136769D02*
X111507649Y-33232007D01*
X111507649Y-33232007D02*
X111460029Y-33279626D01*
X111460029Y-33279626D02*
X111364791Y-33327245D01*
X111364791Y-33327245D02*
X111079077Y-33327245D01*
X111079077Y-33327245D02*
X110983839Y-33279626D01*
X110983839Y-33279626D02*
X110936220Y-33232007D01*
X110936220Y-33232007D02*
X110888601Y-33136769D01*
X110888601Y-33136769D02*
X110888601Y-32946293D01*
X110888601Y-32946293D02*
X110936220Y-32851055D01*
X110888601Y-31946293D02*
X111698125Y-31946293D01*
X111698125Y-31946293D02*
X111793363Y-31993912D01*
X111793363Y-31993912D02*
X111840982Y-32041531D01*
X111840982Y-32041531D02*
X111888601Y-32136769D01*
X111888601Y-32136769D02*
X111888601Y-32279626D01*
X111888601Y-32279626D02*
X111840982Y-32374864D01*
X111507649Y-31946293D02*
X111555268Y-32041531D01*
X111555268Y-32041531D02*
X111555268Y-32232007D01*
X111555268Y-32232007D02*
X111507649Y-32327245D01*
X111507649Y-32327245D02*
X111460029Y-32374864D01*
X111460029Y-32374864D02*
X111364791Y-32422483D01*
X111364791Y-32422483D02*
X111079077Y-32422483D01*
X111079077Y-32422483D02*
X110983839Y-32374864D01*
X110983839Y-32374864D02*
X110936220Y-32327245D01*
X110936220Y-32327245D02*
X110888601Y-32232007D01*
X110888601Y-32232007D02*
X110888601Y-32041531D01*
X110888601Y-32041531D02*
X110936220Y-31946293D01*
X111507649Y-31089150D02*
X111555268Y-31184388D01*
X111555268Y-31184388D02*
X111555268Y-31374864D01*
X111555268Y-31374864D02*
X111507649Y-31470102D01*
X111507649Y-31470102D02*
X111412410Y-31517721D01*
X111412410Y-31517721D02*
X111031458Y-31517721D01*
X111031458Y-31517721D02*
X110936220Y-31470102D01*
X110936220Y-31470102D02*
X110888601Y-31374864D01*
X110888601Y-31374864D02*
X110888601Y-31184388D01*
X110888601Y-31184388D02*
X110936220Y-31089150D01*
X110936220Y-31089150D02*
X111031458Y-31041531D01*
X111031458Y-31041531D02*
X111126696Y-31041531D01*
X111126696Y-31041531D02*
X111221934Y-31517721D01*
X111555268Y-30612959D02*
X110888601Y-30612959D01*
X111079077Y-30612959D02*
X110983839Y-30565340D01*
X110983839Y-30565340D02*
X110936220Y-30517721D01*
X110936220Y-30517721D02*
X110888601Y-30422483D01*
X110888601Y-30422483D02*
X110888601Y-30327245D01*
X111650506Y-30232007D02*
X111650506Y-29470102D01*
X111555268Y-29232006D02*
X110555268Y-29232006D01*
X110555268Y-29232006D02*
X110555268Y-28851054D01*
X110555268Y-28851054D02*
X110602887Y-28755816D01*
X110602887Y-28755816D02*
X110650506Y-28708197D01*
X110650506Y-28708197D02*
X110745744Y-28660578D01*
X110745744Y-28660578D02*
X110888601Y-28660578D01*
X110888601Y-28660578D02*
X110983839Y-28708197D01*
X110983839Y-28708197D02*
X111031458Y-28755816D01*
X111031458Y-28755816D02*
X111079077Y-28851054D01*
X111079077Y-28851054D02*
X111079077Y-29232006D01*
X111555268Y-28089149D02*
X111507649Y-28184387D01*
X111507649Y-28184387D02*
X111460029Y-28232006D01*
X111460029Y-28232006D02*
X111364791Y-28279625D01*
X111364791Y-28279625D02*
X111079077Y-28279625D01*
X111079077Y-28279625D02*
X110983839Y-28232006D01*
X110983839Y-28232006D02*
X110936220Y-28184387D01*
X110936220Y-28184387D02*
X110888601Y-28089149D01*
X110888601Y-28089149D02*
X110888601Y-27946292D01*
X110888601Y-27946292D02*
X110936220Y-27851054D01*
X110936220Y-27851054D02*
X110983839Y-27803435D01*
X110983839Y-27803435D02*
X111079077Y-27755816D01*
X111079077Y-27755816D02*
X111364791Y-27755816D01*
X111364791Y-27755816D02*
X111460029Y-27803435D01*
X111460029Y-27803435D02*
X111507649Y-27851054D01*
X111507649Y-27851054D02*
X111555268Y-27946292D01*
X111555268Y-27946292D02*
X111555268Y-28089149D01*
X110888601Y-27470101D02*
X110888601Y-27089149D01*
X110555268Y-27327244D02*
X111412410Y-27327244D01*
X111412410Y-27327244D02*
X111507649Y-27279625D01*
X111507649Y-27279625D02*
X111555268Y-27184387D01*
X111555268Y-27184387D02*
X111555268Y-27089149D01*
X111555268Y-26232006D02*
X111555268Y-26803434D01*
X111555268Y-26517720D02*
X110555268Y-26517720D01*
X110555268Y-26517720D02*
X110698125Y-26612958D01*
X110698125Y-26612958D02*
X110793363Y-26708196D01*
X110793363Y-26708196D02*
X110840982Y-26803434D01*
X121075687Y-34748017D02*
X121075687Y-33748017D01*
X121075687Y-33748017D02*
X121647115Y-34748017D01*
X121647115Y-34748017D02*
X121647115Y-33748017D01*
X122551877Y-34748017D02*
X122551877Y-34224207D01*
X122551877Y-34224207D02*
X122504258Y-34128969D01*
X122504258Y-34128969D02*
X122409020Y-34081350D01*
X122409020Y-34081350D02*
X122218544Y-34081350D01*
X122218544Y-34081350D02*
X122123306Y-34128969D01*
X122551877Y-34700398D02*
X122456639Y-34748017D01*
X122456639Y-34748017D02*
X122218544Y-34748017D01*
X122218544Y-34748017D02*
X122123306Y-34700398D01*
X122123306Y-34700398D02*
X122075687Y-34605159D01*
X122075687Y-34605159D02*
X122075687Y-34509921D01*
X122075687Y-34509921D02*
X122123306Y-34414683D01*
X122123306Y-34414683D02*
X122218544Y-34367064D01*
X122218544Y-34367064D02*
X122456639Y-34367064D01*
X122456639Y-34367064D02*
X122551877Y-34319445D01*
X123028068Y-34081350D02*
X123028068Y-34748017D01*
X123028068Y-34176588D02*
X123075687Y-34128969D01*
X123075687Y-34128969D02*
X123170925Y-34081350D01*
X123170925Y-34081350D02*
X123313782Y-34081350D01*
X123313782Y-34081350D02*
X123409020Y-34128969D01*
X123409020Y-34128969D02*
X123456639Y-34224207D01*
X123456639Y-34224207D02*
X123456639Y-34748017D01*
X124075687Y-34748017D02*
X123980449Y-34700398D01*
X123980449Y-34700398D02*
X123932830Y-34652778D01*
X123932830Y-34652778D02*
X123885211Y-34557540D01*
X123885211Y-34557540D02*
X123885211Y-34271826D01*
X123885211Y-34271826D02*
X123932830Y-34176588D01*
X123932830Y-34176588D02*
X123980449Y-34128969D01*
X123980449Y-34128969D02*
X124075687Y-34081350D01*
X124075687Y-34081350D02*
X124218544Y-34081350D01*
X124218544Y-34081350D02*
X124313782Y-34128969D01*
X124313782Y-34128969D02*
X124361401Y-34176588D01*
X124361401Y-34176588D02*
X124409020Y-34271826D01*
X124409020Y-34271826D02*
X124409020Y-34557540D01*
X124409020Y-34557540D02*
X124361401Y-34652778D01*
X124361401Y-34652778D02*
X124313782Y-34700398D01*
X124313782Y-34700398D02*
X124218544Y-34748017D01*
X124218544Y-34748017D02*
X124075687Y-34748017D01*
X124599497Y-34843255D02*
X125361401Y-34843255D01*
X125504259Y-33748017D02*
X126123306Y-33748017D01*
X126123306Y-33748017D02*
X125789973Y-34128969D01*
X125789973Y-34128969D02*
X125932830Y-34128969D01*
X125932830Y-34128969D02*
X126028068Y-34176588D01*
X126028068Y-34176588D02*
X126075687Y-34224207D01*
X126075687Y-34224207D02*
X126123306Y-34319445D01*
X126123306Y-34319445D02*
X126123306Y-34557540D01*
X126123306Y-34557540D02*
X126075687Y-34652778D01*
X126075687Y-34652778D02*
X126028068Y-34700398D01*
X126028068Y-34700398D02*
X125932830Y-34748017D01*
X125932830Y-34748017D02*
X125647116Y-34748017D01*
X125647116Y-34748017D02*
X125551878Y-34700398D01*
X125551878Y-34700398D02*
X125504259Y-34652778D01*
X126456640Y-33748017D02*
X127075687Y-33748017D01*
X127075687Y-33748017D02*
X126742354Y-34128969D01*
X126742354Y-34128969D02*
X126885211Y-34128969D01*
X126885211Y-34128969D02*
X126980449Y-34176588D01*
X126980449Y-34176588D02*
X127028068Y-34224207D01*
X127028068Y-34224207D02*
X127075687Y-34319445D01*
X127075687Y-34319445D02*
X127075687Y-34557540D01*
X127075687Y-34557540D02*
X127028068Y-34652778D01*
X127028068Y-34652778D02*
X126980449Y-34700398D01*
X126980449Y-34700398D02*
X126885211Y-34748017D01*
X126885211Y-34748017D02*
X126599497Y-34748017D01*
X126599497Y-34748017D02*
X126504259Y-34700398D01*
X126504259Y-34700398D02*
X126456640Y-34652778D01*
X127266164Y-34843255D02*
X128028068Y-34843255D01*
X128266164Y-34748017D02*
X128266164Y-33748017D01*
X128885211Y-34748017D02*
X128789973Y-34700398D01*
X128789973Y-34700398D02*
X128742354Y-34652778D01*
X128742354Y-34652778D02*
X128694735Y-34557540D01*
X128694735Y-34557540D02*
X128694735Y-34271826D01*
X128694735Y-34271826D02*
X128742354Y-34176588D01*
X128742354Y-34176588D02*
X128789973Y-34128969D01*
X128789973Y-34128969D02*
X128885211Y-34081350D01*
X128885211Y-34081350D02*
X129028068Y-34081350D01*
X129028068Y-34081350D02*
X129123306Y-34128969D01*
X129123306Y-34128969D02*
X129170925Y-34176588D01*
X129170925Y-34176588D02*
X129218544Y-34271826D01*
X129218544Y-34271826D02*
X129218544Y-34557540D01*
X129218544Y-34557540D02*
X129170925Y-34652778D01*
X129170925Y-34652778D02*
X129123306Y-34700398D01*
X129123306Y-34700398D02*
X129028068Y-34748017D01*
X129028068Y-34748017D02*
X128885211Y-34748017D01*
X129504259Y-33748017D02*
X130075687Y-33748017D01*
X129789973Y-34748017D02*
X129789973Y-33748017D01*
X130932830Y-34748017D02*
X130361402Y-34748017D01*
X130647116Y-34748017D02*
X130647116Y-33748017D01*
X130647116Y-33748017D02*
X130551878Y-33890874D01*
X130551878Y-33890874D02*
X130456640Y-33986112D01*
X130456640Y-33986112D02*
X130361402Y-34033731D01*
X119810629Y-42005103D02*
X120810629Y-42005103D01*
X120810629Y-42005103D02*
X120810629Y-42243198D01*
X120810629Y-42243198D02*
X120763010Y-42386055D01*
X120763010Y-42386055D02*
X120667772Y-42481293D01*
X120667772Y-42481293D02*
X120572534Y-42528912D01*
X120572534Y-42528912D02*
X120382058Y-42576531D01*
X120382058Y-42576531D02*
X120239201Y-42576531D01*
X120239201Y-42576531D02*
X120048725Y-42528912D01*
X120048725Y-42528912D02*
X119953487Y-42481293D01*
X119953487Y-42481293D02*
X119858249Y-42386055D01*
X119858249Y-42386055D02*
X119810629Y-42243198D01*
X119810629Y-42243198D02*
X119810629Y-42005103D01*
X120810629Y-43195579D02*
X120810629Y-43290817D01*
X120810629Y-43290817D02*
X120763010Y-43386055D01*
X120763010Y-43386055D02*
X120715391Y-43433674D01*
X120715391Y-43433674D02*
X120620153Y-43481293D01*
X120620153Y-43481293D02*
X120429677Y-43528912D01*
X120429677Y-43528912D02*
X120191582Y-43528912D01*
X120191582Y-43528912D02*
X120001106Y-43481293D01*
X120001106Y-43481293D02*
X119905868Y-43433674D01*
X119905868Y-43433674D02*
X119858249Y-43386055D01*
X119858249Y-43386055D02*
X119810629Y-43290817D01*
X119810629Y-43290817D02*
X119810629Y-43195579D01*
X119810629Y-43195579D02*
X119858249Y-43100341D01*
X119858249Y-43100341D02*
X119905868Y-43052722D01*
X119905868Y-43052722D02*
X120001106Y-43005103D01*
X120001106Y-43005103D02*
X120191582Y-42957484D01*
X120191582Y-42957484D02*
X120429677Y-42957484D01*
X120429677Y-42957484D02*
X120620153Y-43005103D01*
X120620153Y-43005103D02*
X120715391Y-43052722D01*
X120715391Y-43052722D02*
X120763010Y-43100341D01*
X120763010Y-43100341D02*
X120810629Y-43195579D01*
D11*
X108750249Y-103769864D02*
X108797868Y-103627007D01*
X108797868Y-103627007D02*
X108797868Y-103388912D01*
X108797868Y-103388912D02*
X108750249Y-103293674D01*
X108750249Y-103293674D02*
X108702629Y-103246055D01*
X108702629Y-103246055D02*
X108607391Y-103198436D01*
X108607391Y-103198436D02*
X108512153Y-103198436D01*
X108512153Y-103198436D02*
X108416915Y-103246055D01*
X108416915Y-103246055D02*
X108369296Y-103293674D01*
X108369296Y-103293674D02*
X108321677Y-103388912D01*
X108321677Y-103388912D02*
X108274058Y-103579388D01*
X108274058Y-103579388D02*
X108226439Y-103674626D01*
X108226439Y-103674626D02*
X108178820Y-103722245D01*
X108178820Y-103722245D02*
X108083582Y-103769864D01*
X108083582Y-103769864D02*
X107988344Y-103769864D01*
X107988344Y-103769864D02*
X107893106Y-103722245D01*
X107893106Y-103722245D02*
X107845487Y-103674626D01*
X107845487Y-103674626D02*
X107797868Y-103579388D01*
X107797868Y-103579388D02*
X107797868Y-103341293D01*
X107797868Y-103341293D02*
X107845487Y-103198436D01*
X108797868Y-102769864D02*
X107797868Y-102769864D01*
X108797868Y-102341293D02*
X108274058Y-102341293D01*
X108274058Y-102341293D02*
X108178820Y-102388912D01*
X108178820Y-102388912D02*
X108131201Y-102484150D01*
X108131201Y-102484150D02*
X108131201Y-102627007D01*
X108131201Y-102627007D02*
X108178820Y-102722245D01*
X108178820Y-102722245D02*
X108226439Y-102769864D01*
X108797868Y-101865102D02*
X108131201Y-101865102D01*
X107797868Y-101865102D02*
X107845487Y-101912721D01*
X107845487Y-101912721D02*
X107893106Y-101865102D01*
X107893106Y-101865102D02*
X107845487Y-101817483D01*
X107845487Y-101817483D02*
X107797868Y-101865102D01*
X107797868Y-101865102D02*
X107893106Y-101865102D01*
X108131201Y-101531769D02*
X108131201Y-101150817D01*
X108797868Y-101388912D02*
X107940725Y-101388912D01*
X107940725Y-101388912D02*
X107845487Y-101341293D01*
X107845487Y-101341293D02*
X107797868Y-101246055D01*
X107797868Y-101246055D02*
X107797868Y-101150817D01*
X108131201Y-100960340D02*
X108131201Y-100579388D01*
X107797868Y-100817483D02*
X108655010Y-100817483D01*
X108655010Y-100817483D02*
X108750249Y-100769864D01*
X108750249Y-100769864D02*
X108797868Y-100674626D01*
X108797868Y-100674626D02*
X108797868Y-100579388D01*
X108893106Y-100484150D02*
X108893106Y-99722245D01*
X108797868Y-98912721D02*
X108321677Y-99246054D01*
X108797868Y-99484149D02*
X107797868Y-99484149D01*
X107797868Y-99484149D02*
X107797868Y-99103197D01*
X107797868Y-99103197D02*
X107845487Y-99007959D01*
X107845487Y-99007959D02*
X107893106Y-98960340D01*
X107893106Y-98960340D02*
X107988344Y-98912721D01*
X107988344Y-98912721D02*
X108131201Y-98912721D01*
X108131201Y-98912721D02*
X108226439Y-98960340D01*
X108226439Y-98960340D02*
X108274058Y-99007959D01*
X108274058Y-99007959D02*
X108321677Y-99103197D01*
X108321677Y-99103197D02*
X108321677Y-99484149D01*
X108750249Y-98103197D02*
X108797868Y-98198435D01*
X108797868Y-98198435D02*
X108797868Y-98388911D01*
X108797868Y-98388911D02*
X108750249Y-98484149D01*
X108750249Y-98484149D02*
X108655010Y-98531768D01*
X108655010Y-98531768D02*
X108274058Y-98531768D01*
X108274058Y-98531768D02*
X108178820Y-98484149D01*
X108178820Y-98484149D02*
X108131201Y-98388911D01*
X108131201Y-98388911D02*
X108131201Y-98198435D01*
X108131201Y-98198435D02*
X108178820Y-98103197D01*
X108178820Y-98103197D02*
X108274058Y-98055578D01*
X108274058Y-98055578D02*
X108369296Y-98055578D01*
X108369296Y-98055578D02*
X108464534Y-98531768D01*
X108131201Y-97198435D02*
X108940725Y-97198435D01*
X108940725Y-97198435D02*
X109035963Y-97246054D01*
X109035963Y-97246054D02*
X109083582Y-97293673D01*
X109083582Y-97293673D02*
X109131201Y-97388911D01*
X109131201Y-97388911D02*
X109131201Y-97531768D01*
X109131201Y-97531768D02*
X109083582Y-97627006D01*
X108750249Y-97198435D02*
X108797868Y-97293673D01*
X108797868Y-97293673D02*
X108797868Y-97484149D01*
X108797868Y-97484149D02*
X108750249Y-97579387D01*
X108750249Y-97579387D02*
X108702629Y-97627006D01*
X108702629Y-97627006D02*
X108607391Y-97674625D01*
X108607391Y-97674625D02*
X108321677Y-97674625D01*
X108321677Y-97674625D02*
X108226439Y-97627006D01*
X108226439Y-97627006D02*
X108178820Y-97579387D01*
X108178820Y-97579387D02*
X108131201Y-97484149D01*
X108131201Y-97484149D02*
X108131201Y-97293673D01*
X108131201Y-97293673D02*
X108178820Y-97198435D01*
X108893106Y-96960340D02*
X108893106Y-96198435D01*
X108797868Y-95436530D02*
X108797868Y-96007958D01*
X108797868Y-95722244D02*
X107797868Y-95722244D01*
X107797868Y-95722244D02*
X107940725Y-95817482D01*
X107940725Y-95817482D02*
X108035963Y-95912720D01*
X108035963Y-95912720D02*
X108083582Y-96007958D01*
D10*
X133064819Y-142682380D02*
X133064819Y-142015714D01*
X133064819Y-142015714D02*
X134064819Y-142444285D01*
X134160057Y-141872857D02*
X134160057Y-141110952D01*
X134017200Y-140920475D02*
X134064819Y-140777618D01*
X134064819Y-140777618D02*
X134064819Y-140539523D01*
X134064819Y-140539523D02*
X134017200Y-140444285D01*
X134017200Y-140444285D02*
X133969580Y-140396666D01*
X133969580Y-140396666D02*
X133874342Y-140349047D01*
X133874342Y-140349047D02*
X133779104Y-140349047D01*
X133779104Y-140349047D02*
X133683866Y-140396666D01*
X133683866Y-140396666D02*
X133636247Y-140444285D01*
X133636247Y-140444285D02*
X133588628Y-140539523D01*
X133588628Y-140539523D02*
X133541009Y-140729999D01*
X133541009Y-140729999D02*
X133493390Y-140825237D01*
X133493390Y-140825237D02*
X133445771Y-140872856D01*
X133445771Y-140872856D02*
X133350533Y-140920475D01*
X133350533Y-140920475D02*
X133255295Y-140920475D01*
X133255295Y-140920475D02*
X133160057Y-140872856D01*
X133160057Y-140872856D02*
X133112438Y-140825237D01*
X133112438Y-140825237D02*
X133064819Y-140729999D01*
X133064819Y-140729999D02*
X133064819Y-140491904D01*
X133064819Y-140491904D02*
X133112438Y-140349047D01*
X134017200Y-139539523D02*
X134064819Y-139634761D01*
X134064819Y-139634761D02*
X134064819Y-139825237D01*
X134064819Y-139825237D02*
X134017200Y-139920475D01*
X134017200Y-139920475D02*
X133921961Y-139968094D01*
X133921961Y-139968094D02*
X133541009Y-139968094D01*
X133541009Y-139968094D02*
X133445771Y-139920475D01*
X133445771Y-139920475D02*
X133398152Y-139825237D01*
X133398152Y-139825237D02*
X133398152Y-139634761D01*
X133398152Y-139634761D02*
X133445771Y-139539523D01*
X133445771Y-139539523D02*
X133541009Y-139491904D01*
X133541009Y-139491904D02*
X133636247Y-139491904D01*
X133636247Y-139491904D02*
X133731485Y-139968094D01*
X133398152Y-138634761D02*
X134207676Y-138634761D01*
X134207676Y-138634761D02*
X134302914Y-138682380D01*
X134302914Y-138682380D02*
X134350533Y-138729999D01*
X134350533Y-138729999D02*
X134398152Y-138825237D01*
X134398152Y-138825237D02*
X134398152Y-138968094D01*
X134398152Y-138968094D02*
X134350533Y-139063332D01*
X134017200Y-138634761D02*
X134064819Y-138729999D01*
X134064819Y-138729999D02*
X134064819Y-138920475D01*
X134064819Y-138920475D02*
X134017200Y-139015713D01*
X134017200Y-139015713D02*
X133969580Y-139063332D01*
X133969580Y-139063332D02*
X133874342Y-139110951D01*
X133874342Y-139110951D02*
X133588628Y-139110951D01*
X133588628Y-139110951D02*
X133493390Y-139063332D01*
X133493390Y-139063332D02*
X133445771Y-139015713D01*
X133445771Y-139015713D02*
X133398152Y-138920475D01*
X133398152Y-138920475D02*
X133398152Y-138729999D01*
X133398152Y-138729999D02*
X133445771Y-138634761D01*
X134160057Y-138396666D02*
X134160057Y-137634761D01*
X134064819Y-137396665D02*
X133064819Y-137396665D01*
X133064819Y-137396665D02*
X133064819Y-137158570D01*
X133064819Y-137158570D02*
X133112438Y-137015713D01*
X133112438Y-137015713D02*
X133207676Y-136920475D01*
X133207676Y-136920475D02*
X133302914Y-136872856D01*
X133302914Y-136872856D02*
X133493390Y-136825237D01*
X133493390Y-136825237D02*
X133636247Y-136825237D01*
X133636247Y-136825237D02*
X133826723Y-136872856D01*
X133826723Y-136872856D02*
X133921961Y-136920475D01*
X133921961Y-136920475D02*
X134017200Y-137015713D01*
X134017200Y-137015713D02*
X134064819Y-137158570D01*
X134064819Y-137158570D02*
X134064819Y-137396665D01*
X134064819Y-136396665D02*
X133398152Y-136396665D01*
X133064819Y-136396665D02*
X133112438Y-136444284D01*
X133112438Y-136444284D02*
X133160057Y-136396665D01*
X133160057Y-136396665D02*
X133112438Y-136349046D01*
X133112438Y-136349046D02*
X133064819Y-136396665D01*
X133064819Y-136396665D02*
X133160057Y-136396665D01*
X134017200Y-135968094D02*
X134064819Y-135872856D01*
X134064819Y-135872856D02*
X134064819Y-135682380D01*
X134064819Y-135682380D02*
X134017200Y-135587142D01*
X134017200Y-135587142D02*
X133921961Y-135539523D01*
X133921961Y-135539523D02*
X133874342Y-135539523D01*
X133874342Y-135539523D02*
X133779104Y-135587142D01*
X133779104Y-135587142D02*
X133731485Y-135682380D01*
X133731485Y-135682380D02*
X133731485Y-135825237D01*
X133731485Y-135825237D02*
X133683866Y-135920475D01*
X133683866Y-135920475D02*
X133588628Y-135968094D01*
X133588628Y-135968094D02*
X133541009Y-135968094D01*
X133541009Y-135968094D02*
X133445771Y-135920475D01*
X133445771Y-135920475D02*
X133398152Y-135825237D01*
X133398152Y-135825237D02*
X133398152Y-135682380D01*
X133398152Y-135682380D02*
X133445771Y-135587142D01*
X134160057Y-135349047D02*
X134160057Y-134587142D01*
X133160057Y-134396665D02*
X133112438Y-134349046D01*
X133112438Y-134349046D02*
X133064819Y-134253808D01*
X133064819Y-134253808D02*
X133064819Y-134015713D01*
X133064819Y-134015713D02*
X133112438Y-133920475D01*
X133112438Y-133920475D02*
X133160057Y-133872856D01*
X133160057Y-133872856D02*
X133255295Y-133825237D01*
X133255295Y-133825237D02*
X133350533Y-133825237D01*
X133350533Y-133825237D02*
X133493390Y-133872856D01*
X133493390Y-133872856D02*
X134064819Y-134444284D01*
X134064819Y-134444284D02*
X134064819Y-133825237D01*
D11*
X126350249Y-103769864D02*
X126397868Y-103627007D01*
X126397868Y-103627007D02*
X126397868Y-103388912D01*
X126397868Y-103388912D02*
X126350249Y-103293674D01*
X126350249Y-103293674D02*
X126302629Y-103246055D01*
X126302629Y-103246055D02*
X126207391Y-103198436D01*
X126207391Y-103198436D02*
X126112153Y-103198436D01*
X126112153Y-103198436D02*
X126016915Y-103246055D01*
X126016915Y-103246055D02*
X125969296Y-103293674D01*
X125969296Y-103293674D02*
X125921677Y-103388912D01*
X125921677Y-103388912D02*
X125874058Y-103579388D01*
X125874058Y-103579388D02*
X125826439Y-103674626D01*
X125826439Y-103674626D02*
X125778820Y-103722245D01*
X125778820Y-103722245D02*
X125683582Y-103769864D01*
X125683582Y-103769864D02*
X125588344Y-103769864D01*
X125588344Y-103769864D02*
X125493106Y-103722245D01*
X125493106Y-103722245D02*
X125445487Y-103674626D01*
X125445487Y-103674626D02*
X125397868Y-103579388D01*
X125397868Y-103579388D02*
X125397868Y-103341293D01*
X125397868Y-103341293D02*
X125445487Y-103198436D01*
X126397868Y-102769864D02*
X125397868Y-102769864D01*
X126397868Y-102341293D02*
X125874058Y-102341293D01*
X125874058Y-102341293D02*
X125778820Y-102388912D01*
X125778820Y-102388912D02*
X125731201Y-102484150D01*
X125731201Y-102484150D02*
X125731201Y-102627007D01*
X125731201Y-102627007D02*
X125778820Y-102722245D01*
X125778820Y-102722245D02*
X125826439Y-102769864D01*
X126397868Y-101865102D02*
X125731201Y-101865102D01*
X125397868Y-101865102D02*
X125445487Y-101912721D01*
X125445487Y-101912721D02*
X125493106Y-101865102D01*
X125493106Y-101865102D02*
X125445487Y-101817483D01*
X125445487Y-101817483D02*
X125397868Y-101865102D01*
X125397868Y-101865102D02*
X125493106Y-101865102D01*
X125731201Y-101531769D02*
X125731201Y-101150817D01*
X126397868Y-101388912D02*
X125540725Y-101388912D01*
X125540725Y-101388912D02*
X125445487Y-101341293D01*
X125445487Y-101341293D02*
X125397868Y-101246055D01*
X125397868Y-101246055D02*
X125397868Y-101150817D01*
X125731201Y-100960340D02*
X125731201Y-100579388D01*
X125397868Y-100817483D02*
X126255010Y-100817483D01*
X126255010Y-100817483D02*
X126350249Y-100769864D01*
X126350249Y-100769864D02*
X126397868Y-100674626D01*
X126397868Y-100674626D02*
X126397868Y-100579388D01*
X126493106Y-100484150D02*
X126493106Y-99722245D01*
X126397868Y-98912721D02*
X125921677Y-99246054D01*
X126397868Y-99484149D02*
X125397868Y-99484149D01*
X125397868Y-99484149D02*
X125397868Y-99103197D01*
X125397868Y-99103197D02*
X125445487Y-99007959D01*
X125445487Y-99007959D02*
X125493106Y-98960340D01*
X125493106Y-98960340D02*
X125588344Y-98912721D01*
X125588344Y-98912721D02*
X125731201Y-98912721D01*
X125731201Y-98912721D02*
X125826439Y-98960340D01*
X125826439Y-98960340D02*
X125874058Y-99007959D01*
X125874058Y-99007959D02*
X125921677Y-99103197D01*
X125921677Y-99103197D02*
X125921677Y-99484149D01*
X126350249Y-98103197D02*
X126397868Y-98198435D01*
X126397868Y-98198435D02*
X126397868Y-98388911D01*
X126397868Y-98388911D02*
X126350249Y-98484149D01*
X126350249Y-98484149D02*
X126255010Y-98531768D01*
X126255010Y-98531768D02*
X125874058Y-98531768D01*
X125874058Y-98531768D02*
X125778820Y-98484149D01*
X125778820Y-98484149D02*
X125731201Y-98388911D01*
X125731201Y-98388911D02*
X125731201Y-98198435D01*
X125731201Y-98198435D02*
X125778820Y-98103197D01*
X125778820Y-98103197D02*
X125874058Y-98055578D01*
X125874058Y-98055578D02*
X125969296Y-98055578D01*
X125969296Y-98055578D02*
X126064534Y-98531768D01*
X125731201Y-97198435D02*
X126540725Y-97198435D01*
X126540725Y-97198435D02*
X126635963Y-97246054D01*
X126635963Y-97246054D02*
X126683582Y-97293673D01*
X126683582Y-97293673D02*
X126731201Y-97388911D01*
X126731201Y-97388911D02*
X126731201Y-97531768D01*
X126731201Y-97531768D02*
X126683582Y-97627006D01*
X126350249Y-97198435D02*
X126397868Y-97293673D01*
X126397868Y-97293673D02*
X126397868Y-97484149D01*
X126397868Y-97484149D02*
X126350249Y-97579387D01*
X126350249Y-97579387D02*
X126302629Y-97627006D01*
X126302629Y-97627006D02*
X126207391Y-97674625D01*
X126207391Y-97674625D02*
X125921677Y-97674625D01*
X125921677Y-97674625D02*
X125826439Y-97627006D01*
X125826439Y-97627006D02*
X125778820Y-97579387D01*
X125778820Y-97579387D02*
X125731201Y-97484149D01*
X125731201Y-97484149D02*
X125731201Y-97293673D01*
X125731201Y-97293673D02*
X125778820Y-97198435D01*
X126493106Y-96960340D02*
X126493106Y-96198435D01*
X125493106Y-96007958D02*
X125445487Y-95960339D01*
X125445487Y-95960339D02*
X125397868Y-95865101D01*
X125397868Y-95865101D02*
X125397868Y-95627006D01*
X125397868Y-95627006D02*
X125445487Y-95531768D01*
X125445487Y-95531768D02*
X125493106Y-95484149D01*
X125493106Y-95484149D02*
X125588344Y-95436530D01*
X125588344Y-95436530D02*
X125683582Y-95436530D01*
X125683582Y-95436530D02*
X125826439Y-95484149D01*
X125826439Y-95484149D02*
X126397868Y-96055577D01*
X126397868Y-96055577D02*
X126397868Y-95436530D01*
D10*
X115264819Y-142672380D02*
X115264819Y-142005714D01*
X115264819Y-142005714D02*
X116264819Y-142434285D01*
X116360057Y-141862857D02*
X116360057Y-141100952D01*
X116217200Y-140910475D02*
X116264819Y-140767618D01*
X116264819Y-140767618D02*
X116264819Y-140529523D01*
X116264819Y-140529523D02*
X116217200Y-140434285D01*
X116217200Y-140434285D02*
X116169580Y-140386666D01*
X116169580Y-140386666D02*
X116074342Y-140339047D01*
X116074342Y-140339047D02*
X115979104Y-140339047D01*
X115979104Y-140339047D02*
X115883866Y-140386666D01*
X115883866Y-140386666D02*
X115836247Y-140434285D01*
X115836247Y-140434285D02*
X115788628Y-140529523D01*
X115788628Y-140529523D02*
X115741009Y-140719999D01*
X115741009Y-140719999D02*
X115693390Y-140815237D01*
X115693390Y-140815237D02*
X115645771Y-140862856D01*
X115645771Y-140862856D02*
X115550533Y-140910475D01*
X115550533Y-140910475D02*
X115455295Y-140910475D01*
X115455295Y-140910475D02*
X115360057Y-140862856D01*
X115360057Y-140862856D02*
X115312438Y-140815237D01*
X115312438Y-140815237D02*
X115264819Y-140719999D01*
X115264819Y-140719999D02*
X115264819Y-140481904D01*
X115264819Y-140481904D02*
X115312438Y-140339047D01*
X116217200Y-139529523D02*
X116264819Y-139624761D01*
X116264819Y-139624761D02*
X116264819Y-139815237D01*
X116264819Y-139815237D02*
X116217200Y-139910475D01*
X116217200Y-139910475D02*
X116121961Y-139958094D01*
X116121961Y-139958094D02*
X115741009Y-139958094D01*
X115741009Y-139958094D02*
X115645771Y-139910475D01*
X115645771Y-139910475D02*
X115598152Y-139815237D01*
X115598152Y-139815237D02*
X115598152Y-139624761D01*
X115598152Y-139624761D02*
X115645771Y-139529523D01*
X115645771Y-139529523D02*
X115741009Y-139481904D01*
X115741009Y-139481904D02*
X115836247Y-139481904D01*
X115836247Y-139481904D02*
X115931485Y-139958094D01*
X115598152Y-138624761D02*
X116407676Y-138624761D01*
X116407676Y-138624761D02*
X116502914Y-138672380D01*
X116502914Y-138672380D02*
X116550533Y-138719999D01*
X116550533Y-138719999D02*
X116598152Y-138815237D01*
X116598152Y-138815237D02*
X116598152Y-138958094D01*
X116598152Y-138958094D02*
X116550533Y-139053332D01*
X116217200Y-138624761D02*
X116264819Y-138719999D01*
X116264819Y-138719999D02*
X116264819Y-138910475D01*
X116264819Y-138910475D02*
X116217200Y-139005713D01*
X116217200Y-139005713D02*
X116169580Y-139053332D01*
X116169580Y-139053332D02*
X116074342Y-139100951D01*
X116074342Y-139100951D02*
X115788628Y-139100951D01*
X115788628Y-139100951D02*
X115693390Y-139053332D01*
X115693390Y-139053332D02*
X115645771Y-139005713D01*
X115645771Y-139005713D02*
X115598152Y-138910475D01*
X115598152Y-138910475D02*
X115598152Y-138719999D01*
X115598152Y-138719999D02*
X115645771Y-138624761D01*
X116360057Y-138386666D02*
X116360057Y-137624761D01*
X116264819Y-137386665D02*
X115264819Y-137386665D01*
X115264819Y-137386665D02*
X115264819Y-137148570D01*
X115264819Y-137148570D02*
X115312438Y-137005713D01*
X115312438Y-137005713D02*
X115407676Y-136910475D01*
X115407676Y-136910475D02*
X115502914Y-136862856D01*
X115502914Y-136862856D02*
X115693390Y-136815237D01*
X115693390Y-136815237D02*
X115836247Y-136815237D01*
X115836247Y-136815237D02*
X116026723Y-136862856D01*
X116026723Y-136862856D02*
X116121961Y-136910475D01*
X116121961Y-136910475D02*
X116217200Y-137005713D01*
X116217200Y-137005713D02*
X116264819Y-137148570D01*
X116264819Y-137148570D02*
X116264819Y-137386665D01*
X116264819Y-136386665D02*
X115598152Y-136386665D01*
X115264819Y-136386665D02*
X115312438Y-136434284D01*
X115312438Y-136434284D02*
X115360057Y-136386665D01*
X115360057Y-136386665D02*
X115312438Y-136339046D01*
X115312438Y-136339046D02*
X115264819Y-136386665D01*
X115264819Y-136386665D02*
X115360057Y-136386665D01*
X116217200Y-135958094D02*
X116264819Y-135862856D01*
X116264819Y-135862856D02*
X116264819Y-135672380D01*
X116264819Y-135672380D02*
X116217200Y-135577142D01*
X116217200Y-135577142D02*
X116121961Y-135529523D01*
X116121961Y-135529523D02*
X116074342Y-135529523D01*
X116074342Y-135529523D02*
X115979104Y-135577142D01*
X115979104Y-135577142D02*
X115931485Y-135672380D01*
X115931485Y-135672380D02*
X115931485Y-135815237D01*
X115931485Y-135815237D02*
X115883866Y-135910475D01*
X115883866Y-135910475D02*
X115788628Y-135958094D01*
X115788628Y-135958094D02*
X115741009Y-135958094D01*
X115741009Y-135958094D02*
X115645771Y-135910475D01*
X115645771Y-135910475D02*
X115598152Y-135815237D01*
X115598152Y-135815237D02*
X115598152Y-135672380D01*
X115598152Y-135672380D02*
X115645771Y-135577142D01*
X116360057Y-135339047D02*
X116360057Y-134577142D01*
X116264819Y-133815237D02*
X116264819Y-134386665D01*
X116264819Y-134100951D02*
X115264819Y-134100951D01*
X115264819Y-134100951D02*
X115407676Y-134196189D01*
X115407676Y-134196189D02*
X115502914Y-134291427D01*
X115502914Y-134291427D02*
X115550533Y-134386665D01*
D11*
X140873809Y-171859800D02*
X141016666Y-171907419D01*
X141016666Y-171907419D02*
X141254761Y-171907419D01*
X141254761Y-171907419D02*
X141349999Y-171859800D01*
X141349999Y-171859800D02*
X141397618Y-171812180D01*
X141397618Y-171812180D02*
X141445237Y-171716942D01*
X141445237Y-171716942D02*
X141445237Y-171621704D01*
X141445237Y-171621704D02*
X141397618Y-171526466D01*
X141397618Y-171526466D02*
X141349999Y-171478847D01*
X141349999Y-171478847D02*
X141254761Y-171431228D01*
X141254761Y-171431228D02*
X141064285Y-171383609D01*
X141064285Y-171383609D02*
X140969047Y-171335990D01*
X140969047Y-171335990D02*
X140921428Y-171288371D01*
X140921428Y-171288371D02*
X140873809Y-171193133D01*
X140873809Y-171193133D02*
X140873809Y-171097895D01*
X140873809Y-171097895D02*
X140921428Y-171002657D01*
X140921428Y-171002657D02*
X140969047Y-170955038D01*
X140969047Y-170955038D02*
X141064285Y-170907419D01*
X141064285Y-170907419D02*
X141302380Y-170907419D01*
X141302380Y-170907419D02*
X141445237Y-170955038D01*
X141778571Y-170907419D02*
X142016666Y-171907419D01*
X142016666Y-171907419D02*
X142207142Y-171193133D01*
X142207142Y-171193133D02*
X142397618Y-171907419D01*
X142397618Y-171907419D02*
X142635714Y-170907419D01*
X142778571Y-172002657D02*
X143540475Y-172002657D01*
X144349999Y-171812180D02*
X144302380Y-171859800D01*
X144302380Y-171859800D02*
X144159523Y-171907419D01*
X144159523Y-171907419D02*
X144064285Y-171907419D01*
X144064285Y-171907419D02*
X143921428Y-171859800D01*
X143921428Y-171859800D02*
X143826190Y-171764561D01*
X143826190Y-171764561D02*
X143778571Y-171669323D01*
X143778571Y-171669323D02*
X143730952Y-171478847D01*
X143730952Y-171478847D02*
X143730952Y-171335990D01*
X143730952Y-171335990D02*
X143778571Y-171145514D01*
X143778571Y-171145514D02*
X143826190Y-171050276D01*
X143826190Y-171050276D02*
X143921428Y-170955038D01*
X143921428Y-170955038D02*
X144064285Y-170907419D01*
X144064285Y-170907419D02*
X144159523Y-170907419D01*
X144159523Y-170907419D02*
X144302380Y-170955038D01*
X144302380Y-170955038D02*
X144349999Y-171002657D01*
X145207142Y-171907419D02*
X145207142Y-171383609D01*
X145207142Y-171383609D02*
X145159523Y-171288371D01*
X145159523Y-171288371D02*
X145064285Y-171240752D01*
X145064285Y-171240752D02*
X144873809Y-171240752D01*
X144873809Y-171240752D02*
X144778571Y-171288371D01*
X145207142Y-171859800D02*
X145111904Y-171907419D01*
X145111904Y-171907419D02*
X144873809Y-171907419D01*
X144873809Y-171907419D02*
X144778571Y-171859800D01*
X144778571Y-171859800D02*
X144730952Y-171764561D01*
X144730952Y-171764561D02*
X144730952Y-171669323D01*
X144730952Y-171669323D02*
X144778571Y-171574085D01*
X144778571Y-171574085D02*
X144873809Y-171526466D01*
X144873809Y-171526466D02*
X145111904Y-171526466D01*
X145111904Y-171526466D02*
X145207142Y-171478847D01*
X145683333Y-171907419D02*
X145683333Y-171240752D01*
X145683333Y-171431228D02*
X145730952Y-171335990D01*
X145730952Y-171335990D02*
X145778571Y-171288371D01*
X145778571Y-171288371D02*
X145873809Y-171240752D01*
X145873809Y-171240752D02*
X145969047Y-171240752D01*
X146207143Y-170907419D02*
X146826190Y-170907419D01*
X146826190Y-170907419D02*
X146492857Y-171288371D01*
X146492857Y-171288371D02*
X146635714Y-171288371D01*
X146635714Y-171288371D02*
X146730952Y-171335990D01*
X146730952Y-171335990D02*
X146778571Y-171383609D01*
X146778571Y-171383609D02*
X146826190Y-171478847D01*
X146826190Y-171478847D02*
X146826190Y-171716942D01*
X146826190Y-171716942D02*
X146778571Y-171812180D01*
X146778571Y-171812180D02*
X146730952Y-171859800D01*
X146730952Y-171859800D02*
X146635714Y-171907419D01*
X146635714Y-171907419D02*
X146350000Y-171907419D01*
X146350000Y-171907419D02*
X146254762Y-171859800D01*
X146254762Y-171859800D02*
X146207143Y-171812180D01*
X143750249Y-103769864D02*
X143797868Y-103627007D01*
X143797868Y-103627007D02*
X143797868Y-103388912D01*
X143797868Y-103388912D02*
X143750249Y-103293674D01*
X143750249Y-103293674D02*
X143702629Y-103246055D01*
X143702629Y-103246055D02*
X143607391Y-103198436D01*
X143607391Y-103198436D02*
X143512153Y-103198436D01*
X143512153Y-103198436D02*
X143416915Y-103246055D01*
X143416915Y-103246055D02*
X143369296Y-103293674D01*
X143369296Y-103293674D02*
X143321677Y-103388912D01*
X143321677Y-103388912D02*
X143274058Y-103579388D01*
X143274058Y-103579388D02*
X143226439Y-103674626D01*
X143226439Y-103674626D02*
X143178820Y-103722245D01*
X143178820Y-103722245D02*
X143083582Y-103769864D01*
X143083582Y-103769864D02*
X142988344Y-103769864D01*
X142988344Y-103769864D02*
X142893106Y-103722245D01*
X142893106Y-103722245D02*
X142845487Y-103674626D01*
X142845487Y-103674626D02*
X142797868Y-103579388D01*
X142797868Y-103579388D02*
X142797868Y-103341293D01*
X142797868Y-103341293D02*
X142845487Y-103198436D01*
X143797868Y-102769864D02*
X142797868Y-102769864D01*
X143797868Y-102341293D02*
X143274058Y-102341293D01*
X143274058Y-102341293D02*
X143178820Y-102388912D01*
X143178820Y-102388912D02*
X143131201Y-102484150D01*
X143131201Y-102484150D02*
X143131201Y-102627007D01*
X143131201Y-102627007D02*
X143178820Y-102722245D01*
X143178820Y-102722245D02*
X143226439Y-102769864D01*
X143797868Y-101865102D02*
X143131201Y-101865102D01*
X142797868Y-101865102D02*
X142845487Y-101912721D01*
X142845487Y-101912721D02*
X142893106Y-101865102D01*
X142893106Y-101865102D02*
X142845487Y-101817483D01*
X142845487Y-101817483D02*
X142797868Y-101865102D01*
X142797868Y-101865102D02*
X142893106Y-101865102D01*
X143131201Y-101531769D02*
X143131201Y-101150817D01*
X143797868Y-101388912D02*
X142940725Y-101388912D01*
X142940725Y-101388912D02*
X142845487Y-101341293D01*
X142845487Y-101341293D02*
X142797868Y-101246055D01*
X142797868Y-101246055D02*
X142797868Y-101150817D01*
X143131201Y-100960340D02*
X143131201Y-100579388D01*
X142797868Y-100817483D02*
X143655010Y-100817483D01*
X143655010Y-100817483D02*
X143750249Y-100769864D01*
X143750249Y-100769864D02*
X143797868Y-100674626D01*
X143797868Y-100674626D02*
X143797868Y-100579388D01*
X143893106Y-100484150D02*
X143893106Y-99722245D01*
X143797868Y-98912721D02*
X143321677Y-99246054D01*
X143797868Y-99484149D02*
X142797868Y-99484149D01*
X142797868Y-99484149D02*
X142797868Y-99103197D01*
X142797868Y-99103197D02*
X142845487Y-99007959D01*
X142845487Y-99007959D02*
X142893106Y-98960340D01*
X142893106Y-98960340D02*
X142988344Y-98912721D01*
X142988344Y-98912721D02*
X143131201Y-98912721D01*
X143131201Y-98912721D02*
X143226439Y-98960340D01*
X143226439Y-98960340D02*
X143274058Y-99007959D01*
X143274058Y-99007959D02*
X143321677Y-99103197D01*
X143321677Y-99103197D02*
X143321677Y-99484149D01*
X143750249Y-98103197D02*
X143797868Y-98198435D01*
X143797868Y-98198435D02*
X143797868Y-98388911D01*
X143797868Y-98388911D02*
X143750249Y-98484149D01*
X143750249Y-98484149D02*
X143655010Y-98531768D01*
X143655010Y-98531768D02*
X143274058Y-98531768D01*
X143274058Y-98531768D02*
X143178820Y-98484149D01*
X143178820Y-98484149D02*
X143131201Y-98388911D01*
X143131201Y-98388911D02*
X143131201Y-98198435D01*
X143131201Y-98198435D02*
X143178820Y-98103197D01*
X143178820Y-98103197D02*
X143274058Y-98055578D01*
X143274058Y-98055578D02*
X143369296Y-98055578D01*
X143369296Y-98055578D02*
X143464534Y-98531768D01*
X143131201Y-97198435D02*
X143940725Y-97198435D01*
X143940725Y-97198435D02*
X144035963Y-97246054D01*
X144035963Y-97246054D02*
X144083582Y-97293673D01*
X144083582Y-97293673D02*
X144131201Y-97388911D01*
X144131201Y-97388911D02*
X144131201Y-97531768D01*
X144131201Y-97531768D02*
X144083582Y-97627006D01*
X143750249Y-97198435D02*
X143797868Y-97293673D01*
X143797868Y-97293673D02*
X143797868Y-97484149D01*
X143797868Y-97484149D02*
X143750249Y-97579387D01*
X143750249Y-97579387D02*
X143702629Y-97627006D01*
X143702629Y-97627006D02*
X143607391Y-97674625D01*
X143607391Y-97674625D02*
X143321677Y-97674625D01*
X143321677Y-97674625D02*
X143226439Y-97627006D01*
X143226439Y-97627006D02*
X143178820Y-97579387D01*
X143178820Y-97579387D02*
X143131201Y-97484149D01*
X143131201Y-97484149D02*
X143131201Y-97293673D01*
X143131201Y-97293673D02*
X143178820Y-97198435D01*
X143893106Y-96960340D02*
X143893106Y-96198435D01*
X142797868Y-96055577D02*
X142797868Y-95436530D01*
X142797868Y-95436530D02*
X143178820Y-95769863D01*
X143178820Y-95769863D02*
X143178820Y-95627006D01*
X143178820Y-95627006D02*
X143226439Y-95531768D01*
X143226439Y-95531768D02*
X143274058Y-95484149D01*
X143274058Y-95484149D02*
X143369296Y-95436530D01*
X143369296Y-95436530D02*
X143607391Y-95436530D01*
X143607391Y-95436530D02*
X143702629Y-95484149D01*
X143702629Y-95484149D02*
X143750249Y-95531768D01*
X143750249Y-95531768D02*
X143797868Y-95627006D01*
X143797868Y-95627006D02*
X143797868Y-95912720D01*
X143797868Y-95912720D02*
X143750249Y-96007958D01*
X143750249Y-96007958D02*
X143702629Y-96055577D01*
D10*
X140341758Y-45048017D02*
X140341758Y-44048017D01*
X140341758Y-44048017D02*
X140722710Y-44048017D01*
X140722710Y-44048017D02*
X140817948Y-44095636D01*
X140817948Y-44095636D02*
X140865567Y-44143255D01*
X140865567Y-44143255D02*
X140913186Y-44238493D01*
X140913186Y-44238493D02*
X140913186Y-44381350D01*
X140913186Y-44381350D02*
X140865567Y-44476588D01*
X140865567Y-44476588D02*
X140817948Y-44524207D01*
X140817948Y-44524207D02*
X140722710Y-44571826D01*
X140722710Y-44571826D02*
X140341758Y-44571826D01*
X141341758Y-45048017D02*
X141341758Y-44048017D01*
X141341758Y-44048017D02*
X141675091Y-44762302D01*
X141675091Y-44762302D02*
X142008424Y-44048017D01*
X142008424Y-44048017D02*
X142008424Y-45048017D01*
X142675091Y-44048017D02*
X142865567Y-44048017D01*
X142865567Y-44048017D02*
X142960805Y-44095636D01*
X142960805Y-44095636D02*
X143056043Y-44190874D01*
X143056043Y-44190874D02*
X143103662Y-44381350D01*
X143103662Y-44381350D02*
X143103662Y-44714683D01*
X143103662Y-44714683D02*
X143056043Y-44905159D01*
X143056043Y-44905159D02*
X142960805Y-45000398D01*
X142960805Y-45000398D02*
X142865567Y-45048017D01*
X142865567Y-45048017D02*
X142675091Y-45048017D01*
X142675091Y-45048017D02*
X142579853Y-45000398D01*
X142579853Y-45000398D02*
X142484615Y-44905159D01*
X142484615Y-44905159D02*
X142436996Y-44714683D01*
X142436996Y-44714683D02*
X142436996Y-44381350D01*
X142436996Y-44381350D02*
X142484615Y-44190874D01*
X142484615Y-44190874D02*
X142579853Y-44095636D01*
X142579853Y-44095636D02*
X142675091Y-44048017D01*
X143532234Y-45048017D02*
X143532234Y-44048017D01*
X143532234Y-44048017D02*
X143770329Y-44048017D01*
X143770329Y-44048017D02*
X143913186Y-44095636D01*
X143913186Y-44095636D02*
X144008424Y-44190874D01*
X144008424Y-44190874D02*
X144056043Y-44286112D01*
X144056043Y-44286112D02*
X144103662Y-44476588D01*
X144103662Y-44476588D02*
X144103662Y-44619445D01*
X144103662Y-44619445D02*
X144056043Y-44809921D01*
X144056043Y-44809921D02*
X144008424Y-44905159D01*
X144008424Y-44905159D02*
X143913186Y-45000398D01*
X143913186Y-45000398D02*
X143770329Y-45048017D01*
X143770329Y-45048017D02*
X143532234Y-45048017D01*
X144294139Y-45143255D02*
X145056043Y-45143255D01*
X145865567Y-44952778D02*
X145817948Y-45000398D01*
X145817948Y-45000398D02*
X145675091Y-45048017D01*
X145675091Y-45048017D02*
X145579853Y-45048017D01*
X145579853Y-45048017D02*
X145436996Y-45000398D01*
X145436996Y-45000398D02*
X145341758Y-44905159D01*
X145341758Y-44905159D02*
X145294139Y-44809921D01*
X145294139Y-44809921D02*
X145246520Y-44619445D01*
X145246520Y-44619445D02*
X145246520Y-44476588D01*
X145246520Y-44476588D02*
X145294139Y-44286112D01*
X145294139Y-44286112D02*
X145341758Y-44190874D01*
X145341758Y-44190874D02*
X145436996Y-44095636D01*
X145436996Y-44095636D02*
X145579853Y-44048017D01*
X145579853Y-44048017D02*
X145675091Y-44048017D01*
X145675091Y-44048017D02*
X145817948Y-44095636D01*
X145817948Y-44095636D02*
X145865567Y-44143255D01*
X146436996Y-45048017D02*
X146341758Y-45000398D01*
X146341758Y-45000398D02*
X146294139Y-44952778D01*
X146294139Y-44952778D02*
X146246520Y-44857540D01*
X146246520Y-44857540D02*
X146246520Y-44571826D01*
X146246520Y-44571826D02*
X146294139Y-44476588D01*
X146294139Y-44476588D02*
X146341758Y-44428969D01*
X146341758Y-44428969D02*
X146436996Y-44381350D01*
X146436996Y-44381350D02*
X146579853Y-44381350D01*
X146579853Y-44381350D02*
X146675091Y-44428969D01*
X146675091Y-44428969D02*
X146722710Y-44476588D01*
X146722710Y-44476588D02*
X146770329Y-44571826D01*
X146770329Y-44571826D02*
X146770329Y-44857540D01*
X146770329Y-44857540D02*
X146722710Y-44952778D01*
X146722710Y-44952778D02*
X146675091Y-45000398D01*
X146675091Y-45000398D02*
X146579853Y-45048017D01*
X146579853Y-45048017D02*
X146436996Y-45048017D01*
X147198901Y-44381350D02*
X147198901Y-45048017D01*
X147198901Y-44476588D02*
X147246520Y-44428969D01*
X147246520Y-44428969D02*
X147341758Y-44381350D01*
X147341758Y-44381350D02*
X147484615Y-44381350D01*
X147484615Y-44381350D02*
X147579853Y-44428969D01*
X147579853Y-44428969D02*
X147627472Y-44524207D01*
X147627472Y-44524207D02*
X147627472Y-45048017D01*
X148103663Y-44381350D02*
X148103663Y-45048017D01*
X148103663Y-44476588D02*
X148151282Y-44428969D01*
X148151282Y-44428969D02*
X148246520Y-44381350D01*
X148246520Y-44381350D02*
X148389377Y-44381350D01*
X148389377Y-44381350D02*
X148484615Y-44428969D01*
X148484615Y-44428969D02*
X148532234Y-44524207D01*
X148532234Y-44524207D02*
X148532234Y-45048017D01*
X149389377Y-45000398D02*
X149294139Y-45048017D01*
X149294139Y-45048017D02*
X149103663Y-45048017D01*
X149103663Y-45048017D02*
X149008425Y-45000398D01*
X149008425Y-45000398D02*
X148960806Y-44905159D01*
X148960806Y-44905159D02*
X148960806Y-44524207D01*
X148960806Y-44524207D02*
X149008425Y-44428969D01*
X149008425Y-44428969D02*
X149103663Y-44381350D01*
X149103663Y-44381350D02*
X149294139Y-44381350D01*
X149294139Y-44381350D02*
X149389377Y-44428969D01*
X149389377Y-44428969D02*
X149436996Y-44524207D01*
X149436996Y-44524207D02*
X149436996Y-44619445D01*
X149436996Y-44619445D02*
X148960806Y-44714683D01*
X150294139Y-45000398D02*
X150198901Y-45048017D01*
X150198901Y-45048017D02*
X150008425Y-45048017D01*
X150008425Y-45048017D02*
X149913187Y-45000398D01*
X149913187Y-45000398D02*
X149865568Y-44952778D01*
X149865568Y-44952778D02*
X149817949Y-44857540D01*
X149817949Y-44857540D02*
X149817949Y-44571826D01*
X149817949Y-44571826D02*
X149865568Y-44476588D01*
X149865568Y-44476588D02*
X149913187Y-44428969D01*
X149913187Y-44428969D02*
X150008425Y-44381350D01*
X150008425Y-44381350D02*
X150198901Y-44381350D01*
X150198901Y-44381350D02*
X150294139Y-44428969D01*
X150579854Y-44381350D02*
X150960806Y-44381350D01*
X150722711Y-44048017D02*
X150722711Y-44905159D01*
X150722711Y-44905159D02*
X150770330Y-45000398D01*
X150770330Y-45000398D02*
X150865568Y-45048017D01*
X150865568Y-45048017D02*
X150960806Y-45048017D01*
X151436997Y-45048017D02*
X151341759Y-45000398D01*
X151341759Y-45000398D02*
X151294140Y-44952778D01*
X151294140Y-44952778D02*
X151246521Y-44857540D01*
X151246521Y-44857540D02*
X151246521Y-44571826D01*
X151246521Y-44571826D02*
X151294140Y-44476588D01*
X151294140Y-44476588D02*
X151341759Y-44428969D01*
X151341759Y-44428969D02*
X151436997Y-44381350D01*
X151436997Y-44381350D02*
X151579854Y-44381350D01*
X151579854Y-44381350D02*
X151675092Y-44428969D01*
X151675092Y-44428969D02*
X151722711Y-44476588D01*
X151722711Y-44476588D02*
X151770330Y-44571826D01*
X151770330Y-44571826D02*
X151770330Y-44857540D01*
X151770330Y-44857540D02*
X151722711Y-44952778D01*
X151722711Y-44952778D02*
X151675092Y-45000398D01*
X151675092Y-45000398D02*
X151579854Y-45048017D01*
X151579854Y-45048017D02*
X151436997Y-45048017D01*
X152198902Y-45048017D02*
X152198902Y-44381350D01*
X152198902Y-44571826D02*
X152246521Y-44476588D01*
X152246521Y-44476588D02*
X152294140Y-44428969D01*
X152294140Y-44428969D02*
X152389378Y-44381350D01*
X152389378Y-44381350D02*
X152484616Y-44381350D01*
X153341759Y-45048017D02*
X152770331Y-45048017D01*
X153056045Y-45048017D02*
X153056045Y-44048017D01*
X153056045Y-44048017D02*
X152960807Y-44190874D01*
X152960807Y-44190874D02*
X152865569Y-44286112D01*
X152865569Y-44286112D02*
X152770331Y-44333731D01*
D12*
X110310449Y-40603198D02*
X97710449Y-40603198D01*
X97710449Y-40603198D02*
X97710449Y-56003198D01*
X105510449Y-56003198D02*
X105260449Y-56503198D01*
X100110449Y-56003198D02*
X105510449Y-56003198D01*
X98660449Y-56003198D02*
X98360449Y-56503198D01*
X97710449Y-56003198D02*
X98660449Y-56003198D01*
X110310449Y-56503198D02*
X110310449Y-40603198D01*
X105260449Y-56503198D02*
X110310449Y-56503198D01*
X100360449Y-56503198D02*
X100110449Y-56003198D01*
X98360449Y-56503198D02*
X100360449Y-56503198D01*
X114400000Y-126060000D02*
X114400000Y-125370000D01*
X112680000Y-125370000D02*
X116120000Y-125370000D01*
X116120000Y-125370000D02*
X116120000Y-116130000D01*
X112680000Y-116130000D02*
X112680000Y-125370000D01*
X116120000Y-116130000D02*
X112680000Y-116130000D01*
X114400000Y-115440000D02*
X114400000Y-116130000D01*
X140200000Y-150240000D02*
X140200000Y-150930000D01*
X141920000Y-150930000D02*
X138480000Y-150930000D01*
X138480000Y-150930000D02*
X138480000Y-160170000D01*
X141920000Y-160170000D02*
X141920000Y-150930000D01*
X138480000Y-160170000D02*
X141920000Y-160170000D01*
X140200000Y-160860000D02*
X140200000Y-160170000D01*
X143790449Y-31573198D02*
X143790449Y-18973198D01*
X143790449Y-18973198D02*
X133440449Y-18973198D01*
X133440449Y-26773198D02*
X132940449Y-26473198D01*
X133440449Y-21373198D02*
X133440449Y-26773198D01*
X133440449Y-19923198D02*
X132940449Y-19673198D01*
X133440449Y-18973198D02*
X133440449Y-19923198D01*
X132940449Y-31573198D02*
X143790449Y-31573198D01*
X132940449Y-26473198D02*
X132940449Y-31573198D01*
X132940449Y-21623198D02*
X133440449Y-21373198D01*
X132940449Y-21573198D02*
X132940449Y-21623198D01*
X132940449Y-19673198D02*
X132940449Y-21573198D01*
D11*
X111240449Y-64883198D02*
X106240449Y-64883198D01*
X106240449Y-64883198D02*
X106240449Y-59883198D01*
X106240449Y-59883198D02*
X111240449Y-59883198D01*
X111240449Y-59883198D02*
X111240449Y-64883198D01*
D12*
X128200000Y-126110000D02*
X128200000Y-125420000D01*
X126480000Y-125420000D02*
X129920000Y-125420000D01*
X129920000Y-125420000D02*
X129920000Y-116180000D01*
X126480000Y-116180000D02*
X126480000Y-125420000D01*
X129920000Y-116180000D02*
X126480000Y-116180000D01*
X128200000Y-115490000D02*
X128200000Y-116180000D01*
X126200000Y-150240000D02*
X126200000Y-150930000D01*
X127920000Y-150930000D02*
X124480000Y-150930000D01*
X124480000Y-150930000D02*
X124480000Y-160170000D01*
X127920000Y-160170000D02*
X127920000Y-150930000D01*
X124480000Y-160170000D02*
X127920000Y-160170000D01*
X126200000Y-160860000D02*
X126200000Y-160170000D01*
X104400000Y-150240000D02*
X104400000Y-150930000D01*
X106120000Y-150930000D02*
X102680000Y-150930000D01*
X102680000Y-150930000D02*
X102680000Y-160170000D01*
X106120000Y-160170000D02*
X106120000Y-150930000D01*
X102680000Y-160170000D02*
X106120000Y-160170000D01*
X104400000Y-160860000D02*
X104400000Y-160170000D01*
X130000000Y-150240000D02*
X130000000Y-150930000D01*
X131720000Y-150930000D02*
X128280000Y-150930000D01*
X128280000Y-150930000D02*
X128280000Y-160170000D01*
X131720000Y-160170000D02*
X131720000Y-150930000D01*
X128280000Y-160170000D02*
X131720000Y-160170000D01*
X130000000Y-160860000D02*
X130000000Y-160170000D01*
D11*
X123610000Y-165200000D02*
X128610000Y-165200000D01*
X128610000Y-165200000D02*
X128610000Y-170200000D01*
X128610000Y-170200000D02*
X123610000Y-170200000D01*
X123610000Y-170200000D02*
X123610000Y-165200000D01*
D12*
X103000000Y-126060000D02*
X103000000Y-125370000D01*
X101280000Y-125370000D02*
X104720000Y-125370000D01*
X104720000Y-125370000D02*
X104720000Y-116130000D01*
X101280000Y-116130000D02*
X101280000Y-125370000D01*
X104720000Y-116130000D02*
X101280000Y-116130000D01*
X103000000Y-115440000D02*
X103000000Y-116130000D01*
X112000000Y-150240000D02*
X112000000Y-150930000D01*
X113720000Y-150930000D02*
X110280000Y-150930000D01*
X110280000Y-150930000D02*
X110280000Y-160170000D01*
X113720000Y-160170000D02*
X113720000Y-150930000D01*
X110280000Y-160170000D02*
X113720000Y-160170000D01*
X112000000Y-160860000D02*
X112000000Y-160170000D01*
X132000000Y-126110000D02*
X132000000Y-125420000D01*
X130280000Y-125420000D02*
X133720000Y-125420000D01*
X133720000Y-125420000D02*
X133720000Y-116180000D01*
X130280000Y-116180000D02*
X130280000Y-125420000D01*
X133720000Y-116180000D02*
X130280000Y-116180000D01*
X132000000Y-115490000D02*
X132000000Y-116180000D01*
D11*
X105790000Y-165200000D02*
X110790000Y-165200000D01*
X110790000Y-165200000D02*
X110790000Y-170200000D01*
X110790000Y-170200000D02*
X105790000Y-170200000D01*
X105790000Y-170200000D02*
X105790000Y-165200000D01*
D12*
X141800000Y-126110000D02*
X141800000Y-125420000D01*
X140080000Y-125420000D02*
X143520000Y-125420000D01*
X143520000Y-125420000D02*
X143520000Y-116180000D01*
X140080000Y-116180000D02*
X140080000Y-125420000D01*
X143520000Y-116180000D02*
X140080000Y-116180000D01*
X141800000Y-115490000D02*
X141800000Y-116180000D01*
X124400000Y-126110000D02*
X124400000Y-125420000D01*
X122680000Y-125420000D02*
X126120000Y-125420000D01*
X126120000Y-125420000D02*
X126120000Y-116180000D01*
X122680000Y-116180000D02*
X122680000Y-125420000D01*
X126120000Y-116180000D02*
X122680000Y-116180000D01*
X124400000Y-115490000D02*
X124400000Y-116180000D01*
X108200000Y-150240000D02*
X108200000Y-150930000D01*
X109920000Y-150930000D02*
X106480000Y-150930000D01*
X106480000Y-150930000D02*
X106480000Y-160170000D01*
X109920000Y-160170000D02*
X109920000Y-150930000D01*
X106480000Y-160170000D02*
X109920000Y-160170000D01*
X108200000Y-160860000D02*
X108200000Y-160170000D01*
X147800000Y-150240000D02*
X147800000Y-150930000D01*
X149520000Y-150930000D02*
X146080000Y-150930000D01*
X146080000Y-150930000D02*
X146080000Y-160170000D01*
X149520000Y-160170000D02*
X149520000Y-150930000D01*
X146080000Y-160170000D02*
X149520000Y-160170000D01*
X147800000Y-160860000D02*
X147800000Y-160170000D01*
X120600000Y-126110000D02*
X120600000Y-125420000D01*
X118880000Y-125420000D02*
X122320000Y-125420000D01*
X122320000Y-125420000D02*
X122320000Y-116180000D01*
X118880000Y-116180000D02*
X118880000Y-125420000D01*
X122320000Y-116180000D02*
X118880000Y-116180000D01*
X120600000Y-115490000D02*
X120600000Y-116180000D01*
X106800000Y-126060000D02*
X106800000Y-125370000D01*
X105080000Y-125370000D02*
X108520000Y-125370000D01*
X108520000Y-125370000D02*
X108520000Y-116130000D01*
X105080000Y-116130000D02*
X105080000Y-125370000D01*
X108520000Y-116130000D02*
X105080000Y-116130000D01*
X106800000Y-115440000D02*
X106800000Y-116130000D01*
X145600000Y-126110000D02*
X145600000Y-125420000D01*
X143880000Y-125420000D02*
X147320000Y-125420000D01*
X147320000Y-125420000D02*
X147320000Y-116180000D01*
X143880000Y-116180000D02*
X143880000Y-125420000D01*
X147320000Y-116180000D02*
X143880000Y-116180000D01*
X145600000Y-115490000D02*
X145600000Y-116180000D01*
X138780000Y-147855000D02*
X150380000Y-147855000D01*
X137670000Y-143935000D02*
X137670000Y-132505000D01*
X150490000Y-143935000D02*
X150490000Y-132505000D01*
X139080000Y-143220000D02*
X146080000Y-143220000D01*
X146080000Y-143220000D02*
X147080000Y-138220000D01*
X140080000Y-138220000D02*
X139080000Y-143220000D01*
X147080000Y-138220000D02*
X140080000Y-138220000D01*
X141080000Y-133220000D02*
X140080000Y-138220000D01*
X141080000Y-133220000D02*
X148080000Y-133220000D01*
X148080000Y-133220000D02*
X147080000Y-138220000D01*
X150380000Y-128585000D02*
X137780000Y-128585000D01*
X148527214Y-143220000D02*
G75*
G03*
X147632786Y-143220000I-447214J0D01*
G01*
X147632786Y-143220000D02*
G75*
G03*
X148527214Y-143220000I447214J0D01*
G01*
X138000000Y-126110000D02*
X138000000Y-125420000D01*
X136280000Y-125420000D02*
X139720000Y-125420000D01*
X139720000Y-125420000D02*
X139720000Y-116180000D01*
X136280000Y-116180000D02*
X136280000Y-125420000D01*
X139720000Y-116180000D02*
X136280000Y-116180000D01*
X138000000Y-115490000D02*
X138000000Y-116180000D01*
D11*
X111240449Y-74753198D02*
X106240449Y-74753198D01*
X106240449Y-74753198D02*
X106240449Y-69753198D01*
X106240449Y-69753198D02*
X111240449Y-69753198D01*
X111240449Y-69753198D02*
X111240449Y-74753198D01*
D12*
X122400000Y-150240000D02*
X122400000Y-150930000D01*
X124120000Y-150930000D02*
X120680000Y-150930000D01*
X120680000Y-150930000D02*
X120680000Y-160170000D01*
X124120000Y-160170000D02*
X124120000Y-150930000D01*
X120680000Y-160170000D02*
X124120000Y-160170000D01*
X122400000Y-160860000D02*
X122400000Y-160170000D01*
X110300449Y-23058198D02*
X97700449Y-23058198D01*
X97700449Y-23058198D02*
X97700449Y-38458198D01*
X105500449Y-38458198D02*
X105250449Y-38958198D01*
X100100449Y-38458198D02*
X105500449Y-38458198D01*
X98650449Y-38458198D02*
X98350449Y-38958198D01*
X97700449Y-38458198D02*
X98650449Y-38458198D01*
X110300449Y-38958198D02*
X110300449Y-23058198D01*
X105250449Y-38958198D02*
X110300449Y-38958198D01*
X100350449Y-38958198D02*
X100100449Y-38458198D01*
X98350449Y-38958198D02*
X100350449Y-38958198D01*
D10*
X117090449Y-35563198D02*
X117090449Y-79573198D01*
X117090449Y-35563198D02*
X134870449Y-35563198D01*
X117090449Y-79573198D02*
X134870449Y-79573198D01*
X134870449Y-35563198D02*
X134870449Y-79573198D01*
D11*
X106340449Y-109353198D02*
X111340449Y-109353198D01*
X111340449Y-109353198D02*
X111340449Y-89643198D01*
X111340449Y-89643198D02*
X106340449Y-89643198D01*
X106340449Y-89643198D02*
X106340449Y-109353198D01*
X109590449Y-109353198D02*
G75*
G03*
X108090449Y-109353198I-750000J0D01*
G01*
D12*
X110600000Y-126060000D02*
X110600000Y-125370000D01*
X108880000Y-125370000D02*
X112320000Y-125370000D01*
X112320000Y-125370000D02*
X112320000Y-116130000D01*
X108880000Y-116130000D02*
X108880000Y-125370000D01*
X112320000Y-116130000D02*
X108880000Y-116130000D01*
X110600000Y-115440000D02*
X110600000Y-116130000D01*
X120850000Y-147855000D02*
X132450000Y-147855000D01*
X119740000Y-143935000D02*
X119740000Y-132505000D01*
X132560000Y-143935000D02*
X132560000Y-132505000D01*
X121150000Y-143220000D02*
X128150000Y-143220000D01*
X128150000Y-143220000D02*
X129150000Y-138220000D01*
X122150000Y-138220000D02*
X121150000Y-143220000D01*
X129150000Y-138220000D02*
X122150000Y-138220000D01*
X123150000Y-133220000D02*
X122150000Y-138220000D01*
X123150000Y-133220000D02*
X130150000Y-133220000D01*
X130150000Y-133220000D02*
X129150000Y-138220000D01*
X132450000Y-128585000D02*
X119850000Y-128585000D01*
X130597214Y-143220000D02*
G75*
G03*
X129702786Y-143220000I-447214J0D01*
G01*
X129702786Y-143220000D02*
G75*
G03*
X130597214Y-143220000I447214J0D01*
G01*
D11*
X123940449Y-109353198D02*
X128940449Y-109353198D01*
X128940449Y-109353198D02*
X128940449Y-89643198D01*
X128940449Y-89643198D02*
X123940449Y-89643198D01*
X123940449Y-89643198D02*
X123940449Y-109353198D01*
X127190449Y-109353198D02*
G75*
G03*
X125690449Y-109353198I-750000J0D01*
G01*
D12*
X144000000Y-150240000D02*
X144000000Y-150930000D01*
X145720000Y-150930000D02*
X142280000Y-150930000D01*
X142280000Y-150930000D02*
X142280000Y-160170000D01*
X145720000Y-160170000D02*
X145720000Y-150930000D01*
X142280000Y-160170000D02*
X145720000Y-160170000D01*
X144000000Y-160860000D02*
X144000000Y-160170000D01*
X103070000Y-147855000D02*
X114670000Y-147855000D01*
X101960000Y-143935000D02*
X101960000Y-132505000D01*
X114780000Y-143935000D02*
X114780000Y-132505000D01*
X103370000Y-143220000D02*
X110370000Y-143220000D01*
X110370000Y-143220000D02*
X111370000Y-138220000D01*
X104370000Y-138220000D02*
X103370000Y-143220000D01*
X111370000Y-138220000D02*
X104370000Y-138220000D01*
X105370000Y-133220000D02*
X104370000Y-138220000D01*
X105370000Y-133220000D02*
X112370000Y-133220000D01*
X112370000Y-133220000D02*
X111370000Y-138220000D01*
X114670000Y-128585000D02*
X102070000Y-128585000D01*
X112817214Y-143220000D02*
G75*
G03*
X111922786Y-143220000I-447214J0D01*
G01*
X111922786Y-143220000D02*
G75*
G03*
X112817214Y-143220000I447214J0D01*
G01*
D11*
X141350000Y-165200000D02*
X146350000Y-165200000D01*
X146350000Y-165200000D02*
X146350000Y-170200000D01*
X146350000Y-170200000D02*
X141350000Y-170200000D01*
X141350000Y-170200000D02*
X141350000Y-165200000D01*
X141340449Y-109353198D02*
X146340449Y-109353198D01*
X146340449Y-109353198D02*
X146340449Y-89643198D01*
X146340449Y-89643198D02*
X141340449Y-89643198D01*
X141340449Y-89643198D02*
X141340449Y-109353198D01*
X144590449Y-109353198D02*
G75*
G03*
X143090449Y-109353198I-750000J0D01*
G01*
D12*
X138252949Y-50193198D02*
X138252949Y-51193198D01*
X138252949Y-51193198D02*
X139252949Y-50693198D01*
X139252949Y-50693198D02*
X138252949Y-50193198D01*
X144872949Y-45483198D02*
X153992949Y-45483198D01*
X144872949Y-54993198D02*
X153992949Y-54993198D01*
X144872949Y-59093198D02*
X153992949Y-59093198D01*
X144872949Y-68603198D02*
X144872949Y-45483198D01*
X153992949Y-45483198D02*
X153992949Y-68603198D01*
X153992949Y-68603198D02*
X144872949Y-68603198D01*
X149400000Y-126110000D02*
X149400000Y-125420000D01*
X147680000Y-125420000D02*
X151120000Y-125420000D01*
X151120000Y-125420000D02*
X151120000Y-116180000D01*
X147680000Y-116180000D02*
X147680000Y-125420000D01*
X151120000Y-116180000D02*
X147680000Y-116180000D01*
X149400000Y-115490000D02*
X149400000Y-116180000D01*
%LPC*%
D13*
X104010449Y-43253198D03*
D14*
X104010449Y-48253198D03*
X104010449Y-53253198D03*
D15*
X114400000Y-127100000D03*
D16*
X114400000Y-114400000D03*
D15*
X140200000Y-149200000D03*
D16*
X140200000Y-161900000D03*
D17*
X141140449Y-25273198D03*
D18*
X136140449Y-25273198D03*
D19*
X112490449Y-64883198D03*
X112490449Y-59883198D03*
X104990449Y-59883198D03*
X104990449Y-64883198D03*
D15*
X128200000Y-127150000D03*
D16*
X128200000Y-114450000D03*
D15*
X126200000Y-149200000D03*
D16*
X126200000Y-161900000D03*
D15*
X104400000Y-149200000D03*
D16*
X104400000Y-161900000D03*
D15*
X130000000Y-149200000D03*
D16*
X130000000Y-161900000D03*
D19*
X122360000Y-165200000D03*
X122360000Y-170200000D03*
X129860000Y-170200000D03*
X129860000Y-165200000D03*
D15*
X103000000Y-127100000D03*
D16*
X103000000Y-114400000D03*
D15*
X112000000Y-149200000D03*
D16*
X112000000Y-161900000D03*
D15*
X132000000Y-127150000D03*
D16*
X132000000Y-114450000D03*
D19*
X104540000Y-165200000D03*
X104540000Y-170200000D03*
X112040000Y-170200000D03*
X112040000Y-165200000D03*
D15*
X141800000Y-127150000D03*
D16*
X141800000Y-114450000D03*
D15*
X124400000Y-127150000D03*
D16*
X124400000Y-114450000D03*
D15*
X108200000Y-149200000D03*
D16*
X108200000Y-161900000D03*
D15*
X147800000Y-149200000D03*
D16*
X147800000Y-161900000D03*
D15*
X120600000Y-127150000D03*
D16*
X120600000Y-114450000D03*
D15*
X106800000Y-127100000D03*
D16*
X106800000Y-114400000D03*
D15*
X145600000Y-127150000D03*
D16*
X145600000Y-114450000D03*
D20*
X139000000Y-145840000D03*
D21*
X141540000Y-145840000D03*
X144080000Y-145840000D03*
X146620000Y-145840000D03*
X149160000Y-145840000D03*
X149160000Y-130600000D03*
X146620000Y-130600000D03*
X144080000Y-130600000D03*
X141540000Y-130600000D03*
X139000000Y-130600000D03*
D15*
X138000000Y-127150000D03*
D16*
X138000000Y-114450000D03*
D19*
X112490449Y-74753198D03*
X112490449Y-69753198D03*
X104990449Y-69753198D03*
X104990449Y-74753198D03*
D15*
X122400000Y-149200000D03*
D16*
X122400000Y-161900000D03*
D13*
X104000449Y-25708198D03*
D14*
X104000449Y-30708198D03*
X104000449Y-35708198D03*
D22*
X118360449Y-37663198D03*
X118360449Y-78303198D03*
X133600449Y-37663198D03*
X133600449Y-78303198D03*
D23*
X133600449Y-73223198D03*
X133600449Y-47823198D03*
X133600449Y-68143198D03*
X133600449Y-65603198D03*
X133600449Y-63063198D03*
X133600449Y-60523198D03*
X133600449Y-57983198D03*
X133600449Y-55443198D03*
X133600449Y-52903198D03*
X133600449Y-50363198D03*
X133600449Y-70683198D03*
X118360449Y-42743198D03*
X118360449Y-40203198D03*
X118360449Y-50363198D03*
X118360449Y-52903198D03*
X118360449Y-55443198D03*
X118360449Y-57983198D03*
X118360449Y-60523198D03*
X118360449Y-63063198D03*
X118360449Y-65603198D03*
X118360449Y-68143198D03*
X118360449Y-70683198D03*
X118360449Y-73223198D03*
X118360449Y-75763198D03*
X133600449Y-75763198D03*
D24*
X118360449Y-47823198D03*
X133600449Y-42743198D03*
D23*
X118360449Y-45283198D03*
X133600449Y-45283198D03*
X133600449Y-40203198D03*
D19*
X112840449Y-108263198D03*
X112840449Y-105723198D03*
X112840449Y-103183198D03*
X112840449Y-100643198D03*
X112840449Y-98103198D03*
X112840449Y-95563198D03*
X112840449Y-93023198D03*
X112840449Y-90483198D03*
X104840449Y-90483198D03*
X104840449Y-93023198D03*
X104840449Y-95563198D03*
X104840449Y-98103198D03*
X104840449Y-100643198D03*
X104840449Y-103183198D03*
X104840449Y-105723198D03*
X104840449Y-108263198D03*
D15*
X110600000Y-127100000D03*
D16*
X110600000Y-114400000D03*
D20*
X121070000Y-145840000D03*
D21*
X123610000Y-145840000D03*
X126150000Y-145840000D03*
X128690000Y-145840000D03*
X131230000Y-145840000D03*
X131230000Y-130600000D03*
X128690000Y-130600000D03*
X126150000Y-130600000D03*
X123610000Y-130600000D03*
X121070000Y-130600000D03*
D19*
X130440449Y-108263198D03*
X130440449Y-105723198D03*
X130440449Y-103183198D03*
X130440449Y-100643198D03*
X130440449Y-98103198D03*
X130440449Y-95563198D03*
X130440449Y-93023198D03*
X130440449Y-90483198D03*
X122440449Y-90483198D03*
X122440449Y-93023198D03*
X122440449Y-95563198D03*
X122440449Y-98103198D03*
X122440449Y-100643198D03*
X122440449Y-103183198D03*
X122440449Y-105723198D03*
X122440449Y-108263198D03*
D15*
X144000000Y-149200000D03*
D16*
X144000000Y-161900000D03*
D20*
X103290000Y-145840000D03*
D21*
X105830000Y-145840000D03*
X108370000Y-145840000D03*
X110910000Y-145840000D03*
X113450000Y-145840000D03*
X113450000Y-130600000D03*
X110910000Y-130600000D03*
X108370000Y-130600000D03*
X105830000Y-130600000D03*
X103290000Y-130600000D03*
D19*
X140100000Y-165200000D03*
X140100000Y-170200000D03*
X147600000Y-170200000D03*
X147600000Y-165200000D03*
X147840449Y-108263198D03*
X147840449Y-105723198D03*
X147840449Y-103183198D03*
X147840449Y-100643198D03*
X147840449Y-98103198D03*
X147840449Y-95563198D03*
X147840449Y-93023198D03*
X147840449Y-90483198D03*
X139840449Y-90483198D03*
X139840449Y-93023198D03*
X139840449Y-95563198D03*
X139840449Y-98103198D03*
X139840449Y-100643198D03*
X139840449Y-103183198D03*
X139840449Y-105723198D03*
X139840449Y-108263198D03*
D25*
X140602949Y-50693198D03*
D26*
X143142949Y-50693198D03*
X140602949Y-53233198D03*
X143142949Y-53233198D03*
X140602949Y-55773198D03*
X143142949Y-55773198D03*
X140602949Y-58313198D03*
X143142949Y-58313198D03*
X140602949Y-60853198D03*
X143142949Y-60853198D03*
X140602949Y-63393198D03*
X143142949Y-63393198D03*
D15*
X149400000Y-127150000D03*
D16*
X149400000Y-114450000D03*
%LPD*%
M02*
