M48
; DRILL file {KiCad 7.0.10-7.0.10~ubuntu22.04.1} date Mon 26 Feb 2024 11:43:43 AM EST
; FORMAT={-:-/ absolute / metric / decimal}
; #@! TF.CreationDate,2024-02-26T11:43:43-05:00
; #@! TF.GenerationSoftware,Kicad,Pcbnew,7.0.10-7.0.10~ubuntu22.04.1
; #@! TF.FileFunction,Plated,1,2,PTH
FMAT,2
METRIC
; #@! TA.AperFunction,Plated,PTH,ComponentDrill
T1C0.762
; #@! TA.AperFunction,Plated,PTH,ComponentDrill
T2C0.800
; #@! TA.AperFunction,Plated,PTH,ComponentDrill
T3C1.000
; #@! TA.AperFunction,Plated,PTH,ComponentDrill
T4C1.016
; #@! TA.AperFunction,Plated,PTH,ComponentDrill
T5C1.320
%
G90
G05
T1
X104.54Y-165.2
X104.54Y-170.2
X104.84Y-90.483
X104.84Y-93.023
X104.84Y-95.563
X104.84Y-98.103
X104.84Y-100.643
X104.84Y-103.183
X104.84Y-105.723
X104.84Y-108.263
X104.99Y-59.883
X104.99Y-64.883
X104.99Y-69.753
X104.99Y-74.753
X112.04Y-165.2
X112.04Y-170.2
X112.49Y-59.883
X112.49Y-64.883
X112.49Y-69.753
X112.49Y-74.753
X112.84Y-90.483
X112.84Y-93.023
X112.84Y-95.563
X112.84Y-98.103
X112.84Y-100.643
X112.84Y-103.183
X112.84Y-105.723
X112.84Y-108.263
X122.36Y-165.2
X122.36Y-170.2
X122.44Y-90.483
X122.44Y-93.023
X122.44Y-95.563
X122.44Y-98.103
X122.44Y-100.643
X122.44Y-103.183
X122.44Y-105.723
X122.44Y-108.263
X129.86Y-165.2
X129.86Y-170.2
X130.44Y-90.483
X130.44Y-93.023
X130.44Y-95.563
X130.44Y-98.103
X130.44Y-100.643
X130.44Y-103.183
X130.44Y-105.723
X130.44Y-108.263
X139.84Y-90.483
X139.84Y-93.023
X139.84Y-95.563
X139.84Y-98.103
X139.84Y-100.643
X139.84Y-103.183
X139.84Y-105.723
X139.84Y-108.263
X140.1Y-165.2
X140.1Y-170.2
X147.6Y-165.2
X147.6Y-170.2
X147.84Y-90.483
X147.84Y-93.023
X147.84Y-95.563
X147.84Y-98.103
X147.84Y-100.643
X147.84Y-103.183
X147.84Y-105.723
X147.84Y-108.263
T2
X103.0Y-114.4
X103.0Y-127.1
X103.29Y-130.6
X103.29Y-145.84
X104.4Y-149.2
X104.4Y-161.9
X105.83Y-130.6
X105.83Y-145.84
X106.8Y-114.4
X106.8Y-127.1
X108.2Y-149.2
X108.2Y-161.9
X108.37Y-130.6
X108.37Y-145.84
X110.6Y-114.4
X110.6Y-127.1
X110.91Y-130.6
X110.91Y-145.84
X112.0Y-149.2
X112.0Y-161.9
X113.45Y-130.6
X113.45Y-145.84
X114.4Y-114.4
X114.4Y-127.1
X120.6Y-114.45
X120.6Y-127.15
X121.07Y-130.6
X121.07Y-145.84
X122.4Y-149.2
X122.4Y-161.9
X123.61Y-130.6
X123.61Y-145.84
X124.4Y-114.45
X124.4Y-127.15
X126.15Y-130.6
X126.15Y-145.84
X126.2Y-149.2
X126.2Y-161.9
X128.2Y-114.45
X128.2Y-127.15
X128.69Y-130.6
X128.69Y-145.84
X130.0Y-149.2
X130.0Y-161.9
X131.23Y-130.6
X131.23Y-145.84
X132.0Y-114.45
X132.0Y-127.15
X138.0Y-114.45
X138.0Y-127.15
X139.0Y-130.6
X139.0Y-145.84
X140.2Y-149.2
X140.2Y-161.9
X141.54Y-130.6
X141.54Y-145.84
X141.8Y-114.45
X141.8Y-127.15
X144.0Y-149.2
X144.0Y-161.9
X144.08Y-130.6
X144.08Y-145.84
X145.6Y-114.45
X145.6Y-127.15
X146.62Y-130.6
X146.62Y-145.84
X147.8Y-149.2
X147.8Y-161.9
X149.16Y-130.6
X149.16Y-145.84
X149.4Y-114.45
X149.4Y-127.15
T3
X140.603Y-50.693
X140.603Y-53.233
X140.603Y-55.773
X140.603Y-58.313
X140.603Y-60.853
X140.603Y-63.393
X143.143Y-50.693
X143.143Y-53.233
X143.143Y-55.773
X143.143Y-58.313
X143.143Y-60.853
X143.143Y-63.393
T4
X118.36Y-40.203
X118.36Y-42.743
X118.36Y-45.283
X118.36Y-47.823
X118.36Y-50.363
X118.36Y-52.903
X118.36Y-55.443
X118.36Y-57.983
X118.36Y-60.523
X118.36Y-63.063
X118.36Y-65.603
X118.36Y-68.143
X118.36Y-70.683
X118.36Y-73.223
X118.36Y-75.763
X133.6Y-40.203
X133.6Y-42.743
X133.6Y-45.283
X133.6Y-47.823
X133.6Y-50.363
X133.6Y-52.903
X133.6Y-55.443
X133.6Y-57.983
X133.6Y-60.523
X133.6Y-63.063
X133.6Y-65.603
X133.6Y-68.143
X133.6Y-70.683
X133.6Y-73.223
X133.6Y-75.763
T5
X104.0Y-25.708
X104.0Y-30.708
X104.0Y-35.708
X104.01Y-43.253
X104.01Y-48.253
X104.01Y-53.253
X136.14Y-25.273
X141.14Y-25.273
M30
