%TF.GenerationSoftware,KiCad,Pcbnew,7.0.10-7.0.10~ubuntu22.04.1*%
%TF.CreationDate,2024-02-26T11:43:45-05:00*%
%TF.ProjectId,CapController,43617043-6f6e-4747-926f-6c6c65722e6b,rev?*%
%TF.SameCoordinates,Original*%
%TF.FileFunction,Drillmap*%
%TF.FilePolarity,Positive*%
%FSLAX45Y45*%
G04 Gerber Fmt 4.5, Leading zero omitted, Abs format (unit mm)*
G04 Created by KiCad (PCBNEW 7.0.10-7.0.10~ubuntu22.04.1) date 2024-02-26 11:43:45*
%MOMM*%
%LPD*%
G01*
G04 APERTURE LIST*
%ADD10C,0.100000*%
%ADD11C,0.200000*%
%ADD12C,0.101600*%
%ADD13C,0.132000*%
G04 APERTURE END LIST*
D10*
X9724045Y-1825320D02*
X15524045Y-1825320D01*
X15524045Y-17325320D01*
X9724045Y-17325320D01*
X9724045Y-1825320D01*
D11*
D10*
X10415900Y-16481900D02*
X10492100Y-16558100D01*
X10492100Y-16481900D02*
X10415900Y-16558100D01*
X10415900Y-16981900D02*
X10492100Y-17058100D01*
X10492100Y-16981900D02*
X10415900Y-17058100D01*
X10445945Y-9010220D02*
X10522145Y-9086420D01*
X10522145Y-9010220D02*
X10445945Y-9086420D01*
X10445945Y-9264220D02*
X10522145Y-9340420D01*
X10522145Y-9264220D02*
X10445945Y-9340420D01*
X10445945Y-9518220D02*
X10522145Y-9594420D01*
X10522145Y-9518220D02*
X10445945Y-9594420D01*
X10445945Y-9772220D02*
X10522145Y-9848420D01*
X10522145Y-9772220D02*
X10445945Y-9848420D01*
X10445945Y-10026220D02*
X10522145Y-10102420D01*
X10522145Y-10026220D02*
X10445945Y-10102420D01*
X10445945Y-10280220D02*
X10522145Y-10356420D01*
X10522145Y-10280220D02*
X10445945Y-10356420D01*
X10445945Y-10534220D02*
X10522145Y-10610420D01*
X10522145Y-10534220D02*
X10445945Y-10610420D01*
X10445945Y-10788220D02*
X10522145Y-10864420D01*
X10522145Y-10788220D02*
X10445945Y-10864420D01*
X10460945Y-5950220D02*
X10537145Y-6026420D01*
X10537145Y-5950220D02*
X10460945Y-6026420D01*
X10460945Y-6450220D02*
X10537145Y-6526420D01*
X10537145Y-6450220D02*
X10460945Y-6526420D01*
X10460945Y-6937220D02*
X10537145Y-7013420D01*
X10537145Y-6937220D02*
X10460945Y-7013420D01*
X10460945Y-7437220D02*
X10537145Y-7513420D01*
X10537145Y-7437220D02*
X10460945Y-7513420D01*
X11165900Y-16481900D02*
X11242100Y-16558100D01*
X11242100Y-16481900D02*
X11165900Y-16558100D01*
X11165900Y-16981900D02*
X11242100Y-17058100D01*
X11242100Y-16981900D02*
X11165900Y-17058100D01*
X11210945Y-5950220D02*
X11287145Y-6026420D01*
X11287145Y-5950220D02*
X11210945Y-6026420D01*
X11210945Y-6450220D02*
X11287145Y-6526420D01*
X11287145Y-6450220D02*
X11210945Y-6526420D01*
X11210945Y-6937220D02*
X11287145Y-7013420D01*
X11287145Y-6937220D02*
X11210945Y-7013420D01*
X11210945Y-7437220D02*
X11287145Y-7513420D01*
X11287145Y-7437220D02*
X11210945Y-7513420D01*
X11245945Y-9010220D02*
X11322145Y-9086420D01*
X11322145Y-9010220D02*
X11245945Y-9086420D01*
X11245945Y-9264220D02*
X11322145Y-9340420D01*
X11322145Y-9264220D02*
X11245945Y-9340420D01*
X11245945Y-9518220D02*
X11322145Y-9594420D01*
X11322145Y-9518220D02*
X11245945Y-9594420D01*
X11245945Y-9772220D02*
X11322145Y-9848420D01*
X11322145Y-9772220D02*
X11245945Y-9848420D01*
X11245945Y-10026220D02*
X11322145Y-10102420D01*
X11322145Y-10026220D02*
X11245945Y-10102420D01*
X11245945Y-10280220D02*
X11322145Y-10356420D01*
X11322145Y-10280220D02*
X11245945Y-10356420D01*
X11245945Y-10534220D02*
X11322145Y-10610420D01*
X11322145Y-10534220D02*
X11245945Y-10610420D01*
X11245945Y-10788220D02*
X11322145Y-10864420D01*
X11322145Y-10788220D02*
X11245945Y-10864420D01*
X12197900Y-16481900D02*
X12274100Y-16558100D01*
X12274100Y-16481900D02*
X12197900Y-16558100D01*
X12197900Y-16981900D02*
X12274100Y-17058100D01*
X12274100Y-16981900D02*
X12197900Y-17058100D01*
X12205945Y-9010220D02*
X12282145Y-9086420D01*
X12282145Y-9010220D02*
X12205945Y-9086420D01*
X12205945Y-9264220D02*
X12282145Y-9340420D01*
X12282145Y-9264220D02*
X12205945Y-9340420D01*
X12205945Y-9518220D02*
X12282145Y-9594420D01*
X12282145Y-9518220D02*
X12205945Y-9594420D01*
X12205945Y-9772220D02*
X12282145Y-9848420D01*
X12282145Y-9772220D02*
X12205945Y-9848420D01*
X12205945Y-10026220D02*
X12282145Y-10102420D01*
X12282145Y-10026220D02*
X12205945Y-10102420D01*
X12205945Y-10280220D02*
X12282145Y-10356420D01*
X12282145Y-10280220D02*
X12205945Y-10356420D01*
X12205945Y-10534220D02*
X12282145Y-10610420D01*
X12282145Y-10534220D02*
X12205945Y-10610420D01*
X12205945Y-10788220D02*
X12282145Y-10864420D01*
X12282145Y-10788220D02*
X12205945Y-10864420D01*
X12947900Y-16481900D02*
X13024100Y-16558100D01*
X13024100Y-16481900D02*
X12947900Y-16558100D01*
X12947900Y-16981900D02*
X13024100Y-17058100D01*
X13024100Y-16981900D02*
X12947900Y-17058100D01*
X13005945Y-9010220D02*
X13082145Y-9086420D01*
X13082145Y-9010220D02*
X13005945Y-9086420D01*
X13005945Y-9264220D02*
X13082145Y-9340420D01*
X13082145Y-9264220D02*
X13005945Y-9340420D01*
X13005945Y-9518220D02*
X13082145Y-9594420D01*
X13082145Y-9518220D02*
X13005945Y-9594420D01*
X13005945Y-9772220D02*
X13082145Y-9848420D01*
X13082145Y-9772220D02*
X13005945Y-9848420D01*
X13005945Y-10026220D02*
X13082145Y-10102420D01*
X13082145Y-10026220D02*
X13005945Y-10102420D01*
X13005945Y-10280220D02*
X13082145Y-10356420D01*
X13082145Y-10280220D02*
X13005945Y-10356420D01*
X13005945Y-10534220D02*
X13082145Y-10610420D01*
X13082145Y-10534220D02*
X13005945Y-10610420D01*
X13005945Y-10788220D02*
X13082145Y-10864420D01*
X13082145Y-10788220D02*
X13005945Y-10864420D01*
X13945945Y-9010220D02*
X14022145Y-9086420D01*
X14022145Y-9010220D02*
X13945945Y-9086420D01*
X13945945Y-9264220D02*
X14022145Y-9340420D01*
X14022145Y-9264220D02*
X13945945Y-9340420D01*
X13945945Y-9518220D02*
X14022145Y-9594420D01*
X14022145Y-9518220D02*
X13945945Y-9594420D01*
X13945945Y-9772220D02*
X14022145Y-9848420D01*
X14022145Y-9772220D02*
X13945945Y-9848420D01*
X13945945Y-10026220D02*
X14022145Y-10102420D01*
X14022145Y-10026220D02*
X13945945Y-10102420D01*
X13945945Y-10280220D02*
X14022145Y-10356420D01*
X14022145Y-10280220D02*
X13945945Y-10356420D01*
X13945945Y-10534220D02*
X14022145Y-10610420D01*
X14022145Y-10534220D02*
X13945945Y-10610420D01*
X13945945Y-10788220D02*
X14022145Y-10864420D01*
X14022145Y-10788220D02*
X13945945Y-10864420D01*
X13971900Y-16481900D02*
X14048100Y-16558100D01*
X14048100Y-16481900D02*
X13971900Y-16558100D01*
X13971900Y-16981900D02*
X14048100Y-17058100D01*
X14048100Y-16981900D02*
X13971900Y-17058100D01*
X14721900Y-16481900D02*
X14798100Y-16558100D01*
X14798100Y-16481900D02*
X14721900Y-16558100D01*
X14721900Y-16981900D02*
X14798100Y-17058100D01*
X14798100Y-16981900D02*
X14721900Y-17058100D01*
X14745945Y-9010220D02*
X14822145Y-9086420D01*
X14822145Y-9010220D02*
X14745945Y-9086420D01*
X14745945Y-9264220D02*
X14822145Y-9340420D01*
X14822145Y-9264220D02*
X14745945Y-9340420D01*
X14745945Y-9518220D02*
X14822145Y-9594420D01*
X14822145Y-9518220D02*
X14745945Y-9594420D01*
X14745945Y-9772220D02*
X14822145Y-9848420D01*
X14822145Y-9772220D02*
X14745945Y-9848420D01*
X14745945Y-10026220D02*
X14822145Y-10102420D01*
X14822145Y-10026220D02*
X14745945Y-10102420D01*
X14745945Y-10280220D02*
X14822145Y-10356420D01*
X14822145Y-10280220D02*
X14745945Y-10356420D01*
X14745945Y-10534220D02*
X14822145Y-10610420D01*
X14822145Y-10534220D02*
X14745945Y-10610420D01*
X14745945Y-10788220D02*
X14822145Y-10864420D01*
X14822145Y-10788220D02*
X14745945Y-10864420D01*
X10340000Y-11440000D02*
G75*
G03*
X10260000Y-11440000I-40000J0D01*
G01*
X10260000Y-11440000D02*
G75*
G03*
X10340000Y-11440000I40000J0D01*
G01*
X10340000Y-12710000D02*
G75*
G03*
X10260000Y-12710000I-40000J0D01*
G01*
X10260000Y-12710000D02*
G75*
G03*
X10340000Y-12710000I40000J0D01*
G01*
X10369000Y-13060000D02*
G75*
G03*
X10289000Y-13060000I-40000J0D01*
G01*
X10289000Y-13060000D02*
G75*
G03*
X10369000Y-13060000I40000J0D01*
G01*
X10369000Y-14584000D02*
G75*
G03*
X10289000Y-14584000I-40000J0D01*
G01*
X10289000Y-14584000D02*
G75*
G03*
X10369000Y-14584000I40000J0D01*
G01*
X10480000Y-14920000D02*
G75*
G03*
X10400000Y-14920000I-40000J0D01*
G01*
X10400000Y-14920000D02*
G75*
G03*
X10480000Y-14920000I40000J0D01*
G01*
X10480000Y-16190000D02*
G75*
G03*
X10400000Y-16190000I-40000J0D01*
G01*
X10400000Y-16190000D02*
G75*
G03*
X10480000Y-16190000I40000J0D01*
G01*
X10623000Y-13060000D02*
G75*
G03*
X10543000Y-13060000I-40000J0D01*
G01*
X10543000Y-13060000D02*
G75*
G03*
X10623000Y-13060000I40000J0D01*
G01*
X10623000Y-14584000D02*
G75*
G03*
X10543000Y-14584000I-40000J0D01*
G01*
X10543000Y-14584000D02*
G75*
G03*
X10623000Y-14584000I40000J0D01*
G01*
X10720000Y-11440000D02*
G75*
G03*
X10640000Y-11440000I-40000J0D01*
G01*
X10640000Y-11440000D02*
G75*
G03*
X10720000Y-11440000I40000J0D01*
G01*
X10720000Y-12710000D02*
G75*
G03*
X10640000Y-12710000I-40000J0D01*
G01*
X10640000Y-12710000D02*
G75*
G03*
X10720000Y-12710000I40000J0D01*
G01*
X10860000Y-14920000D02*
G75*
G03*
X10780000Y-14920000I-40000J0D01*
G01*
X10780000Y-14920000D02*
G75*
G03*
X10860000Y-14920000I40000J0D01*
G01*
X10860000Y-16190000D02*
G75*
G03*
X10780000Y-16190000I-40000J0D01*
G01*
X10780000Y-16190000D02*
G75*
G03*
X10860000Y-16190000I40000J0D01*
G01*
X10877000Y-13060000D02*
G75*
G03*
X10797000Y-13060000I-40000J0D01*
G01*
X10797000Y-13060000D02*
G75*
G03*
X10877000Y-13060000I40000J0D01*
G01*
X10877000Y-14584000D02*
G75*
G03*
X10797000Y-14584000I-40000J0D01*
G01*
X10797000Y-14584000D02*
G75*
G03*
X10877000Y-14584000I40000J0D01*
G01*
X11100000Y-11440000D02*
G75*
G03*
X11020000Y-11440000I-40000J0D01*
G01*
X11020000Y-11440000D02*
G75*
G03*
X11100000Y-11440000I40000J0D01*
G01*
X11100000Y-12710000D02*
G75*
G03*
X11020000Y-12710000I-40000J0D01*
G01*
X11020000Y-12710000D02*
G75*
G03*
X11100000Y-12710000I40000J0D01*
G01*
X11131000Y-13060000D02*
G75*
G03*
X11051000Y-13060000I-40000J0D01*
G01*
X11051000Y-13060000D02*
G75*
G03*
X11131000Y-13060000I40000J0D01*
G01*
X11131000Y-14584000D02*
G75*
G03*
X11051000Y-14584000I-40000J0D01*
G01*
X11051000Y-14584000D02*
G75*
G03*
X11131000Y-14584000I40000J0D01*
G01*
X11240000Y-14920000D02*
G75*
G03*
X11160000Y-14920000I-40000J0D01*
G01*
X11160000Y-14920000D02*
G75*
G03*
X11240000Y-14920000I40000J0D01*
G01*
X11240000Y-16190000D02*
G75*
G03*
X11160000Y-16190000I-40000J0D01*
G01*
X11160000Y-16190000D02*
G75*
G03*
X11240000Y-16190000I40000J0D01*
G01*
X11385000Y-13060000D02*
G75*
G03*
X11305000Y-13060000I-40000J0D01*
G01*
X11305000Y-13060000D02*
G75*
G03*
X11385000Y-13060000I40000J0D01*
G01*
X11385000Y-14584000D02*
G75*
G03*
X11305000Y-14584000I-40000J0D01*
G01*
X11305000Y-14584000D02*
G75*
G03*
X11385000Y-14584000I40000J0D01*
G01*
X11480000Y-11440000D02*
G75*
G03*
X11400000Y-11440000I-40000J0D01*
G01*
X11400000Y-11440000D02*
G75*
G03*
X11480000Y-11440000I40000J0D01*
G01*
X11480000Y-12710000D02*
G75*
G03*
X11400000Y-12710000I-40000J0D01*
G01*
X11400000Y-12710000D02*
G75*
G03*
X11480000Y-12710000I40000J0D01*
G01*
X12100000Y-11445000D02*
G75*
G03*
X12020000Y-11445000I-40000J0D01*
G01*
X12020000Y-11445000D02*
G75*
G03*
X12100000Y-11445000I40000J0D01*
G01*
X12100000Y-12715000D02*
G75*
G03*
X12020000Y-12715000I-40000J0D01*
G01*
X12020000Y-12715000D02*
G75*
G03*
X12100000Y-12715000I40000J0D01*
G01*
X12147000Y-13060000D02*
G75*
G03*
X12067000Y-13060000I-40000J0D01*
G01*
X12067000Y-13060000D02*
G75*
G03*
X12147000Y-13060000I40000J0D01*
G01*
X12147000Y-14584000D02*
G75*
G03*
X12067000Y-14584000I-40000J0D01*
G01*
X12067000Y-14584000D02*
G75*
G03*
X12147000Y-14584000I40000J0D01*
G01*
X12280000Y-14920000D02*
G75*
G03*
X12200000Y-14920000I-40000J0D01*
G01*
X12200000Y-14920000D02*
G75*
G03*
X12280000Y-14920000I40000J0D01*
G01*
X12280000Y-16190000D02*
G75*
G03*
X12200000Y-16190000I-40000J0D01*
G01*
X12200000Y-16190000D02*
G75*
G03*
X12280000Y-16190000I40000J0D01*
G01*
X12401000Y-13060000D02*
G75*
G03*
X12321000Y-13060000I-40000J0D01*
G01*
X12321000Y-13060000D02*
G75*
G03*
X12401000Y-13060000I40000J0D01*
G01*
X12401000Y-14584000D02*
G75*
G03*
X12321000Y-14584000I-40000J0D01*
G01*
X12321000Y-14584000D02*
G75*
G03*
X12401000Y-14584000I40000J0D01*
G01*
X12480000Y-11445000D02*
G75*
G03*
X12400000Y-11445000I-40000J0D01*
G01*
X12400000Y-11445000D02*
G75*
G03*
X12480000Y-11445000I40000J0D01*
G01*
X12480000Y-12715000D02*
G75*
G03*
X12400000Y-12715000I-40000J0D01*
G01*
X12400000Y-12715000D02*
G75*
G03*
X12480000Y-12715000I40000J0D01*
G01*
X12655000Y-13060000D02*
G75*
G03*
X12575000Y-13060000I-40000J0D01*
G01*
X12575000Y-13060000D02*
G75*
G03*
X12655000Y-13060000I40000J0D01*
G01*
X12655000Y-14584000D02*
G75*
G03*
X12575000Y-14584000I-40000J0D01*
G01*
X12575000Y-14584000D02*
G75*
G03*
X12655000Y-14584000I40000J0D01*
G01*
X12660000Y-14920000D02*
G75*
G03*
X12580000Y-14920000I-40000J0D01*
G01*
X12580000Y-14920000D02*
G75*
G03*
X12660000Y-14920000I40000J0D01*
G01*
X12660000Y-16190000D02*
G75*
G03*
X12580000Y-16190000I-40000J0D01*
G01*
X12580000Y-16190000D02*
G75*
G03*
X12660000Y-16190000I40000J0D01*
G01*
X12860000Y-11445000D02*
G75*
G03*
X12780000Y-11445000I-40000J0D01*
G01*
X12780000Y-11445000D02*
G75*
G03*
X12860000Y-11445000I40000J0D01*
G01*
X12860000Y-12715000D02*
G75*
G03*
X12780000Y-12715000I-40000J0D01*
G01*
X12780000Y-12715000D02*
G75*
G03*
X12860000Y-12715000I40000J0D01*
G01*
X12909000Y-13060000D02*
G75*
G03*
X12829000Y-13060000I-40000J0D01*
G01*
X12829000Y-13060000D02*
G75*
G03*
X12909000Y-13060000I40000J0D01*
G01*
X12909000Y-14584000D02*
G75*
G03*
X12829000Y-14584000I-40000J0D01*
G01*
X12829000Y-14584000D02*
G75*
G03*
X12909000Y-14584000I40000J0D01*
G01*
X13040000Y-14920000D02*
G75*
G03*
X12960000Y-14920000I-40000J0D01*
G01*
X12960000Y-14920000D02*
G75*
G03*
X13040000Y-14920000I40000J0D01*
G01*
X13040000Y-16190000D02*
G75*
G03*
X12960000Y-16190000I-40000J0D01*
G01*
X12960000Y-16190000D02*
G75*
G03*
X13040000Y-16190000I40000J0D01*
G01*
X13163000Y-13060000D02*
G75*
G03*
X13083000Y-13060000I-40000J0D01*
G01*
X13083000Y-13060000D02*
G75*
G03*
X13163000Y-13060000I40000J0D01*
G01*
X13163000Y-14584000D02*
G75*
G03*
X13083000Y-14584000I-40000J0D01*
G01*
X13083000Y-14584000D02*
G75*
G03*
X13163000Y-14584000I40000J0D01*
G01*
X13240000Y-11445000D02*
G75*
G03*
X13160000Y-11445000I-40000J0D01*
G01*
X13160000Y-11445000D02*
G75*
G03*
X13240000Y-11445000I40000J0D01*
G01*
X13240000Y-12715000D02*
G75*
G03*
X13160000Y-12715000I-40000J0D01*
G01*
X13160000Y-12715000D02*
G75*
G03*
X13240000Y-12715000I40000J0D01*
G01*
X13840000Y-11445000D02*
G75*
G03*
X13760000Y-11445000I-40000J0D01*
G01*
X13760000Y-11445000D02*
G75*
G03*
X13840000Y-11445000I40000J0D01*
G01*
X13840000Y-12715000D02*
G75*
G03*
X13760000Y-12715000I-40000J0D01*
G01*
X13760000Y-12715000D02*
G75*
G03*
X13840000Y-12715000I40000J0D01*
G01*
X13940000Y-13060000D02*
G75*
G03*
X13860000Y-13060000I-40000J0D01*
G01*
X13860000Y-13060000D02*
G75*
G03*
X13940000Y-13060000I40000J0D01*
G01*
X13940000Y-14584000D02*
G75*
G03*
X13860000Y-14584000I-40000J0D01*
G01*
X13860000Y-14584000D02*
G75*
G03*
X13940000Y-14584000I40000J0D01*
G01*
X14060000Y-14920000D02*
G75*
G03*
X13980000Y-14920000I-40000J0D01*
G01*
X13980000Y-14920000D02*
G75*
G03*
X14060000Y-14920000I40000J0D01*
G01*
X14060000Y-16190000D02*
G75*
G03*
X13980000Y-16190000I-40000J0D01*
G01*
X13980000Y-16190000D02*
G75*
G03*
X14060000Y-16190000I40000J0D01*
G01*
X14194000Y-13060000D02*
G75*
G03*
X14114000Y-13060000I-40000J0D01*
G01*
X14114000Y-13060000D02*
G75*
G03*
X14194000Y-13060000I40000J0D01*
G01*
X14194000Y-14584000D02*
G75*
G03*
X14114000Y-14584000I-40000J0D01*
G01*
X14114000Y-14584000D02*
G75*
G03*
X14194000Y-14584000I40000J0D01*
G01*
X14220000Y-11445000D02*
G75*
G03*
X14140000Y-11445000I-40000J0D01*
G01*
X14140000Y-11445000D02*
G75*
G03*
X14220000Y-11445000I40000J0D01*
G01*
X14220000Y-12715000D02*
G75*
G03*
X14140000Y-12715000I-40000J0D01*
G01*
X14140000Y-12715000D02*
G75*
G03*
X14220000Y-12715000I40000J0D01*
G01*
X14440000Y-14920000D02*
G75*
G03*
X14360000Y-14920000I-40000J0D01*
G01*
X14360000Y-14920000D02*
G75*
G03*
X14440000Y-14920000I40000J0D01*
G01*
X14440000Y-16190000D02*
G75*
G03*
X14360000Y-16190000I-40000J0D01*
G01*
X14360000Y-16190000D02*
G75*
G03*
X14440000Y-16190000I40000J0D01*
G01*
X14448000Y-13060000D02*
G75*
G03*
X14368000Y-13060000I-40000J0D01*
G01*
X14368000Y-13060000D02*
G75*
G03*
X14448000Y-13060000I40000J0D01*
G01*
X14448000Y-14584000D02*
G75*
G03*
X14368000Y-14584000I-40000J0D01*
G01*
X14368000Y-14584000D02*
G75*
G03*
X14448000Y-14584000I40000J0D01*
G01*
X14600000Y-11445000D02*
G75*
G03*
X14520000Y-11445000I-40000J0D01*
G01*
X14520000Y-11445000D02*
G75*
G03*
X14600000Y-11445000I40000J0D01*
G01*
X14600000Y-12715000D02*
G75*
G03*
X14520000Y-12715000I-40000J0D01*
G01*
X14520000Y-12715000D02*
G75*
G03*
X14600000Y-12715000I40000J0D01*
G01*
X14702000Y-13060000D02*
G75*
G03*
X14622000Y-13060000I-40000J0D01*
G01*
X14622000Y-13060000D02*
G75*
G03*
X14702000Y-13060000I40000J0D01*
G01*
X14702000Y-14584000D02*
G75*
G03*
X14622000Y-14584000I-40000J0D01*
G01*
X14622000Y-14584000D02*
G75*
G03*
X14702000Y-14584000I40000J0D01*
G01*
X14820000Y-14920000D02*
G75*
G03*
X14740000Y-14920000I-40000J0D01*
G01*
X14740000Y-14920000D02*
G75*
G03*
X14820000Y-14920000I40000J0D01*
G01*
X14820000Y-16190000D02*
G75*
G03*
X14740000Y-16190000I-40000J0D01*
G01*
X14740000Y-16190000D02*
G75*
G03*
X14820000Y-16190000I40000J0D01*
G01*
X14956000Y-13060000D02*
G75*
G03*
X14876000Y-13060000I-40000J0D01*
G01*
X14876000Y-13060000D02*
G75*
G03*
X14956000Y-13060000I40000J0D01*
G01*
X14956000Y-14584000D02*
G75*
G03*
X14876000Y-14584000I-40000J0D01*
G01*
X14876000Y-14584000D02*
G75*
G03*
X14956000Y-14584000I40000J0D01*
G01*
X14980000Y-11445000D02*
G75*
G03*
X14900000Y-11445000I-40000J0D01*
G01*
X14900000Y-11445000D02*
G75*
G03*
X14980000Y-11445000I40000J0D01*
G01*
X14980000Y-12715000D02*
G75*
G03*
X14900000Y-12715000I-40000J0D01*
G01*
X14900000Y-12715000D02*
G75*
G03*
X14980000Y-12715000I40000J0D01*
G01*
X14060295Y-5019320D02*
X14060295Y-5119320D01*
X14010295Y-5069320D02*
X14110295Y-5069320D01*
X14060295Y-5273320D02*
X14060295Y-5373320D01*
X14010295Y-5323320D02*
X14110295Y-5323320D01*
X14060295Y-5527320D02*
X14060295Y-5627320D01*
X14010295Y-5577320D02*
X14110295Y-5577320D01*
X14060295Y-5781320D02*
X14060295Y-5881320D01*
X14010295Y-5831320D02*
X14110295Y-5831320D01*
X14060295Y-6035320D02*
X14060295Y-6135320D01*
X14010295Y-6085320D02*
X14110295Y-6085320D01*
X14060295Y-6289320D02*
X14060295Y-6389320D01*
X14010295Y-6339320D02*
X14110295Y-6339320D01*
X14314295Y-5019320D02*
X14314295Y-5119320D01*
X14264295Y-5069320D02*
X14364295Y-5069320D01*
X14314295Y-5273320D02*
X14314295Y-5373320D01*
X14264295Y-5323320D02*
X14364295Y-5323320D01*
X14314295Y-5527320D02*
X14314295Y-5627320D01*
X14264295Y-5577320D02*
X14364295Y-5577320D01*
X14314295Y-5781320D02*
X14314295Y-5881320D01*
X14264295Y-5831320D02*
X14364295Y-5831320D01*
X14314295Y-6035320D02*
X14314295Y-6135320D01*
X14264295Y-6085320D02*
X14364295Y-6085320D01*
X14314295Y-6289320D02*
X14314295Y-6389320D01*
X14264295Y-6339320D02*
X14364295Y-6339320D01*
D12*
X11871966Y-4056241D02*
X11871966Y-3984398D01*
X11800123Y-3984398D01*
X11800123Y-4056241D01*
X11871966Y-4056241D01*
X11871966Y-4310241D02*
X11871966Y-4238398D01*
X11800123Y-4238398D01*
X11800123Y-4310241D01*
X11871966Y-4310241D01*
X11871966Y-4564241D02*
X11871966Y-4492398D01*
X11800123Y-4492398D01*
X11800123Y-4564241D01*
X11871966Y-4564241D01*
X11871966Y-4818241D02*
X11871966Y-4746398D01*
X11800123Y-4746398D01*
X11800123Y-4818241D01*
X11871966Y-4818241D01*
X11871966Y-5072241D02*
X11871966Y-5000398D01*
X11800123Y-5000398D01*
X11800123Y-5072241D01*
X11871966Y-5072241D01*
X11871966Y-5326241D02*
X11871966Y-5254398D01*
X11800123Y-5254398D01*
X11800123Y-5326241D01*
X11871966Y-5326241D01*
X11871966Y-5580241D02*
X11871966Y-5508398D01*
X11800123Y-5508398D01*
X11800123Y-5580241D01*
X11871966Y-5580241D01*
X11871966Y-5834241D02*
X11871966Y-5762398D01*
X11800123Y-5762398D01*
X11800123Y-5834241D01*
X11871966Y-5834241D01*
X11871966Y-6088241D02*
X11871966Y-6016398D01*
X11800123Y-6016398D01*
X11800123Y-6088241D01*
X11871966Y-6088241D01*
X11871966Y-6342241D02*
X11871966Y-6270398D01*
X11800123Y-6270398D01*
X11800123Y-6342241D01*
X11871966Y-6342241D01*
X11871966Y-6596241D02*
X11871966Y-6524398D01*
X11800123Y-6524398D01*
X11800123Y-6596241D01*
X11871966Y-6596241D01*
X11871966Y-6850241D02*
X11871966Y-6778398D01*
X11800123Y-6778398D01*
X11800123Y-6850241D01*
X11871966Y-6850241D01*
X11871966Y-7104241D02*
X11871966Y-7032398D01*
X11800123Y-7032398D01*
X11800123Y-7104241D01*
X11871966Y-7104241D01*
X11871966Y-7358241D02*
X11871966Y-7286398D01*
X11800123Y-7286398D01*
X11800123Y-7358241D01*
X11871966Y-7358241D01*
X11871966Y-7612241D02*
X11871966Y-7540398D01*
X11800123Y-7540398D01*
X11800123Y-7612241D01*
X11871966Y-7612241D01*
X13395966Y-4056241D02*
X13395966Y-3984398D01*
X13324123Y-3984398D01*
X13324123Y-4056241D01*
X13395966Y-4056241D01*
X13395966Y-4310241D02*
X13395966Y-4238398D01*
X13324123Y-4238398D01*
X13324123Y-4310241D01*
X13395966Y-4310241D01*
X13395966Y-4564241D02*
X13395966Y-4492398D01*
X13324123Y-4492398D01*
X13324123Y-4564241D01*
X13395966Y-4564241D01*
X13395966Y-4818241D02*
X13395966Y-4746398D01*
X13324123Y-4746398D01*
X13324123Y-4818241D01*
X13395966Y-4818241D01*
X13395966Y-5072241D02*
X13395966Y-5000398D01*
X13324123Y-5000398D01*
X13324123Y-5072241D01*
X13395966Y-5072241D01*
X13395966Y-5326241D02*
X13395966Y-5254398D01*
X13324123Y-5254398D01*
X13324123Y-5326241D01*
X13395966Y-5326241D01*
X13395966Y-5580241D02*
X13395966Y-5508398D01*
X13324123Y-5508398D01*
X13324123Y-5580241D01*
X13395966Y-5580241D01*
X13395966Y-5834241D02*
X13395966Y-5762398D01*
X13324123Y-5762398D01*
X13324123Y-5834241D01*
X13395966Y-5834241D01*
X13395966Y-6088241D02*
X13395966Y-6016398D01*
X13324123Y-6016398D01*
X13324123Y-6088241D01*
X13395966Y-6088241D01*
X13395966Y-6342241D02*
X13395966Y-6270398D01*
X13324123Y-6270398D01*
X13324123Y-6342241D01*
X13395966Y-6342241D01*
X13395966Y-6596241D02*
X13395966Y-6524398D01*
X13324123Y-6524398D01*
X13324123Y-6596241D01*
X13395966Y-6596241D01*
X13395966Y-6850241D02*
X13395966Y-6778398D01*
X13324123Y-6778398D01*
X13324123Y-6850241D01*
X13395966Y-6850241D01*
X13395966Y-7104241D02*
X13395966Y-7032398D01*
X13324123Y-7032398D01*
X13324123Y-7104241D01*
X13395966Y-7104241D01*
X13395966Y-7358241D02*
X13395966Y-7286398D01*
X13324123Y-7286398D01*
X13324123Y-7358241D01*
X13395966Y-7358241D01*
X13395966Y-7612241D02*
X13395966Y-7540398D01*
X13324123Y-7540398D01*
X13324123Y-7612241D01*
X13395966Y-7612241D01*
D13*
X10400045Y-2636820D02*
X10466045Y-2570820D01*
X10400045Y-2504820D01*
X10334045Y-2570820D01*
X10400045Y-2636820D01*
X10400045Y-3136820D02*
X10466045Y-3070820D01*
X10400045Y-3004820D01*
X10334045Y-3070820D01*
X10400045Y-3136820D01*
X10400045Y-3636820D02*
X10466045Y-3570820D01*
X10400045Y-3504820D01*
X10334045Y-3570820D01*
X10400045Y-3636820D01*
X10401045Y-4391320D02*
X10467045Y-4325320D01*
X10401045Y-4259320D01*
X10335045Y-4325320D01*
X10401045Y-4391320D01*
X10401045Y-4891320D02*
X10467045Y-4825320D01*
X10401045Y-4759320D01*
X10335045Y-4825320D01*
X10401045Y-4891320D01*
X10401045Y-5391320D02*
X10467045Y-5325320D01*
X10401045Y-5259320D01*
X10335045Y-5325320D01*
X10401045Y-5391320D01*
X13614045Y-2593320D02*
X13680045Y-2527320D01*
X13614045Y-2461320D01*
X13548045Y-2527320D01*
X13614045Y-2593320D01*
X14114045Y-2593320D02*
X14180045Y-2527320D01*
X14114045Y-2461320D01*
X14048045Y-2527320D01*
X14114045Y-2593320D01*
D11*
X9979822Y-17641804D02*
X9979822Y-17441804D01*
X9979822Y-17441804D02*
X10027441Y-17441804D01*
X10027441Y-17441804D02*
X10056012Y-17451327D01*
X10056012Y-17451327D02*
X10075060Y-17470375D01*
X10075060Y-17470375D02*
X10084584Y-17489423D01*
X10084584Y-17489423D02*
X10094107Y-17527518D01*
X10094107Y-17527518D02*
X10094107Y-17556089D01*
X10094107Y-17556089D02*
X10084584Y-17594185D01*
X10084584Y-17594185D02*
X10075060Y-17613232D01*
X10075060Y-17613232D02*
X10056012Y-17632280D01*
X10056012Y-17632280D02*
X10027441Y-17641804D01*
X10027441Y-17641804D02*
X9979822Y-17641804D01*
X10179822Y-17641804D02*
X10179822Y-17508470D01*
X10179822Y-17546566D02*
X10189346Y-17527518D01*
X10189346Y-17527518D02*
X10198869Y-17517994D01*
X10198869Y-17517994D02*
X10217917Y-17508470D01*
X10217917Y-17508470D02*
X10236965Y-17508470D01*
X10303631Y-17641804D02*
X10303631Y-17508470D01*
X10303631Y-17441804D02*
X10294107Y-17451327D01*
X10294107Y-17451327D02*
X10303631Y-17460851D01*
X10303631Y-17460851D02*
X10313155Y-17451327D01*
X10313155Y-17451327D02*
X10303631Y-17441804D01*
X10303631Y-17441804D02*
X10303631Y-17460851D01*
X10427441Y-17641804D02*
X10408393Y-17632280D01*
X10408393Y-17632280D02*
X10398869Y-17613232D01*
X10398869Y-17613232D02*
X10398869Y-17441804D01*
X10532203Y-17641804D02*
X10513155Y-17632280D01*
X10513155Y-17632280D02*
X10503631Y-17613232D01*
X10503631Y-17613232D02*
X10503631Y-17441804D01*
X10760774Y-17641804D02*
X10760774Y-17441804D01*
X10760774Y-17441804D02*
X10827441Y-17584661D01*
X10827441Y-17584661D02*
X10894107Y-17441804D01*
X10894107Y-17441804D02*
X10894107Y-17641804D01*
X11075060Y-17641804D02*
X11075060Y-17537042D01*
X11075060Y-17537042D02*
X11065536Y-17517994D01*
X11065536Y-17517994D02*
X11046488Y-17508470D01*
X11046488Y-17508470D02*
X11008393Y-17508470D01*
X11008393Y-17508470D02*
X10989346Y-17517994D01*
X11075060Y-17632280D02*
X11056012Y-17641804D01*
X11056012Y-17641804D02*
X11008393Y-17641804D01*
X11008393Y-17641804D02*
X10989346Y-17632280D01*
X10989346Y-17632280D02*
X10979822Y-17613232D01*
X10979822Y-17613232D02*
X10979822Y-17594185D01*
X10979822Y-17594185D02*
X10989346Y-17575137D01*
X10989346Y-17575137D02*
X11008393Y-17565613D01*
X11008393Y-17565613D02*
X11056012Y-17565613D01*
X11056012Y-17565613D02*
X11075060Y-17556089D01*
X11170298Y-17508470D02*
X11170298Y-17708470D01*
X11170298Y-17517994D02*
X11189345Y-17508470D01*
X11189345Y-17508470D02*
X11227441Y-17508470D01*
X11227441Y-17508470D02*
X11246488Y-17517994D01*
X11246488Y-17517994D02*
X11256012Y-17527518D01*
X11256012Y-17527518D02*
X11265536Y-17546566D01*
X11265536Y-17546566D02*
X11265536Y-17603708D01*
X11265536Y-17603708D02*
X11256012Y-17622756D01*
X11256012Y-17622756D02*
X11246488Y-17632280D01*
X11246488Y-17632280D02*
X11227441Y-17641804D01*
X11227441Y-17641804D02*
X11189345Y-17641804D01*
X11189345Y-17641804D02*
X11170298Y-17632280D01*
X11351250Y-17622756D02*
X11360774Y-17632280D01*
X11360774Y-17632280D02*
X11351250Y-17641804D01*
X11351250Y-17641804D02*
X11341726Y-17632280D01*
X11341726Y-17632280D02*
X11351250Y-17622756D01*
X11351250Y-17622756D02*
X11351250Y-17641804D01*
X11351250Y-17517994D02*
X11360774Y-17527518D01*
X11360774Y-17527518D02*
X11351250Y-17537042D01*
X11351250Y-17537042D02*
X11341726Y-17527518D01*
X11341726Y-17527518D02*
X11351250Y-17517994D01*
X11351250Y-17517994D02*
X11351250Y-17537042D01*
D10*
X9642845Y-17932220D02*
X9719045Y-18008420D01*
X9719045Y-17932220D02*
X9642845Y-18008420D01*
D11*
X10017917Y-17861804D02*
X10036965Y-17861804D01*
X10036965Y-17861804D02*
X10056012Y-17871327D01*
X10056012Y-17871327D02*
X10065536Y-17880851D01*
X10065536Y-17880851D02*
X10075060Y-17899899D01*
X10075060Y-17899899D02*
X10084584Y-17937994D01*
X10084584Y-17937994D02*
X10084584Y-17985613D01*
X10084584Y-17985613D02*
X10075060Y-18023708D01*
X10075060Y-18023708D02*
X10065536Y-18042756D01*
X10065536Y-18042756D02*
X10056012Y-18052280D01*
X10056012Y-18052280D02*
X10036965Y-18061804D01*
X10036965Y-18061804D02*
X10017917Y-18061804D01*
X10017917Y-18061804D02*
X9998869Y-18052280D01*
X9998869Y-18052280D02*
X9989346Y-18042756D01*
X9989346Y-18042756D02*
X9979822Y-18023708D01*
X9979822Y-18023708D02*
X9970298Y-17985613D01*
X9970298Y-17985613D02*
X9970298Y-17937994D01*
X9970298Y-17937994D02*
X9979822Y-17899899D01*
X9979822Y-17899899D02*
X9989346Y-17880851D01*
X9989346Y-17880851D02*
X9998869Y-17871327D01*
X9998869Y-17871327D02*
X10017917Y-17861804D01*
X10170298Y-18042756D02*
X10179822Y-18052280D01*
X10179822Y-18052280D02*
X10170298Y-18061804D01*
X10170298Y-18061804D02*
X10160774Y-18052280D01*
X10160774Y-18052280D02*
X10170298Y-18042756D01*
X10170298Y-18042756D02*
X10170298Y-18061804D01*
X10246488Y-17861804D02*
X10379822Y-17861804D01*
X10379822Y-17861804D02*
X10294107Y-18061804D01*
X10541727Y-17861804D02*
X10503631Y-17861804D01*
X10503631Y-17861804D02*
X10484584Y-17871327D01*
X10484584Y-17871327D02*
X10475060Y-17880851D01*
X10475060Y-17880851D02*
X10456012Y-17909423D01*
X10456012Y-17909423D02*
X10446488Y-17947518D01*
X10446488Y-17947518D02*
X10446488Y-18023708D01*
X10446488Y-18023708D02*
X10456012Y-18042756D01*
X10456012Y-18042756D02*
X10465536Y-18052280D01*
X10465536Y-18052280D02*
X10484584Y-18061804D01*
X10484584Y-18061804D02*
X10522679Y-18061804D01*
X10522679Y-18061804D02*
X10541727Y-18052280D01*
X10541727Y-18052280D02*
X10551250Y-18042756D01*
X10551250Y-18042756D02*
X10560774Y-18023708D01*
X10560774Y-18023708D02*
X10560774Y-17976089D01*
X10560774Y-17976089D02*
X10551250Y-17957042D01*
X10551250Y-17957042D02*
X10541727Y-17947518D01*
X10541727Y-17947518D02*
X10522679Y-17937994D01*
X10522679Y-17937994D02*
X10484584Y-17937994D01*
X10484584Y-17937994D02*
X10465536Y-17947518D01*
X10465536Y-17947518D02*
X10456012Y-17957042D01*
X10456012Y-17957042D02*
X10446488Y-17976089D01*
X10636965Y-17880851D02*
X10646488Y-17871327D01*
X10646488Y-17871327D02*
X10665536Y-17861804D01*
X10665536Y-17861804D02*
X10713155Y-17861804D01*
X10713155Y-17861804D02*
X10732203Y-17871327D01*
X10732203Y-17871327D02*
X10741727Y-17880851D01*
X10741727Y-17880851D02*
X10751250Y-17899899D01*
X10751250Y-17899899D02*
X10751250Y-17918946D01*
X10751250Y-17918946D02*
X10741727Y-17947518D01*
X10741727Y-17947518D02*
X10627441Y-18061804D01*
X10627441Y-18061804D02*
X10751250Y-18061804D01*
X10836965Y-18061804D02*
X10836965Y-17928470D01*
X10836965Y-17947518D02*
X10846488Y-17937994D01*
X10846488Y-17937994D02*
X10865536Y-17928470D01*
X10865536Y-17928470D02*
X10894108Y-17928470D01*
X10894108Y-17928470D02*
X10913155Y-17937994D01*
X10913155Y-17937994D02*
X10922679Y-17957042D01*
X10922679Y-17957042D02*
X10922679Y-18061804D01*
X10922679Y-17957042D02*
X10932203Y-17937994D01*
X10932203Y-17937994D02*
X10951250Y-17928470D01*
X10951250Y-17928470D02*
X10979822Y-17928470D01*
X10979822Y-17928470D02*
X10998869Y-17937994D01*
X10998869Y-17937994D02*
X11008393Y-17957042D01*
X11008393Y-17957042D02*
X11008393Y-18061804D01*
X11103631Y-18061804D02*
X11103631Y-17928470D01*
X11103631Y-17947518D02*
X11113155Y-17937994D01*
X11113155Y-17937994D02*
X11132203Y-17928470D01*
X11132203Y-17928470D02*
X11160774Y-17928470D01*
X11160774Y-17928470D02*
X11179822Y-17937994D01*
X11179822Y-17937994D02*
X11189346Y-17957042D01*
X11189346Y-17957042D02*
X11189346Y-18061804D01*
X11189346Y-17957042D02*
X11198869Y-17937994D01*
X11198869Y-17937994D02*
X11217917Y-17928470D01*
X11217917Y-17928470D02*
X11246488Y-17928470D01*
X11246488Y-17928470D02*
X11265536Y-17937994D01*
X11265536Y-17937994D02*
X11275060Y-17957042D01*
X11275060Y-17957042D02*
X11275060Y-18061804D01*
X11665536Y-17852280D02*
X11494108Y-18109423D01*
X11922679Y-17861804D02*
X11941727Y-17861804D01*
X11941727Y-17861804D02*
X11960774Y-17871327D01*
X11960774Y-17871327D02*
X11970298Y-17880851D01*
X11970298Y-17880851D02*
X11979822Y-17899899D01*
X11979822Y-17899899D02*
X11989346Y-17937994D01*
X11989346Y-17937994D02*
X11989346Y-17985613D01*
X11989346Y-17985613D02*
X11979822Y-18023708D01*
X11979822Y-18023708D02*
X11970298Y-18042756D01*
X11970298Y-18042756D02*
X11960774Y-18052280D01*
X11960774Y-18052280D02*
X11941727Y-18061804D01*
X11941727Y-18061804D02*
X11922679Y-18061804D01*
X11922679Y-18061804D02*
X11903631Y-18052280D01*
X11903631Y-18052280D02*
X11894108Y-18042756D01*
X11894108Y-18042756D02*
X11884584Y-18023708D01*
X11884584Y-18023708D02*
X11875060Y-17985613D01*
X11875060Y-17985613D02*
X11875060Y-17937994D01*
X11875060Y-17937994D02*
X11884584Y-17899899D01*
X11884584Y-17899899D02*
X11894108Y-17880851D01*
X11894108Y-17880851D02*
X11903631Y-17871327D01*
X11903631Y-17871327D02*
X11922679Y-17861804D01*
X12075060Y-18042756D02*
X12084584Y-18052280D01*
X12084584Y-18052280D02*
X12075060Y-18061804D01*
X12075060Y-18061804D02*
X12065536Y-18052280D01*
X12065536Y-18052280D02*
X12075060Y-18042756D01*
X12075060Y-18042756D02*
X12075060Y-18061804D01*
X12208393Y-17861804D02*
X12227441Y-17861804D01*
X12227441Y-17861804D02*
X12246489Y-17871327D01*
X12246489Y-17871327D02*
X12256012Y-17880851D01*
X12256012Y-17880851D02*
X12265536Y-17899899D01*
X12265536Y-17899899D02*
X12275060Y-17937994D01*
X12275060Y-17937994D02*
X12275060Y-17985613D01*
X12275060Y-17985613D02*
X12265536Y-18023708D01*
X12265536Y-18023708D02*
X12256012Y-18042756D01*
X12256012Y-18042756D02*
X12246489Y-18052280D01*
X12246489Y-18052280D02*
X12227441Y-18061804D01*
X12227441Y-18061804D02*
X12208393Y-18061804D01*
X12208393Y-18061804D02*
X12189346Y-18052280D01*
X12189346Y-18052280D02*
X12179822Y-18042756D01*
X12179822Y-18042756D02*
X12170298Y-18023708D01*
X12170298Y-18023708D02*
X12160774Y-17985613D01*
X12160774Y-17985613D02*
X12160774Y-17937994D01*
X12160774Y-17937994D02*
X12170298Y-17899899D01*
X12170298Y-17899899D02*
X12179822Y-17880851D01*
X12179822Y-17880851D02*
X12189346Y-17871327D01*
X12189346Y-17871327D02*
X12208393Y-17861804D01*
X12341727Y-17861804D02*
X12465536Y-17861804D01*
X12465536Y-17861804D02*
X12398869Y-17937994D01*
X12398869Y-17937994D02*
X12427441Y-17937994D01*
X12427441Y-17937994D02*
X12446489Y-17947518D01*
X12446489Y-17947518D02*
X12456012Y-17957042D01*
X12456012Y-17957042D02*
X12465536Y-17976089D01*
X12465536Y-17976089D02*
X12465536Y-18023708D01*
X12465536Y-18023708D02*
X12456012Y-18042756D01*
X12456012Y-18042756D02*
X12446489Y-18052280D01*
X12446489Y-18052280D02*
X12427441Y-18061804D01*
X12427441Y-18061804D02*
X12370298Y-18061804D01*
X12370298Y-18061804D02*
X12351250Y-18052280D01*
X12351250Y-18052280D02*
X12341727Y-18042756D01*
X12589346Y-17861804D02*
X12608393Y-17861804D01*
X12608393Y-17861804D02*
X12627441Y-17871327D01*
X12627441Y-17871327D02*
X12636965Y-17880851D01*
X12636965Y-17880851D02*
X12646489Y-17899899D01*
X12646489Y-17899899D02*
X12656012Y-17937994D01*
X12656012Y-17937994D02*
X12656012Y-17985613D01*
X12656012Y-17985613D02*
X12646489Y-18023708D01*
X12646489Y-18023708D02*
X12636965Y-18042756D01*
X12636965Y-18042756D02*
X12627441Y-18052280D01*
X12627441Y-18052280D02*
X12608393Y-18061804D01*
X12608393Y-18061804D02*
X12589346Y-18061804D01*
X12589346Y-18061804D02*
X12570298Y-18052280D01*
X12570298Y-18052280D02*
X12560774Y-18042756D01*
X12560774Y-18042756D02*
X12551250Y-18023708D01*
X12551250Y-18023708D02*
X12541727Y-17985613D01*
X12541727Y-17985613D02*
X12541727Y-17937994D01*
X12541727Y-17937994D02*
X12551250Y-17899899D01*
X12551250Y-17899899D02*
X12560774Y-17880851D01*
X12560774Y-17880851D02*
X12570298Y-17871327D01*
X12570298Y-17871327D02*
X12589346Y-17861804D01*
X12779822Y-17861804D02*
X12798870Y-17861804D01*
X12798870Y-17861804D02*
X12817917Y-17871327D01*
X12817917Y-17871327D02*
X12827441Y-17880851D01*
X12827441Y-17880851D02*
X12836965Y-17899899D01*
X12836965Y-17899899D02*
X12846489Y-17937994D01*
X12846489Y-17937994D02*
X12846489Y-17985613D01*
X12846489Y-17985613D02*
X12836965Y-18023708D01*
X12836965Y-18023708D02*
X12827441Y-18042756D01*
X12827441Y-18042756D02*
X12817917Y-18052280D01*
X12817917Y-18052280D02*
X12798870Y-18061804D01*
X12798870Y-18061804D02*
X12779822Y-18061804D01*
X12779822Y-18061804D02*
X12760774Y-18052280D01*
X12760774Y-18052280D02*
X12751250Y-18042756D01*
X12751250Y-18042756D02*
X12741727Y-18023708D01*
X12741727Y-18023708D02*
X12732203Y-17985613D01*
X12732203Y-17985613D02*
X12732203Y-17937994D01*
X12732203Y-17937994D02*
X12741727Y-17899899D01*
X12741727Y-17899899D02*
X12751250Y-17880851D01*
X12751250Y-17880851D02*
X12760774Y-17871327D01*
X12760774Y-17871327D02*
X12779822Y-17861804D01*
X12922679Y-17861804D02*
X12922679Y-17899899D01*
X12998870Y-17861804D02*
X12998870Y-17899899D01*
X13294108Y-18137994D02*
X13284584Y-18128470D01*
X13284584Y-18128470D02*
X13265536Y-18099899D01*
X13265536Y-18099899D02*
X13256012Y-18080851D01*
X13256012Y-18080851D02*
X13246489Y-18052280D01*
X13246489Y-18052280D02*
X13236965Y-18004661D01*
X13236965Y-18004661D02*
X13236965Y-17966566D01*
X13236965Y-17966566D02*
X13246489Y-17918946D01*
X13246489Y-17918946D02*
X13256012Y-17890375D01*
X13256012Y-17890375D02*
X13265536Y-17871327D01*
X13265536Y-17871327D02*
X13284584Y-17842756D01*
X13284584Y-17842756D02*
X13294108Y-17833232D01*
X13456012Y-17861804D02*
X13417917Y-17861804D01*
X13417917Y-17861804D02*
X13398870Y-17871327D01*
X13398870Y-17871327D02*
X13389346Y-17880851D01*
X13389346Y-17880851D02*
X13370298Y-17909423D01*
X13370298Y-17909423D02*
X13360774Y-17947518D01*
X13360774Y-17947518D02*
X13360774Y-18023708D01*
X13360774Y-18023708D02*
X13370298Y-18042756D01*
X13370298Y-18042756D02*
X13379822Y-18052280D01*
X13379822Y-18052280D02*
X13398870Y-18061804D01*
X13398870Y-18061804D02*
X13436965Y-18061804D01*
X13436965Y-18061804D02*
X13456012Y-18052280D01*
X13456012Y-18052280D02*
X13465536Y-18042756D01*
X13465536Y-18042756D02*
X13475060Y-18023708D01*
X13475060Y-18023708D02*
X13475060Y-17976089D01*
X13475060Y-17976089D02*
X13465536Y-17957042D01*
X13465536Y-17957042D02*
X13456012Y-17947518D01*
X13456012Y-17947518D02*
X13436965Y-17937994D01*
X13436965Y-17937994D02*
X13398870Y-17937994D01*
X13398870Y-17937994D02*
X13379822Y-17947518D01*
X13379822Y-17947518D02*
X13370298Y-17957042D01*
X13370298Y-17957042D02*
X13360774Y-17976089D01*
X13589346Y-17947518D02*
X13570298Y-17937994D01*
X13570298Y-17937994D02*
X13560774Y-17928470D01*
X13560774Y-17928470D02*
X13551251Y-17909423D01*
X13551251Y-17909423D02*
X13551251Y-17899899D01*
X13551251Y-17899899D02*
X13560774Y-17880851D01*
X13560774Y-17880851D02*
X13570298Y-17871327D01*
X13570298Y-17871327D02*
X13589346Y-17861804D01*
X13589346Y-17861804D02*
X13627441Y-17861804D01*
X13627441Y-17861804D02*
X13646489Y-17871327D01*
X13646489Y-17871327D02*
X13656012Y-17880851D01*
X13656012Y-17880851D02*
X13665536Y-17899899D01*
X13665536Y-17899899D02*
X13665536Y-17909423D01*
X13665536Y-17909423D02*
X13656012Y-17928470D01*
X13656012Y-17928470D02*
X13646489Y-17937994D01*
X13646489Y-17937994D02*
X13627441Y-17947518D01*
X13627441Y-17947518D02*
X13589346Y-17947518D01*
X13589346Y-17947518D02*
X13570298Y-17957042D01*
X13570298Y-17957042D02*
X13560774Y-17966566D01*
X13560774Y-17966566D02*
X13551251Y-17985613D01*
X13551251Y-17985613D02*
X13551251Y-18023708D01*
X13551251Y-18023708D02*
X13560774Y-18042756D01*
X13560774Y-18042756D02*
X13570298Y-18052280D01*
X13570298Y-18052280D02*
X13589346Y-18061804D01*
X13589346Y-18061804D02*
X13627441Y-18061804D01*
X13627441Y-18061804D02*
X13646489Y-18052280D01*
X13646489Y-18052280D02*
X13656012Y-18042756D01*
X13656012Y-18042756D02*
X13665536Y-18023708D01*
X13665536Y-18023708D02*
X13665536Y-17985613D01*
X13665536Y-17985613D02*
X13656012Y-17966566D01*
X13656012Y-17966566D02*
X13646489Y-17957042D01*
X13646489Y-17957042D02*
X13627441Y-17947518D01*
X13903632Y-18061804D02*
X13903632Y-17861804D01*
X13989346Y-18061804D02*
X13989346Y-17957042D01*
X13989346Y-17957042D02*
X13979822Y-17937994D01*
X13979822Y-17937994D02*
X13960774Y-17928470D01*
X13960774Y-17928470D02*
X13932203Y-17928470D01*
X13932203Y-17928470D02*
X13913155Y-17937994D01*
X13913155Y-17937994D02*
X13903632Y-17947518D01*
X14113155Y-18061804D02*
X14094108Y-18052280D01*
X14094108Y-18052280D02*
X14084584Y-18042756D01*
X14084584Y-18042756D02*
X14075060Y-18023708D01*
X14075060Y-18023708D02*
X14075060Y-17966566D01*
X14075060Y-17966566D02*
X14084584Y-17947518D01*
X14084584Y-17947518D02*
X14094108Y-17937994D01*
X14094108Y-17937994D02*
X14113155Y-17928470D01*
X14113155Y-17928470D02*
X14141727Y-17928470D01*
X14141727Y-17928470D02*
X14160774Y-17937994D01*
X14160774Y-17937994D02*
X14170298Y-17947518D01*
X14170298Y-17947518D02*
X14179822Y-17966566D01*
X14179822Y-17966566D02*
X14179822Y-18023708D01*
X14179822Y-18023708D02*
X14170298Y-18042756D01*
X14170298Y-18042756D02*
X14160774Y-18052280D01*
X14160774Y-18052280D02*
X14141727Y-18061804D01*
X14141727Y-18061804D02*
X14113155Y-18061804D01*
X14294108Y-18061804D02*
X14275060Y-18052280D01*
X14275060Y-18052280D02*
X14265536Y-18033232D01*
X14265536Y-18033232D02*
X14265536Y-17861804D01*
X14446489Y-18052280D02*
X14427441Y-18061804D01*
X14427441Y-18061804D02*
X14389346Y-18061804D01*
X14389346Y-18061804D02*
X14370298Y-18052280D01*
X14370298Y-18052280D02*
X14360774Y-18033232D01*
X14360774Y-18033232D02*
X14360774Y-17957042D01*
X14360774Y-17957042D02*
X14370298Y-17937994D01*
X14370298Y-17937994D02*
X14389346Y-17928470D01*
X14389346Y-17928470D02*
X14427441Y-17928470D01*
X14427441Y-17928470D02*
X14446489Y-17937994D01*
X14446489Y-17937994D02*
X14456013Y-17957042D01*
X14456013Y-17957042D02*
X14456013Y-17976089D01*
X14456013Y-17976089D02*
X14360774Y-17995137D01*
X14532203Y-18052280D02*
X14551251Y-18061804D01*
X14551251Y-18061804D02*
X14589346Y-18061804D01*
X14589346Y-18061804D02*
X14608394Y-18052280D01*
X14608394Y-18052280D02*
X14617917Y-18033232D01*
X14617917Y-18033232D02*
X14617917Y-18023708D01*
X14617917Y-18023708D02*
X14608394Y-18004661D01*
X14608394Y-18004661D02*
X14589346Y-17995137D01*
X14589346Y-17995137D02*
X14560774Y-17995137D01*
X14560774Y-17995137D02*
X14541727Y-17985613D01*
X14541727Y-17985613D02*
X14532203Y-17966566D01*
X14532203Y-17966566D02*
X14532203Y-17957042D01*
X14532203Y-17957042D02*
X14541727Y-17937994D01*
X14541727Y-17937994D02*
X14560774Y-17928470D01*
X14560774Y-17928470D02*
X14589346Y-17928470D01*
X14589346Y-17928470D02*
X14608394Y-17937994D01*
X14684584Y-18137994D02*
X14694108Y-18128470D01*
X14694108Y-18128470D02*
X14713155Y-18099899D01*
X14713155Y-18099899D02*
X14722679Y-18080851D01*
X14722679Y-18080851D02*
X14732203Y-18052280D01*
X14732203Y-18052280D02*
X14741727Y-18004661D01*
X14741727Y-18004661D02*
X14741727Y-17966566D01*
X14741727Y-17966566D02*
X14732203Y-17918946D01*
X14732203Y-17918946D02*
X14722679Y-17890375D01*
X14722679Y-17890375D02*
X14713155Y-17871327D01*
X14713155Y-17871327D02*
X14694108Y-17842756D01*
X14694108Y-17842756D02*
X14684584Y-17833232D01*
D10*
X9719045Y-18234320D02*
G75*
G03*
X9639045Y-18234320I-40000J0D01*
G01*
X9639045Y-18234320D02*
G75*
G03*
X9719045Y-18234320I40000J0D01*
G01*
D11*
X10017917Y-18125804D02*
X10036965Y-18125804D01*
X10036965Y-18125804D02*
X10056012Y-18135327D01*
X10056012Y-18135327D02*
X10065536Y-18144851D01*
X10065536Y-18144851D02*
X10075060Y-18163899D01*
X10075060Y-18163899D02*
X10084584Y-18201994D01*
X10084584Y-18201994D02*
X10084584Y-18249613D01*
X10084584Y-18249613D02*
X10075060Y-18287708D01*
X10075060Y-18287708D02*
X10065536Y-18306756D01*
X10065536Y-18306756D02*
X10056012Y-18316280D01*
X10056012Y-18316280D02*
X10036965Y-18325804D01*
X10036965Y-18325804D02*
X10017917Y-18325804D01*
X10017917Y-18325804D02*
X9998869Y-18316280D01*
X9998869Y-18316280D02*
X9989346Y-18306756D01*
X9989346Y-18306756D02*
X9979822Y-18287708D01*
X9979822Y-18287708D02*
X9970298Y-18249613D01*
X9970298Y-18249613D02*
X9970298Y-18201994D01*
X9970298Y-18201994D02*
X9979822Y-18163899D01*
X9979822Y-18163899D02*
X9989346Y-18144851D01*
X9989346Y-18144851D02*
X9998869Y-18135327D01*
X9998869Y-18135327D02*
X10017917Y-18125804D01*
X10170298Y-18306756D02*
X10179822Y-18316280D01*
X10179822Y-18316280D02*
X10170298Y-18325804D01*
X10170298Y-18325804D02*
X10160774Y-18316280D01*
X10160774Y-18316280D02*
X10170298Y-18306756D01*
X10170298Y-18306756D02*
X10170298Y-18325804D01*
X10294107Y-18211518D02*
X10275060Y-18201994D01*
X10275060Y-18201994D02*
X10265536Y-18192470D01*
X10265536Y-18192470D02*
X10256012Y-18173423D01*
X10256012Y-18173423D02*
X10256012Y-18163899D01*
X10256012Y-18163899D02*
X10265536Y-18144851D01*
X10265536Y-18144851D02*
X10275060Y-18135327D01*
X10275060Y-18135327D02*
X10294107Y-18125804D01*
X10294107Y-18125804D02*
X10332203Y-18125804D01*
X10332203Y-18125804D02*
X10351250Y-18135327D01*
X10351250Y-18135327D02*
X10360774Y-18144851D01*
X10360774Y-18144851D02*
X10370298Y-18163899D01*
X10370298Y-18163899D02*
X10370298Y-18173423D01*
X10370298Y-18173423D02*
X10360774Y-18192470D01*
X10360774Y-18192470D02*
X10351250Y-18201994D01*
X10351250Y-18201994D02*
X10332203Y-18211518D01*
X10332203Y-18211518D02*
X10294107Y-18211518D01*
X10294107Y-18211518D02*
X10275060Y-18221042D01*
X10275060Y-18221042D02*
X10265536Y-18230566D01*
X10265536Y-18230566D02*
X10256012Y-18249613D01*
X10256012Y-18249613D02*
X10256012Y-18287708D01*
X10256012Y-18287708D02*
X10265536Y-18306756D01*
X10265536Y-18306756D02*
X10275060Y-18316280D01*
X10275060Y-18316280D02*
X10294107Y-18325804D01*
X10294107Y-18325804D02*
X10332203Y-18325804D01*
X10332203Y-18325804D02*
X10351250Y-18316280D01*
X10351250Y-18316280D02*
X10360774Y-18306756D01*
X10360774Y-18306756D02*
X10370298Y-18287708D01*
X10370298Y-18287708D02*
X10370298Y-18249613D01*
X10370298Y-18249613D02*
X10360774Y-18230566D01*
X10360774Y-18230566D02*
X10351250Y-18221042D01*
X10351250Y-18221042D02*
X10332203Y-18211518D01*
X10494107Y-18125804D02*
X10513155Y-18125804D01*
X10513155Y-18125804D02*
X10532203Y-18135327D01*
X10532203Y-18135327D02*
X10541727Y-18144851D01*
X10541727Y-18144851D02*
X10551250Y-18163899D01*
X10551250Y-18163899D02*
X10560774Y-18201994D01*
X10560774Y-18201994D02*
X10560774Y-18249613D01*
X10560774Y-18249613D02*
X10551250Y-18287708D01*
X10551250Y-18287708D02*
X10541727Y-18306756D01*
X10541727Y-18306756D02*
X10532203Y-18316280D01*
X10532203Y-18316280D02*
X10513155Y-18325804D01*
X10513155Y-18325804D02*
X10494107Y-18325804D01*
X10494107Y-18325804D02*
X10475060Y-18316280D01*
X10475060Y-18316280D02*
X10465536Y-18306756D01*
X10465536Y-18306756D02*
X10456012Y-18287708D01*
X10456012Y-18287708D02*
X10446488Y-18249613D01*
X10446488Y-18249613D02*
X10446488Y-18201994D01*
X10446488Y-18201994D02*
X10456012Y-18163899D01*
X10456012Y-18163899D02*
X10465536Y-18144851D01*
X10465536Y-18144851D02*
X10475060Y-18135327D01*
X10475060Y-18135327D02*
X10494107Y-18125804D01*
X10684584Y-18125804D02*
X10703631Y-18125804D01*
X10703631Y-18125804D02*
X10722679Y-18135327D01*
X10722679Y-18135327D02*
X10732203Y-18144851D01*
X10732203Y-18144851D02*
X10741727Y-18163899D01*
X10741727Y-18163899D02*
X10751250Y-18201994D01*
X10751250Y-18201994D02*
X10751250Y-18249613D01*
X10751250Y-18249613D02*
X10741727Y-18287708D01*
X10741727Y-18287708D02*
X10732203Y-18306756D01*
X10732203Y-18306756D02*
X10722679Y-18316280D01*
X10722679Y-18316280D02*
X10703631Y-18325804D01*
X10703631Y-18325804D02*
X10684584Y-18325804D01*
X10684584Y-18325804D02*
X10665536Y-18316280D01*
X10665536Y-18316280D02*
X10656012Y-18306756D01*
X10656012Y-18306756D02*
X10646488Y-18287708D01*
X10646488Y-18287708D02*
X10636965Y-18249613D01*
X10636965Y-18249613D02*
X10636965Y-18201994D01*
X10636965Y-18201994D02*
X10646488Y-18163899D01*
X10646488Y-18163899D02*
X10656012Y-18144851D01*
X10656012Y-18144851D02*
X10665536Y-18135327D01*
X10665536Y-18135327D02*
X10684584Y-18125804D01*
X10836965Y-18325804D02*
X10836965Y-18192470D01*
X10836965Y-18211518D02*
X10846488Y-18201994D01*
X10846488Y-18201994D02*
X10865536Y-18192470D01*
X10865536Y-18192470D02*
X10894108Y-18192470D01*
X10894108Y-18192470D02*
X10913155Y-18201994D01*
X10913155Y-18201994D02*
X10922679Y-18221042D01*
X10922679Y-18221042D02*
X10922679Y-18325804D01*
X10922679Y-18221042D02*
X10932203Y-18201994D01*
X10932203Y-18201994D02*
X10951250Y-18192470D01*
X10951250Y-18192470D02*
X10979822Y-18192470D01*
X10979822Y-18192470D02*
X10998869Y-18201994D01*
X10998869Y-18201994D02*
X11008393Y-18221042D01*
X11008393Y-18221042D02*
X11008393Y-18325804D01*
X11103631Y-18325804D02*
X11103631Y-18192470D01*
X11103631Y-18211518D02*
X11113155Y-18201994D01*
X11113155Y-18201994D02*
X11132203Y-18192470D01*
X11132203Y-18192470D02*
X11160774Y-18192470D01*
X11160774Y-18192470D02*
X11179822Y-18201994D01*
X11179822Y-18201994D02*
X11189346Y-18221042D01*
X11189346Y-18221042D02*
X11189346Y-18325804D01*
X11189346Y-18221042D02*
X11198869Y-18201994D01*
X11198869Y-18201994D02*
X11217917Y-18192470D01*
X11217917Y-18192470D02*
X11246488Y-18192470D01*
X11246488Y-18192470D02*
X11265536Y-18201994D01*
X11265536Y-18201994D02*
X11275060Y-18221042D01*
X11275060Y-18221042D02*
X11275060Y-18325804D01*
X11665536Y-18116280D02*
X11494108Y-18373423D01*
X11922679Y-18125804D02*
X11941727Y-18125804D01*
X11941727Y-18125804D02*
X11960774Y-18135327D01*
X11960774Y-18135327D02*
X11970298Y-18144851D01*
X11970298Y-18144851D02*
X11979822Y-18163899D01*
X11979822Y-18163899D02*
X11989346Y-18201994D01*
X11989346Y-18201994D02*
X11989346Y-18249613D01*
X11989346Y-18249613D02*
X11979822Y-18287708D01*
X11979822Y-18287708D02*
X11970298Y-18306756D01*
X11970298Y-18306756D02*
X11960774Y-18316280D01*
X11960774Y-18316280D02*
X11941727Y-18325804D01*
X11941727Y-18325804D02*
X11922679Y-18325804D01*
X11922679Y-18325804D02*
X11903631Y-18316280D01*
X11903631Y-18316280D02*
X11894108Y-18306756D01*
X11894108Y-18306756D02*
X11884584Y-18287708D01*
X11884584Y-18287708D02*
X11875060Y-18249613D01*
X11875060Y-18249613D02*
X11875060Y-18201994D01*
X11875060Y-18201994D02*
X11884584Y-18163899D01*
X11884584Y-18163899D02*
X11894108Y-18144851D01*
X11894108Y-18144851D02*
X11903631Y-18135327D01*
X11903631Y-18135327D02*
X11922679Y-18125804D01*
X12075060Y-18306756D02*
X12084584Y-18316280D01*
X12084584Y-18316280D02*
X12075060Y-18325804D01*
X12075060Y-18325804D02*
X12065536Y-18316280D01*
X12065536Y-18316280D02*
X12075060Y-18306756D01*
X12075060Y-18306756D02*
X12075060Y-18325804D01*
X12208393Y-18125804D02*
X12227441Y-18125804D01*
X12227441Y-18125804D02*
X12246489Y-18135327D01*
X12246489Y-18135327D02*
X12256012Y-18144851D01*
X12256012Y-18144851D02*
X12265536Y-18163899D01*
X12265536Y-18163899D02*
X12275060Y-18201994D01*
X12275060Y-18201994D02*
X12275060Y-18249613D01*
X12275060Y-18249613D02*
X12265536Y-18287708D01*
X12265536Y-18287708D02*
X12256012Y-18306756D01*
X12256012Y-18306756D02*
X12246489Y-18316280D01*
X12246489Y-18316280D02*
X12227441Y-18325804D01*
X12227441Y-18325804D02*
X12208393Y-18325804D01*
X12208393Y-18325804D02*
X12189346Y-18316280D01*
X12189346Y-18316280D02*
X12179822Y-18306756D01*
X12179822Y-18306756D02*
X12170298Y-18287708D01*
X12170298Y-18287708D02*
X12160774Y-18249613D01*
X12160774Y-18249613D02*
X12160774Y-18201994D01*
X12160774Y-18201994D02*
X12170298Y-18163899D01*
X12170298Y-18163899D02*
X12179822Y-18144851D01*
X12179822Y-18144851D02*
X12189346Y-18135327D01*
X12189346Y-18135327D02*
X12208393Y-18125804D01*
X12341727Y-18125804D02*
X12465536Y-18125804D01*
X12465536Y-18125804D02*
X12398869Y-18201994D01*
X12398869Y-18201994D02*
X12427441Y-18201994D01*
X12427441Y-18201994D02*
X12446489Y-18211518D01*
X12446489Y-18211518D02*
X12456012Y-18221042D01*
X12456012Y-18221042D02*
X12465536Y-18240089D01*
X12465536Y-18240089D02*
X12465536Y-18287708D01*
X12465536Y-18287708D02*
X12456012Y-18306756D01*
X12456012Y-18306756D02*
X12446489Y-18316280D01*
X12446489Y-18316280D02*
X12427441Y-18325804D01*
X12427441Y-18325804D02*
X12370298Y-18325804D01*
X12370298Y-18325804D02*
X12351250Y-18316280D01*
X12351250Y-18316280D02*
X12341727Y-18306756D01*
X12656012Y-18325804D02*
X12541727Y-18325804D01*
X12598869Y-18325804D02*
X12598869Y-18125804D01*
X12598869Y-18125804D02*
X12579822Y-18154375D01*
X12579822Y-18154375D02*
X12560774Y-18173423D01*
X12560774Y-18173423D02*
X12541727Y-18182946D01*
X12836965Y-18125804D02*
X12741727Y-18125804D01*
X12741727Y-18125804D02*
X12732203Y-18221042D01*
X12732203Y-18221042D02*
X12741727Y-18211518D01*
X12741727Y-18211518D02*
X12760774Y-18201994D01*
X12760774Y-18201994D02*
X12808393Y-18201994D01*
X12808393Y-18201994D02*
X12827441Y-18211518D01*
X12827441Y-18211518D02*
X12836965Y-18221042D01*
X12836965Y-18221042D02*
X12846489Y-18240089D01*
X12846489Y-18240089D02*
X12846489Y-18287708D01*
X12846489Y-18287708D02*
X12836965Y-18306756D01*
X12836965Y-18306756D02*
X12827441Y-18316280D01*
X12827441Y-18316280D02*
X12808393Y-18325804D01*
X12808393Y-18325804D02*
X12760774Y-18325804D01*
X12760774Y-18325804D02*
X12741727Y-18316280D01*
X12741727Y-18316280D02*
X12732203Y-18306756D01*
X12922679Y-18125804D02*
X12922679Y-18163899D01*
X12998870Y-18125804D02*
X12998870Y-18163899D01*
X13294108Y-18401994D02*
X13284584Y-18392470D01*
X13284584Y-18392470D02*
X13265536Y-18363899D01*
X13265536Y-18363899D02*
X13256012Y-18344851D01*
X13256012Y-18344851D02*
X13246489Y-18316280D01*
X13246489Y-18316280D02*
X13236965Y-18268661D01*
X13236965Y-18268661D02*
X13236965Y-18230566D01*
X13236965Y-18230566D02*
X13246489Y-18182946D01*
X13246489Y-18182946D02*
X13256012Y-18154375D01*
X13256012Y-18154375D02*
X13265536Y-18135327D01*
X13265536Y-18135327D02*
X13284584Y-18106756D01*
X13284584Y-18106756D02*
X13294108Y-18097232D01*
X13351251Y-18125804D02*
X13484584Y-18125804D01*
X13484584Y-18125804D02*
X13398870Y-18325804D01*
X13551251Y-18144851D02*
X13560774Y-18135327D01*
X13560774Y-18135327D02*
X13579822Y-18125804D01*
X13579822Y-18125804D02*
X13627441Y-18125804D01*
X13627441Y-18125804D02*
X13646489Y-18135327D01*
X13646489Y-18135327D02*
X13656012Y-18144851D01*
X13656012Y-18144851D02*
X13665536Y-18163899D01*
X13665536Y-18163899D02*
X13665536Y-18182946D01*
X13665536Y-18182946D02*
X13656012Y-18211518D01*
X13656012Y-18211518D02*
X13541727Y-18325804D01*
X13541727Y-18325804D02*
X13665536Y-18325804D01*
X13903632Y-18325804D02*
X13903632Y-18125804D01*
X13989346Y-18325804D02*
X13989346Y-18221042D01*
X13989346Y-18221042D02*
X13979822Y-18201994D01*
X13979822Y-18201994D02*
X13960774Y-18192470D01*
X13960774Y-18192470D02*
X13932203Y-18192470D01*
X13932203Y-18192470D02*
X13913155Y-18201994D01*
X13913155Y-18201994D02*
X13903632Y-18211518D01*
X14113155Y-18325804D02*
X14094108Y-18316280D01*
X14094108Y-18316280D02*
X14084584Y-18306756D01*
X14084584Y-18306756D02*
X14075060Y-18287708D01*
X14075060Y-18287708D02*
X14075060Y-18230566D01*
X14075060Y-18230566D02*
X14084584Y-18211518D01*
X14084584Y-18211518D02*
X14094108Y-18201994D01*
X14094108Y-18201994D02*
X14113155Y-18192470D01*
X14113155Y-18192470D02*
X14141727Y-18192470D01*
X14141727Y-18192470D02*
X14160774Y-18201994D01*
X14160774Y-18201994D02*
X14170298Y-18211518D01*
X14170298Y-18211518D02*
X14179822Y-18230566D01*
X14179822Y-18230566D02*
X14179822Y-18287708D01*
X14179822Y-18287708D02*
X14170298Y-18306756D01*
X14170298Y-18306756D02*
X14160774Y-18316280D01*
X14160774Y-18316280D02*
X14141727Y-18325804D01*
X14141727Y-18325804D02*
X14113155Y-18325804D01*
X14294108Y-18325804D02*
X14275060Y-18316280D01*
X14275060Y-18316280D02*
X14265536Y-18297232D01*
X14265536Y-18297232D02*
X14265536Y-18125804D01*
X14446489Y-18316280D02*
X14427441Y-18325804D01*
X14427441Y-18325804D02*
X14389346Y-18325804D01*
X14389346Y-18325804D02*
X14370298Y-18316280D01*
X14370298Y-18316280D02*
X14360774Y-18297232D01*
X14360774Y-18297232D02*
X14360774Y-18221042D01*
X14360774Y-18221042D02*
X14370298Y-18201994D01*
X14370298Y-18201994D02*
X14389346Y-18192470D01*
X14389346Y-18192470D02*
X14427441Y-18192470D01*
X14427441Y-18192470D02*
X14446489Y-18201994D01*
X14446489Y-18201994D02*
X14456013Y-18221042D01*
X14456013Y-18221042D02*
X14456013Y-18240089D01*
X14456013Y-18240089D02*
X14360774Y-18259137D01*
X14532203Y-18316280D02*
X14551251Y-18325804D01*
X14551251Y-18325804D02*
X14589346Y-18325804D01*
X14589346Y-18325804D02*
X14608394Y-18316280D01*
X14608394Y-18316280D02*
X14617917Y-18297232D01*
X14617917Y-18297232D02*
X14617917Y-18287708D01*
X14617917Y-18287708D02*
X14608394Y-18268661D01*
X14608394Y-18268661D02*
X14589346Y-18259137D01*
X14589346Y-18259137D02*
X14560774Y-18259137D01*
X14560774Y-18259137D02*
X14541727Y-18249613D01*
X14541727Y-18249613D02*
X14532203Y-18230566D01*
X14532203Y-18230566D02*
X14532203Y-18221042D01*
X14532203Y-18221042D02*
X14541727Y-18201994D01*
X14541727Y-18201994D02*
X14560774Y-18192470D01*
X14560774Y-18192470D02*
X14589346Y-18192470D01*
X14589346Y-18192470D02*
X14608394Y-18201994D01*
X14684584Y-18401994D02*
X14694108Y-18392470D01*
X14694108Y-18392470D02*
X14713155Y-18363899D01*
X14713155Y-18363899D02*
X14722679Y-18344851D01*
X14722679Y-18344851D02*
X14732203Y-18316280D01*
X14732203Y-18316280D02*
X14741727Y-18268661D01*
X14741727Y-18268661D02*
X14741727Y-18230566D01*
X14741727Y-18230566D02*
X14732203Y-18182946D01*
X14732203Y-18182946D02*
X14722679Y-18154375D01*
X14722679Y-18154375D02*
X14713155Y-18135327D01*
X14713155Y-18135327D02*
X14694108Y-18106756D01*
X14694108Y-18106756D02*
X14684584Y-18097232D01*
D10*
X9669045Y-18448320D02*
X9669045Y-18548320D01*
X9619045Y-18498320D02*
X9719045Y-18498320D01*
D11*
X10084584Y-18589804D02*
X9970298Y-18589804D01*
X10027441Y-18589804D02*
X10027441Y-18389804D01*
X10027441Y-18389804D02*
X10008393Y-18418375D01*
X10008393Y-18418375D02*
X9989346Y-18437423D01*
X9989346Y-18437423D02*
X9970298Y-18446946D01*
X10170298Y-18570756D02*
X10179822Y-18580280D01*
X10179822Y-18580280D02*
X10170298Y-18589804D01*
X10170298Y-18589804D02*
X10160774Y-18580280D01*
X10160774Y-18580280D02*
X10170298Y-18570756D01*
X10170298Y-18570756D02*
X10170298Y-18589804D01*
X10303631Y-18389804D02*
X10322679Y-18389804D01*
X10322679Y-18389804D02*
X10341727Y-18399327D01*
X10341727Y-18399327D02*
X10351250Y-18408851D01*
X10351250Y-18408851D02*
X10360774Y-18427899D01*
X10360774Y-18427899D02*
X10370298Y-18465994D01*
X10370298Y-18465994D02*
X10370298Y-18513613D01*
X10370298Y-18513613D02*
X10360774Y-18551708D01*
X10360774Y-18551708D02*
X10351250Y-18570756D01*
X10351250Y-18570756D02*
X10341727Y-18580280D01*
X10341727Y-18580280D02*
X10322679Y-18589804D01*
X10322679Y-18589804D02*
X10303631Y-18589804D01*
X10303631Y-18589804D02*
X10284584Y-18580280D01*
X10284584Y-18580280D02*
X10275060Y-18570756D01*
X10275060Y-18570756D02*
X10265536Y-18551708D01*
X10265536Y-18551708D02*
X10256012Y-18513613D01*
X10256012Y-18513613D02*
X10256012Y-18465994D01*
X10256012Y-18465994D02*
X10265536Y-18427899D01*
X10265536Y-18427899D02*
X10275060Y-18408851D01*
X10275060Y-18408851D02*
X10284584Y-18399327D01*
X10284584Y-18399327D02*
X10303631Y-18389804D01*
X10494107Y-18389804D02*
X10513155Y-18389804D01*
X10513155Y-18389804D02*
X10532203Y-18399327D01*
X10532203Y-18399327D02*
X10541727Y-18408851D01*
X10541727Y-18408851D02*
X10551250Y-18427899D01*
X10551250Y-18427899D02*
X10560774Y-18465994D01*
X10560774Y-18465994D02*
X10560774Y-18513613D01*
X10560774Y-18513613D02*
X10551250Y-18551708D01*
X10551250Y-18551708D02*
X10541727Y-18570756D01*
X10541727Y-18570756D02*
X10532203Y-18580280D01*
X10532203Y-18580280D02*
X10513155Y-18589804D01*
X10513155Y-18589804D02*
X10494107Y-18589804D01*
X10494107Y-18589804D02*
X10475060Y-18580280D01*
X10475060Y-18580280D02*
X10465536Y-18570756D01*
X10465536Y-18570756D02*
X10456012Y-18551708D01*
X10456012Y-18551708D02*
X10446488Y-18513613D01*
X10446488Y-18513613D02*
X10446488Y-18465994D01*
X10446488Y-18465994D02*
X10456012Y-18427899D01*
X10456012Y-18427899D02*
X10465536Y-18408851D01*
X10465536Y-18408851D02*
X10475060Y-18399327D01*
X10475060Y-18399327D02*
X10494107Y-18389804D01*
X10684584Y-18389804D02*
X10703631Y-18389804D01*
X10703631Y-18389804D02*
X10722679Y-18399327D01*
X10722679Y-18399327D02*
X10732203Y-18408851D01*
X10732203Y-18408851D02*
X10741727Y-18427899D01*
X10741727Y-18427899D02*
X10751250Y-18465994D01*
X10751250Y-18465994D02*
X10751250Y-18513613D01*
X10751250Y-18513613D02*
X10741727Y-18551708D01*
X10741727Y-18551708D02*
X10732203Y-18570756D01*
X10732203Y-18570756D02*
X10722679Y-18580280D01*
X10722679Y-18580280D02*
X10703631Y-18589804D01*
X10703631Y-18589804D02*
X10684584Y-18589804D01*
X10684584Y-18589804D02*
X10665536Y-18580280D01*
X10665536Y-18580280D02*
X10656012Y-18570756D01*
X10656012Y-18570756D02*
X10646488Y-18551708D01*
X10646488Y-18551708D02*
X10636965Y-18513613D01*
X10636965Y-18513613D02*
X10636965Y-18465994D01*
X10636965Y-18465994D02*
X10646488Y-18427899D01*
X10646488Y-18427899D02*
X10656012Y-18408851D01*
X10656012Y-18408851D02*
X10665536Y-18399327D01*
X10665536Y-18399327D02*
X10684584Y-18389804D01*
X10836965Y-18589804D02*
X10836965Y-18456470D01*
X10836965Y-18475518D02*
X10846488Y-18465994D01*
X10846488Y-18465994D02*
X10865536Y-18456470D01*
X10865536Y-18456470D02*
X10894108Y-18456470D01*
X10894108Y-18456470D02*
X10913155Y-18465994D01*
X10913155Y-18465994D02*
X10922679Y-18485042D01*
X10922679Y-18485042D02*
X10922679Y-18589804D01*
X10922679Y-18485042D02*
X10932203Y-18465994D01*
X10932203Y-18465994D02*
X10951250Y-18456470D01*
X10951250Y-18456470D02*
X10979822Y-18456470D01*
X10979822Y-18456470D02*
X10998869Y-18465994D01*
X10998869Y-18465994D02*
X11008393Y-18485042D01*
X11008393Y-18485042D02*
X11008393Y-18589804D01*
X11103631Y-18589804D02*
X11103631Y-18456470D01*
X11103631Y-18475518D02*
X11113155Y-18465994D01*
X11113155Y-18465994D02*
X11132203Y-18456470D01*
X11132203Y-18456470D02*
X11160774Y-18456470D01*
X11160774Y-18456470D02*
X11179822Y-18465994D01*
X11179822Y-18465994D02*
X11189346Y-18485042D01*
X11189346Y-18485042D02*
X11189346Y-18589804D01*
X11189346Y-18485042D02*
X11198869Y-18465994D01*
X11198869Y-18465994D02*
X11217917Y-18456470D01*
X11217917Y-18456470D02*
X11246488Y-18456470D01*
X11246488Y-18456470D02*
X11265536Y-18465994D01*
X11265536Y-18465994D02*
X11275060Y-18485042D01*
X11275060Y-18485042D02*
X11275060Y-18589804D01*
X11665536Y-18380280D02*
X11494108Y-18637423D01*
X11922679Y-18389804D02*
X11941727Y-18389804D01*
X11941727Y-18389804D02*
X11960774Y-18399327D01*
X11960774Y-18399327D02*
X11970298Y-18408851D01*
X11970298Y-18408851D02*
X11979822Y-18427899D01*
X11979822Y-18427899D02*
X11989346Y-18465994D01*
X11989346Y-18465994D02*
X11989346Y-18513613D01*
X11989346Y-18513613D02*
X11979822Y-18551708D01*
X11979822Y-18551708D02*
X11970298Y-18570756D01*
X11970298Y-18570756D02*
X11960774Y-18580280D01*
X11960774Y-18580280D02*
X11941727Y-18589804D01*
X11941727Y-18589804D02*
X11922679Y-18589804D01*
X11922679Y-18589804D02*
X11903631Y-18580280D01*
X11903631Y-18580280D02*
X11894108Y-18570756D01*
X11894108Y-18570756D02*
X11884584Y-18551708D01*
X11884584Y-18551708D02*
X11875060Y-18513613D01*
X11875060Y-18513613D02*
X11875060Y-18465994D01*
X11875060Y-18465994D02*
X11884584Y-18427899D01*
X11884584Y-18427899D02*
X11894108Y-18408851D01*
X11894108Y-18408851D02*
X11903631Y-18399327D01*
X11903631Y-18399327D02*
X11922679Y-18389804D01*
X12075060Y-18570756D02*
X12084584Y-18580280D01*
X12084584Y-18580280D02*
X12075060Y-18589804D01*
X12075060Y-18589804D02*
X12065536Y-18580280D01*
X12065536Y-18580280D02*
X12075060Y-18570756D01*
X12075060Y-18570756D02*
X12075060Y-18589804D01*
X12208393Y-18389804D02*
X12227441Y-18389804D01*
X12227441Y-18389804D02*
X12246489Y-18399327D01*
X12246489Y-18399327D02*
X12256012Y-18408851D01*
X12256012Y-18408851D02*
X12265536Y-18427899D01*
X12265536Y-18427899D02*
X12275060Y-18465994D01*
X12275060Y-18465994D02*
X12275060Y-18513613D01*
X12275060Y-18513613D02*
X12265536Y-18551708D01*
X12265536Y-18551708D02*
X12256012Y-18570756D01*
X12256012Y-18570756D02*
X12246489Y-18580280D01*
X12246489Y-18580280D02*
X12227441Y-18589804D01*
X12227441Y-18589804D02*
X12208393Y-18589804D01*
X12208393Y-18589804D02*
X12189346Y-18580280D01*
X12189346Y-18580280D02*
X12179822Y-18570756D01*
X12179822Y-18570756D02*
X12170298Y-18551708D01*
X12170298Y-18551708D02*
X12160774Y-18513613D01*
X12160774Y-18513613D02*
X12160774Y-18465994D01*
X12160774Y-18465994D02*
X12170298Y-18427899D01*
X12170298Y-18427899D02*
X12179822Y-18408851D01*
X12179822Y-18408851D02*
X12189346Y-18399327D01*
X12189346Y-18399327D02*
X12208393Y-18389804D01*
X12341727Y-18389804D02*
X12465536Y-18389804D01*
X12465536Y-18389804D02*
X12398869Y-18465994D01*
X12398869Y-18465994D02*
X12427441Y-18465994D01*
X12427441Y-18465994D02*
X12446489Y-18475518D01*
X12446489Y-18475518D02*
X12456012Y-18485042D01*
X12456012Y-18485042D02*
X12465536Y-18504089D01*
X12465536Y-18504089D02*
X12465536Y-18551708D01*
X12465536Y-18551708D02*
X12456012Y-18570756D01*
X12456012Y-18570756D02*
X12446489Y-18580280D01*
X12446489Y-18580280D02*
X12427441Y-18589804D01*
X12427441Y-18589804D02*
X12370298Y-18589804D01*
X12370298Y-18589804D02*
X12351250Y-18580280D01*
X12351250Y-18580280D02*
X12341727Y-18570756D01*
X12560774Y-18589804D02*
X12598869Y-18589804D01*
X12598869Y-18589804D02*
X12617917Y-18580280D01*
X12617917Y-18580280D02*
X12627441Y-18570756D01*
X12627441Y-18570756D02*
X12646489Y-18542185D01*
X12646489Y-18542185D02*
X12656012Y-18504089D01*
X12656012Y-18504089D02*
X12656012Y-18427899D01*
X12656012Y-18427899D02*
X12646489Y-18408851D01*
X12646489Y-18408851D02*
X12636965Y-18399327D01*
X12636965Y-18399327D02*
X12617917Y-18389804D01*
X12617917Y-18389804D02*
X12579822Y-18389804D01*
X12579822Y-18389804D02*
X12560774Y-18399327D01*
X12560774Y-18399327D02*
X12551250Y-18408851D01*
X12551250Y-18408851D02*
X12541727Y-18427899D01*
X12541727Y-18427899D02*
X12541727Y-18475518D01*
X12541727Y-18475518D02*
X12551250Y-18494566D01*
X12551250Y-18494566D02*
X12560774Y-18504089D01*
X12560774Y-18504089D02*
X12579822Y-18513613D01*
X12579822Y-18513613D02*
X12617917Y-18513613D01*
X12617917Y-18513613D02*
X12636965Y-18504089D01*
X12636965Y-18504089D02*
X12646489Y-18494566D01*
X12646489Y-18494566D02*
X12656012Y-18475518D01*
X12827441Y-18456470D02*
X12827441Y-18589804D01*
X12779822Y-18380280D02*
X12732203Y-18523137D01*
X12732203Y-18523137D02*
X12856012Y-18523137D01*
X12922679Y-18389804D02*
X12922679Y-18427899D01*
X12998870Y-18389804D02*
X12998870Y-18427899D01*
X13294108Y-18665994D02*
X13284584Y-18656470D01*
X13284584Y-18656470D02*
X13265536Y-18627899D01*
X13265536Y-18627899D02*
X13256012Y-18608851D01*
X13256012Y-18608851D02*
X13246489Y-18580280D01*
X13246489Y-18580280D02*
X13236965Y-18532661D01*
X13236965Y-18532661D02*
X13236965Y-18494566D01*
X13236965Y-18494566D02*
X13246489Y-18446946D01*
X13246489Y-18446946D02*
X13256012Y-18418375D01*
X13256012Y-18418375D02*
X13265536Y-18399327D01*
X13265536Y-18399327D02*
X13284584Y-18370756D01*
X13284584Y-18370756D02*
X13294108Y-18361232D01*
X13475060Y-18589804D02*
X13360774Y-18589804D01*
X13417917Y-18589804D02*
X13417917Y-18389804D01*
X13417917Y-18389804D02*
X13398870Y-18418375D01*
X13398870Y-18418375D02*
X13379822Y-18437423D01*
X13379822Y-18437423D02*
X13360774Y-18446946D01*
X13551251Y-18408851D02*
X13560774Y-18399327D01*
X13560774Y-18399327D02*
X13579822Y-18389804D01*
X13579822Y-18389804D02*
X13627441Y-18389804D01*
X13627441Y-18389804D02*
X13646489Y-18399327D01*
X13646489Y-18399327D02*
X13656012Y-18408851D01*
X13656012Y-18408851D02*
X13665536Y-18427899D01*
X13665536Y-18427899D02*
X13665536Y-18446946D01*
X13665536Y-18446946D02*
X13656012Y-18475518D01*
X13656012Y-18475518D02*
X13541727Y-18589804D01*
X13541727Y-18589804D02*
X13665536Y-18589804D01*
X13903632Y-18589804D02*
X13903632Y-18389804D01*
X13989346Y-18589804D02*
X13989346Y-18485042D01*
X13989346Y-18485042D02*
X13979822Y-18465994D01*
X13979822Y-18465994D02*
X13960774Y-18456470D01*
X13960774Y-18456470D02*
X13932203Y-18456470D01*
X13932203Y-18456470D02*
X13913155Y-18465994D01*
X13913155Y-18465994D02*
X13903632Y-18475518D01*
X14113155Y-18589804D02*
X14094108Y-18580280D01*
X14094108Y-18580280D02*
X14084584Y-18570756D01*
X14084584Y-18570756D02*
X14075060Y-18551708D01*
X14075060Y-18551708D02*
X14075060Y-18494566D01*
X14075060Y-18494566D02*
X14084584Y-18475518D01*
X14084584Y-18475518D02*
X14094108Y-18465994D01*
X14094108Y-18465994D02*
X14113155Y-18456470D01*
X14113155Y-18456470D02*
X14141727Y-18456470D01*
X14141727Y-18456470D02*
X14160774Y-18465994D01*
X14160774Y-18465994D02*
X14170298Y-18475518D01*
X14170298Y-18475518D02*
X14179822Y-18494566D01*
X14179822Y-18494566D02*
X14179822Y-18551708D01*
X14179822Y-18551708D02*
X14170298Y-18570756D01*
X14170298Y-18570756D02*
X14160774Y-18580280D01*
X14160774Y-18580280D02*
X14141727Y-18589804D01*
X14141727Y-18589804D02*
X14113155Y-18589804D01*
X14294108Y-18589804D02*
X14275060Y-18580280D01*
X14275060Y-18580280D02*
X14265536Y-18561232D01*
X14265536Y-18561232D02*
X14265536Y-18389804D01*
X14446489Y-18580280D02*
X14427441Y-18589804D01*
X14427441Y-18589804D02*
X14389346Y-18589804D01*
X14389346Y-18589804D02*
X14370298Y-18580280D01*
X14370298Y-18580280D02*
X14360774Y-18561232D01*
X14360774Y-18561232D02*
X14360774Y-18485042D01*
X14360774Y-18485042D02*
X14370298Y-18465994D01*
X14370298Y-18465994D02*
X14389346Y-18456470D01*
X14389346Y-18456470D02*
X14427441Y-18456470D01*
X14427441Y-18456470D02*
X14446489Y-18465994D01*
X14446489Y-18465994D02*
X14456013Y-18485042D01*
X14456013Y-18485042D02*
X14456013Y-18504089D01*
X14456013Y-18504089D02*
X14360774Y-18523137D01*
X14532203Y-18580280D02*
X14551251Y-18589804D01*
X14551251Y-18589804D02*
X14589346Y-18589804D01*
X14589346Y-18589804D02*
X14608394Y-18580280D01*
X14608394Y-18580280D02*
X14617917Y-18561232D01*
X14617917Y-18561232D02*
X14617917Y-18551708D01*
X14617917Y-18551708D02*
X14608394Y-18532661D01*
X14608394Y-18532661D02*
X14589346Y-18523137D01*
X14589346Y-18523137D02*
X14560774Y-18523137D01*
X14560774Y-18523137D02*
X14541727Y-18513613D01*
X14541727Y-18513613D02*
X14532203Y-18494566D01*
X14532203Y-18494566D02*
X14532203Y-18485042D01*
X14532203Y-18485042D02*
X14541727Y-18465994D01*
X14541727Y-18465994D02*
X14560774Y-18456470D01*
X14560774Y-18456470D02*
X14589346Y-18456470D01*
X14589346Y-18456470D02*
X14608394Y-18465994D01*
X14684584Y-18665994D02*
X14694108Y-18656470D01*
X14694108Y-18656470D02*
X14713155Y-18627899D01*
X14713155Y-18627899D02*
X14722679Y-18608851D01*
X14722679Y-18608851D02*
X14732203Y-18580280D01*
X14732203Y-18580280D02*
X14741727Y-18532661D01*
X14741727Y-18532661D02*
X14741727Y-18494566D01*
X14741727Y-18494566D02*
X14732203Y-18446946D01*
X14732203Y-18446946D02*
X14722679Y-18418375D01*
X14722679Y-18418375D02*
X14713155Y-18399327D01*
X14713155Y-18399327D02*
X14694108Y-18370756D01*
X14694108Y-18370756D02*
X14684584Y-18361232D01*
D12*
X9704166Y-18798241D02*
X9704166Y-18726398D01*
X9632324Y-18726398D01*
X9632324Y-18798241D01*
X9704166Y-18798241D01*
D11*
X10084584Y-18853804D02*
X9970298Y-18853804D01*
X10027441Y-18853804D02*
X10027441Y-18653804D01*
X10027441Y-18653804D02*
X10008393Y-18682375D01*
X10008393Y-18682375D02*
X9989346Y-18701423D01*
X9989346Y-18701423D02*
X9970298Y-18710946D01*
X10170298Y-18834756D02*
X10179822Y-18844280D01*
X10179822Y-18844280D02*
X10170298Y-18853804D01*
X10170298Y-18853804D02*
X10160774Y-18844280D01*
X10160774Y-18844280D02*
X10170298Y-18834756D01*
X10170298Y-18834756D02*
X10170298Y-18853804D01*
X10303631Y-18653804D02*
X10322679Y-18653804D01*
X10322679Y-18653804D02*
X10341727Y-18663327D01*
X10341727Y-18663327D02*
X10351250Y-18672851D01*
X10351250Y-18672851D02*
X10360774Y-18691899D01*
X10360774Y-18691899D02*
X10370298Y-18729994D01*
X10370298Y-18729994D02*
X10370298Y-18777613D01*
X10370298Y-18777613D02*
X10360774Y-18815708D01*
X10360774Y-18815708D02*
X10351250Y-18834756D01*
X10351250Y-18834756D02*
X10341727Y-18844280D01*
X10341727Y-18844280D02*
X10322679Y-18853804D01*
X10322679Y-18853804D02*
X10303631Y-18853804D01*
X10303631Y-18853804D02*
X10284584Y-18844280D01*
X10284584Y-18844280D02*
X10275060Y-18834756D01*
X10275060Y-18834756D02*
X10265536Y-18815708D01*
X10265536Y-18815708D02*
X10256012Y-18777613D01*
X10256012Y-18777613D02*
X10256012Y-18729994D01*
X10256012Y-18729994D02*
X10265536Y-18691899D01*
X10265536Y-18691899D02*
X10275060Y-18672851D01*
X10275060Y-18672851D02*
X10284584Y-18663327D01*
X10284584Y-18663327D02*
X10303631Y-18653804D01*
X10560774Y-18853804D02*
X10446488Y-18853804D01*
X10503631Y-18853804D02*
X10503631Y-18653804D01*
X10503631Y-18653804D02*
X10484584Y-18682375D01*
X10484584Y-18682375D02*
X10465536Y-18701423D01*
X10465536Y-18701423D02*
X10446488Y-18710946D01*
X10732203Y-18653804D02*
X10694107Y-18653804D01*
X10694107Y-18653804D02*
X10675060Y-18663327D01*
X10675060Y-18663327D02*
X10665536Y-18672851D01*
X10665536Y-18672851D02*
X10646488Y-18701423D01*
X10646488Y-18701423D02*
X10636965Y-18739518D01*
X10636965Y-18739518D02*
X10636965Y-18815708D01*
X10636965Y-18815708D02*
X10646488Y-18834756D01*
X10646488Y-18834756D02*
X10656012Y-18844280D01*
X10656012Y-18844280D02*
X10675060Y-18853804D01*
X10675060Y-18853804D02*
X10713155Y-18853804D01*
X10713155Y-18853804D02*
X10732203Y-18844280D01*
X10732203Y-18844280D02*
X10741727Y-18834756D01*
X10741727Y-18834756D02*
X10751250Y-18815708D01*
X10751250Y-18815708D02*
X10751250Y-18768089D01*
X10751250Y-18768089D02*
X10741727Y-18749042D01*
X10741727Y-18749042D02*
X10732203Y-18739518D01*
X10732203Y-18739518D02*
X10713155Y-18729994D01*
X10713155Y-18729994D02*
X10675060Y-18729994D01*
X10675060Y-18729994D02*
X10656012Y-18739518D01*
X10656012Y-18739518D02*
X10646488Y-18749042D01*
X10646488Y-18749042D02*
X10636965Y-18768089D01*
X10836965Y-18853804D02*
X10836965Y-18720470D01*
X10836965Y-18739518D02*
X10846488Y-18729994D01*
X10846488Y-18729994D02*
X10865536Y-18720470D01*
X10865536Y-18720470D02*
X10894108Y-18720470D01*
X10894108Y-18720470D02*
X10913155Y-18729994D01*
X10913155Y-18729994D02*
X10922679Y-18749042D01*
X10922679Y-18749042D02*
X10922679Y-18853804D01*
X10922679Y-18749042D02*
X10932203Y-18729994D01*
X10932203Y-18729994D02*
X10951250Y-18720470D01*
X10951250Y-18720470D02*
X10979822Y-18720470D01*
X10979822Y-18720470D02*
X10998869Y-18729994D01*
X10998869Y-18729994D02*
X11008393Y-18749042D01*
X11008393Y-18749042D02*
X11008393Y-18853804D01*
X11103631Y-18853804D02*
X11103631Y-18720470D01*
X11103631Y-18739518D02*
X11113155Y-18729994D01*
X11113155Y-18729994D02*
X11132203Y-18720470D01*
X11132203Y-18720470D02*
X11160774Y-18720470D01*
X11160774Y-18720470D02*
X11179822Y-18729994D01*
X11179822Y-18729994D02*
X11189346Y-18749042D01*
X11189346Y-18749042D02*
X11189346Y-18853804D01*
X11189346Y-18749042D02*
X11198869Y-18729994D01*
X11198869Y-18729994D02*
X11217917Y-18720470D01*
X11217917Y-18720470D02*
X11246488Y-18720470D01*
X11246488Y-18720470D02*
X11265536Y-18729994D01*
X11265536Y-18729994D02*
X11275060Y-18749042D01*
X11275060Y-18749042D02*
X11275060Y-18853804D01*
X11665536Y-18644280D02*
X11494108Y-18901423D01*
X11922679Y-18653804D02*
X11941727Y-18653804D01*
X11941727Y-18653804D02*
X11960774Y-18663327D01*
X11960774Y-18663327D02*
X11970298Y-18672851D01*
X11970298Y-18672851D02*
X11979822Y-18691899D01*
X11979822Y-18691899D02*
X11989346Y-18729994D01*
X11989346Y-18729994D02*
X11989346Y-18777613D01*
X11989346Y-18777613D02*
X11979822Y-18815708D01*
X11979822Y-18815708D02*
X11970298Y-18834756D01*
X11970298Y-18834756D02*
X11960774Y-18844280D01*
X11960774Y-18844280D02*
X11941727Y-18853804D01*
X11941727Y-18853804D02*
X11922679Y-18853804D01*
X11922679Y-18853804D02*
X11903631Y-18844280D01*
X11903631Y-18844280D02*
X11894108Y-18834756D01*
X11894108Y-18834756D02*
X11884584Y-18815708D01*
X11884584Y-18815708D02*
X11875060Y-18777613D01*
X11875060Y-18777613D02*
X11875060Y-18729994D01*
X11875060Y-18729994D02*
X11884584Y-18691899D01*
X11884584Y-18691899D02*
X11894108Y-18672851D01*
X11894108Y-18672851D02*
X11903631Y-18663327D01*
X11903631Y-18663327D02*
X11922679Y-18653804D01*
X12075060Y-18834756D02*
X12084584Y-18844280D01*
X12084584Y-18844280D02*
X12075060Y-18853804D01*
X12075060Y-18853804D02*
X12065536Y-18844280D01*
X12065536Y-18844280D02*
X12075060Y-18834756D01*
X12075060Y-18834756D02*
X12075060Y-18853804D01*
X12208393Y-18653804D02*
X12227441Y-18653804D01*
X12227441Y-18653804D02*
X12246489Y-18663327D01*
X12246489Y-18663327D02*
X12256012Y-18672851D01*
X12256012Y-18672851D02*
X12265536Y-18691899D01*
X12265536Y-18691899D02*
X12275060Y-18729994D01*
X12275060Y-18729994D02*
X12275060Y-18777613D01*
X12275060Y-18777613D02*
X12265536Y-18815708D01*
X12265536Y-18815708D02*
X12256012Y-18834756D01*
X12256012Y-18834756D02*
X12246489Y-18844280D01*
X12246489Y-18844280D02*
X12227441Y-18853804D01*
X12227441Y-18853804D02*
X12208393Y-18853804D01*
X12208393Y-18853804D02*
X12189346Y-18844280D01*
X12189346Y-18844280D02*
X12179822Y-18834756D01*
X12179822Y-18834756D02*
X12170298Y-18815708D01*
X12170298Y-18815708D02*
X12160774Y-18777613D01*
X12160774Y-18777613D02*
X12160774Y-18729994D01*
X12160774Y-18729994D02*
X12170298Y-18691899D01*
X12170298Y-18691899D02*
X12179822Y-18672851D01*
X12179822Y-18672851D02*
X12189346Y-18663327D01*
X12189346Y-18663327D02*
X12208393Y-18653804D01*
X12446489Y-18720470D02*
X12446489Y-18853804D01*
X12398869Y-18644280D02*
X12351250Y-18787137D01*
X12351250Y-18787137D02*
X12475060Y-18787137D01*
X12589346Y-18653804D02*
X12608393Y-18653804D01*
X12608393Y-18653804D02*
X12627441Y-18663327D01*
X12627441Y-18663327D02*
X12636965Y-18672851D01*
X12636965Y-18672851D02*
X12646489Y-18691899D01*
X12646489Y-18691899D02*
X12656012Y-18729994D01*
X12656012Y-18729994D02*
X12656012Y-18777613D01*
X12656012Y-18777613D02*
X12646489Y-18815708D01*
X12646489Y-18815708D02*
X12636965Y-18834756D01*
X12636965Y-18834756D02*
X12627441Y-18844280D01*
X12627441Y-18844280D02*
X12608393Y-18853804D01*
X12608393Y-18853804D02*
X12589346Y-18853804D01*
X12589346Y-18853804D02*
X12570298Y-18844280D01*
X12570298Y-18844280D02*
X12560774Y-18834756D01*
X12560774Y-18834756D02*
X12551250Y-18815708D01*
X12551250Y-18815708D02*
X12541727Y-18777613D01*
X12541727Y-18777613D02*
X12541727Y-18729994D01*
X12541727Y-18729994D02*
X12551250Y-18691899D01*
X12551250Y-18691899D02*
X12560774Y-18672851D01*
X12560774Y-18672851D02*
X12570298Y-18663327D01*
X12570298Y-18663327D02*
X12589346Y-18653804D01*
X12779822Y-18653804D02*
X12798870Y-18653804D01*
X12798870Y-18653804D02*
X12817917Y-18663327D01*
X12817917Y-18663327D02*
X12827441Y-18672851D01*
X12827441Y-18672851D02*
X12836965Y-18691899D01*
X12836965Y-18691899D02*
X12846489Y-18729994D01*
X12846489Y-18729994D02*
X12846489Y-18777613D01*
X12846489Y-18777613D02*
X12836965Y-18815708D01*
X12836965Y-18815708D02*
X12827441Y-18834756D01*
X12827441Y-18834756D02*
X12817917Y-18844280D01*
X12817917Y-18844280D02*
X12798870Y-18853804D01*
X12798870Y-18853804D02*
X12779822Y-18853804D01*
X12779822Y-18853804D02*
X12760774Y-18844280D01*
X12760774Y-18844280D02*
X12751250Y-18834756D01*
X12751250Y-18834756D02*
X12741727Y-18815708D01*
X12741727Y-18815708D02*
X12732203Y-18777613D01*
X12732203Y-18777613D02*
X12732203Y-18729994D01*
X12732203Y-18729994D02*
X12741727Y-18691899D01*
X12741727Y-18691899D02*
X12751250Y-18672851D01*
X12751250Y-18672851D02*
X12760774Y-18663327D01*
X12760774Y-18663327D02*
X12779822Y-18653804D01*
X12922679Y-18653804D02*
X12922679Y-18691899D01*
X12998870Y-18653804D02*
X12998870Y-18691899D01*
X13294108Y-18929994D02*
X13284584Y-18920470D01*
X13284584Y-18920470D02*
X13265536Y-18891899D01*
X13265536Y-18891899D02*
X13256012Y-18872851D01*
X13256012Y-18872851D02*
X13246489Y-18844280D01*
X13246489Y-18844280D02*
X13236965Y-18796661D01*
X13236965Y-18796661D02*
X13236965Y-18758566D01*
X13236965Y-18758566D02*
X13246489Y-18710946D01*
X13246489Y-18710946D02*
X13256012Y-18682375D01*
X13256012Y-18682375D02*
X13265536Y-18663327D01*
X13265536Y-18663327D02*
X13284584Y-18634756D01*
X13284584Y-18634756D02*
X13294108Y-18625232D01*
X13351251Y-18653804D02*
X13475060Y-18653804D01*
X13475060Y-18653804D02*
X13408393Y-18729994D01*
X13408393Y-18729994D02*
X13436965Y-18729994D01*
X13436965Y-18729994D02*
X13456012Y-18739518D01*
X13456012Y-18739518D02*
X13465536Y-18749042D01*
X13465536Y-18749042D02*
X13475060Y-18768089D01*
X13475060Y-18768089D02*
X13475060Y-18815708D01*
X13475060Y-18815708D02*
X13465536Y-18834756D01*
X13465536Y-18834756D02*
X13456012Y-18844280D01*
X13456012Y-18844280D02*
X13436965Y-18853804D01*
X13436965Y-18853804D02*
X13379822Y-18853804D01*
X13379822Y-18853804D02*
X13360774Y-18844280D01*
X13360774Y-18844280D02*
X13351251Y-18834756D01*
X13598870Y-18653804D02*
X13617917Y-18653804D01*
X13617917Y-18653804D02*
X13636965Y-18663327D01*
X13636965Y-18663327D02*
X13646489Y-18672851D01*
X13646489Y-18672851D02*
X13656012Y-18691899D01*
X13656012Y-18691899D02*
X13665536Y-18729994D01*
X13665536Y-18729994D02*
X13665536Y-18777613D01*
X13665536Y-18777613D02*
X13656012Y-18815708D01*
X13656012Y-18815708D02*
X13646489Y-18834756D01*
X13646489Y-18834756D02*
X13636965Y-18844280D01*
X13636965Y-18844280D02*
X13617917Y-18853804D01*
X13617917Y-18853804D02*
X13598870Y-18853804D01*
X13598870Y-18853804D02*
X13579822Y-18844280D01*
X13579822Y-18844280D02*
X13570298Y-18834756D01*
X13570298Y-18834756D02*
X13560774Y-18815708D01*
X13560774Y-18815708D02*
X13551251Y-18777613D01*
X13551251Y-18777613D02*
X13551251Y-18729994D01*
X13551251Y-18729994D02*
X13560774Y-18691899D01*
X13560774Y-18691899D02*
X13570298Y-18672851D01*
X13570298Y-18672851D02*
X13579822Y-18663327D01*
X13579822Y-18663327D02*
X13598870Y-18653804D01*
X13903632Y-18853804D02*
X13903632Y-18653804D01*
X13989346Y-18853804D02*
X13989346Y-18749042D01*
X13989346Y-18749042D02*
X13979822Y-18729994D01*
X13979822Y-18729994D02*
X13960774Y-18720470D01*
X13960774Y-18720470D02*
X13932203Y-18720470D01*
X13932203Y-18720470D02*
X13913155Y-18729994D01*
X13913155Y-18729994D02*
X13903632Y-18739518D01*
X14113155Y-18853804D02*
X14094108Y-18844280D01*
X14094108Y-18844280D02*
X14084584Y-18834756D01*
X14084584Y-18834756D02*
X14075060Y-18815708D01*
X14075060Y-18815708D02*
X14075060Y-18758566D01*
X14075060Y-18758566D02*
X14084584Y-18739518D01*
X14084584Y-18739518D02*
X14094108Y-18729994D01*
X14094108Y-18729994D02*
X14113155Y-18720470D01*
X14113155Y-18720470D02*
X14141727Y-18720470D01*
X14141727Y-18720470D02*
X14160774Y-18729994D01*
X14160774Y-18729994D02*
X14170298Y-18739518D01*
X14170298Y-18739518D02*
X14179822Y-18758566D01*
X14179822Y-18758566D02*
X14179822Y-18815708D01*
X14179822Y-18815708D02*
X14170298Y-18834756D01*
X14170298Y-18834756D02*
X14160774Y-18844280D01*
X14160774Y-18844280D02*
X14141727Y-18853804D01*
X14141727Y-18853804D02*
X14113155Y-18853804D01*
X14294108Y-18853804D02*
X14275060Y-18844280D01*
X14275060Y-18844280D02*
X14265536Y-18825232D01*
X14265536Y-18825232D02*
X14265536Y-18653804D01*
X14446489Y-18844280D02*
X14427441Y-18853804D01*
X14427441Y-18853804D02*
X14389346Y-18853804D01*
X14389346Y-18853804D02*
X14370298Y-18844280D01*
X14370298Y-18844280D02*
X14360774Y-18825232D01*
X14360774Y-18825232D02*
X14360774Y-18749042D01*
X14360774Y-18749042D02*
X14370298Y-18729994D01*
X14370298Y-18729994D02*
X14389346Y-18720470D01*
X14389346Y-18720470D02*
X14427441Y-18720470D01*
X14427441Y-18720470D02*
X14446489Y-18729994D01*
X14446489Y-18729994D02*
X14456013Y-18749042D01*
X14456013Y-18749042D02*
X14456013Y-18768089D01*
X14456013Y-18768089D02*
X14360774Y-18787137D01*
X14532203Y-18844280D02*
X14551251Y-18853804D01*
X14551251Y-18853804D02*
X14589346Y-18853804D01*
X14589346Y-18853804D02*
X14608394Y-18844280D01*
X14608394Y-18844280D02*
X14617917Y-18825232D01*
X14617917Y-18825232D02*
X14617917Y-18815708D01*
X14617917Y-18815708D02*
X14608394Y-18796661D01*
X14608394Y-18796661D02*
X14589346Y-18787137D01*
X14589346Y-18787137D02*
X14560774Y-18787137D01*
X14560774Y-18787137D02*
X14541727Y-18777613D01*
X14541727Y-18777613D02*
X14532203Y-18758566D01*
X14532203Y-18758566D02*
X14532203Y-18749042D01*
X14532203Y-18749042D02*
X14541727Y-18729994D01*
X14541727Y-18729994D02*
X14560774Y-18720470D01*
X14560774Y-18720470D02*
X14589346Y-18720470D01*
X14589346Y-18720470D02*
X14608394Y-18729994D01*
X14684584Y-18929994D02*
X14694108Y-18920470D01*
X14694108Y-18920470D02*
X14713155Y-18891899D01*
X14713155Y-18891899D02*
X14722679Y-18872851D01*
X14722679Y-18872851D02*
X14732203Y-18844280D01*
X14732203Y-18844280D02*
X14741727Y-18796661D01*
X14741727Y-18796661D02*
X14741727Y-18758566D01*
X14741727Y-18758566D02*
X14732203Y-18710946D01*
X14732203Y-18710946D02*
X14722679Y-18682375D01*
X14722679Y-18682375D02*
X14713155Y-18663327D01*
X14713155Y-18663327D02*
X14694108Y-18634756D01*
X14694108Y-18634756D02*
X14684584Y-18625232D01*
D13*
X9653045Y-19092320D02*
X9719045Y-19026320D01*
X9653045Y-18960320D01*
X9587045Y-19026320D01*
X9653045Y-19092320D01*
D11*
X10084584Y-19117804D02*
X9970298Y-19117804D01*
X10027441Y-19117804D02*
X10027441Y-18917804D01*
X10027441Y-18917804D02*
X10008393Y-18946375D01*
X10008393Y-18946375D02*
X9989346Y-18965423D01*
X9989346Y-18965423D02*
X9970298Y-18974946D01*
X10170298Y-19098756D02*
X10179822Y-19108280D01*
X10179822Y-19108280D02*
X10170298Y-19117804D01*
X10170298Y-19117804D02*
X10160774Y-19108280D01*
X10160774Y-19108280D02*
X10170298Y-19098756D01*
X10170298Y-19098756D02*
X10170298Y-19117804D01*
X10246488Y-18917804D02*
X10370298Y-18917804D01*
X10370298Y-18917804D02*
X10303631Y-18993994D01*
X10303631Y-18993994D02*
X10332203Y-18993994D01*
X10332203Y-18993994D02*
X10351250Y-19003518D01*
X10351250Y-19003518D02*
X10360774Y-19013042D01*
X10360774Y-19013042D02*
X10370298Y-19032089D01*
X10370298Y-19032089D02*
X10370298Y-19079708D01*
X10370298Y-19079708D02*
X10360774Y-19098756D01*
X10360774Y-19098756D02*
X10351250Y-19108280D01*
X10351250Y-19108280D02*
X10332203Y-19117804D01*
X10332203Y-19117804D02*
X10275060Y-19117804D01*
X10275060Y-19117804D02*
X10256012Y-19108280D01*
X10256012Y-19108280D02*
X10246488Y-19098756D01*
X10446488Y-18936851D02*
X10456012Y-18927327D01*
X10456012Y-18927327D02*
X10475060Y-18917804D01*
X10475060Y-18917804D02*
X10522679Y-18917804D01*
X10522679Y-18917804D02*
X10541727Y-18927327D01*
X10541727Y-18927327D02*
X10551250Y-18936851D01*
X10551250Y-18936851D02*
X10560774Y-18955899D01*
X10560774Y-18955899D02*
X10560774Y-18974946D01*
X10560774Y-18974946D02*
X10551250Y-19003518D01*
X10551250Y-19003518D02*
X10436965Y-19117804D01*
X10436965Y-19117804D02*
X10560774Y-19117804D01*
X10684584Y-18917804D02*
X10703631Y-18917804D01*
X10703631Y-18917804D02*
X10722679Y-18927327D01*
X10722679Y-18927327D02*
X10732203Y-18936851D01*
X10732203Y-18936851D02*
X10741727Y-18955899D01*
X10741727Y-18955899D02*
X10751250Y-18993994D01*
X10751250Y-18993994D02*
X10751250Y-19041613D01*
X10751250Y-19041613D02*
X10741727Y-19079708D01*
X10741727Y-19079708D02*
X10732203Y-19098756D01*
X10732203Y-19098756D02*
X10722679Y-19108280D01*
X10722679Y-19108280D02*
X10703631Y-19117804D01*
X10703631Y-19117804D02*
X10684584Y-19117804D01*
X10684584Y-19117804D02*
X10665536Y-19108280D01*
X10665536Y-19108280D02*
X10656012Y-19098756D01*
X10656012Y-19098756D02*
X10646488Y-19079708D01*
X10646488Y-19079708D02*
X10636965Y-19041613D01*
X10636965Y-19041613D02*
X10636965Y-18993994D01*
X10636965Y-18993994D02*
X10646488Y-18955899D01*
X10646488Y-18955899D02*
X10656012Y-18936851D01*
X10656012Y-18936851D02*
X10665536Y-18927327D01*
X10665536Y-18927327D02*
X10684584Y-18917804D01*
X10836965Y-19117804D02*
X10836965Y-18984470D01*
X10836965Y-19003518D02*
X10846488Y-18993994D01*
X10846488Y-18993994D02*
X10865536Y-18984470D01*
X10865536Y-18984470D02*
X10894108Y-18984470D01*
X10894108Y-18984470D02*
X10913155Y-18993994D01*
X10913155Y-18993994D02*
X10922679Y-19013042D01*
X10922679Y-19013042D02*
X10922679Y-19117804D01*
X10922679Y-19013042D02*
X10932203Y-18993994D01*
X10932203Y-18993994D02*
X10951250Y-18984470D01*
X10951250Y-18984470D02*
X10979822Y-18984470D01*
X10979822Y-18984470D02*
X10998869Y-18993994D01*
X10998869Y-18993994D02*
X11008393Y-19013042D01*
X11008393Y-19013042D02*
X11008393Y-19117804D01*
X11103631Y-19117804D02*
X11103631Y-18984470D01*
X11103631Y-19003518D02*
X11113155Y-18993994D01*
X11113155Y-18993994D02*
X11132203Y-18984470D01*
X11132203Y-18984470D02*
X11160774Y-18984470D01*
X11160774Y-18984470D02*
X11179822Y-18993994D01*
X11179822Y-18993994D02*
X11189346Y-19013042D01*
X11189346Y-19013042D02*
X11189346Y-19117804D01*
X11189346Y-19013042D02*
X11198869Y-18993994D01*
X11198869Y-18993994D02*
X11217917Y-18984470D01*
X11217917Y-18984470D02*
X11246488Y-18984470D01*
X11246488Y-18984470D02*
X11265536Y-18993994D01*
X11265536Y-18993994D02*
X11275060Y-19013042D01*
X11275060Y-19013042D02*
X11275060Y-19117804D01*
X11665536Y-18908280D02*
X11494108Y-19165423D01*
X11922679Y-18917804D02*
X11941727Y-18917804D01*
X11941727Y-18917804D02*
X11960774Y-18927327D01*
X11960774Y-18927327D02*
X11970298Y-18936851D01*
X11970298Y-18936851D02*
X11979822Y-18955899D01*
X11979822Y-18955899D02*
X11989346Y-18993994D01*
X11989346Y-18993994D02*
X11989346Y-19041613D01*
X11989346Y-19041613D02*
X11979822Y-19079708D01*
X11979822Y-19079708D02*
X11970298Y-19098756D01*
X11970298Y-19098756D02*
X11960774Y-19108280D01*
X11960774Y-19108280D02*
X11941727Y-19117804D01*
X11941727Y-19117804D02*
X11922679Y-19117804D01*
X11922679Y-19117804D02*
X11903631Y-19108280D01*
X11903631Y-19108280D02*
X11894108Y-19098756D01*
X11894108Y-19098756D02*
X11884584Y-19079708D01*
X11884584Y-19079708D02*
X11875060Y-19041613D01*
X11875060Y-19041613D02*
X11875060Y-18993994D01*
X11875060Y-18993994D02*
X11884584Y-18955899D01*
X11884584Y-18955899D02*
X11894108Y-18936851D01*
X11894108Y-18936851D02*
X11903631Y-18927327D01*
X11903631Y-18927327D02*
X11922679Y-18917804D01*
X12075060Y-19098756D02*
X12084584Y-19108280D01*
X12084584Y-19108280D02*
X12075060Y-19117804D01*
X12075060Y-19117804D02*
X12065536Y-19108280D01*
X12065536Y-19108280D02*
X12075060Y-19098756D01*
X12075060Y-19098756D02*
X12075060Y-19117804D01*
X12208393Y-18917804D02*
X12227441Y-18917804D01*
X12227441Y-18917804D02*
X12246489Y-18927327D01*
X12246489Y-18927327D02*
X12256012Y-18936851D01*
X12256012Y-18936851D02*
X12265536Y-18955899D01*
X12265536Y-18955899D02*
X12275060Y-18993994D01*
X12275060Y-18993994D02*
X12275060Y-19041613D01*
X12275060Y-19041613D02*
X12265536Y-19079708D01*
X12265536Y-19079708D02*
X12256012Y-19098756D01*
X12256012Y-19098756D02*
X12246489Y-19108280D01*
X12246489Y-19108280D02*
X12227441Y-19117804D01*
X12227441Y-19117804D02*
X12208393Y-19117804D01*
X12208393Y-19117804D02*
X12189346Y-19108280D01*
X12189346Y-19108280D02*
X12179822Y-19098756D01*
X12179822Y-19098756D02*
X12170298Y-19079708D01*
X12170298Y-19079708D02*
X12160774Y-19041613D01*
X12160774Y-19041613D02*
X12160774Y-18993994D01*
X12160774Y-18993994D02*
X12170298Y-18955899D01*
X12170298Y-18955899D02*
X12179822Y-18936851D01*
X12179822Y-18936851D02*
X12189346Y-18927327D01*
X12189346Y-18927327D02*
X12208393Y-18917804D01*
X12456012Y-18917804D02*
X12360774Y-18917804D01*
X12360774Y-18917804D02*
X12351250Y-19013042D01*
X12351250Y-19013042D02*
X12360774Y-19003518D01*
X12360774Y-19003518D02*
X12379822Y-18993994D01*
X12379822Y-18993994D02*
X12427441Y-18993994D01*
X12427441Y-18993994D02*
X12446489Y-19003518D01*
X12446489Y-19003518D02*
X12456012Y-19013042D01*
X12456012Y-19013042D02*
X12465536Y-19032089D01*
X12465536Y-19032089D02*
X12465536Y-19079708D01*
X12465536Y-19079708D02*
X12456012Y-19098756D01*
X12456012Y-19098756D02*
X12446489Y-19108280D01*
X12446489Y-19108280D02*
X12427441Y-19117804D01*
X12427441Y-19117804D02*
X12379822Y-19117804D01*
X12379822Y-19117804D02*
X12360774Y-19108280D01*
X12360774Y-19108280D02*
X12351250Y-19098756D01*
X12541727Y-18936851D02*
X12551250Y-18927327D01*
X12551250Y-18927327D02*
X12570298Y-18917804D01*
X12570298Y-18917804D02*
X12617917Y-18917804D01*
X12617917Y-18917804D02*
X12636965Y-18927327D01*
X12636965Y-18927327D02*
X12646489Y-18936851D01*
X12646489Y-18936851D02*
X12656012Y-18955899D01*
X12656012Y-18955899D02*
X12656012Y-18974946D01*
X12656012Y-18974946D02*
X12646489Y-19003518D01*
X12646489Y-19003518D02*
X12532203Y-19117804D01*
X12532203Y-19117804D02*
X12656012Y-19117804D01*
X12779822Y-18917804D02*
X12798870Y-18917804D01*
X12798870Y-18917804D02*
X12817917Y-18927327D01*
X12817917Y-18927327D02*
X12827441Y-18936851D01*
X12827441Y-18936851D02*
X12836965Y-18955899D01*
X12836965Y-18955899D02*
X12846489Y-18993994D01*
X12846489Y-18993994D02*
X12846489Y-19041613D01*
X12846489Y-19041613D02*
X12836965Y-19079708D01*
X12836965Y-19079708D02*
X12827441Y-19098756D01*
X12827441Y-19098756D02*
X12817917Y-19108280D01*
X12817917Y-19108280D02*
X12798870Y-19117804D01*
X12798870Y-19117804D02*
X12779822Y-19117804D01*
X12779822Y-19117804D02*
X12760774Y-19108280D01*
X12760774Y-19108280D02*
X12751250Y-19098756D01*
X12751250Y-19098756D02*
X12741727Y-19079708D01*
X12741727Y-19079708D02*
X12732203Y-19041613D01*
X12732203Y-19041613D02*
X12732203Y-18993994D01*
X12732203Y-18993994D02*
X12741727Y-18955899D01*
X12741727Y-18955899D02*
X12751250Y-18936851D01*
X12751250Y-18936851D02*
X12760774Y-18927327D01*
X12760774Y-18927327D02*
X12779822Y-18917804D01*
X12922679Y-18917804D02*
X12922679Y-18955899D01*
X12998870Y-18917804D02*
X12998870Y-18955899D01*
X13294108Y-19193994D02*
X13284584Y-19184470D01*
X13284584Y-19184470D02*
X13265536Y-19155899D01*
X13265536Y-19155899D02*
X13256012Y-19136851D01*
X13256012Y-19136851D02*
X13246489Y-19108280D01*
X13246489Y-19108280D02*
X13236965Y-19060661D01*
X13236965Y-19060661D02*
X13236965Y-19022566D01*
X13236965Y-19022566D02*
X13246489Y-18974946D01*
X13246489Y-18974946D02*
X13256012Y-18946375D01*
X13256012Y-18946375D02*
X13265536Y-18927327D01*
X13265536Y-18927327D02*
X13284584Y-18898756D01*
X13284584Y-18898756D02*
X13294108Y-18889232D01*
X13398870Y-19003518D02*
X13379822Y-18993994D01*
X13379822Y-18993994D02*
X13370298Y-18984470D01*
X13370298Y-18984470D02*
X13360774Y-18965423D01*
X13360774Y-18965423D02*
X13360774Y-18955899D01*
X13360774Y-18955899D02*
X13370298Y-18936851D01*
X13370298Y-18936851D02*
X13379822Y-18927327D01*
X13379822Y-18927327D02*
X13398870Y-18917804D01*
X13398870Y-18917804D02*
X13436965Y-18917804D01*
X13436965Y-18917804D02*
X13456012Y-18927327D01*
X13456012Y-18927327D02*
X13465536Y-18936851D01*
X13465536Y-18936851D02*
X13475060Y-18955899D01*
X13475060Y-18955899D02*
X13475060Y-18965423D01*
X13475060Y-18965423D02*
X13465536Y-18984470D01*
X13465536Y-18984470D02*
X13456012Y-18993994D01*
X13456012Y-18993994D02*
X13436965Y-19003518D01*
X13436965Y-19003518D02*
X13398870Y-19003518D01*
X13398870Y-19003518D02*
X13379822Y-19013042D01*
X13379822Y-19013042D02*
X13370298Y-19022566D01*
X13370298Y-19022566D02*
X13360774Y-19041613D01*
X13360774Y-19041613D02*
X13360774Y-19079708D01*
X13360774Y-19079708D02*
X13370298Y-19098756D01*
X13370298Y-19098756D02*
X13379822Y-19108280D01*
X13379822Y-19108280D02*
X13398870Y-19117804D01*
X13398870Y-19117804D02*
X13436965Y-19117804D01*
X13436965Y-19117804D02*
X13456012Y-19108280D01*
X13456012Y-19108280D02*
X13465536Y-19098756D01*
X13465536Y-19098756D02*
X13475060Y-19079708D01*
X13475060Y-19079708D02*
X13475060Y-19041613D01*
X13475060Y-19041613D02*
X13465536Y-19022566D01*
X13465536Y-19022566D02*
X13456012Y-19013042D01*
X13456012Y-19013042D02*
X13436965Y-19003518D01*
X13713155Y-19117804D02*
X13713155Y-18917804D01*
X13798870Y-19117804D02*
X13798870Y-19013042D01*
X13798870Y-19013042D02*
X13789346Y-18993994D01*
X13789346Y-18993994D02*
X13770298Y-18984470D01*
X13770298Y-18984470D02*
X13741727Y-18984470D01*
X13741727Y-18984470D02*
X13722679Y-18993994D01*
X13722679Y-18993994D02*
X13713155Y-19003518D01*
X13922679Y-19117804D02*
X13903632Y-19108280D01*
X13903632Y-19108280D02*
X13894108Y-19098756D01*
X13894108Y-19098756D02*
X13884584Y-19079708D01*
X13884584Y-19079708D02*
X13884584Y-19022566D01*
X13884584Y-19022566D02*
X13894108Y-19003518D01*
X13894108Y-19003518D02*
X13903632Y-18993994D01*
X13903632Y-18993994D02*
X13922679Y-18984470D01*
X13922679Y-18984470D02*
X13951251Y-18984470D01*
X13951251Y-18984470D02*
X13970298Y-18993994D01*
X13970298Y-18993994D02*
X13979822Y-19003518D01*
X13979822Y-19003518D02*
X13989346Y-19022566D01*
X13989346Y-19022566D02*
X13989346Y-19079708D01*
X13989346Y-19079708D02*
X13979822Y-19098756D01*
X13979822Y-19098756D02*
X13970298Y-19108280D01*
X13970298Y-19108280D02*
X13951251Y-19117804D01*
X13951251Y-19117804D02*
X13922679Y-19117804D01*
X14103632Y-19117804D02*
X14084584Y-19108280D01*
X14084584Y-19108280D02*
X14075060Y-19089232D01*
X14075060Y-19089232D02*
X14075060Y-18917804D01*
X14256013Y-19108280D02*
X14236965Y-19117804D01*
X14236965Y-19117804D02*
X14198870Y-19117804D01*
X14198870Y-19117804D02*
X14179822Y-19108280D01*
X14179822Y-19108280D02*
X14170298Y-19089232D01*
X14170298Y-19089232D02*
X14170298Y-19013042D01*
X14170298Y-19013042D02*
X14179822Y-18993994D01*
X14179822Y-18993994D02*
X14198870Y-18984470D01*
X14198870Y-18984470D02*
X14236965Y-18984470D01*
X14236965Y-18984470D02*
X14256013Y-18993994D01*
X14256013Y-18993994D02*
X14265536Y-19013042D01*
X14265536Y-19013042D02*
X14265536Y-19032089D01*
X14265536Y-19032089D02*
X14170298Y-19051137D01*
X14341727Y-19108280D02*
X14360774Y-19117804D01*
X14360774Y-19117804D02*
X14398870Y-19117804D01*
X14398870Y-19117804D02*
X14417917Y-19108280D01*
X14417917Y-19108280D02*
X14427441Y-19089232D01*
X14427441Y-19089232D02*
X14427441Y-19079708D01*
X14427441Y-19079708D02*
X14417917Y-19060661D01*
X14417917Y-19060661D02*
X14398870Y-19051137D01*
X14398870Y-19051137D02*
X14370298Y-19051137D01*
X14370298Y-19051137D02*
X14351251Y-19041613D01*
X14351251Y-19041613D02*
X14341727Y-19022566D01*
X14341727Y-19022566D02*
X14341727Y-19013042D01*
X14341727Y-19013042D02*
X14351251Y-18993994D01*
X14351251Y-18993994D02*
X14370298Y-18984470D01*
X14370298Y-18984470D02*
X14398870Y-18984470D01*
X14398870Y-18984470D02*
X14417917Y-18993994D01*
X14494108Y-19193994D02*
X14503632Y-19184470D01*
X14503632Y-19184470D02*
X14522679Y-19155899D01*
X14522679Y-19155899D02*
X14532203Y-19136851D01*
X14532203Y-19136851D02*
X14541727Y-19108280D01*
X14541727Y-19108280D02*
X14551251Y-19060661D01*
X14551251Y-19060661D02*
X14551251Y-19022566D01*
X14551251Y-19022566D02*
X14541727Y-18974946D01*
X14541727Y-18974946D02*
X14532203Y-18946375D01*
X14532203Y-18946375D02*
X14522679Y-18927327D01*
X14522679Y-18927327D02*
X14503632Y-18898756D01*
X14503632Y-18898756D02*
X14494108Y-18889232D01*
M02*
