%TF.GenerationSoftware,KiCad,Pcbnew,7.0.10-7.0.10~ubuntu22.04.1*%
%TF.CreationDate,2024-02-07T13:24:05-05:00*%
%TF.ProjectId,CapController,43617043-6f6e-4747-926f-6c6c65722e6b,rev?*%
%TF.SameCoordinates,Original*%
%TF.FileFunction,Copper,L2,Bot*%
%TF.FilePolarity,Positive*%
%FSLAX46Y46*%
G04 Gerber Fmt 4.6, Leading zero omitted, Abs format (unit mm)*
G04 Created by KiCad (PCBNEW 7.0.10-7.0.10~ubuntu22.04.1) date 2024-02-07 13:24:05*
%MOMM*%
%LPD*%
G01*
G04 APERTURE LIST*
G04 Aperture macros list*
%AMRoundRect*
0 Rectangle with rounded corners*
0 $1 Rounding radius*
0 $2 $3 $4 $5 $6 $7 $8 $9 X,Y pos of 4 corners*
0 Add a 4 corners polygon primitive as box body*
4,1,4,$2,$3,$4,$5,$6,$7,$8,$9,$2,$3,0*
0 Add four circle primitives for the rounded corners*
1,1,$1+$1,$2,$3*
1,1,$1+$1,$4,$5*
1,1,$1+$1,$6,$7*
1,1,$1+$1,$8,$9*
0 Add four rect primitives between the rounded corners*
20,1,$1+$1,$2,$3,$4,$5,0*
20,1,$1+$1,$4,$5,$6,$7,0*
20,1,$1+$1,$6,$7,$8,$9,0*
20,1,$1+$1,$8,$9,$2,$3,0*%
G04 Aperture macros list end*
%TA.AperFunction,ComponentPad*%
%ADD10R,3.960000X1.980000*%
%TD*%
%TA.AperFunction,ComponentPad*%
%ADD11O,3.960000X1.980000*%
%TD*%
%TA.AperFunction,ComponentPad*%
%ADD12R,1.980000X3.960000*%
%TD*%
%TA.AperFunction,ComponentPad*%
%ADD13O,1.980000X3.960000*%
%TD*%
%TA.AperFunction,ComponentPad*%
%ADD14C,1.524000*%
%TD*%
%TA.AperFunction,ComponentPad*%
%ADD15R,1.524000X2.524000*%
%TD*%
%TA.AperFunction,ComponentPad*%
%ADD16O,1.524000X2.524000*%
%TD*%
%TA.AperFunction,ComponentPad*%
%ADD17C,1.727200*%
%TD*%
%TA.AperFunction,ComponentPad*%
%ADD18R,1.727200X1.727200*%
%TD*%
%TA.AperFunction,ComponentPad*%
%ADD19RoundRect,0.250000X-0.600000X-0.600000X0.600000X-0.600000X0.600000X0.600000X-0.600000X0.600000X0*%
%TD*%
%TA.AperFunction,ComponentPad*%
%ADD20C,1.700000*%
%TD*%
%TA.AperFunction,Conductor*%
%ADD21C,0.250000*%
%TD*%
G04 APERTURE END LIST*
D10*
%TO.P,Wheel_Pot1,1,Pin_1*%
%TO.N,+5V*%
X183770000Y-51000000D03*
D11*
%TO.P,Wheel_Pot1,2,Pin_2*%
%TO.N,Net-(Wheel_Pot1-Pin_2)*%
X183770000Y-56000000D03*
%TO.P,Wheel_Pot1,3,Pin_3*%
%TO.N,GND*%
X183770000Y-61000000D03*
%TD*%
D12*
%TO.P,Power_Terminal1,1,Pin_1*%
%TO.N,GND*%
X220900000Y-33020000D03*
D13*
%TO.P,Power_Terminal1,2,Pin_2*%
%TO.N,Net-(Power_Terminal1-Pin_2)*%
X215900000Y-33020000D03*
%TD*%
D14*
%TO.P,SW_Stop_Reset1,1,1*%
%TO.N,Net-(Nano_33_IoT1-PadD9)*%
X192250000Y-72630000D03*
%TO.P,SW_Stop_Reset1,2,2*%
%TO.N,unconnected-(SW_Stop_Reset1-Pad2)*%
X192250000Y-67630000D03*
%TO.P,SW_Stop_Reset1,3,K*%
%TO.N,unconnected-(SW_Stop_Reset1-K-Pad3)*%
X184750000Y-67630000D03*
%TO.P,SW_Stop_Reset1,4,A*%
%TO.N,GND*%
X184750000Y-72630000D03*
%TD*%
%TO.P,SW_Car2,1,1*%
%TO.N,Net-(Nano_33_IoT1-D12_MISO)*%
X202010000Y-143500000D03*
%TO.P,SW_Car2,2,2*%
%TO.N,unconnected-(SW_Car2-Pad2)*%
X202010000Y-148500000D03*
%TO.P,SW_Car2,3,K*%
%TO.N,unconnected-(SW_Car2-K-Pad3)*%
X209510000Y-148500000D03*
%TO.P,SW_Car2,4,A*%
%TO.N,GND*%
X209510000Y-143500000D03*
%TD*%
%TO.P,SW_Car1,1,1*%
%TO.N,Net-(Nano_33_IoT1-D11_MOSI)*%
X184190000Y-143500000D03*
%TO.P,SW_Car1,2,2*%
%TO.N,unconnected-(SW_Car1-Pad2)*%
X184190000Y-148500000D03*
%TO.P,SW_Car1,3,K*%
%TO.N,unconnected-(SW_Car1-K-Pad3)*%
X191690000Y-148500000D03*
%TO.P,SW_Car1,4,A*%
%TO.N,GND*%
X191690000Y-143500000D03*
%TD*%
D15*
%TO.P,7_Seg_Dis_3,1,e*%
%TO.N,Net-(7_Seg_Dis_3-e)*%
X218590000Y-138410000D03*
D16*
%TO.P,7_Seg_Dis_3,2,d*%
%TO.N,Net-(7_Seg_Dis_3-d)*%
X221130000Y-138410000D03*
%TO.P,7_Seg_Dis_3,3,C.A.*%
%TO.N,GND*%
X223670000Y-138410000D03*
%TO.P,7_Seg_Dis_3,4,c*%
%TO.N,Net-(7_Seg_Dis_3-c)*%
X226210000Y-138410000D03*
%TO.P,7_Seg_Dis_3,5,DP*%
%TO.N,unconnected-(7_Seg_Dis_3-DP-Pad5)*%
X228750000Y-138410000D03*
%TO.P,7_Seg_Dis_3,6,b*%
%TO.N,Net-(7_Seg_Dis_3-b)*%
X228750000Y-123170000D03*
%TO.P,7_Seg_Dis_3,7,a*%
%TO.N,Net-(7_Seg_Dis_3-a)*%
X226210000Y-123170000D03*
%TO.P,7_Seg_Dis_3,8,C.A.*%
%TO.N,GND*%
X223670000Y-123170000D03*
%TO.P,7_Seg_Dis_3,9,f*%
%TO.N,Net-(7_Seg_Dis_3-f)*%
X221130000Y-123170000D03*
%TO.P,7_Seg_Dis_3,10,g*%
%TO.N,Net-(7_Seg_Dis_3-g)*%
X218590000Y-123170000D03*
%TD*%
D14*
%TO.P,SW_Start1,1,1*%
%TO.N,Net-(Nano_33_IoT1-PadD10)*%
X192250000Y-82500000D03*
%TO.P,SW_Start1,2,2*%
%TO.N,unconnected-(SW_Start1-Pad2)*%
X192250000Y-77500000D03*
%TO.P,SW_Start1,3,K*%
%TO.N,unconnected-(SW_Start1-K-Pad3)*%
X184750000Y-77500000D03*
%TO.P,SW_Start1,4,A*%
%TO.N,GND*%
X184750000Y-82500000D03*
%TD*%
D10*
%TO.P,Trigger_Pot1,1,Pin_1*%
%TO.N,+5V*%
X183760000Y-33455000D03*
D11*
%TO.P,Trigger_Pot1,2,Pin_2*%
%TO.N,Net-(Trigger_Pot1-Pin_2)*%
X183760000Y-38455000D03*
%TO.P,Trigger_Pot1,3,Pin_3*%
%TO.N,GND*%
X183760000Y-43455000D03*
%TD*%
D17*
%TO.P,Nano_33_IoT1,3V3,3.3V*%
%TO.N,+5V*%
X213360000Y-80970000D03*
%TO.P,Nano_33_IoT1,5V,5V*%
%TO.N,unconnected-(Nano_33_IoT1-Pad5V)*%
X213360000Y-55570000D03*
%TO.P,Nano_33_IoT1,A0,A0/DAC*%
%TO.N,Net-(Nano_33_IoT1-A0{slash}DAC)*%
X213360000Y-75890000D03*
%TO.P,Nano_33_IoT1,A1,A1*%
%TO.N,Net-(PMOD_Connector1-Pin_4)*%
X213360000Y-73350000D03*
%TO.P,Nano_33_IoT1,A2,A2*%
%TO.N,Net-(PMOD_Connector1-Pin_6)*%
X213360000Y-70810000D03*
%TO.P,Nano_33_IoT1,A3,A3*%
%TO.N,Net-(PMOD_Connector1-Pin_8)*%
X213360000Y-68270000D03*
%TO.P,Nano_33_IoT1,A4,A4/SDA*%
%TO.N,Net-(Nano_33_IoT1-A4{slash}SDA)*%
X213360000Y-65730000D03*
%TO.P,Nano_33_IoT1,A5,A5/SCL*%
%TO.N,Net-(Nano_33_IoT1-A5{slash}SCL)*%
X213360000Y-63190000D03*
%TO.P,Nano_33_IoT1,A6,A6*%
%TO.N,Net-(PMOD_Connector1-Pin_3)*%
X213360000Y-60650000D03*
%TO.P,Nano_33_IoT1,A7,A7*%
%TO.N,Net-(PMOD_Connector1-Pin_1)*%
X213360000Y-58110000D03*
%TO.P,Nano_33_IoT1,AREF,AREF*%
%TO.N,unconnected-(Nano_33_IoT1-PadAREF)*%
X213360000Y-78430000D03*
%TO.P,Nano_33_IoT1,D0,D0/RX*%
%TO.N,unconnected-(Nano_33_IoT1-D0{slash}RX-PadD0)*%
X198120000Y-50490000D03*
%TO.P,Nano_33_IoT1,D1,D1/TX*%
%TO.N,unconnected-(Nano_33_IoT1-D1{slash}TX-PadD1)*%
X198120000Y-47950000D03*
%TO.P,Nano_33_IoT1,D2,D2*%
%TO.N,unconnected-(Nano_33_IoT1-PadD2)*%
X198120000Y-58110000D03*
%TO.P,Nano_33_IoT1,D3,D3*%
%TO.N,unconnected-(Nano_33_IoT1-PadD3)*%
X198120000Y-60650000D03*
%TO.P,Nano_33_IoT1,D4,D4*%
%TO.N,/LED_Data_In*%
X198120000Y-63190000D03*
%TO.P,Nano_33_IoT1,D5,D5*%
%TO.N,/LED_Data_In_CLK*%
X198120000Y-65730000D03*
%TO.P,Nano_33_IoT1,D6,D6*%
%TO.N,/LED_Store_CLK*%
X198120000Y-68270000D03*
%TO.P,Nano_33_IoT1,D7,D7*%
%TO.N,Net-(Trigger_Pot1-Pin_2)*%
X198120000Y-70810000D03*
%TO.P,Nano_33_IoT1,D8,D8*%
%TO.N,Net-(Wheel_Pot1-Pin_2)*%
X198120000Y-73350000D03*
%TO.P,Nano_33_IoT1,D9,D9*%
%TO.N,Net-(Nano_33_IoT1-PadD9)*%
X198120000Y-75890000D03*
%TO.P,Nano_33_IoT1,D10,D10*%
%TO.N,Net-(Nano_33_IoT1-PadD10)*%
X198120000Y-78430000D03*
%TO.P,Nano_33_IoT1,D11,D11_MOSI*%
%TO.N,Net-(Nano_33_IoT1-D11_MOSI)*%
X198120000Y-80970000D03*
%TO.P,Nano_33_IoT1,D12,D12_MISO*%
%TO.N,Net-(Nano_33_IoT1-D12_MISO)*%
X198120000Y-83510000D03*
%TO.P,Nano_33_IoT1,D13,D13_SCK*%
%TO.N,Net-(Nano_33_IoT1-D13_SCK)*%
X213360000Y-83510000D03*
D18*
%TO.P,Nano_33_IoT1,GND1,GND*%
%TO.N,GND*%
X198120000Y-55570000D03*
%TO.P,Nano_33_IoT1,GND2,GND*%
%TO.N,unconnected-(Nano_33_IoT1-GND-PadGND2)*%
X213360000Y-50490000D03*
D17*
%TO.P,Nano_33_IoT1,RST1,RESET*%
%TO.N,unconnected-(Nano_33_IoT1-RESET-PadRST1)*%
X198120000Y-53030000D03*
%TO.P,Nano_33_IoT1,RST2,RESET*%
%TO.N,unconnected-(Nano_33_IoT1-RESET-PadRST2)*%
X213360000Y-53030000D03*
%TO.P,Nano_33_IoT1,VIN,VIN*%
%TO.N,Net-(Power_Terminal1-Pin_2)*%
X213360000Y-47950000D03*
%TD*%
D14*
%TO.P,Shift_Reg_1,1,QB*%
%TO.N,Net-(7_Seg_Dis_1-a)*%
X192600000Y-116010000D03*
%TO.P,Shift_Reg_1,2,QC*%
%TO.N,Net-(7_Seg_Dis_1-b)*%
X192600000Y-113470000D03*
%TO.P,Shift_Reg_1,3,QD*%
%TO.N,Net-(7_Seg_Dis_1-c)*%
X192600000Y-110930000D03*
%TO.P,Shift_Reg_1,4,QE*%
%TO.N,Net-(7_Seg_Dis_1-d)*%
X192600000Y-108390000D03*
%TO.P,Shift_Reg_1,5,QF*%
%TO.N,Net-(7_Seg_Dis_1-e)*%
X192600000Y-105850000D03*
%TO.P,Shift_Reg_1,6,QG*%
%TO.N,Net-(7_Seg_Dis_1-f)*%
X192600000Y-103310000D03*
%TO.P,Shift_Reg_1,7,QH*%
%TO.N,Net-(7_Seg_Dis_1-g)*%
X192600000Y-100770000D03*
%TO.P,Shift_Reg_1,8,GND*%
%TO.N,GND*%
X192600000Y-98230000D03*
%TO.P,Shift_Reg_1,9,QH'*%
%TO.N,Net-(Shift_Reg_1-QH')*%
X184600000Y-98230000D03*
%TO.P,Shift_Reg_1,10,~{SRCLR}*%
%TO.N,+5V*%
X184600000Y-100770000D03*
%TO.P,Shift_Reg_1,11,SRCLK*%
%TO.N,/LED_Data_In_CLK*%
X184600000Y-103310000D03*
%TO.P,Shift_Reg_1,12,RCLK*%
%TO.N,/LED_Store_CLK*%
X184600000Y-105850000D03*
%TO.P,Shift_Reg_1,13,~{OE}*%
%TO.N,GND*%
X184600000Y-108390000D03*
%TO.P,Shift_Reg_1,14,SER*%
%TO.N,/LED_Data_In*%
X184600000Y-110930000D03*
%TO.P,Shift_Reg_1,15,QA*%
%TO.N,unconnected-(Shift_Reg_1-QA-Pad15)*%
X184600000Y-113470000D03*
%TO.P,Shift_Reg_1,16,VCC*%
%TO.N,+5V*%
X184600000Y-116010000D03*
%TD*%
D15*
%TO.P,7_Seg_Dis_2,1,e*%
%TO.N,Net-(7_Seg_Dis_2-e)*%
X200660000Y-138410000D03*
D16*
%TO.P,7_Seg_Dis_2,2,d*%
%TO.N,Net-(7_Seg_Dis_2-d)*%
X203200000Y-138410000D03*
%TO.P,7_Seg_Dis_2,3,C.A.*%
%TO.N,GND*%
X205740000Y-138410000D03*
%TO.P,7_Seg_Dis_2,4,c*%
%TO.N,Net-(7_Seg_Dis_2-c)*%
X208280000Y-138410000D03*
%TO.P,7_Seg_Dis_2,5,DP*%
%TO.N,unconnected-(7_Seg_Dis_2-DP-Pad5)*%
X210820000Y-138410000D03*
%TO.P,7_Seg_Dis_2,6,b*%
%TO.N,Net-(7_Seg_Dis_2-b)*%
X210820000Y-123170000D03*
%TO.P,7_Seg_Dis_2,7,a*%
%TO.N,Net-(7_Seg_Dis_2-a)*%
X208280000Y-123170000D03*
%TO.P,7_Seg_Dis_2,8,C.A.*%
%TO.N,GND*%
X205740000Y-123170000D03*
%TO.P,7_Seg_Dis_2,9,f*%
%TO.N,Net-(7_Seg_Dis_2-f)*%
X203200000Y-123170000D03*
%TO.P,7_Seg_Dis_2,10,g*%
%TO.N,Net-(7_Seg_Dis_2-g)*%
X200660000Y-123170000D03*
%TD*%
D14*
%TO.P,Shift_Reg_2,1,QB*%
%TO.N,Net-(7_Seg_Dis_2-a)*%
X210200000Y-116010000D03*
%TO.P,Shift_Reg_2,2,QC*%
%TO.N,Net-(7_Seg_Dis_2-b)*%
X210200000Y-113470000D03*
%TO.P,Shift_Reg_2,3,QD*%
%TO.N,Net-(7_Seg_Dis_2-c)*%
X210200000Y-110930000D03*
%TO.P,Shift_Reg_2,4,QE*%
%TO.N,Net-(7_Seg_Dis_2-d)*%
X210200000Y-108390000D03*
%TO.P,Shift_Reg_2,5,QF*%
%TO.N,Net-(7_Seg_Dis_2-e)*%
X210200000Y-105850000D03*
%TO.P,Shift_Reg_2,6,QG*%
%TO.N,Net-(7_Seg_Dis_2-f)*%
X210200000Y-103310000D03*
%TO.P,Shift_Reg_2,7,QH*%
%TO.N,Net-(7_Seg_Dis_2-g)*%
X210200000Y-100770000D03*
%TO.P,Shift_Reg_2,8,GND*%
%TO.N,GND*%
X210200000Y-98230000D03*
%TO.P,Shift_Reg_2,9,QH'*%
%TO.N,Net-(Shift_Reg_2-QH')*%
X202200000Y-98230000D03*
%TO.P,Shift_Reg_2,10,~{SRCLR}*%
%TO.N,+5V*%
X202200000Y-100770000D03*
%TO.P,Shift_Reg_2,11,SRCLK*%
%TO.N,/LED_Data_In_CLK*%
X202200000Y-103310000D03*
%TO.P,Shift_Reg_2,12,RCLK*%
%TO.N,/LED_Store_CLK*%
X202200000Y-105850000D03*
%TO.P,Shift_Reg_2,13,~{OE}*%
%TO.N,GND*%
X202200000Y-108390000D03*
%TO.P,Shift_Reg_2,14,SER*%
%TO.N,Net-(Shift_Reg_1-QH')*%
X202200000Y-110930000D03*
%TO.P,Shift_Reg_2,15,QA*%
%TO.N,unconnected-(Shift_Reg_2-QA-Pad15)*%
X202200000Y-113470000D03*
%TO.P,Shift_Reg_2,16,VCC*%
%TO.N,+5V*%
X202200000Y-116010000D03*
%TD*%
D15*
%TO.P,7_Seg_Dis_1,1,e*%
%TO.N,Net-(7_Seg_Dis_1-e)*%
X182880000Y-138410000D03*
D16*
%TO.P,7_Seg_Dis_1,2,d*%
%TO.N,Net-(7_Seg_Dis_1-d)*%
X185420000Y-138410000D03*
%TO.P,7_Seg_Dis_1,3,C.A.*%
%TO.N,GND*%
X187960000Y-138410000D03*
%TO.P,7_Seg_Dis_1,4,c*%
%TO.N,Net-(7_Seg_Dis_1-c)*%
X190500000Y-138410000D03*
%TO.P,7_Seg_Dis_1,5,DP*%
%TO.N,unconnected-(7_Seg_Dis_1-DP-Pad5)*%
X193040000Y-138410000D03*
%TO.P,7_Seg_Dis_1,6,b*%
%TO.N,Net-(7_Seg_Dis_1-b)*%
X193040000Y-123170000D03*
%TO.P,7_Seg_Dis_1,7,a*%
%TO.N,Net-(7_Seg_Dis_1-a)*%
X190500000Y-123170000D03*
%TO.P,7_Seg_Dis_1,8,C.A.*%
%TO.N,GND*%
X187960000Y-123170000D03*
%TO.P,7_Seg_Dis_1,9,f*%
%TO.N,Net-(7_Seg_Dis_1-f)*%
X185420000Y-123170000D03*
%TO.P,7_Seg_Dis_1,10,g*%
%TO.N,Net-(7_Seg_Dis_1-g)*%
X182880000Y-123170000D03*
%TD*%
D14*
%TO.P,SW_Car3,1,1*%
%TO.N,Net-(Nano_33_IoT1-D13_SCK)*%
X219750000Y-143500000D03*
%TO.P,SW_Car3,2,2*%
%TO.N,unconnected-(SW_Car3-Pad2)*%
X219750000Y-148500000D03*
%TO.P,SW_Car3,3,K*%
%TO.N,unconnected-(SW_Car3-K-Pad3)*%
X227250000Y-148500000D03*
%TO.P,SW_Car3,4,A*%
%TO.N,GND*%
X227250000Y-143500000D03*
%TD*%
%TO.P,Shift_Reg_3,1,QB*%
%TO.N,Net-(7_Seg_Dis_3-a)*%
X227600000Y-116010000D03*
%TO.P,Shift_Reg_3,2,QC*%
%TO.N,Net-(7_Seg_Dis_3-b)*%
X227600000Y-113470000D03*
%TO.P,Shift_Reg_3,3,QD*%
%TO.N,Net-(7_Seg_Dis_3-c)*%
X227600000Y-110930000D03*
%TO.P,Shift_Reg_3,4,QE*%
%TO.N,Net-(7_Seg_Dis_3-d)*%
X227600000Y-108390000D03*
%TO.P,Shift_Reg_3,5,QF*%
%TO.N,Net-(7_Seg_Dis_3-e)*%
X227600000Y-105850000D03*
%TO.P,Shift_Reg_3,6,QG*%
%TO.N,Net-(7_Seg_Dis_3-f)*%
X227600000Y-103310000D03*
%TO.P,Shift_Reg_3,7,QH*%
%TO.N,Net-(7_Seg_Dis_3-g)*%
X227600000Y-100770000D03*
%TO.P,Shift_Reg_3,8,GND*%
%TO.N,GND*%
X227600000Y-98230000D03*
%TO.P,Shift_Reg_3,9,QH'*%
%TO.N,unconnected-(Shift_Reg_3-QH'-Pad9)*%
X219600000Y-98230000D03*
%TO.P,Shift_Reg_3,10,~{SRCLR}*%
%TO.N,+5V*%
X219600000Y-100770000D03*
%TO.P,Shift_Reg_3,11,SRCLK*%
%TO.N,/LED_Data_In_CLK*%
X219600000Y-103310000D03*
%TO.P,Shift_Reg_3,12,RCLK*%
%TO.N,/LED_Store_CLK*%
X219600000Y-105850000D03*
%TO.P,Shift_Reg_3,13,~{OE}*%
%TO.N,GND*%
X219600000Y-108390000D03*
%TO.P,Shift_Reg_3,14,SER*%
%TO.N,Net-(Shift_Reg_2-QH')*%
X219600000Y-110930000D03*
%TO.P,Shift_Reg_3,15,QA*%
%TO.N,unconnected-(Shift_Reg_3-QA-Pad15)*%
X219600000Y-113470000D03*
%TO.P,Shift_Reg_3,16,VCC*%
%TO.N,+5V*%
X219600000Y-116010000D03*
%TD*%
D19*
%TO.P,PMOD_Connector1,1,Pin_1*%
%TO.N,Net-(PMOD_Connector1-Pin_1)*%
X220362500Y-58440000D03*
D20*
%TO.P,PMOD_Connector1,2,Pin_2*%
%TO.N,Net-(Nano_33_IoT1-A0{slash}DAC)*%
X222902500Y-58440000D03*
%TO.P,PMOD_Connector1,3,Pin_3*%
%TO.N,Net-(PMOD_Connector1-Pin_3)*%
X220362500Y-60980000D03*
%TO.P,PMOD_Connector1,4,Pin_4*%
%TO.N,Net-(PMOD_Connector1-Pin_4)*%
X222902500Y-60980000D03*
%TO.P,PMOD_Connector1,5,Pin_5*%
%TO.N,Net-(Nano_33_IoT1-A5{slash}SCL)*%
X220362500Y-63520000D03*
%TO.P,PMOD_Connector1,6,Pin_6*%
%TO.N,Net-(PMOD_Connector1-Pin_6)*%
X222902500Y-63520000D03*
%TO.P,PMOD_Connector1,7,Pin_7*%
%TO.N,Net-(Nano_33_IoT1-A4{slash}SDA)*%
X220362500Y-66060000D03*
%TO.P,PMOD_Connector1,8,Pin_8*%
%TO.N,Net-(PMOD_Connector1-Pin_8)*%
X222902500Y-66060000D03*
%TO.P,PMOD_Connector1,9,Pin_9*%
%TO.N,GND*%
X220362500Y-68600000D03*
%TO.P,PMOD_Connector1,10,Pin_10*%
X222902500Y-68600000D03*
%TO.P,PMOD_Connector1,11,Pin_11*%
%TO.N,+5V*%
X220362500Y-71140000D03*
%TO.P,PMOD_Connector1,12,Pin_12*%
X222902500Y-71140000D03*
%TD*%
D21*
%TO.N,GND*%
X222902500Y-68600000D02*
X226523000Y-72220500D01*
X226523000Y-97003000D02*
X227610000Y-98090000D01*
X205740000Y-123170000D02*
X205740000Y-121593000D01*
X224077500Y-67425000D02*
X222902500Y-68600000D01*
X192110000Y-98090000D02*
X193197000Y-97003000D01*
X222003000Y-121583000D02*
X223670000Y-123250000D01*
X198120000Y-55570000D02*
X199471400Y-54218600D01*
X199471400Y-44958278D02*
X197968122Y-43455000D01*
X188550000Y-61000000D02*
X183770000Y-61000000D01*
X192690000Y-61000000D02*
X198120000Y-55570000D01*
X224046100Y-54218600D02*
X224077500Y-54250000D01*
X188750000Y-61200000D02*
X188550000Y-61000000D01*
X224077500Y-36197500D02*
X224077500Y-54250000D01*
X218903000Y-107163000D02*
X219990000Y-108250000D01*
X201990000Y-107423000D02*
X202250000Y-107163000D01*
X188750000Y-61200000D02*
X188750000Y-61000000D01*
X209260000Y-140087000D02*
X209250000Y-140077000D01*
X223670000Y-111930000D02*
X223670000Y-123250000D01*
X205740000Y-138410000D02*
X205740000Y-140067000D01*
X209260000Y-143500000D02*
X209260000Y-140087000D01*
X191440000Y-140137000D02*
X191500000Y-140077000D01*
X188750000Y-61000000D02*
X192690000Y-61000000D01*
X197968122Y-43455000D02*
X183760000Y-43455000D01*
X191440000Y-143500000D02*
X191440000Y-140137000D01*
X205750000Y-121583000D02*
X222003000Y-121583000D01*
X184490000Y-108250000D02*
X185577000Y-107163000D01*
X201990000Y-108250000D02*
X201990000Y-107423000D01*
X189627000Y-140077000D02*
X191500000Y-140077000D01*
X222902500Y-68600000D02*
X220362500Y-68600000D01*
X209750000Y-97003000D02*
X226523000Y-97003000D01*
X220900000Y-33020000D02*
X224077500Y-36197500D01*
X185577000Y-107163000D02*
X202250000Y-107163000D01*
X226523000Y-72220500D02*
X226523000Y-97003000D01*
X189547000Y-121583000D02*
X205750000Y-121583000D01*
X219990000Y-108250000D02*
X221077000Y-107163000D01*
X191500000Y-140077000D02*
X205750000Y-140077000D01*
X202250000Y-107163000D02*
X218903000Y-107163000D01*
X199471400Y-54218600D02*
X199471400Y-44958278D01*
X209250000Y-140077000D02*
X222083000Y-140077000D01*
X219990000Y-108250000D02*
X223670000Y-111930000D01*
X185837000Y-81413000D02*
X185837000Y-73717000D01*
X193197000Y-97003000D02*
X209750000Y-97003000D01*
X221077000Y-107163000D02*
X221077000Y-104623000D01*
X187960000Y-138410000D02*
X189627000Y-140077000D01*
X185000000Y-72630000D02*
X188750000Y-68880000D01*
X184750000Y-82500000D02*
X185837000Y-81413000D01*
X221077000Y-104623000D02*
X227610000Y-98090000D01*
X209610000Y-98090000D02*
X209610000Y-97143000D01*
X187960000Y-123170000D02*
X189547000Y-121583000D01*
X227000000Y-143500000D02*
X227000000Y-141820000D01*
X185837000Y-73717000D02*
X184750000Y-72630000D01*
X224077500Y-54250000D02*
X224077500Y-67425000D01*
X223670000Y-123170000D02*
X223670000Y-138410000D01*
X199471400Y-54218600D02*
X224046100Y-54218600D01*
X205740000Y-140067000D02*
X205750000Y-140077000D01*
X205740000Y-121593000D02*
X205750000Y-121583000D01*
X209610000Y-97143000D02*
X209750000Y-97003000D01*
X188750000Y-68880000D02*
X188750000Y-61200000D01*
X205750000Y-140077000D02*
X209250000Y-140077000D01*
X222083000Y-140077000D02*
X223670000Y-138490000D01*
X227000000Y-141820000D02*
X223670000Y-138490000D01*
%TO.N,+5V*%
X220362500Y-73967500D02*
X213360000Y-80970000D01*
X184490000Y-115870000D02*
X183403000Y-114783000D01*
X183485000Y-57315000D02*
X181465000Y-59335000D01*
X201990000Y-116717000D02*
X201610000Y-117097000D01*
X201990000Y-115870000D02*
X201990000Y-116717000D01*
X203287000Y-117097000D02*
X202200000Y-116010000D01*
X186075000Y-53305000D02*
X186075000Y-56544691D01*
X214635000Y-87115000D02*
X211250000Y-90500000D01*
X185304691Y-57315000D02*
X183485000Y-57315000D01*
X201990000Y-101823000D02*
X202250000Y-102083000D01*
X213360000Y-80970000D02*
X214635000Y-82245000D01*
X186075000Y-56544691D02*
X185304691Y-57315000D01*
X184490000Y-100630000D02*
X183403000Y-99543000D01*
X211250000Y-90500000D02*
X183403000Y-90500000D01*
X183403000Y-99543000D02*
X183403000Y-90500000D01*
X183770000Y-51000000D02*
X186075000Y-53305000D01*
X183403000Y-101717000D02*
X184490000Y-100630000D01*
X220362500Y-71140000D02*
X222902500Y-71140000D01*
X219990000Y-100630000D02*
X218537000Y-102083000D01*
X185687000Y-117097000D02*
X184600000Y-116010000D01*
X201610000Y-117097000D02*
X185687000Y-117097000D01*
X202250000Y-102083000D02*
X185943000Y-102083000D01*
X181465000Y-59335000D02*
X181465000Y-88562000D01*
X185577000Y-116957000D02*
X184490000Y-115870000D01*
X183403000Y-114783000D02*
X183403000Y-101717000D01*
X181465000Y-88562000D02*
X183403000Y-90500000D01*
X218763000Y-117097000D02*
X203287000Y-117097000D01*
X183770000Y-51000000D02*
X181455000Y-48685000D01*
X214635000Y-82245000D02*
X214635000Y-87115000D01*
X218537000Y-102083000D02*
X202250000Y-102083000D01*
X201990000Y-100630000D02*
X201990000Y-101823000D01*
X185943000Y-102083000D02*
X184490000Y-100630000D01*
X220362500Y-71140000D02*
X220362500Y-73967500D01*
X219990000Y-115870000D02*
X218763000Y-117097000D01*
X181455000Y-35760000D02*
X183760000Y-33455000D01*
X181455000Y-48685000D02*
X181455000Y-35760000D01*
%TD*%
M02*
