M48
; DRILL file {KiCad 7.0.10-7.0.10~ubuntu22.04.1} date Wed 07 Feb 2024 03:02:49 PM EST
; FORMAT={-:-/ absolute / inch / decimal}
; #@! TF.CreationDate,2024-02-07T15:02:49-05:00
; #@! TF.GenerationSoftware,Kicad,Pcbnew,7.0.10-7.0.10~ubuntu22.04.1
; #@! TF.FileFunction,Plated,1,2,PTH
FMAT,2
INCH
; #@! TA.AperFunction,Plated,PTH,ComponentDrill
T1C0.0300
; #@! TA.AperFunction,Plated,PTH,ComponentDrill
T2C0.0315
; #@! TA.AperFunction,Plated,PTH,ComponentDrill
T3C0.0394
; #@! TA.AperFunction,Plated,PTH,ComponentDrill
T4C0.0400
; #@! TA.AperFunction,Plated,PTH,ComponentDrill
T5C0.0520
%
G90
G05
T1
X7.2516Y-5.6496
X7.2516Y-5.8465
X7.2677Y-3.8673
X7.2677Y-3.9673
X7.2677Y-4.0673
X7.2677Y-4.1673
X7.2677Y-4.2673
X7.2677Y-4.3673
X7.2677Y-4.4673
X7.2677Y-4.5673
X7.2736Y-2.6626
X7.2736Y-2.8594
X7.2736Y-3.0512
X7.2736Y-3.248
X7.5469Y-5.6496
X7.5469Y-5.8465
X7.5689Y-2.6626
X7.5689Y-2.8594
X7.5689Y-3.0512
X7.5689Y-3.248
X7.5827Y-3.8673
X7.5827Y-3.9673
X7.5827Y-4.0673
X7.5827Y-4.1673
X7.5827Y-4.2673
X7.5827Y-4.3673
X7.5827Y-4.4673
X7.5827Y-4.5673
X7.9531Y-5.6496
X7.9531Y-5.8465
X7.9606Y-3.8673
X7.9606Y-3.9673
X7.9606Y-4.0673
X7.9606Y-4.1673
X7.9606Y-4.2673
X7.9606Y-4.3673
X7.9606Y-4.4673
X7.9606Y-4.5673
X8.2484Y-5.6496
X8.2484Y-5.8465
X8.2756Y-3.8673
X8.2756Y-3.9673
X8.2756Y-4.0673
X8.2756Y-4.1673
X8.2756Y-4.2673
X8.2756Y-4.3673
X8.2756Y-4.4673
X8.2756Y-4.5673
X8.6457Y-3.8673
X8.6457Y-3.9673
X8.6457Y-4.0673
X8.6457Y-4.1673
X8.6457Y-4.2673
X8.6457Y-4.3673
X8.6457Y-4.4673
X8.6457Y-4.5673
X8.6516Y-5.6496
X8.6516Y-5.8465
X8.9469Y-5.6496
X8.9469Y-5.8465
X8.9606Y-3.8673
X8.9606Y-3.9673
X8.9606Y-4.0673
X8.9606Y-4.1673
X8.9606Y-4.2673
X8.9606Y-4.3673
X8.9606Y-4.4673
X8.9606Y-4.5673
T2
X7.2Y-4.8492
X7.2Y-5.4492
X7.3Y-4.8492
X7.3Y-5.4492
X7.4Y-4.8492
X7.4Y-5.4492
X7.5Y-4.8492
X7.5Y-5.4492
X7.6Y-4.8492
X7.6Y-5.4492
X7.9Y-4.8492
X7.9Y-5.4492
X8.0Y-4.8492
X8.0Y-5.4492
X8.1Y-4.8492
X8.1Y-5.4492
X8.2Y-4.8492
X8.2Y-5.4492
X8.3Y-4.8492
X8.3Y-5.4492
X8.6059Y-4.8492
X8.6059Y-5.4492
X8.7059Y-4.8492
X8.7059Y-5.4492
X8.8059Y-4.8492
X8.8059Y-5.4492
X8.9059Y-4.8492
X8.9059Y-5.4492
X9.0059Y-4.8492
X9.0059Y-5.4492
T3
X8.6757Y-2.3008
X8.6757Y-2.4008
X8.6757Y-2.5008
X8.6757Y-2.6008
X8.6757Y-2.7008
X8.6757Y-2.8008
X8.7757Y-2.3008
X8.7757Y-2.4008
X8.7757Y-2.5008
X8.7757Y-2.6008
X8.7757Y-2.7008
X8.7757Y-2.8008
T4
X7.8Y-1.8878
X7.8Y-1.9878
X7.8Y-2.0878
X7.8Y-2.1878
X7.8Y-2.2878
X7.8Y-2.3878
X7.8Y-2.4878
X7.8Y-2.5878
X7.8Y-2.6878
X7.8Y-2.7878
X7.8Y-2.8878
X7.8Y-2.9878
X7.8Y-3.0878
X7.8Y-3.1878
X7.8Y-3.2878
X8.4Y-1.8878
X8.4Y-1.9878
X8.4Y-2.0878
X8.4Y-2.1878
X8.4Y-2.2878
X8.4Y-2.3878
X8.4Y-2.4878
X8.4Y-2.5878
X8.4Y-2.6878
X8.4Y-2.7878
X8.4Y-2.8878
X8.4Y-2.9878
X8.4Y-3.0878
X8.4Y-3.1878
X8.4Y-3.2878
T5
X7.2346Y-1.3171
X7.2346Y-1.514
X7.2346Y-1.7108
X7.235Y-2.0079
X7.235Y-2.2047
X7.235Y-2.4016
X8.5Y-1.3
X8.6969Y-1.3
M30
