%TF.GenerationSoftware,KiCad,Pcbnew,7.0.10-7.0.10~ubuntu22.04.1*%
%TF.CreationDate,2024-02-07T13:24:06-05:00*%
%TF.ProjectId,CapController,43617043-6f6e-4747-926f-6c6c65722e6b,rev?*%
%TF.SameCoordinates,Original*%
%TF.FileFunction,Legend,Top*%
%TF.FilePolarity,Positive*%
%FSLAX46Y46*%
G04 Gerber Fmt 4.6, Leading zero omitted, Abs format (unit mm)*
G04 Created by KiCad (PCBNEW 7.0.10-7.0.10~ubuntu22.04.1) date 2024-02-07 13:24:06*
%MOMM*%
%LPD*%
G01*
G04 APERTURE LIST*
%ADD10C,0.150000*%
%ADD11C,0.100000*%
%ADD12C,0.120000*%
G04 APERTURE END LIST*
D10*
X190324819Y-60095238D02*
X191324819Y-59857143D01*
X191324819Y-59857143D02*
X190610533Y-59666667D01*
X190610533Y-59666667D02*
X191324819Y-59476191D01*
X191324819Y-59476191D02*
X190324819Y-59238096D01*
X191324819Y-58857143D02*
X190324819Y-58857143D01*
X191324819Y-58428572D02*
X190801009Y-58428572D01*
X190801009Y-58428572D02*
X190705771Y-58476191D01*
X190705771Y-58476191D02*
X190658152Y-58571429D01*
X190658152Y-58571429D02*
X190658152Y-58714286D01*
X190658152Y-58714286D02*
X190705771Y-58809524D01*
X190705771Y-58809524D02*
X190753390Y-58857143D01*
X191277200Y-57571429D02*
X191324819Y-57666667D01*
X191324819Y-57666667D02*
X191324819Y-57857143D01*
X191324819Y-57857143D02*
X191277200Y-57952381D01*
X191277200Y-57952381D02*
X191181961Y-58000000D01*
X191181961Y-58000000D02*
X190801009Y-58000000D01*
X190801009Y-58000000D02*
X190705771Y-57952381D01*
X190705771Y-57952381D02*
X190658152Y-57857143D01*
X190658152Y-57857143D02*
X190658152Y-57666667D01*
X190658152Y-57666667D02*
X190705771Y-57571429D01*
X190705771Y-57571429D02*
X190801009Y-57523810D01*
X190801009Y-57523810D02*
X190896247Y-57523810D01*
X190896247Y-57523810D02*
X190991485Y-58000000D01*
X191277200Y-56714286D02*
X191324819Y-56809524D01*
X191324819Y-56809524D02*
X191324819Y-57000000D01*
X191324819Y-57000000D02*
X191277200Y-57095238D01*
X191277200Y-57095238D02*
X191181961Y-57142857D01*
X191181961Y-57142857D02*
X190801009Y-57142857D01*
X190801009Y-57142857D02*
X190705771Y-57095238D01*
X190705771Y-57095238D02*
X190658152Y-57000000D01*
X190658152Y-57000000D02*
X190658152Y-56809524D01*
X190658152Y-56809524D02*
X190705771Y-56714286D01*
X190705771Y-56714286D02*
X190801009Y-56666667D01*
X190801009Y-56666667D02*
X190896247Y-56666667D01*
X190896247Y-56666667D02*
X190991485Y-57142857D01*
X191324819Y-56095238D02*
X191277200Y-56190476D01*
X191277200Y-56190476D02*
X191181961Y-56238095D01*
X191181961Y-56238095D02*
X190324819Y-56238095D01*
X191420057Y-55952381D02*
X191420057Y-55190476D01*
X191324819Y-54952380D02*
X190324819Y-54952380D01*
X190324819Y-54952380D02*
X190324819Y-54571428D01*
X190324819Y-54571428D02*
X190372438Y-54476190D01*
X190372438Y-54476190D02*
X190420057Y-54428571D01*
X190420057Y-54428571D02*
X190515295Y-54380952D01*
X190515295Y-54380952D02*
X190658152Y-54380952D01*
X190658152Y-54380952D02*
X190753390Y-54428571D01*
X190753390Y-54428571D02*
X190801009Y-54476190D01*
X190801009Y-54476190D02*
X190848628Y-54571428D01*
X190848628Y-54571428D02*
X190848628Y-54952380D01*
X191324819Y-53809523D02*
X191277200Y-53904761D01*
X191277200Y-53904761D02*
X191229580Y-53952380D01*
X191229580Y-53952380D02*
X191134342Y-53999999D01*
X191134342Y-53999999D02*
X190848628Y-53999999D01*
X190848628Y-53999999D02*
X190753390Y-53952380D01*
X190753390Y-53952380D02*
X190705771Y-53904761D01*
X190705771Y-53904761D02*
X190658152Y-53809523D01*
X190658152Y-53809523D02*
X190658152Y-53666666D01*
X190658152Y-53666666D02*
X190705771Y-53571428D01*
X190705771Y-53571428D02*
X190753390Y-53523809D01*
X190753390Y-53523809D02*
X190848628Y-53476190D01*
X190848628Y-53476190D02*
X191134342Y-53476190D01*
X191134342Y-53476190D02*
X191229580Y-53523809D01*
X191229580Y-53523809D02*
X191277200Y-53571428D01*
X191277200Y-53571428D02*
X191324819Y-53666666D01*
X191324819Y-53666666D02*
X191324819Y-53809523D01*
X190658152Y-53190475D02*
X190658152Y-52809523D01*
X190324819Y-53047618D02*
X191181961Y-53047618D01*
X191181961Y-53047618D02*
X191277200Y-52999999D01*
X191277200Y-52999999D02*
X191324819Y-52904761D01*
X191324819Y-52904761D02*
X191324819Y-52809523D01*
X191324819Y-51952380D02*
X191324819Y-52523808D01*
X191324819Y-52238094D02*
X190324819Y-52238094D01*
X190324819Y-52238094D02*
X190467676Y-52333332D01*
X190467676Y-52333332D02*
X190562914Y-52428570D01*
X190562914Y-52428570D02*
X190610533Y-52523808D01*
X216796190Y-40464819D02*
X216796190Y-39464819D01*
X216796190Y-39464819D02*
X217177142Y-39464819D01*
X217177142Y-39464819D02*
X217272380Y-39512438D01*
X217272380Y-39512438D02*
X217319999Y-39560057D01*
X217319999Y-39560057D02*
X217367618Y-39655295D01*
X217367618Y-39655295D02*
X217367618Y-39798152D01*
X217367618Y-39798152D02*
X217319999Y-39893390D01*
X217319999Y-39893390D02*
X217272380Y-39941009D01*
X217272380Y-39941009D02*
X217177142Y-39988628D01*
X217177142Y-39988628D02*
X216796190Y-39988628D01*
X217939047Y-40464819D02*
X217843809Y-40417200D01*
X217843809Y-40417200D02*
X217796190Y-40369580D01*
X217796190Y-40369580D02*
X217748571Y-40274342D01*
X217748571Y-40274342D02*
X217748571Y-39988628D01*
X217748571Y-39988628D02*
X217796190Y-39893390D01*
X217796190Y-39893390D02*
X217843809Y-39845771D01*
X217843809Y-39845771D02*
X217939047Y-39798152D01*
X217939047Y-39798152D02*
X218081904Y-39798152D01*
X218081904Y-39798152D02*
X218177142Y-39845771D01*
X218177142Y-39845771D02*
X218224761Y-39893390D01*
X218224761Y-39893390D02*
X218272380Y-39988628D01*
X218272380Y-39988628D02*
X218272380Y-40274342D01*
X218272380Y-40274342D02*
X218224761Y-40369580D01*
X218224761Y-40369580D02*
X218177142Y-40417200D01*
X218177142Y-40417200D02*
X218081904Y-40464819D01*
X218081904Y-40464819D02*
X217939047Y-40464819D01*
X218605714Y-39798152D02*
X218796190Y-40464819D01*
X218796190Y-40464819D02*
X218986666Y-39988628D01*
X218986666Y-39988628D02*
X219177142Y-40464819D01*
X219177142Y-40464819D02*
X219367618Y-39798152D01*
X220129523Y-40417200D02*
X220034285Y-40464819D01*
X220034285Y-40464819D02*
X219843809Y-40464819D01*
X219843809Y-40464819D02*
X219748571Y-40417200D01*
X219748571Y-40417200D02*
X219700952Y-40321961D01*
X219700952Y-40321961D02*
X219700952Y-39941009D01*
X219700952Y-39941009D02*
X219748571Y-39845771D01*
X219748571Y-39845771D02*
X219843809Y-39798152D01*
X219843809Y-39798152D02*
X220034285Y-39798152D01*
X220034285Y-39798152D02*
X220129523Y-39845771D01*
X220129523Y-39845771D02*
X220177142Y-39941009D01*
X220177142Y-39941009D02*
X220177142Y-40036247D01*
X220177142Y-40036247D02*
X219700952Y-40131485D01*
X220605714Y-40464819D02*
X220605714Y-39798152D01*
X220605714Y-39988628D02*
X220653333Y-39893390D01*
X220653333Y-39893390D02*
X220700952Y-39845771D01*
X220700952Y-39845771D02*
X220796190Y-39798152D01*
X220796190Y-39798152D02*
X220891428Y-39798152D01*
X220986667Y-40560057D02*
X221748571Y-40560057D01*
X221843810Y-39464819D02*
X222415238Y-39464819D01*
X222129524Y-40464819D02*
X222129524Y-39464819D01*
X223129524Y-40417200D02*
X223034286Y-40464819D01*
X223034286Y-40464819D02*
X222843810Y-40464819D01*
X222843810Y-40464819D02*
X222748572Y-40417200D01*
X222748572Y-40417200D02*
X222700953Y-40321961D01*
X222700953Y-40321961D02*
X222700953Y-39941009D01*
X222700953Y-39941009D02*
X222748572Y-39845771D01*
X222748572Y-39845771D02*
X222843810Y-39798152D01*
X222843810Y-39798152D02*
X223034286Y-39798152D01*
X223034286Y-39798152D02*
X223129524Y-39845771D01*
X223129524Y-39845771D02*
X223177143Y-39941009D01*
X223177143Y-39941009D02*
X223177143Y-40036247D01*
X223177143Y-40036247D02*
X222700953Y-40131485D01*
X223605715Y-40464819D02*
X223605715Y-39798152D01*
X223605715Y-39988628D02*
X223653334Y-39893390D01*
X223653334Y-39893390D02*
X223700953Y-39845771D01*
X223700953Y-39845771D02*
X223796191Y-39798152D01*
X223796191Y-39798152D02*
X223891429Y-39798152D01*
X224224763Y-40464819D02*
X224224763Y-39798152D01*
X224224763Y-39893390D02*
X224272382Y-39845771D01*
X224272382Y-39845771D02*
X224367620Y-39798152D01*
X224367620Y-39798152D02*
X224510477Y-39798152D01*
X224510477Y-39798152D02*
X224605715Y-39845771D01*
X224605715Y-39845771D02*
X224653334Y-39941009D01*
X224653334Y-39941009D02*
X224653334Y-40464819D01*
X224653334Y-39941009D02*
X224700953Y-39845771D01*
X224700953Y-39845771D02*
X224796191Y-39798152D01*
X224796191Y-39798152D02*
X224939048Y-39798152D01*
X224939048Y-39798152D02*
X225034287Y-39845771D01*
X225034287Y-39845771D02*
X225081906Y-39941009D01*
X225081906Y-39941009D02*
X225081906Y-40464819D01*
X225558096Y-40464819D02*
X225558096Y-39798152D01*
X225558096Y-39464819D02*
X225510477Y-39512438D01*
X225510477Y-39512438D02*
X225558096Y-39560057D01*
X225558096Y-39560057D02*
X225605715Y-39512438D01*
X225605715Y-39512438D02*
X225558096Y-39464819D01*
X225558096Y-39464819D02*
X225558096Y-39560057D01*
X226034286Y-39798152D02*
X226034286Y-40464819D01*
X226034286Y-39893390D02*
X226081905Y-39845771D01*
X226081905Y-39845771D02*
X226177143Y-39798152D01*
X226177143Y-39798152D02*
X226320000Y-39798152D01*
X226320000Y-39798152D02*
X226415238Y-39845771D01*
X226415238Y-39845771D02*
X226462857Y-39941009D01*
X226462857Y-39941009D02*
X226462857Y-40464819D01*
X227367619Y-40464819D02*
X227367619Y-39941009D01*
X227367619Y-39941009D02*
X227320000Y-39845771D01*
X227320000Y-39845771D02*
X227224762Y-39798152D01*
X227224762Y-39798152D02*
X227034286Y-39798152D01*
X227034286Y-39798152D02*
X226939048Y-39845771D01*
X227367619Y-40417200D02*
X227272381Y-40464819D01*
X227272381Y-40464819D02*
X227034286Y-40464819D01*
X227034286Y-40464819D02*
X226939048Y-40417200D01*
X226939048Y-40417200D02*
X226891429Y-40321961D01*
X226891429Y-40321961D02*
X226891429Y-40226723D01*
X226891429Y-40226723D02*
X226939048Y-40131485D01*
X226939048Y-40131485D02*
X227034286Y-40083866D01*
X227034286Y-40083866D02*
X227272381Y-40083866D01*
X227272381Y-40083866D02*
X227367619Y-40036247D01*
X227986667Y-40464819D02*
X227891429Y-40417200D01*
X227891429Y-40417200D02*
X227843810Y-40321961D01*
X227843810Y-40321961D02*
X227843810Y-39464819D01*
X228891429Y-40464819D02*
X228320001Y-40464819D01*
X228605715Y-40464819D02*
X228605715Y-39464819D01*
X228605715Y-39464819D02*
X228510477Y-39607676D01*
X228510477Y-39607676D02*
X228415239Y-39702914D01*
X228415239Y-39702914D02*
X228320001Y-39750533D01*
D11*
X182790475Y-74609800D02*
X182933332Y-74657419D01*
X182933332Y-74657419D02*
X183171427Y-74657419D01*
X183171427Y-74657419D02*
X183266665Y-74609800D01*
X183266665Y-74609800D02*
X183314284Y-74562180D01*
X183314284Y-74562180D02*
X183361903Y-74466942D01*
X183361903Y-74466942D02*
X183361903Y-74371704D01*
X183361903Y-74371704D02*
X183314284Y-74276466D01*
X183314284Y-74276466D02*
X183266665Y-74228847D01*
X183266665Y-74228847D02*
X183171427Y-74181228D01*
X183171427Y-74181228D02*
X182980951Y-74133609D01*
X182980951Y-74133609D02*
X182885713Y-74085990D01*
X182885713Y-74085990D02*
X182838094Y-74038371D01*
X182838094Y-74038371D02*
X182790475Y-73943133D01*
X182790475Y-73943133D02*
X182790475Y-73847895D01*
X182790475Y-73847895D02*
X182838094Y-73752657D01*
X182838094Y-73752657D02*
X182885713Y-73705038D01*
X182885713Y-73705038D02*
X182980951Y-73657419D01*
X182980951Y-73657419D02*
X183219046Y-73657419D01*
X183219046Y-73657419D02*
X183361903Y-73705038D01*
X183695237Y-73657419D02*
X183933332Y-74657419D01*
X183933332Y-74657419D02*
X184123808Y-73943133D01*
X184123808Y-73943133D02*
X184314284Y-74657419D01*
X184314284Y-74657419D02*
X184552380Y-73657419D01*
X184695237Y-74752657D02*
X185457141Y-74752657D01*
X185647618Y-74609800D02*
X185790475Y-74657419D01*
X185790475Y-74657419D02*
X186028570Y-74657419D01*
X186028570Y-74657419D02*
X186123808Y-74609800D01*
X186123808Y-74609800D02*
X186171427Y-74562180D01*
X186171427Y-74562180D02*
X186219046Y-74466942D01*
X186219046Y-74466942D02*
X186219046Y-74371704D01*
X186219046Y-74371704D02*
X186171427Y-74276466D01*
X186171427Y-74276466D02*
X186123808Y-74228847D01*
X186123808Y-74228847D02*
X186028570Y-74181228D01*
X186028570Y-74181228D02*
X185838094Y-74133609D01*
X185838094Y-74133609D02*
X185742856Y-74085990D01*
X185742856Y-74085990D02*
X185695237Y-74038371D01*
X185695237Y-74038371D02*
X185647618Y-73943133D01*
X185647618Y-73943133D02*
X185647618Y-73847895D01*
X185647618Y-73847895D02*
X185695237Y-73752657D01*
X185695237Y-73752657D02*
X185742856Y-73705038D01*
X185742856Y-73705038D02*
X185838094Y-73657419D01*
X185838094Y-73657419D02*
X186076189Y-73657419D01*
X186076189Y-73657419D02*
X186219046Y-73705038D01*
X186504761Y-73990752D02*
X186885713Y-73990752D01*
X186647618Y-73657419D02*
X186647618Y-74514561D01*
X186647618Y-74514561D02*
X186695237Y-74609800D01*
X186695237Y-74609800D02*
X186790475Y-74657419D01*
X186790475Y-74657419D02*
X186885713Y-74657419D01*
X187361904Y-74657419D02*
X187266666Y-74609800D01*
X187266666Y-74609800D02*
X187219047Y-74562180D01*
X187219047Y-74562180D02*
X187171428Y-74466942D01*
X187171428Y-74466942D02*
X187171428Y-74181228D01*
X187171428Y-74181228D02*
X187219047Y-74085990D01*
X187219047Y-74085990D02*
X187266666Y-74038371D01*
X187266666Y-74038371D02*
X187361904Y-73990752D01*
X187361904Y-73990752D02*
X187504761Y-73990752D01*
X187504761Y-73990752D02*
X187599999Y-74038371D01*
X187599999Y-74038371D02*
X187647618Y-74085990D01*
X187647618Y-74085990D02*
X187695237Y-74181228D01*
X187695237Y-74181228D02*
X187695237Y-74466942D01*
X187695237Y-74466942D02*
X187647618Y-74562180D01*
X187647618Y-74562180D02*
X187599999Y-74609800D01*
X187599999Y-74609800D02*
X187504761Y-74657419D01*
X187504761Y-74657419D02*
X187361904Y-74657419D01*
X188123809Y-73990752D02*
X188123809Y-74990752D01*
X188123809Y-74038371D02*
X188219047Y-73990752D01*
X188219047Y-73990752D02*
X188409523Y-73990752D01*
X188409523Y-73990752D02*
X188504761Y-74038371D01*
X188504761Y-74038371D02*
X188552380Y-74085990D01*
X188552380Y-74085990D02*
X188599999Y-74181228D01*
X188599999Y-74181228D02*
X188599999Y-74466942D01*
X188599999Y-74466942D02*
X188552380Y-74562180D01*
X188552380Y-74562180D02*
X188504761Y-74609800D01*
X188504761Y-74609800D02*
X188409523Y-74657419D01*
X188409523Y-74657419D02*
X188219047Y-74657419D01*
X188219047Y-74657419D02*
X188123809Y-74609800D01*
X188790476Y-74752657D02*
X189552380Y-74752657D01*
X190361904Y-74657419D02*
X190028571Y-74181228D01*
X189790476Y-74657419D02*
X189790476Y-73657419D01*
X189790476Y-73657419D02*
X190171428Y-73657419D01*
X190171428Y-73657419D02*
X190266666Y-73705038D01*
X190266666Y-73705038D02*
X190314285Y-73752657D01*
X190314285Y-73752657D02*
X190361904Y-73847895D01*
X190361904Y-73847895D02*
X190361904Y-73990752D01*
X190361904Y-73990752D02*
X190314285Y-74085990D01*
X190314285Y-74085990D02*
X190266666Y-74133609D01*
X190266666Y-74133609D02*
X190171428Y-74181228D01*
X190171428Y-74181228D02*
X189790476Y-74181228D01*
X191171428Y-74609800D02*
X191076190Y-74657419D01*
X191076190Y-74657419D02*
X190885714Y-74657419D01*
X190885714Y-74657419D02*
X190790476Y-74609800D01*
X190790476Y-74609800D02*
X190742857Y-74514561D01*
X190742857Y-74514561D02*
X190742857Y-74133609D01*
X190742857Y-74133609D02*
X190790476Y-74038371D01*
X190790476Y-74038371D02*
X190885714Y-73990752D01*
X190885714Y-73990752D02*
X191076190Y-73990752D01*
X191076190Y-73990752D02*
X191171428Y-74038371D01*
X191171428Y-74038371D02*
X191219047Y-74133609D01*
X191219047Y-74133609D02*
X191219047Y-74228847D01*
X191219047Y-74228847D02*
X190742857Y-74324085D01*
X191600000Y-74609800D02*
X191695238Y-74657419D01*
X191695238Y-74657419D02*
X191885714Y-74657419D01*
X191885714Y-74657419D02*
X191980952Y-74609800D01*
X191980952Y-74609800D02*
X192028571Y-74514561D01*
X192028571Y-74514561D02*
X192028571Y-74466942D01*
X192028571Y-74466942D02*
X191980952Y-74371704D01*
X191980952Y-74371704D02*
X191885714Y-74324085D01*
X191885714Y-74324085D02*
X191742857Y-74324085D01*
X191742857Y-74324085D02*
X191647619Y-74276466D01*
X191647619Y-74276466D02*
X191600000Y-74181228D01*
X191600000Y-74181228D02*
X191600000Y-74133609D01*
X191600000Y-74133609D02*
X191647619Y-74038371D01*
X191647619Y-74038371D02*
X191742857Y-73990752D01*
X191742857Y-73990752D02*
X191885714Y-73990752D01*
X191885714Y-73990752D02*
X191980952Y-74038371D01*
X192838095Y-74609800D02*
X192742857Y-74657419D01*
X192742857Y-74657419D02*
X192552381Y-74657419D01*
X192552381Y-74657419D02*
X192457143Y-74609800D01*
X192457143Y-74609800D02*
X192409524Y-74514561D01*
X192409524Y-74514561D02*
X192409524Y-74133609D01*
X192409524Y-74133609D02*
X192457143Y-74038371D01*
X192457143Y-74038371D02*
X192552381Y-73990752D01*
X192552381Y-73990752D02*
X192742857Y-73990752D01*
X192742857Y-73990752D02*
X192838095Y-74038371D01*
X192838095Y-74038371D02*
X192885714Y-74133609D01*
X192885714Y-74133609D02*
X192885714Y-74228847D01*
X192885714Y-74228847D02*
X192409524Y-74324085D01*
X193171429Y-73990752D02*
X193552381Y-73990752D01*
X193314286Y-73657419D02*
X193314286Y-74514561D01*
X193314286Y-74514561D02*
X193361905Y-74609800D01*
X193361905Y-74609800D02*
X193457143Y-74657419D01*
X193457143Y-74657419D02*
X193552381Y-74657419D01*
X194409524Y-74657419D02*
X193838096Y-74657419D01*
X194123810Y-74657419D02*
X194123810Y-73657419D01*
X194123810Y-73657419D02*
X194028572Y-73800276D01*
X194028572Y-73800276D02*
X193933334Y-73895514D01*
X193933334Y-73895514D02*
X193838096Y-73943133D01*
X202773809Y-150159800D02*
X202916666Y-150207419D01*
X202916666Y-150207419D02*
X203154761Y-150207419D01*
X203154761Y-150207419D02*
X203249999Y-150159800D01*
X203249999Y-150159800D02*
X203297618Y-150112180D01*
X203297618Y-150112180D02*
X203345237Y-150016942D01*
X203345237Y-150016942D02*
X203345237Y-149921704D01*
X203345237Y-149921704D02*
X203297618Y-149826466D01*
X203297618Y-149826466D02*
X203249999Y-149778847D01*
X203249999Y-149778847D02*
X203154761Y-149731228D01*
X203154761Y-149731228D02*
X202964285Y-149683609D01*
X202964285Y-149683609D02*
X202869047Y-149635990D01*
X202869047Y-149635990D02*
X202821428Y-149588371D01*
X202821428Y-149588371D02*
X202773809Y-149493133D01*
X202773809Y-149493133D02*
X202773809Y-149397895D01*
X202773809Y-149397895D02*
X202821428Y-149302657D01*
X202821428Y-149302657D02*
X202869047Y-149255038D01*
X202869047Y-149255038D02*
X202964285Y-149207419D01*
X202964285Y-149207419D02*
X203202380Y-149207419D01*
X203202380Y-149207419D02*
X203345237Y-149255038D01*
X203678571Y-149207419D02*
X203916666Y-150207419D01*
X203916666Y-150207419D02*
X204107142Y-149493133D01*
X204107142Y-149493133D02*
X204297618Y-150207419D01*
X204297618Y-150207419D02*
X204535714Y-149207419D01*
X204678571Y-150302657D02*
X205440475Y-150302657D01*
X206249999Y-150112180D02*
X206202380Y-150159800D01*
X206202380Y-150159800D02*
X206059523Y-150207419D01*
X206059523Y-150207419D02*
X205964285Y-150207419D01*
X205964285Y-150207419D02*
X205821428Y-150159800D01*
X205821428Y-150159800D02*
X205726190Y-150064561D01*
X205726190Y-150064561D02*
X205678571Y-149969323D01*
X205678571Y-149969323D02*
X205630952Y-149778847D01*
X205630952Y-149778847D02*
X205630952Y-149635990D01*
X205630952Y-149635990D02*
X205678571Y-149445514D01*
X205678571Y-149445514D02*
X205726190Y-149350276D01*
X205726190Y-149350276D02*
X205821428Y-149255038D01*
X205821428Y-149255038D02*
X205964285Y-149207419D01*
X205964285Y-149207419D02*
X206059523Y-149207419D01*
X206059523Y-149207419D02*
X206202380Y-149255038D01*
X206202380Y-149255038D02*
X206249999Y-149302657D01*
X207107142Y-150207419D02*
X207107142Y-149683609D01*
X207107142Y-149683609D02*
X207059523Y-149588371D01*
X207059523Y-149588371D02*
X206964285Y-149540752D01*
X206964285Y-149540752D02*
X206773809Y-149540752D01*
X206773809Y-149540752D02*
X206678571Y-149588371D01*
X207107142Y-150159800D02*
X207011904Y-150207419D01*
X207011904Y-150207419D02*
X206773809Y-150207419D01*
X206773809Y-150207419D02*
X206678571Y-150159800D01*
X206678571Y-150159800D02*
X206630952Y-150064561D01*
X206630952Y-150064561D02*
X206630952Y-149969323D01*
X206630952Y-149969323D02*
X206678571Y-149874085D01*
X206678571Y-149874085D02*
X206773809Y-149826466D01*
X206773809Y-149826466D02*
X207011904Y-149826466D01*
X207011904Y-149826466D02*
X207107142Y-149778847D01*
X207583333Y-150207419D02*
X207583333Y-149540752D01*
X207583333Y-149731228D02*
X207630952Y-149635990D01*
X207630952Y-149635990D02*
X207678571Y-149588371D01*
X207678571Y-149588371D02*
X207773809Y-149540752D01*
X207773809Y-149540752D02*
X207869047Y-149540752D01*
X208154762Y-149302657D02*
X208202381Y-149255038D01*
X208202381Y-149255038D02*
X208297619Y-149207419D01*
X208297619Y-149207419D02*
X208535714Y-149207419D01*
X208535714Y-149207419D02*
X208630952Y-149255038D01*
X208630952Y-149255038D02*
X208678571Y-149302657D01*
X208678571Y-149302657D02*
X208726190Y-149397895D01*
X208726190Y-149397895D02*
X208726190Y-149493133D01*
X208726190Y-149493133D02*
X208678571Y-149635990D01*
X208678571Y-149635990D02*
X208107143Y-150207419D01*
X208107143Y-150207419D02*
X208726190Y-150207419D01*
X185023809Y-150159800D02*
X185166666Y-150207419D01*
X185166666Y-150207419D02*
X185404761Y-150207419D01*
X185404761Y-150207419D02*
X185499999Y-150159800D01*
X185499999Y-150159800D02*
X185547618Y-150112180D01*
X185547618Y-150112180D02*
X185595237Y-150016942D01*
X185595237Y-150016942D02*
X185595237Y-149921704D01*
X185595237Y-149921704D02*
X185547618Y-149826466D01*
X185547618Y-149826466D02*
X185499999Y-149778847D01*
X185499999Y-149778847D02*
X185404761Y-149731228D01*
X185404761Y-149731228D02*
X185214285Y-149683609D01*
X185214285Y-149683609D02*
X185119047Y-149635990D01*
X185119047Y-149635990D02*
X185071428Y-149588371D01*
X185071428Y-149588371D02*
X185023809Y-149493133D01*
X185023809Y-149493133D02*
X185023809Y-149397895D01*
X185023809Y-149397895D02*
X185071428Y-149302657D01*
X185071428Y-149302657D02*
X185119047Y-149255038D01*
X185119047Y-149255038D02*
X185214285Y-149207419D01*
X185214285Y-149207419D02*
X185452380Y-149207419D01*
X185452380Y-149207419D02*
X185595237Y-149255038D01*
X185928571Y-149207419D02*
X186166666Y-150207419D01*
X186166666Y-150207419D02*
X186357142Y-149493133D01*
X186357142Y-149493133D02*
X186547618Y-150207419D01*
X186547618Y-150207419D02*
X186785714Y-149207419D01*
X186928571Y-150302657D02*
X187690475Y-150302657D01*
X188499999Y-150112180D02*
X188452380Y-150159800D01*
X188452380Y-150159800D02*
X188309523Y-150207419D01*
X188309523Y-150207419D02*
X188214285Y-150207419D01*
X188214285Y-150207419D02*
X188071428Y-150159800D01*
X188071428Y-150159800D02*
X187976190Y-150064561D01*
X187976190Y-150064561D02*
X187928571Y-149969323D01*
X187928571Y-149969323D02*
X187880952Y-149778847D01*
X187880952Y-149778847D02*
X187880952Y-149635990D01*
X187880952Y-149635990D02*
X187928571Y-149445514D01*
X187928571Y-149445514D02*
X187976190Y-149350276D01*
X187976190Y-149350276D02*
X188071428Y-149255038D01*
X188071428Y-149255038D02*
X188214285Y-149207419D01*
X188214285Y-149207419D02*
X188309523Y-149207419D01*
X188309523Y-149207419D02*
X188452380Y-149255038D01*
X188452380Y-149255038D02*
X188499999Y-149302657D01*
X189357142Y-150207419D02*
X189357142Y-149683609D01*
X189357142Y-149683609D02*
X189309523Y-149588371D01*
X189309523Y-149588371D02*
X189214285Y-149540752D01*
X189214285Y-149540752D02*
X189023809Y-149540752D01*
X189023809Y-149540752D02*
X188928571Y-149588371D01*
X189357142Y-150159800D02*
X189261904Y-150207419D01*
X189261904Y-150207419D02*
X189023809Y-150207419D01*
X189023809Y-150207419D02*
X188928571Y-150159800D01*
X188928571Y-150159800D02*
X188880952Y-150064561D01*
X188880952Y-150064561D02*
X188880952Y-149969323D01*
X188880952Y-149969323D02*
X188928571Y-149874085D01*
X188928571Y-149874085D02*
X189023809Y-149826466D01*
X189023809Y-149826466D02*
X189261904Y-149826466D01*
X189261904Y-149826466D02*
X189357142Y-149778847D01*
X189833333Y-150207419D02*
X189833333Y-149540752D01*
X189833333Y-149731228D02*
X189880952Y-149635990D01*
X189880952Y-149635990D02*
X189928571Y-149588371D01*
X189928571Y-149588371D02*
X190023809Y-149540752D01*
X190023809Y-149540752D02*
X190119047Y-149540752D01*
X190976190Y-150207419D02*
X190404762Y-150207419D01*
X190690476Y-150207419D02*
X190690476Y-149207419D01*
X190690476Y-149207419D02*
X190595238Y-149350276D01*
X190595238Y-149350276D02*
X190500000Y-149445514D01*
X190500000Y-149445514D02*
X190404762Y-149493133D01*
D10*
X230654819Y-135372380D02*
X230654819Y-134705714D01*
X230654819Y-134705714D02*
X231654819Y-135134285D01*
X231750057Y-134562857D02*
X231750057Y-133800952D01*
X231607200Y-133610475D02*
X231654819Y-133467618D01*
X231654819Y-133467618D02*
X231654819Y-133229523D01*
X231654819Y-133229523D02*
X231607200Y-133134285D01*
X231607200Y-133134285D02*
X231559580Y-133086666D01*
X231559580Y-133086666D02*
X231464342Y-133039047D01*
X231464342Y-133039047D02*
X231369104Y-133039047D01*
X231369104Y-133039047D02*
X231273866Y-133086666D01*
X231273866Y-133086666D02*
X231226247Y-133134285D01*
X231226247Y-133134285D02*
X231178628Y-133229523D01*
X231178628Y-133229523D02*
X231131009Y-133419999D01*
X231131009Y-133419999D02*
X231083390Y-133515237D01*
X231083390Y-133515237D02*
X231035771Y-133562856D01*
X231035771Y-133562856D02*
X230940533Y-133610475D01*
X230940533Y-133610475D02*
X230845295Y-133610475D01*
X230845295Y-133610475D02*
X230750057Y-133562856D01*
X230750057Y-133562856D02*
X230702438Y-133515237D01*
X230702438Y-133515237D02*
X230654819Y-133419999D01*
X230654819Y-133419999D02*
X230654819Y-133181904D01*
X230654819Y-133181904D02*
X230702438Y-133039047D01*
X231607200Y-132229523D02*
X231654819Y-132324761D01*
X231654819Y-132324761D02*
X231654819Y-132515237D01*
X231654819Y-132515237D02*
X231607200Y-132610475D01*
X231607200Y-132610475D02*
X231511961Y-132658094D01*
X231511961Y-132658094D02*
X231131009Y-132658094D01*
X231131009Y-132658094D02*
X231035771Y-132610475D01*
X231035771Y-132610475D02*
X230988152Y-132515237D01*
X230988152Y-132515237D02*
X230988152Y-132324761D01*
X230988152Y-132324761D02*
X231035771Y-132229523D01*
X231035771Y-132229523D02*
X231131009Y-132181904D01*
X231131009Y-132181904D02*
X231226247Y-132181904D01*
X231226247Y-132181904D02*
X231321485Y-132658094D01*
X230988152Y-131324761D02*
X231797676Y-131324761D01*
X231797676Y-131324761D02*
X231892914Y-131372380D01*
X231892914Y-131372380D02*
X231940533Y-131419999D01*
X231940533Y-131419999D02*
X231988152Y-131515237D01*
X231988152Y-131515237D02*
X231988152Y-131658094D01*
X231988152Y-131658094D02*
X231940533Y-131753332D01*
X231607200Y-131324761D02*
X231654819Y-131419999D01*
X231654819Y-131419999D02*
X231654819Y-131610475D01*
X231654819Y-131610475D02*
X231607200Y-131705713D01*
X231607200Y-131705713D02*
X231559580Y-131753332D01*
X231559580Y-131753332D02*
X231464342Y-131800951D01*
X231464342Y-131800951D02*
X231178628Y-131800951D01*
X231178628Y-131800951D02*
X231083390Y-131753332D01*
X231083390Y-131753332D02*
X231035771Y-131705713D01*
X231035771Y-131705713D02*
X230988152Y-131610475D01*
X230988152Y-131610475D02*
X230988152Y-131419999D01*
X230988152Y-131419999D02*
X231035771Y-131324761D01*
X231750057Y-131086666D02*
X231750057Y-130324761D01*
X231654819Y-130086665D02*
X230654819Y-130086665D01*
X230654819Y-130086665D02*
X230654819Y-129848570D01*
X230654819Y-129848570D02*
X230702438Y-129705713D01*
X230702438Y-129705713D02*
X230797676Y-129610475D01*
X230797676Y-129610475D02*
X230892914Y-129562856D01*
X230892914Y-129562856D02*
X231083390Y-129515237D01*
X231083390Y-129515237D02*
X231226247Y-129515237D01*
X231226247Y-129515237D02*
X231416723Y-129562856D01*
X231416723Y-129562856D02*
X231511961Y-129610475D01*
X231511961Y-129610475D02*
X231607200Y-129705713D01*
X231607200Y-129705713D02*
X231654819Y-129848570D01*
X231654819Y-129848570D02*
X231654819Y-130086665D01*
X231654819Y-129086665D02*
X230988152Y-129086665D01*
X230654819Y-129086665D02*
X230702438Y-129134284D01*
X230702438Y-129134284D02*
X230750057Y-129086665D01*
X230750057Y-129086665D02*
X230702438Y-129039046D01*
X230702438Y-129039046D02*
X230654819Y-129086665D01*
X230654819Y-129086665D02*
X230750057Y-129086665D01*
X231607200Y-128658094D02*
X231654819Y-128562856D01*
X231654819Y-128562856D02*
X231654819Y-128372380D01*
X231654819Y-128372380D02*
X231607200Y-128277142D01*
X231607200Y-128277142D02*
X231511961Y-128229523D01*
X231511961Y-128229523D02*
X231464342Y-128229523D01*
X231464342Y-128229523D02*
X231369104Y-128277142D01*
X231369104Y-128277142D02*
X231321485Y-128372380D01*
X231321485Y-128372380D02*
X231321485Y-128515237D01*
X231321485Y-128515237D02*
X231273866Y-128610475D01*
X231273866Y-128610475D02*
X231178628Y-128658094D01*
X231178628Y-128658094D02*
X231131009Y-128658094D01*
X231131009Y-128658094D02*
X231035771Y-128610475D01*
X231035771Y-128610475D02*
X230988152Y-128515237D01*
X230988152Y-128515237D02*
X230988152Y-128372380D01*
X230988152Y-128372380D02*
X231035771Y-128277142D01*
X231750057Y-128039047D02*
X231750057Y-127277142D01*
X230654819Y-127134284D02*
X230654819Y-126515237D01*
X230654819Y-126515237D02*
X231035771Y-126848570D01*
X231035771Y-126848570D02*
X231035771Y-126705713D01*
X231035771Y-126705713D02*
X231083390Y-126610475D01*
X231083390Y-126610475D02*
X231131009Y-126562856D01*
X231131009Y-126562856D02*
X231226247Y-126515237D01*
X231226247Y-126515237D02*
X231464342Y-126515237D01*
X231464342Y-126515237D02*
X231559580Y-126562856D01*
X231559580Y-126562856D02*
X231607200Y-126610475D01*
X231607200Y-126610475D02*
X231654819Y-126705713D01*
X231654819Y-126705713D02*
X231654819Y-126991427D01*
X231654819Y-126991427D02*
X231607200Y-127086665D01*
X231607200Y-127086665D02*
X231559580Y-127134284D01*
D11*
X185076190Y-84609800D02*
X185219047Y-84657419D01*
X185219047Y-84657419D02*
X185457142Y-84657419D01*
X185457142Y-84657419D02*
X185552380Y-84609800D01*
X185552380Y-84609800D02*
X185599999Y-84562180D01*
X185599999Y-84562180D02*
X185647618Y-84466942D01*
X185647618Y-84466942D02*
X185647618Y-84371704D01*
X185647618Y-84371704D02*
X185599999Y-84276466D01*
X185599999Y-84276466D02*
X185552380Y-84228847D01*
X185552380Y-84228847D02*
X185457142Y-84181228D01*
X185457142Y-84181228D02*
X185266666Y-84133609D01*
X185266666Y-84133609D02*
X185171428Y-84085990D01*
X185171428Y-84085990D02*
X185123809Y-84038371D01*
X185123809Y-84038371D02*
X185076190Y-83943133D01*
X185076190Y-83943133D02*
X185076190Y-83847895D01*
X185076190Y-83847895D02*
X185123809Y-83752657D01*
X185123809Y-83752657D02*
X185171428Y-83705038D01*
X185171428Y-83705038D02*
X185266666Y-83657419D01*
X185266666Y-83657419D02*
X185504761Y-83657419D01*
X185504761Y-83657419D02*
X185647618Y-83705038D01*
X185980952Y-83657419D02*
X186219047Y-84657419D01*
X186219047Y-84657419D02*
X186409523Y-83943133D01*
X186409523Y-83943133D02*
X186599999Y-84657419D01*
X186599999Y-84657419D02*
X186838095Y-83657419D01*
X186980952Y-84752657D02*
X187742856Y-84752657D01*
X187933333Y-84609800D02*
X188076190Y-84657419D01*
X188076190Y-84657419D02*
X188314285Y-84657419D01*
X188314285Y-84657419D02*
X188409523Y-84609800D01*
X188409523Y-84609800D02*
X188457142Y-84562180D01*
X188457142Y-84562180D02*
X188504761Y-84466942D01*
X188504761Y-84466942D02*
X188504761Y-84371704D01*
X188504761Y-84371704D02*
X188457142Y-84276466D01*
X188457142Y-84276466D02*
X188409523Y-84228847D01*
X188409523Y-84228847D02*
X188314285Y-84181228D01*
X188314285Y-84181228D02*
X188123809Y-84133609D01*
X188123809Y-84133609D02*
X188028571Y-84085990D01*
X188028571Y-84085990D02*
X187980952Y-84038371D01*
X187980952Y-84038371D02*
X187933333Y-83943133D01*
X187933333Y-83943133D02*
X187933333Y-83847895D01*
X187933333Y-83847895D02*
X187980952Y-83752657D01*
X187980952Y-83752657D02*
X188028571Y-83705038D01*
X188028571Y-83705038D02*
X188123809Y-83657419D01*
X188123809Y-83657419D02*
X188361904Y-83657419D01*
X188361904Y-83657419D02*
X188504761Y-83705038D01*
X188790476Y-83990752D02*
X189171428Y-83990752D01*
X188933333Y-83657419D02*
X188933333Y-84514561D01*
X188933333Y-84514561D02*
X188980952Y-84609800D01*
X188980952Y-84609800D02*
X189076190Y-84657419D01*
X189076190Y-84657419D02*
X189171428Y-84657419D01*
X189933333Y-84657419D02*
X189933333Y-84133609D01*
X189933333Y-84133609D02*
X189885714Y-84038371D01*
X189885714Y-84038371D02*
X189790476Y-83990752D01*
X189790476Y-83990752D02*
X189600000Y-83990752D01*
X189600000Y-83990752D02*
X189504762Y-84038371D01*
X189933333Y-84609800D02*
X189838095Y-84657419D01*
X189838095Y-84657419D02*
X189600000Y-84657419D01*
X189600000Y-84657419D02*
X189504762Y-84609800D01*
X189504762Y-84609800D02*
X189457143Y-84514561D01*
X189457143Y-84514561D02*
X189457143Y-84419323D01*
X189457143Y-84419323D02*
X189504762Y-84324085D01*
X189504762Y-84324085D02*
X189600000Y-84276466D01*
X189600000Y-84276466D02*
X189838095Y-84276466D01*
X189838095Y-84276466D02*
X189933333Y-84228847D01*
X190409524Y-84657419D02*
X190409524Y-83990752D01*
X190409524Y-84181228D02*
X190457143Y-84085990D01*
X190457143Y-84085990D02*
X190504762Y-84038371D01*
X190504762Y-84038371D02*
X190600000Y-83990752D01*
X190600000Y-83990752D02*
X190695238Y-83990752D01*
X190885715Y-83990752D02*
X191266667Y-83990752D01*
X191028572Y-83657419D02*
X191028572Y-84514561D01*
X191028572Y-84514561D02*
X191076191Y-84609800D01*
X191076191Y-84609800D02*
X191171429Y-84657419D01*
X191171429Y-84657419D02*
X191266667Y-84657419D01*
X192123810Y-84657419D02*
X191552382Y-84657419D01*
X191838096Y-84657419D02*
X191838096Y-83657419D01*
X191838096Y-83657419D02*
X191742858Y-83800276D01*
X191742858Y-83800276D02*
X191647620Y-83895514D01*
X191647620Y-83895514D02*
X191552382Y-83943133D01*
D10*
X190314819Y-43026428D02*
X190314819Y-42455000D01*
X191314819Y-42740714D02*
X190314819Y-42740714D01*
X191314819Y-42121666D02*
X190648152Y-42121666D01*
X190838628Y-42121666D02*
X190743390Y-42074047D01*
X190743390Y-42074047D02*
X190695771Y-42026428D01*
X190695771Y-42026428D02*
X190648152Y-41931190D01*
X190648152Y-41931190D02*
X190648152Y-41835952D01*
X191314819Y-41502618D02*
X190648152Y-41502618D01*
X190314819Y-41502618D02*
X190362438Y-41550237D01*
X190362438Y-41550237D02*
X190410057Y-41502618D01*
X190410057Y-41502618D02*
X190362438Y-41454999D01*
X190362438Y-41454999D02*
X190314819Y-41502618D01*
X190314819Y-41502618D02*
X190410057Y-41502618D01*
X190648152Y-40597857D02*
X191457676Y-40597857D01*
X191457676Y-40597857D02*
X191552914Y-40645476D01*
X191552914Y-40645476D02*
X191600533Y-40693095D01*
X191600533Y-40693095D02*
X191648152Y-40788333D01*
X191648152Y-40788333D02*
X191648152Y-40931190D01*
X191648152Y-40931190D02*
X191600533Y-41026428D01*
X191267200Y-40597857D02*
X191314819Y-40693095D01*
X191314819Y-40693095D02*
X191314819Y-40883571D01*
X191314819Y-40883571D02*
X191267200Y-40978809D01*
X191267200Y-40978809D02*
X191219580Y-41026428D01*
X191219580Y-41026428D02*
X191124342Y-41074047D01*
X191124342Y-41074047D02*
X190838628Y-41074047D01*
X190838628Y-41074047D02*
X190743390Y-41026428D01*
X190743390Y-41026428D02*
X190695771Y-40978809D01*
X190695771Y-40978809D02*
X190648152Y-40883571D01*
X190648152Y-40883571D02*
X190648152Y-40693095D01*
X190648152Y-40693095D02*
X190695771Y-40597857D01*
X190648152Y-39693095D02*
X191457676Y-39693095D01*
X191457676Y-39693095D02*
X191552914Y-39740714D01*
X191552914Y-39740714D02*
X191600533Y-39788333D01*
X191600533Y-39788333D02*
X191648152Y-39883571D01*
X191648152Y-39883571D02*
X191648152Y-40026428D01*
X191648152Y-40026428D02*
X191600533Y-40121666D01*
X191267200Y-39693095D02*
X191314819Y-39788333D01*
X191314819Y-39788333D02*
X191314819Y-39978809D01*
X191314819Y-39978809D02*
X191267200Y-40074047D01*
X191267200Y-40074047D02*
X191219580Y-40121666D01*
X191219580Y-40121666D02*
X191124342Y-40169285D01*
X191124342Y-40169285D02*
X190838628Y-40169285D01*
X190838628Y-40169285D02*
X190743390Y-40121666D01*
X190743390Y-40121666D02*
X190695771Y-40074047D01*
X190695771Y-40074047D02*
X190648152Y-39978809D01*
X190648152Y-39978809D02*
X190648152Y-39788333D01*
X190648152Y-39788333D02*
X190695771Y-39693095D01*
X191267200Y-38835952D02*
X191314819Y-38931190D01*
X191314819Y-38931190D02*
X191314819Y-39121666D01*
X191314819Y-39121666D02*
X191267200Y-39216904D01*
X191267200Y-39216904D02*
X191171961Y-39264523D01*
X191171961Y-39264523D02*
X190791009Y-39264523D01*
X190791009Y-39264523D02*
X190695771Y-39216904D01*
X190695771Y-39216904D02*
X190648152Y-39121666D01*
X190648152Y-39121666D02*
X190648152Y-38931190D01*
X190648152Y-38931190D02*
X190695771Y-38835952D01*
X190695771Y-38835952D02*
X190791009Y-38788333D01*
X190791009Y-38788333D02*
X190886247Y-38788333D01*
X190886247Y-38788333D02*
X190981485Y-39264523D01*
X191314819Y-38359761D02*
X190648152Y-38359761D01*
X190838628Y-38359761D02*
X190743390Y-38312142D01*
X190743390Y-38312142D02*
X190695771Y-38264523D01*
X190695771Y-38264523D02*
X190648152Y-38169285D01*
X190648152Y-38169285D02*
X190648152Y-38074047D01*
X191410057Y-37978809D02*
X191410057Y-37216904D01*
X191314819Y-36978808D02*
X190314819Y-36978808D01*
X190314819Y-36978808D02*
X190314819Y-36597856D01*
X190314819Y-36597856D02*
X190362438Y-36502618D01*
X190362438Y-36502618D02*
X190410057Y-36454999D01*
X190410057Y-36454999D02*
X190505295Y-36407380D01*
X190505295Y-36407380D02*
X190648152Y-36407380D01*
X190648152Y-36407380D02*
X190743390Y-36454999D01*
X190743390Y-36454999D02*
X190791009Y-36502618D01*
X190791009Y-36502618D02*
X190838628Y-36597856D01*
X190838628Y-36597856D02*
X190838628Y-36978808D01*
X191314819Y-35835951D02*
X191267200Y-35931189D01*
X191267200Y-35931189D02*
X191219580Y-35978808D01*
X191219580Y-35978808D02*
X191124342Y-36026427D01*
X191124342Y-36026427D02*
X190838628Y-36026427D01*
X190838628Y-36026427D02*
X190743390Y-35978808D01*
X190743390Y-35978808D02*
X190695771Y-35931189D01*
X190695771Y-35931189D02*
X190648152Y-35835951D01*
X190648152Y-35835951D02*
X190648152Y-35693094D01*
X190648152Y-35693094D02*
X190695771Y-35597856D01*
X190695771Y-35597856D02*
X190743390Y-35550237D01*
X190743390Y-35550237D02*
X190838628Y-35502618D01*
X190838628Y-35502618D02*
X191124342Y-35502618D01*
X191124342Y-35502618D02*
X191219580Y-35550237D01*
X191219580Y-35550237D02*
X191267200Y-35597856D01*
X191267200Y-35597856D02*
X191314819Y-35693094D01*
X191314819Y-35693094D02*
X191314819Y-35835951D01*
X190648152Y-35216903D02*
X190648152Y-34835951D01*
X190314819Y-35074046D02*
X191171961Y-35074046D01*
X191171961Y-35074046D02*
X191267200Y-35026427D01*
X191267200Y-35026427D02*
X191314819Y-34931189D01*
X191314819Y-34931189D02*
X191314819Y-34835951D01*
X191314819Y-33978808D02*
X191314819Y-34550236D01*
X191314819Y-34264522D02*
X190314819Y-34264522D01*
X190314819Y-34264522D02*
X190457676Y-34359760D01*
X190457676Y-34359760D02*
X190552914Y-34454998D01*
X190552914Y-34454998D02*
X190600533Y-34550236D01*
X200835238Y-42494819D02*
X200835238Y-41494819D01*
X200835238Y-41494819D02*
X201406666Y-42494819D01*
X201406666Y-42494819D02*
X201406666Y-41494819D01*
X202311428Y-42494819D02*
X202311428Y-41971009D01*
X202311428Y-41971009D02*
X202263809Y-41875771D01*
X202263809Y-41875771D02*
X202168571Y-41828152D01*
X202168571Y-41828152D02*
X201978095Y-41828152D01*
X201978095Y-41828152D02*
X201882857Y-41875771D01*
X202311428Y-42447200D02*
X202216190Y-42494819D01*
X202216190Y-42494819D02*
X201978095Y-42494819D01*
X201978095Y-42494819D02*
X201882857Y-42447200D01*
X201882857Y-42447200D02*
X201835238Y-42351961D01*
X201835238Y-42351961D02*
X201835238Y-42256723D01*
X201835238Y-42256723D02*
X201882857Y-42161485D01*
X201882857Y-42161485D02*
X201978095Y-42113866D01*
X201978095Y-42113866D02*
X202216190Y-42113866D01*
X202216190Y-42113866D02*
X202311428Y-42066247D01*
X202787619Y-41828152D02*
X202787619Y-42494819D01*
X202787619Y-41923390D02*
X202835238Y-41875771D01*
X202835238Y-41875771D02*
X202930476Y-41828152D01*
X202930476Y-41828152D02*
X203073333Y-41828152D01*
X203073333Y-41828152D02*
X203168571Y-41875771D01*
X203168571Y-41875771D02*
X203216190Y-41971009D01*
X203216190Y-41971009D02*
X203216190Y-42494819D01*
X203835238Y-42494819D02*
X203740000Y-42447200D01*
X203740000Y-42447200D02*
X203692381Y-42399580D01*
X203692381Y-42399580D02*
X203644762Y-42304342D01*
X203644762Y-42304342D02*
X203644762Y-42018628D01*
X203644762Y-42018628D02*
X203692381Y-41923390D01*
X203692381Y-41923390D02*
X203740000Y-41875771D01*
X203740000Y-41875771D02*
X203835238Y-41828152D01*
X203835238Y-41828152D02*
X203978095Y-41828152D01*
X203978095Y-41828152D02*
X204073333Y-41875771D01*
X204073333Y-41875771D02*
X204120952Y-41923390D01*
X204120952Y-41923390D02*
X204168571Y-42018628D01*
X204168571Y-42018628D02*
X204168571Y-42304342D01*
X204168571Y-42304342D02*
X204120952Y-42399580D01*
X204120952Y-42399580D02*
X204073333Y-42447200D01*
X204073333Y-42447200D02*
X203978095Y-42494819D01*
X203978095Y-42494819D02*
X203835238Y-42494819D01*
X204359048Y-42590057D02*
X205120952Y-42590057D01*
X205263810Y-41494819D02*
X205882857Y-41494819D01*
X205882857Y-41494819D02*
X205549524Y-41875771D01*
X205549524Y-41875771D02*
X205692381Y-41875771D01*
X205692381Y-41875771D02*
X205787619Y-41923390D01*
X205787619Y-41923390D02*
X205835238Y-41971009D01*
X205835238Y-41971009D02*
X205882857Y-42066247D01*
X205882857Y-42066247D02*
X205882857Y-42304342D01*
X205882857Y-42304342D02*
X205835238Y-42399580D01*
X205835238Y-42399580D02*
X205787619Y-42447200D01*
X205787619Y-42447200D02*
X205692381Y-42494819D01*
X205692381Y-42494819D02*
X205406667Y-42494819D01*
X205406667Y-42494819D02*
X205311429Y-42447200D01*
X205311429Y-42447200D02*
X205263810Y-42399580D01*
X206216191Y-41494819D02*
X206835238Y-41494819D01*
X206835238Y-41494819D02*
X206501905Y-41875771D01*
X206501905Y-41875771D02*
X206644762Y-41875771D01*
X206644762Y-41875771D02*
X206740000Y-41923390D01*
X206740000Y-41923390D02*
X206787619Y-41971009D01*
X206787619Y-41971009D02*
X206835238Y-42066247D01*
X206835238Y-42066247D02*
X206835238Y-42304342D01*
X206835238Y-42304342D02*
X206787619Y-42399580D01*
X206787619Y-42399580D02*
X206740000Y-42447200D01*
X206740000Y-42447200D02*
X206644762Y-42494819D01*
X206644762Y-42494819D02*
X206359048Y-42494819D01*
X206359048Y-42494819D02*
X206263810Y-42447200D01*
X206263810Y-42447200D02*
X206216191Y-42399580D01*
X207025715Y-42590057D02*
X207787619Y-42590057D01*
X208025715Y-42494819D02*
X208025715Y-41494819D01*
X208644762Y-42494819D02*
X208549524Y-42447200D01*
X208549524Y-42447200D02*
X208501905Y-42399580D01*
X208501905Y-42399580D02*
X208454286Y-42304342D01*
X208454286Y-42304342D02*
X208454286Y-42018628D01*
X208454286Y-42018628D02*
X208501905Y-41923390D01*
X208501905Y-41923390D02*
X208549524Y-41875771D01*
X208549524Y-41875771D02*
X208644762Y-41828152D01*
X208644762Y-41828152D02*
X208787619Y-41828152D01*
X208787619Y-41828152D02*
X208882857Y-41875771D01*
X208882857Y-41875771D02*
X208930476Y-41923390D01*
X208930476Y-41923390D02*
X208978095Y-42018628D01*
X208978095Y-42018628D02*
X208978095Y-42304342D01*
X208978095Y-42304342D02*
X208930476Y-42399580D01*
X208930476Y-42399580D02*
X208882857Y-42447200D01*
X208882857Y-42447200D02*
X208787619Y-42494819D01*
X208787619Y-42494819D02*
X208644762Y-42494819D01*
X209263810Y-41494819D02*
X209835238Y-41494819D01*
X209549524Y-42494819D02*
X209549524Y-41494819D01*
X210692381Y-42494819D02*
X210120953Y-42494819D01*
X210406667Y-42494819D02*
X210406667Y-41494819D01*
X210406667Y-41494819D02*
X210311429Y-41637676D01*
X210311429Y-41637676D02*
X210216191Y-41732914D01*
X210216191Y-41732914D02*
X210120953Y-41780533D01*
X199570180Y-49751905D02*
X200570180Y-49751905D01*
X200570180Y-49751905D02*
X200570180Y-49990000D01*
X200570180Y-49990000D02*
X200522561Y-50132857D01*
X200522561Y-50132857D02*
X200427323Y-50228095D01*
X200427323Y-50228095D02*
X200332085Y-50275714D01*
X200332085Y-50275714D02*
X200141609Y-50323333D01*
X200141609Y-50323333D02*
X199998752Y-50323333D01*
X199998752Y-50323333D02*
X199808276Y-50275714D01*
X199808276Y-50275714D02*
X199713038Y-50228095D01*
X199713038Y-50228095D02*
X199617800Y-50132857D01*
X199617800Y-50132857D02*
X199570180Y-49990000D01*
X199570180Y-49990000D02*
X199570180Y-49751905D01*
X200570180Y-50942381D02*
X200570180Y-51037619D01*
X200570180Y-51037619D02*
X200522561Y-51132857D01*
X200522561Y-51132857D02*
X200474942Y-51180476D01*
X200474942Y-51180476D02*
X200379704Y-51228095D01*
X200379704Y-51228095D02*
X200189228Y-51275714D01*
X200189228Y-51275714D02*
X199951133Y-51275714D01*
X199951133Y-51275714D02*
X199760657Y-51228095D01*
X199760657Y-51228095D02*
X199665419Y-51180476D01*
X199665419Y-51180476D02*
X199617800Y-51132857D01*
X199617800Y-51132857D02*
X199570180Y-51037619D01*
X199570180Y-51037619D02*
X199570180Y-50942381D01*
X199570180Y-50942381D02*
X199617800Y-50847143D01*
X199617800Y-50847143D02*
X199665419Y-50799524D01*
X199665419Y-50799524D02*
X199760657Y-50751905D01*
X199760657Y-50751905D02*
X199951133Y-50704286D01*
X199951133Y-50704286D02*
X200189228Y-50704286D01*
X200189228Y-50704286D02*
X200379704Y-50751905D01*
X200379704Y-50751905D02*
X200474942Y-50799524D01*
X200474942Y-50799524D02*
X200522561Y-50847143D01*
X200522561Y-50847143D02*
X200570180Y-50942381D01*
D11*
X188509800Y-111516666D02*
X188557419Y-111373809D01*
X188557419Y-111373809D02*
X188557419Y-111135714D01*
X188557419Y-111135714D02*
X188509800Y-111040476D01*
X188509800Y-111040476D02*
X188462180Y-110992857D01*
X188462180Y-110992857D02*
X188366942Y-110945238D01*
X188366942Y-110945238D02*
X188271704Y-110945238D01*
X188271704Y-110945238D02*
X188176466Y-110992857D01*
X188176466Y-110992857D02*
X188128847Y-111040476D01*
X188128847Y-111040476D02*
X188081228Y-111135714D01*
X188081228Y-111135714D02*
X188033609Y-111326190D01*
X188033609Y-111326190D02*
X187985990Y-111421428D01*
X187985990Y-111421428D02*
X187938371Y-111469047D01*
X187938371Y-111469047D02*
X187843133Y-111516666D01*
X187843133Y-111516666D02*
X187747895Y-111516666D01*
X187747895Y-111516666D02*
X187652657Y-111469047D01*
X187652657Y-111469047D02*
X187605038Y-111421428D01*
X187605038Y-111421428D02*
X187557419Y-111326190D01*
X187557419Y-111326190D02*
X187557419Y-111088095D01*
X187557419Y-111088095D02*
X187605038Y-110945238D01*
X188557419Y-110516666D02*
X187557419Y-110516666D01*
X188557419Y-110088095D02*
X188033609Y-110088095D01*
X188033609Y-110088095D02*
X187938371Y-110135714D01*
X187938371Y-110135714D02*
X187890752Y-110230952D01*
X187890752Y-110230952D02*
X187890752Y-110373809D01*
X187890752Y-110373809D02*
X187938371Y-110469047D01*
X187938371Y-110469047D02*
X187985990Y-110516666D01*
X188557419Y-109611904D02*
X187890752Y-109611904D01*
X187557419Y-109611904D02*
X187605038Y-109659523D01*
X187605038Y-109659523D02*
X187652657Y-109611904D01*
X187652657Y-109611904D02*
X187605038Y-109564285D01*
X187605038Y-109564285D02*
X187557419Y-109611904D01*
X187557419Y-109611904D02*
X187652657Y-109611904D01*
X187890752Y-109278571D02*
X187890752Y-108897619D01*
X188557419Y-109135714D02*
X187700276Y-109135714D01*
X187700276Y-109135714D02*
X187605038Y-109088095D01*
X187605038Y-109088095D02*
X187557419Y-108992857D01*
X187557419Y-108992857D02*
X187557419Y-108897619D01*
X187890752Y-108707142D02*
X187890752Y-108326190D01*
X187557419Y-108564285D02*
X188414561Y-108564285D01*
X188414561Y-108564285D02*
X188509800Y-108516666D01*
X188509800Y-108516666D02*
X188557419Y-108421428D01*
X188557419Y-108421428D02*
X188557419Y-108326190D01*
X188652657Y-108230952D02*
X188652657Y-107469047D01*
X188557419Y-106659523D02*
X188081228Y-106992856D01*
X188557419Y-107230951D02*
X187557419Y-107230951D01*
X187557419Y-107230951D02*
X187557419Y-106849999D01*
X187557419Y-106849999D02*
X187605038Y-106754761D01*
X187605038Y-106754761D02*
X187652657Y-106707142D01*
X187652657Y-106707142D02*
X187747895Y-106659523D01*
X187747895Y-106659523D02*
X187890752Y-106659523D01*
X187890752Y-106659523D02*
X187985990Y-106707142D01*
X187985990Y-106707142D02*
X188033609Y-106754761D01*
X188033609Y-106754761D02*
X188081228Y-106849999D01*
X188081228Y-106849999D02*
X188081228Y-107230951D01*
X188509800Y-105849999D02*
X188557419Y-105945237D01*
X188557419Y-105945237D02*
X188557419Y-106135713D01*
X188557419Y-106135713D02*
X188509800Y-106230951D01*
X188509800Y-106230951D02*
X188414561Y-106278570D01*
X188414561Y-106278570D02*
X188033609Y-106278570D01*
X188033609Y-106278570D02*
X187938371Y-106230951D01*
X187938371Y-106230951D02*
X187890752Y-106135713D01*
X187890752Y-106135713D02*
X187890752Y-105945237D01*
X187890752Y-105945237D02*
X187938371Y-105849999D01*
X187938371Y-105849999D02*
X188033609Y-105802380D01*
X188033609Y-105802380D02*
X188128847Y-105802380D01*
X188128847Y-105802380D02*
X188224085Y-106278570D01*
X187890752Y-104945237D02*
X188700276Y-104945237D01*
X188700276Y-104945237D02*
X188795514Y-104992856D01*
X188795514Y-104992856D02*
X188843133Y-105040475D01*
X188843133Y-105040475D02*
X188890752Y-105135713D01*
X188890752Y-105135713D02*
X188890752Y-105278570D01*
X188890752Y-105278570D02*
X188843133Y-105373808D01*
X188509800Y-104945237D02*
X188557419Y-105040475D01*
X188557419Y-105040475D02*
X188557419Y-105230951D01*
X188557419Y-105230951D02*
X188509800Y-105326189D01*
X188509800Y-105326189D02*
X188462180Y-105373808D01*
X188462180Y-105373808D02*
X188366942Y-105421427D01*
X188366942Y-105421427D02*
X188081228Y-105421427D01*
X188081228Y-105421427D02*
X187985990Y-105373808D01*
X187985990Y-105373808D02*
X187938371Y-105326189D01*
X187938371Y-105326189D02*
X187890752Y-105230951D01*
X187890752Y-105230951D02*
X187890752Y-105040475D01*
X187890752Y-105040475D02*
X187938371Y-104945237D01*
X188652657Y-104707142D02*
X188652657Y-103945237D01*
X188557419Y-103183332D02*
X188557419Y-103754760D01*
X188557419Y-103469046D02*
X187557419Y-103469046D01*
X187557419Y-103469046D02*
X187700276Y-103564284D01*
X187700276Y-103564284D02*
X187795514Y-103659522D01*
X187795514Y-103659522D02*
X187843133Y-103754760D01*
D10*
X212654819Y-135252380D02*
X212654819Y-134585714D01*
X212654819Y-134585714D02*
X213654819Y-135014285D01*
X213750057Y-134442857D02*
X213750057Y-133680952D01*
X213607200Y-133490475D02*
X213654819Y-133347618D01*
X213654819Y-133347618D02*
X213654819Y-133109523D01*
X213654819Y-133109523D02*
X213607200Y-133014285D01*
X213607200Y-133014285D02*
X213559580Y-132966666D01*
X213559580Y-132966666D02*
X213464342Y-132919047D01*
X213464342Y-132919047D02*
X213369104Y-132919047D01*
X213369104Y-132919047D02*
X213273866Y-132966666D01*
X213273866Y-132966666D02*
X213226247Y-133014285D01*
X213226247Y-133014285D02*
X213178628Y-133109523D01*
X213178628Y-133109523D02*
X213131009Y-133299999D01*
X213131009Y-133299999D02*
X213083390Y-133395237D01*
X213083390Y-133395237D02*
X213035771Y-133442856D01*
X213035771Y-133442856D02*
X212940533Y-133490475D01*
X212940533Y-133490475D02*
X212845295Y-133490475D01*
X212845295Y-133490475D02*
X212750057Y-133442856D01*
X212750057Y-133442856D02*
X212702438Y-133395237D01*
X212702438Y-133395237D02*
X212654819Y-133299999D01*
X212654819Y-133299999D02*
X212654819Y-133061904D01*
X212654819Y-133061904D02*
X212702438Y-132919047D01*
X213607200Y-132109523D02*
X213654819Y-132204761D01*
X213654819Y-132204761D02*
X213654819Y-132395237D01*
X213654819Y-132395237D02*
X213607200Y-132490475D01*
X213607200Y-132490475D02*
X213511961Y-132538094D01*
X213511961Y-132538094D02*
X213131009Y-132538094D01*
X213131009Y-132538094D02*
X213035771Y-132490475D01*
X213035771Y-132490475D02*
X212988152Y-132395237D01*
X212988152Y-132395237D02*
X212988152Y-132204761D01*
X212988152Y-132204761D02*
X213035771Y-132109523D01*
X213035771Y-132109523D02*
X213131009Y-132061904D01*
X213131009Y-132061904D02*
X213226247Y-132061904D01*
X213226247Y-132061904D02*
X213321485Y-132538094D01*
X212988152Y-131204761D02*
X213797676Y-131204761D01*
X213797676Y-131204761D02*
X213892914Y-131252380D01*
X213892914Y-131252380D02*
X213940533Y-131299999D01*
X213940533Y-131299999D02*
X213988152Y-131395237D01*
X213988152Y-131395237D02*
X213988152Y-131538094D01*
X213988152Y-131538094D02*
X213940533Y-131633332D01*
X213607200Y-131204761D02*
X213654819Y-131299999D01*
X213654819Y-131299999D02*
X213654819Y-131490475D01*
X213654819Y-131490475D02*
X213607200Y-131585713D01*
X213607200Y-131585713D02*
X213559580Y-131633332D01*
X213559580Y-131633332D02*
X213464342Y-131680951D01*
X213464342Y-131680951D02*
X213178628Y-131680951D01*
X213178628Y-131680951D02*
X213083390Y-131633332D01*
X213083390Y-131633332D02*
X213035771Y-131585713D01*
X213035771Y-131585713D02*
X212988152Y-131490475D01*
X212988152Y-131490475D02*
X212988152Y-131299999D01*
X212988152Y-131299999D02*
X213035771Y-131204761D01*
X213750057Y-130966666D02*
X213750057Y-130204761D01*
X213654819Y-129966665D02*
X212654819Y-129966665D01*
X212654819Y-129966665D02*
X212654819Y-129728570D01*
X212654819Y-129728570D02*
X212702438Y-129585713D01*
X212702438Y-129585713D02*
X212797676Y-129490475D01*
X212797676Y-129490475D02*
X212892914Y-129442856D01*
X212892914Y-129442856D02*
X213083390Y-129395237D01*
X213083390Y-129395237D02*
X213226247Y-129395237D01*
X213226247Y-129395237D02*
X213416723Y-129442856D01*
X213416723Y-129442856D02*
X213511961Y-129490475D01*
X213511961Y-129490475D02*
X213607200Y-129585713D01*
X213607200Y-129585713D02*
X213654819Y-129728570D01*
X213654819Y-129728570D02*
X213654819Y-129966665D01*
X213654819Y-128966665D02*
X212988152Y-128966665D01*
X212654819Y-128966665D02*
X212702438Y-129014284D01*
X212702438Y-129014284D02*
X212750057Y-128966665D01*
X212750057Y-128966665D02*
X212702438Y-128919046D01*
X212702438Y-128919046D02*
X212654819Y-128966665D01*
X212654819Y-128966665D02*
X212750057Y-128966665D01*
X213607200Y-128538094D02*
X213654819Y-128442856D01*
X213654819Y-128442856D02*
X213654819Y-128252380D01*
X213654819Y-128252380D02*
X213607200Y-128157142D01*
X213607200Y-128157142D02*
X213511961Y-128109523D01*
X213511961Y-128109523D02*
X213464342Y-128109523D01*
X213464342Y-128109523D02*
X213369104Y-128157142D01*
X213369104Y-128157142D02*
X213321485Y-128252380D01*
X213321485Y-128252380D02*
X213321485Y-128395237D01*
X213321485Y-128395237D02*
X213273866Y-128490475D01*
X213273866Y-128490475D02*
X213178628Y-128538094D01*
X213178628Y-128538094D02*
X213131009Y-128538094D01*
X213131009Y-128538094D02*
X213035771Y-128490475D01*
X213035771Y-128490475D02*
X212988152Y-128395237D01*
X212988152Y-128395237D02*
X212988152Y-128252380D01*
X212988152Y-128252380D02*
X213035771Y-128157142D01*
X213750057Y-127919047D02*
X213750057Y-127157142D01*
X212750057Y-126966665D02*
X212702438Y-126919046D01*
X212702438Y-126919046D02*
X212654819Y-126823808D01*
X212654819Y-126823808D02*
X212654819Y-126585713D01*
X212654819Y-126585713D02*
X212702438Y-126490475D01*
X212702438Y-126490475D02*
X212750057Y-126442856D01*
X212750057Y-126442856D02*
X212845295Y-126395237D01*
X212845295Y-126395237D02*
X212940533Y-126395237D01*
X212940533Y-126395237D02*
X213083390Y-126442856D01*
X213083390Y-126442856D02*
X213654819Y-127014284D01*
X213654819Y-127014284D02*
X213654819Y-126395237D01*
D11*
X206109800Y-111516666D02*
X206157419Y-111373809D01*
X206157419Y-111373809D02*
X206157419Y-111135714D01*
X206157419Y-111135714D02*
X206109800Y-111040476D01*
X206109800Y-111040476D02*
X206062180Y-110992857D01*
X206062180Y-110992857D02*
X205966942Y-110945238D01*
X205966942Y-110945238D02*
X205871704Y-110945238D01*
X205871704Y-110945238D02*
X205776466Y-110992857D01*
X205776466Y-110992857D02*
X205728847Y-111040476D01*
X205728847Y-111040476D02*
X205681228Y-111135714D01*
X205681228Y-111135714D02*
X205633609Y-111326190D01*
X205633609Y-111326190D02*
X205585990Y-111421428D01*
X205585990Y-111421428D02*
X205538371Y-111469047D01*
X205538371Y-111469047D02*
X205443133Y-111516666D01*
X205443133Y-111516666D02*
X205347895Y-111516666D01*
X205347895Y-111516666D02*
X205252657Y-111469047D01*
X205252657Y-111469047D02*
X205205038Y-111421428D01*
X205205038Y-111421428D02*
X205157419Y-111326190D01*
X205157419Y-111326190D02*
X205157419Y-111088095D01*
X205157419Y-111088095D02*
X205205038Y-110945238D01*
X206157419Y-110516666D02*
X205157419Y-110516666D01*
X206157419Y-110088095D02*
X205633609Y-110088095D01*
X205633609Y-110088095D02*
X205538371Y-110135714D01*
X205538371Y-110135714D02*
X205490752Y-110230952D01*
X205490752Y-110230952D02*
X205490752Y-110373809D01*
X205490752Y-110373809D02*
X205538371Y-110469047D01*
X205538371Y-110469047D02*
X205585990Y-110516666D01*
X206157419Y-109611904D02*
X205490752Y-109611904D01*
X205157419Y-109611904D02*
X205205038Y-109659523D01*
X205205038Y-109659523D02*
X205252657Y-109611904D01*
X205252657Y-109611904D02*
X205205038Y-109564285D01*
X205205038Y-109564285D02*
X205157419Y-109611904D01*
X205157419Y-109611904D02*
X205252657Y-109611904D01*
X205490752Y-109278571D02*
X205490752Y-108897619D01*
X206157419Y-109135714D02*
X205300276Y-109135714D01*
X205300276Y-109135714D02*
X205205038Y-109088095D01*
X205205038Y-109088095D02*
X205157419Y-108992857D01*
X205157419Y-108992857D02*
X205157419Y-108897619D01*
X205490752Y-108707142D02*
X205490752Y-108326190D01*
X205157419Y-108564285D02*
X206014561Y-108564285D01*
X206014561Y-108564285D02*
X206109800Y-108516666D01*
X206109800Y-108516666D02*
X206157419Y-108421428D01*
X206157419Y-108421428D02*
X206157419Y-108326190D01*
X206252657Y-108230952D02*
X206252657Y-107469047D01*
X206157419Y-106659523D02*
X205681228Y-106992856D01*
X206157419Y-107230951D02*
X205157419Y-107230951D01*
X205157419Y-107230951D02*
X205157419Y-106849999D01*
X205157419Y-106849999D02*
X205205038Y-106754761D01*
X205205038Y-106754761D02*
X205252657Y-106707142D01*
X205252657Y-106707142D02*
X205347895Y-106659523D01*
X205347895Y-106659523D02*
X205490752Y-106659523D01*
X205490752Y-106659523D02*
X205585990Y-106707142D01*
X205585990Y-106707142D02*
X205633609Y-106754761D01*
X205633609Y-106754761D02*
X205681228Y-106849999D01*
X205681228Y-106849999D02*
X205681228Y-107230951D01*
X206109800Y-105849999D02*
X206157419Y-105945237D01*
X206157419Y-105945237D02*
X206157419Y-106135713D01*
X206157419Y-106135713D02*
X206109800Y-106230951D01*
X206109800Y-106230951D02*
X206014561Y-106278570D01*
X206014561Y-106278570D02*
X205633609Y-106278570D01*
X205633609Y-106278570D02*
X205538371Y-106230951D01*
X205538371Y-106230951D02*
X205490752Y-106135713D01*
X205490752Y-106135713D02*
X205490752Y-105945237D01*
X205490752Y-105945237D02*
X205538371Y-105849999D01*
X205538371Y-105849999D02*
X205633609Y-105802380D01*
X205633609Y-105802380D02*
X205728847Y-105802380D01*
X205728847Y-105802380D02*
X205824085Y-106278570D01*
X205490752Y-104945237D02*
X206300276Y-104945237D01*
X206300276Y-104945237D02*
X206395514Y-104992856D01*
X206395514Y-104992856D02*
X206443133Y-105040475D01*
X206443133Y-105040475D02*
X206490752Y-105135713D01*
X206490752Y-105135713D02*
X206490752Y-105278570D01*
X206490752Y-105278570D02*
X206443133Y-105373808D01*
X206109800Y-104945237D02*
X206157419Y-105040475D01*
X206157419Y-105040475D02*
X206157419Y-105230951D01*
X206157419Y-105230951D02*
X206109800Y-105326189D01*
X206109800Y-105326189D02*
X206062180Y-105373808D01*
X206062180Y-105373808D02*
X205966942Y-105421427D01*
X205966942Y-105421427D02*
X205681228Y-105421427D01*
X205681228Y-105421427D02*
X205585990Y-105373808D01*
X205585990Y-105373808D02*
X205538371Y-105326189D01*
X205538371Y-105326189D02*
X205490752Y-105230951D01*
X205490752Y-105230951D02*
X205490752Y-105040475D01*
X205490752Y-105040475D02*
X205538371Y-104945237D01*
X206252657Y-104707142D02*
X206252657Y-103945237D01*
X205252657Y-103754760D02*
X205205038Y-103707141D01*
X205205038Y-103707141D02*
X205157419Y-103611903D01*
X205157419Y-103611903D02*
X205157419Y-103373808D01*
X205157419Y-103373808D02*
X205205038Y-103278570D01*
X205205038Y-103278570D02*
X205252657Y-103230951D01*
X205252657Y-103230951D02*
X205347895Y-103183332D01*
X205347895Y-103183332D02*
X205443133Y-103183332D01*
X205443133Y-103183332D02*
X205585990Y-103230951D01*
X205585990Y-103230951D02*
X206157419Y-103802379D01*
X206157419Y-103802379D02*
X206157419Y-103183332D01*
D10*
X194854819Y-135242380D02*
X194854819Y-134575714D01*
X194854819Y-134575714D02*
X195854819Y-135004285D01*
X195950057Y-134432857D02*
X195950057Y-133670952D01*
X195807200Y-133480475D02*
X195854819Y-133337618D01*
X195854819Y-133337618D02*
X195854819Y-133099523D01*
X195854819Y-133099523D02*
X195807200Y-133004285D01*
X195807200Y-133004285D02*
X195759580Y-132956666D01*
X195759580Y-132956666D02*
X195664342Y-132909047D01*
X195664342Y-132909047D02*
X195569104Y-132909047D01*
X195569104Y-132909047D02*
X195473866Y-132956666D01*
X195473866Y-132956666D02*
X195426247Y-133004285D01*
X195426247Y-133004285D02*
X195378628Y-133099523D01*
X195378628Y-133099523D02*
X195331009Y-133289999D01*
X195331009Y-133289999D02*
X195283390Y-133385237D01*
X195283390Y-133385237D02*
X195235771Y-133432856D01*
X195235771Y-133432856D02*
X195140533Y-133480475D01*
X195140533Y-133480475D02*
X195045295Y-133480475D01*
X195045295Y-133480475D02*
X194950057Y-133432856D01*
X194950057Y-133432856D02*
X194902438Y-133385237D01*
X194902438Y-133385237D02*
X194854819Y-133289999D01*
X194854819Y-133289999D02*
X194854819Y-133051904D01*
X194854819Y-133051904D02*
X194902438Y-132909047D01*
X195807200Y-132099523D02*
X195854819Y-132194761D01*
X195854819Y-132194761D02*
X195854819Y-132385237D01*
X195854819Y-132385237D02*
X195807200Y-132480475D01*
X195807200Y-132480475D02*
X195711961Y-132528094D01*
X195711961Y-132528094D02*
X195331009Y-132528094D01*
X195331009Y-132528094D02*
X195235771Y-132480475D01*
X195235771Y-132480475D02*
X195188152Y-132385237D01*
X195188152Y-132385237D02*
X195188152Y-132194761D01*
X195188152Y-132194761D02*
X195235771Y-132099523D01*
X195235771Y-132099523D02*
X195331009Y-132051904D01*
X195331009Y-132051904D02*
X195426247Y-132051904D01*
X195426247Y-132051904D02*
X195521485Y-132528094D01*
X195188152Y-131194761D02*
X195997676Y-131194761D01*
X195997676Y-131194761D02*
X196092914Y-131242380D01*
X196092914Y-131242380D02*
X196140533Y-131289999D01*
X196140533Y-131289999D02*
X196188152Y-131385237D01*
X196188152Y-131385237D02*
X196188152Y-131528094D01*
X196188152Y-131528094D02*
X196140533Y-131623332D01*
X195807200Y-131194761D02*
X195854819Y-131289999D01*
X195854819Y-131289999D02*
X195854819Y-131480475D01*
X195854819Y-131480475D02*
X195807200Y-131575713D01*
X195807200Y-131575713D02*
X195759580Y-131623332D01*
X195759580Y-131623332D02*
X195664342Y-131670951D01*
X195664342Y-131670951D02*
X195378628Y-131670951D01*
X195378628Y-131670951D02*
X195283390Y-131623332D01*
X195283390Y-131623332D02*
X195235771Y-131575713D01*
X195235771Y-131575713D02*
X195188152Y-131480475D01*
X195188152Y-131480475D02*
X195188152Y-131289999D01*
X195188152Y-131289999D02*
X195235771Y-131194761D01*
X195950057Y-130956666D02*
X195950057Y-130194761D01*
X195854819Y-129956665D02*
X194854819Y-129956665D01*
X194854819Y-129956665D02*
X194854819Y-129718570D01*
X194854819Y-129718570D02*
X194902438Y-129575713D01*
X194902438Y-129575713D02*
X194997676Y-129480475D01*
X194997676Y-129480475D02*
X195092914Y-129432856D01*
X195092914Y-129432856D02*
X195283390Y-129385237D01*
X195283390Y-129385237D02*
X195426247Y-129385237D01*
X195426247Y-129385237D02*
X195616723Y-129432856D01*
X195616723Y-129432856D02*
X195711961Y-129480475D01*
X195711961Y-129480475D02*
X195807200Y-129575713D01*
X195807200Y-129575713D02*
X195854819Y-129718570D01*
X195854819Y-129718570D02*
X195854819Y-129956665D01*
X195854819Y-128956665D02*
X195188152Y-128956665D01*
X194854819Y-128956665D02*
X194902438Y-129004284D01*
X194902438Y-129004284D02*
X194950057Y-128956665D01*
X194950057Y-128956665D02*
X194902438Y-128909046D01*
X194902438Y-128909046D02*
X194854819Y-128956665D01*
X194854819Y-128956665D02*
X194950057Y-128956665D01*
X195807200Y-128528094D02*
X195854819Y-128432856D01*
X195854819Y-128432856D02*
X195854819Y-128242380D01*
X195854819Y-128242380D02*
X195807200Y-128147142D01*
X195807200Y-128147142D02*
X195711961Y-128099523D01*
X195711961Y-128099523D02*
X195664342Y-128099523D01*
X195664342Y-128099523D02*
X195569104Y-128147142D01*
X195569104Y-128147142D02*
X195521485Y-128242380D01*
X195521485Y-128242380D02*
X195521485Y-128385237D01*
X195521485Y-128385237D02*
X195473866Y-128480475D01*
X195473866Y-128480475D02*
X195378628Y-128528094D01*
X195378628Y-128528094D02*
X195331009Y-128528094D01*
X195331009Y-128528094D02*
X195235771Y-128480475D01*
X195235771Y-128480475D02*
X195188152Y-128385237D01*
X195188152Y-128385237D02*
X195188152Y-128242380D01*
X195188152Y-128242380D02*
X195235771Y-128147142D01*
X195950057Y-127909047D02*
X195950057Y-127147142D01*
X195854819Y-126385237D02*
X195854819Y-126956665D01*
X195854819Y-126670951D02*
X194854819Y-126670951D01*
X194854819Y-126670951D02*
X194997676Y-126766189D01*
X194997676Y-126766189D02*
X195092914Y-126861427D01*
X195092914Y-126861427D02*
X195140533Y-126956665D01*
D11*
X220523809Y-150159800D02*
X220666666Y-150207419D01*
X220666666Y-150207419D02*
X220904761Y-150207419D01*
X220904761Y-150207419D02*
X220999999Y-150159800D01*
X220999999Y-150159800D02*
X221047618Y-150112180D01*
X221047618Y-150112180D02*
X221095237Y-150016942D01*
X221095237Y-150016942D02*
X221095237Y-149921704D01*
X221095237Y-149921704D02*
X221047618Y-149826466D01*
X221047618Y-149826466D02*
X220999999Y-149778847D01*
X220999999Y-149778847D02*
X220904761Y-149731228D01*
X220904761Y-149731228D02*
X220714285Y-149683609D01*
X220714285Y-149683609D02*
X220619047Y-149635990D01*
X220619047Y-149635990D02*
X220571428Y-149588371D01*
X220571428Y-149588371D02*
X220523809Y-149493133D01*
X220523809Y-149493133D02*
X220523809Y-149397895D01*
X220523809Y-149397895D02*
X220571428Y-149302657D01*
X220571428Y-149302657D02*
X220619047Y-149255038D01*
X220619047Y-149255038D02*
X220714285Y-149207419D01*
X220714285Y-149207419D02*
X220952380Y-149207419D01*
X220952380Y-149207419D02*
X221095237Y-149255038D01*
X221428571Y-149207419D02*
X221666666Y-150207419D01*
X221666666Y-150207419D02*
X221857142Y-149493133D01*
X221857142Y-149493133D02*
X222047618Y-150207419D01*
X222047618Y-150207419D02*
X222285714Y-149207419D01*
X222428571Y-150302657D02*
X223190475Y-150302657D01*
X223999999Y-150112180D02*
X223952380Y-150159800D01*
X223952380Y-150159800D02*
X223809523Y-150207419D01*
X223809523Y-150207419D02*
X223714285Y-150207419D01*
X223714285Y-150207419D02*
X223571428Y-150159800D01*
X223571428Y-150159800D02*
X223476190Y-150064561D01*
X223476190Y-150064561D02*
X223428571Y-149969323D01*
X223428571Y-149969323D02*
X223380952Y-149778847D01*
X223380952Y-149778847D02*
X223380952Y-149635990D01*
X223380952Y-149635990D02*
X223428571Y-149445514D01*
X223428571Y-149445514D02*
X223476190Y-149350276D01*
X223476190Y-149350276D02*
X223571428Y-149255038D01*
X223571428Y-149255038D02*
X223714285Y-149207419D01*
X223714285Y-149207419D02*
X223809523Y-149207419D01*
X223809523Y-149207419D02*
X223952380Y-149255038D01*
X223952380Y-149255038D02*
X223999999Y-149302657D01*
X224857142Y-150207419D02*
X224857142Y-149683609D01*
X224857142Y-149683609D02*
X224809523Y-149588371D01*
X224809523Y-149588371D02*
X224714285Y-149540752D01*
X224714285Y-149540752D02*
X224523809Y-149540752D01*
X224523809Y-149540752D02*
X224428571Y-149588371D01*
X224857142Y-150159800D02*
X224761904Y-150207419D01*
X224761904Y-150207419D02*
X224523809Y-150207419D01*
X224523809Y-150207419D02*
X224428571Y-150159800D01*
X224428571Y-150159800D02*
X224380952Y-150064561D01*
X224380952Y-150064561D02*
X224380952Y-149969323D01*
X224380952Y-149969323D02*
X224428571Y-149874085D01*
X224428571Y-149874085D02*
X224523809Y-149826466D01*
X224523809Y-149826466D02*
X224761904Y-149826466D01*
X224761904Y-149826466D02*
X224857142Y-149778847D01*
X225333333Y-150207419D02*
X225333333Y-149540752D01*
X225333333Y-149731228D02*
X225380952Y-149635990D01*
X225380952Y-149635990D02*
X225428571Y-149588371D01*
X225428571Y-149588371D02*
X225523809Y-149540752D01*
X225523809Y-149540752D02*
X225619047Y-149540752D01*
X225857143Y-149207419D02*
X226476190Y-149207419D01*
X226476190Y-149207419D02*
X226142857Y-149588371D01*
X226142857Y-149588371D02*
X226285714Y-149588371D01*
X226285714Y-149588371D02*
X226380952Y-149635990D01*
X226380952Y-149635990D02*
X226428571Y-149683609D01*
X226428571Y-149683609D02*
X226476190Y-149778847D01*
X226476190Y-149778847D02*
X226476190Y-150016942D01*
X226476190Y-150016942D02*
X226428571Y-150112180D01*
X226428571Y-150112180D02*
X226380952Y-150159800D01*
X226380952Y-150159800D02*
X226285714Y-150207419D01*
X226285714Y-150207419D02*
X226000000Y-150207419D01*
X226000000Y-150207419D02*
X225904762Y-150159800D01*
X225904762Y-150159800D02*
X225857143Y-150112180D01*
X223509800Y-111516666D02*
X223557419Y-111373809D01*
X223557419Y-111373809D02*
X223557419Y-111135714D01*
X223557419Y-111135714D02*
X223509800Y-111040476D01*
X223509800Y-111040476D02*
X223462180Y-110992857D01*
X223462180Y-110992857D02*
X223366942Y-110945238D01*
X223366942Y-110945238D02*
X223271704Y-110945238D01*
X223271704Y-110945238D02*
X223176466Y-110992857D01*
X223176466Y-110992857D02*
X223128847Y-111040476D01*
X223128847Y-111040476D02*
X223081228Y-111135714D01*
X223081228Y-111135714D02*
X223033609Y-111326190D01*
X223033609Y-111326190D02*
X222985990Y-111421428D01*
X222985990Y-111421428D02*
X222938371Y-111469047D01*
X222938371Y-111469047D02*
X222843133Y-111516666D01*
X222843133Y-111516666D02*
X222747895Y-111516666D01*
X222747895Y-111516666D02*
X222652657Y-111469047D01*
X222652657Y-111469047D02*
X222605038Y-111421428D01*
X222605038Y-111421428D02*
X222557419Y-111326190D01*
X222557419Y-111326190D02*
X222557419Y-111088095D01*
X222557419Y-111088095D02*
X222605038Y-110945238D01*
X223557419Y-110516666D02*
X222557419Y-110516666D01*
X223557419Y-110088095D02*
X223033609Y-110088095D01*
X223033609Y-110088095D02*
X222938371Y-110135714D01*
X222938371Y-110135714D02*
X222890752Y-110230952D01*
X222890752Y-110230952D02*
X222890752Y-110373809D01*
X222890752Y-110373809D02*
X222938371Y-110469047D01*
X222938371Y-110469047D02*
X222985990Y-110516666D01*
X223557419Y-109611904D02*
X222890752Y-109611904D01*
X222557419Y-109611904D02*
X222605038Y-109659523D01*
X222605038Y-109659523D02*
X222652657Y-109611904D01*
X222652657Y-109611904D02*
X222605038Y-109564285D01*
X222605038Y-109564285D02*
X222557419Y-109611904D01*
X222557419Y-109611904D02*
X222652657Y-109611904D01*
X222890752Y-109278571D02*
X222890752Y-108897619D01*
X223557419Y-109135714D02*
X222700276Y-109135714D01*
X222700276Y-109135714D02*
X222605038Y-109088095D01*
X222605038Y-109088095D02*
X222557419Y-108992857D01*
X222557419Y-108992857D02*
X222557419Y-108897619D01*
X222890752Y-108707142D02*
X222890752Y-108326190D01*
X222557419Y-108564285D02*
X223414561Y-108564285D01*
X223414561Y-108564285D02*
X223509800Y-108516666D01*
X223509800Y-108516666D02*
X223557419Y-108421428D01*
X223557419Y-108421428D02*
X223557419Y-108326190D01*
X223652657Y-108230952D02*
X223652657Y-107469047D01*
X223557419Y-106659523D02*
X223081228Y-106992856D01*
X223557419Y-107230951D02*
X222557419Y-107230951D01*
X222557419Y-107230951D02*
X222557419Y-106849999D01*
X222557419Y-106849999D02*
X222605038Y-106754761D01*
X222605038Y-106754761D02*
X222652657Y-106707142D01*
X222652657Y-106707142D02*
X222747895Y-106659523D01*
X222747895Y-106659523D02*
X222890752Y-106659523D01*
X222890752Y-106659523D02*
X222985990Y-106707142D01*
X222985990Y-106707142D02*
X223033609Y-106754761D01*
X223033609Y-106754761D02*
X223081228Y-106849999D01*
X223081228Y-106849999D02*
X223081228Y-107230951D01*
X223509800Y-105849999D02*
X223557419Y-105945237D01*
X223557419Y-105945237D02*
X223557419Y-106135713D01*
X223557419Y-106135713D02*
X223509800Y-106230951D01*
X223509800Y-106230951D02*
X223414561Y-106278570D01*
X223414561Y-106278570D02*
X223033609Y-106278570D01*
X223033609Y-106278570D02*
X222938371Y-106230951D01*
X222938371Y-106230951D02*
X222890752Y-106135713D01*
X222890752Y-106135713D02*
X222890752Y-105945237D01*
X222890752Y-105945237D02*
X222938371Y-105849999D01*
X222938371Y-105849999D02*
X223033609Y-105802380D01*
X223033609Y-105802380D02*
X223128847Y-105802380D01*
X223128847Y-105802380D02*
X223224085Y-106278570D01*
X222890752Y-104945237D02*
X223700276Y-104945237D01*
X223700276Y-104945237D02*
X223795514Y-104992856D01*
X223795514Y-104992856D02*
X223843133Y-105040475D01*
X223843133Y-105040475D02*
X223890752Y-105135713D01*
X223890752Y-105135713D02*
X223890752Y-105278570D01*
X223890752Y-105278570D02*
X223843133Y-105373808D01*
X223509800Y-104945237D02*
X223557419Y-105040475D01*
X223557419Y-105040475D02*
X223557419Y-105230951D01*
X223557419Y-105230951D02*
X223509800Y-105326189D01*
X223509800Y-105326189D02*
X223462180Y-105373808D01*
X223462180Y-105373808D02*
X223366942Y-105421427D01*
X223366942Y-105421427D02*
X223081228Y-105421427D01*
X223081228Y-105421427D02*
X222985990Y-105373808D01*
X222985990Y-105373808D02*
X222938371Y-105326189D01*
X222938371Y-105326189D02*
X222890752Y-105230951D01*
X222890752Y-105230951D02*
X222890752Y-105040475D01*
X222890752Y-105040475D02*
X222938371Y-104945237D01*
X223652657Y-104707142D02*
X223652657Y-103945237D01*
X222557419Y-103802379D02*
X222557419Y-103183332D01*
X222557419Y-103183332D02*
X222938371Y-103516665D01*
X222938371Y-103516665D02*
X222938371Y-103373808D01*
X222938371Y-103373808D02*
X222985990Y-103278570D01*
X222985990Y-103278570D02*
X223033609Y-103230951D01*
X223033609Y-103230951D02*
X223128847Y-103183332D01*
X223128847Y-103183332D02*
X223366942Y-103183332D01*
X223366942Y-103183332D02*
X223462180Y-103230951D01*
X223462180Y-103230951D02*
X223509800Y-103278570D01*
X223509800Y-103278570D02*
X223557419Y-103373808D01*
X223557419Y-103373808D02*
X223557419Y-103659522D01*
X223557419Y-103659522D02*
X223509800Y-103754760D01*
X223509800Y-103754760D02*
X223462180Y-103802379D01*
D10*
X220101309Y-52794819D02*
X220101309Y-51794819D01*
X220101309Y-51794819D02*
X220482261Y-51794819D01*
X220482261Y-51794819D02*
X220577499Y-51842438D01*
X220577499Y-51842438D02*
X220625118Y-51890057D01*
X220625118Y-51890057D02*
X220672737Y-51985295D01*
X220672737Y-51985295D02*
X220672737Y-52128152D01*
X220672737Y-52128152D02*
X220625118Y-52223390D01*
X220625118Y-52223390D02*
X220577499Y-52271009D01*
X220577499Y-52271009D02*
X220482261Y-52318628D01*
X220482261Y-52318628D02*
X220101309Y-52318628D01*
X221101309Y-52794819D02*
X221101309Y-51794819D01*
X221101309Y-51794819D02*
X221434642Y-52509104D01*
X221434642Y-52509104D02*
X221767975Y-51794819D01*
X221767975Y-51794819D02*
X221767975Y-52794819D01*
X222434642Y-51794819D02*
X222625118Y-51794819D01*
X222625118Y-51794819D02*
X222720356Y-51842438D01*
X222720356Y-51842438D02*
X222815594Y-51937676D01*
X222815594Y-51937676D02*
X222863213Y-52128152D01*
X222863213Y-52128152D02*
X222863213Y-52461485D01*
X222863213Y-52461485D02*
X222815594Y-52651961D01*
X222815594Y-52651961D02*
X222720356Y-52747200D01*
X222720356Y-52747200D02*
X222625118Y-52794819D01*
X222625118Y-52794819D02*
X222434642Y-52794819D01*
X222434642Y-52794819D02*
X222339404Y-52747200D01*
X222339404Y-52747200D02*
X222244166Y-52651961D01*
X222244166Y-52651961D02*
X222196547Y-52461485D01*
X222196547Y-52461485D02*
X222196547Y-52128152D01*
X222196547Y-52128152D02*
X222244166Y-51937676D01*
X222244166Y-51937676D02*
X222339404Y-51842438D01*
X222339404Y-51842438D02*
X222434642Y-51794819D01*
X223291785Y-52794819D02*
X223291785Y-51794819D01*
X223291785Y-51794819D02*
X223529880Y-51794819D01*
X223529880Y-51794819D02*
X223672737Y-51842438D01*
X223672737Y-51842438D02*
X223767975Y-51937676D01*
X223767975Y-51937676D02*
X223815594Y-52032914D01*
X223815594Y-52032914D02*
X223863213Y-52223390D01*
X223863213Y-52223390D02*
X223863213Y-52366247D01*
X223863213Y-52366247D02*
X223815594Y-52556723D01*
X223815594Y-52556723D02*
X223767975Y-52651961D01*
X223767975Y-52651961D02*
X223672737Y-52747200D01*
X223672737Y-52747200D02*
X223529880Y-52794819D01*
X223529880Y-52794819D02*
X223291785Y-52794819D01*
X224053690Y-52890057D02*
X224815594Y-52890057D01*
X225625118Y-52699580D02*
X225577499Y-52747200D01*
X225577499Y-52747200D02*
X225434642Y-52794819D01*
X225434642Y-52794819D02*
X225339404Y-52794819D01*
X225339404Y-52794819D02*
X225196547Y-52747200D01*
X225196547Y-52747200D02*
X225101309Y-52651961D01*
X225101309Y-52651961D02*
X225053690Y-52556723D01*
X225053690Y-52556723D02*
X225006071Y-52366247D01*
X225006071Y-52366247D02*
X225006071Y-52223390D01*
X225006071Y-52223390D02*
X225053690Y-52032914D01*
X225053690Y-52032914D02*
X225101309Y-51937676D01*
X225101309Y-51937676D02*
X225196547Y-51842438D01*
X225196547Y-51842438D02*
X225339404Y-51794819D01*
X225339404Y-51794819D02*
X225434642Y-51794819D01*
X225434642Y-51794819D02*
X225577499Y-51842438D01*
X225577499Y-51842438D02*
X225625118Y-51890057D01*
X226196547Y-52794819D02*
X226101309Y-52747200D01*
X226101309Y-52747200D02*
X226053690Y-52699580D01*
X226053690Y-52699580D02*
X226006071Y-52604342D01*
X226006071Y-52604342D02*
X226006071Y-52318628D01*
X226006071Y-52318628D02*
X226053690Y-52223390D01*
X226053690Y-52223390D02*
X226101309Y-52175771D01*
X226101309Y-52175771D02*
X226196547Y-52128152D01*
X226196547Y-52128152D02*
X226339404Y-52128152D01*
X226339404Y-52128152D02*
X226434642Y-52175771D01*
X226434642Y-52175771D02*
X226482261Y-52223390D01*
X226482261Y-52223390D02*
X226529880Y-52318628D01*
X226529880Y-52318628D02*
X226529880Y-52604342D01*
X226529880Y-52604342D02*
X226482261Y-52699580D01*
X226482261Y-52699580D02*
X226434642Y-52747200D01*
X226434642Y-52747200D02*
X226339404Y-52794819D01*
X226339404Y-52794819D02*
X226196547Y-52794819D01*
X226958452Y-52128152D02*
X226958452Y-52794819D01*
X226958452Y-52223390D02*
X227006071Y-52175771D01*
X227006071Y-52175771D02*
X227101309Y-52128152D01*
X227101309Y-52128152D02*
X227244166Y-52128152D01*
X227244166Y-52128152D02*
X227339404Y-52175771D01*
X227339404Y-52175771D02*
X227387023Y-52271009D01*
X227387023Y-52271009D02*
X227387023Y-52794819D01*
X227863214Y-52128152D02*
X227863214Y-52794819D01*
X227863214Y-52223390D02*
X227910833Y-52175771D01*
X227910833Y-52175771D02*
X228006071Y-52128152D01*
X228006071Y-52128152D02*
X228148928Y-52128152D01*
X228148928Y-52128152D02*
X228244166Y-52175771D01*
X228244166Y-52175771D02*
X228291785Y-52271009D01*
X228291785Y-52271009D02*
X228291785Y-52794819D01*
X229148928Y-52747200D02*
X229053690Y-52794819D01*
X229053690Y-52794819D02*
X228863214Y-52794819D01*
X228863214Y-52794819D02*
X228767976Y-52747200D01*
X228767976Y-52747200D02*
X228720357Y-52651961D01*
X228720357Y-52651961D02*
X228720357Y-52271009D01*
X228720357Y-52271009D02*
X228767976Y-52175771D01*
X228767976Y-52175771D02*
X228863214Y-52128152D01*
X228863214Y-52128152D02*
X229053690Y-52128152D01*
X229053690Y-52128152D02*
X229148928Y-52175771D01*
X229148928Y-52175771D02*
X229196547Y-52271009D01*
X229196547Y-52271009D02*
X229196547Y-52366247D01*
X229196547Y-52366247D02*
X228720357Y-52461485D01*
X230053690Y-52747200D02*
X229958452Y-52794819D01*
X229958452Y-52794819D02*
X229767976Y-52794819D01*
X229767976Y-52794819D02*
X229672738Y-52747200D01*
X229672738Y-52747200D02*
X229625119Y-52699580D01*
X229625119Y-52699580D02*
X229577500Y-52604342D01*
X229577500Y-52604342D02*
X229577500Y-52318628D01*
X229577500Y-52318628D02*
X229625119Y-52223390D01*
X229625119Y-52223390D02*
X229672738Y-52175771D01*
X229672738Y-52175771D02*
X229767976Y-52128152D01*
X229767976Y-52128152D02*
X229958452Y-52128152D01*
X229958452Y-52128152D02*
X230053690Y-52175771D01*
X230339405Y-52128152D02*
X230720357Y-52128152D01*
X230482262Y-51794819D02*
X230482262Y-52651961D01*
X230482262Y-52651961D02*
X230529881Y-52747200D01*
X230529881Y-52747200D02*
X230625119Y-52794819D01*
X230625119Y-52794819D02*
X230720357Y-52794819D01*
X231196548Y-52794819D02*
X231101310Y-52747200D01*
X231101310Y-52747200D02*
X231053691Y-52699580D01*
X231053691Y-52699580D02*
X231006072Y-52604342D01*
X231006072Y-52604342D02*
X231006072Y-52318628D01*
X231006072Y-52318628D02*
X231053691Y-52223390D01*
X231053691Y-52223390D02*
X231101310Y-52175771D01*
X231101310Y-52175771D02*
X231196548Y-52128152D01*
X231196548Y-52128152D02*
X231339405Y-52128152D01*
X231339405Y-52128152D02*
X231434643Y-52175771D01*
X231434643Y-52175771D02*
X231482262Y-52223390D01*
X231482262Y-52223390D02*
X231529881Y-52318628D01*
X231529881Y-52318628D02*
X231529881Y-52604342D01*
X231529881Y-52604342D02*
X231482262Y-52699580D01*
X231482262Y-52699580D02*
X231434643Y-52747200D01*
X231434643Y-52747200D02*
X231339405Y-52794819D01*
X231339405Y-52794819D02*
X231196548Y-52794819D01*
X231958453Y-52794819D02*
X231958453Y-52128152D01*
X231958453Y-52318628D02*
X232006072Y-52223390D01*
X232006072Y-52223390D02*
X232053691Y-52175771D01*
X232053691Y-52175771D02*
X232148929Y-52128152D01*
X232148929Y-52128152D02*
X232244167Y-52128152D01*
X233101310Y-52794819D02*
X232529882Y-52794819D01*
X232815596Y-52794819D02*
X232815596Y-51794819D01*
X232815596Y-51794819D02*
X232720358Y-51937676D01*
X232720358Y-51937676D02*
X232625120Y-52032914D01*
X232625120Y-52032914D02*
X232529882Y-52080533D01*
D12*
%TO.C,Wheel_Pot1*%
X190070000Y-48350000D02*
X177470000Y-48350000D01*
X177470000Y-48350000D02*
X177470000Y-63750000D01*
X185270000Y-63750000D02*
X185020000Y-64250000D01*
X179870000Y-63750000D02*
X185270000Y-63750000D01*
X178420000Y-63750000D02*
X178120000Y-64250000D01*
X177470000Y-63750000D02*
X178420000Y-63750000D01*
X190070000Y-64250000D02*
X190070000Y-48350000D01*
X185020000Y-64250000D02*
X190070000Y-64250000D01*
X180120000Y-64250000D02*
X179870000Y-63750000D01*
X178120000Y-64250000D02*
X180120000Y-64250000D01*
%TO.C,Power_Terminal1*%
X223550000Y-39320000D02*
X223550000Y-26720000D01*
X223550000Y-26720000D02*
X213200000Y-26720000D01*
X213200000Y-34520000D02*
X212700000Y-34220000D01*
X213200000Y-29120000D02*
X213200000Y-34520000D01*
X213200000Y-27670000D02*
X212700000Y-27420000D01*
X213200000Y-26720000D02*
X213200000Y-27670000D01*
X212700000Y-39320000D02*
X223550000Y-39320000D01*
X212700000Y-34220000D02*
X212700000Y-39320000D01*
X212700000Y-29370000D02*
X213200000Y-29120000D01*
X212700000Y-29320000D02*
X212700000Y-29370000D01*
X212700000Y-27420000D02*
X212700000Y-29320000D01*
D11*
%TO.C,SW_Stop_Reset1*%
X191000000Y-72630000D02*
X186000000Y-72630000D01*
X186000000Y-72630000D02*
X186000000Y-67630000D01*
X186000000Y-67630000D02*
X191000000Y-67630000D01*
X191000000Y-67630000D02*
X191000000Y-72630000D01*
%TO.C,SW_Car2*%
X203260000Y-143500000D02*
X208260000Y-143500000D01*
X208260000Y-143500000D02*
X208260000Y-148500000D01*
X208260000Y-148500000D02*
X203260000Y-148500000D01*
X203260000Y-148500000D02*
X203260000Y-143500000D01*
%TO.C,SW_Car1*%
X185440000Y-143500000D02*
X190440000Y-143500000D01*
X190440000Y-143500000D02*
X190440000Y-148500000D01*
X190440000Y-148500000D02*
X185440000Y-148500000D01*
X185440000Y-148500000D02*
X185440000Y-143500000D01*
D12*
%TO.C,7_Seg_Dis_3*%
X218370000Y-140425000D02*
X229970000Y-140425000D01*
X217260000Y-136505000D02*
X217260000Y-125075000D01*
X230080000Y-136505000D02*
X230080000Y-125075000D01*
X218670000Y-135790000D02*
X225670000Y-135790000D01*
X225670000Y-135790000D02*
X226670000Y-130790000D01*
X219670000Y-130790000D02*
X218670000Y-135790000D01*
X226670000Y-130790000D02*
X219670000Y-130790000D01*
X220670000Y-125790000D02*
X219670000Y-130790000D01*
X220670000Y-125790000D02*
X227670000Y-125790000D01*
X227670000Y-125790000D02*
X226670000Y-130790000D01*
X229970000Y-121155000D02*
X217370000Y-121155000D01*
X228117214Y-135790000D02*
G75*
G03*
X227222786Y-135790000I-447214J0D01*
G01*
X227222786Y-135790000D02*
G75*
G03*
X228117214Y-135790000I447214J0D01*
G01*
D11*
%TO.C,SW_Start1*%
X191000000Y-82500000D02*
X186000000Y-82500000D01*
X186000000Y-82500000D02*
X186000000Y-77500000D01*
X186000000Y-77500000D02*
X191000000Y-77500000D01*
X191000000Y-77500000D02*
X191000000Y-82500000D01*
D12*
%TO.C,Trigger_Pot1*%
X190060000Y-30805000D02*
X177460000Y-30805000D01*
X177460000Y-30805000D02*
X177460000Y-46205000D01*
X185260000Y-46205000D02*
X185010000Y-46705000D01*
X179860000Y-46205000D02*
X185260000Y-46205000D01*
X178410000Y-46205000D02*
X178110000Y-46705000D01*
X177460000Y-46205000D02*
X178410000Y-46205000D01*
X190060000Y-46705000D02*
X190060000Y-30805000D01*
X185010000Y-46705000D02*
X190060000Y-46705000D01*
X180110000Y-46705000D02*
X179860000Y-46205000D01*
X178110000Y-46705000D02*
X180110000Y-46705000D01*
D10*
%TO.C,Nano_33_IoT1*%
X196850000Y-43310000D02*
X196850000Y-87320000D01*
X196850000Y-43310000D02*
X214630000Y-43310000D01*
X196850000Y-87320000D02*
X214630000Y-87320000D01*
X214630000Y-43310000D02*
X214630000Y-87320000D01*
D11*
%TO.C,Shift_Reg_1*%
X186100000Y-117100000D02*
X191100000Y-117100000D01*
X191100000Y-117100000D02*
X191100000Y-97390000D01*
X191100000Y-97390000D02*
X186100000Y-97390000D01*
X186100000Y-97390000D02*
X186100000Y-117100000D01*
X189350000Y-117100000D02*
G75*
G03*
X187850000Y-117100000I-750000J0D01*
G01*
D12*
%TO.C,7_Seg_Dis_2*%
X200440000Y-140425000D02*
X212040000Y-140425000D01*
X199330000Y-136505000D02*
X199330000Y-125075000D01*
X212150000Y-136505000D02*
X212150000Y-125075000D01*
X200740000Y-135790000D02*
X207740000Y-135790000D01*
X207740000Y-135790000D02*
X208740000Y-130790000D01*
X201740000Y-130790000D02*
X200740000Y-135790000D01*
X208740000Y-130790000D02*
X201740000Y-130790000D01*
X202740000Y-125790000D02*
X201740000Y-130790000D01*
X202740000Y-125790000D02*
X209740000Y-125790000D01*
X209740000Y-125790000D02*
X208740000Y-130790000D01*
X212040000Y-121155000D02*
X199440000Y-121155000D01*
X210187214Y-135790000D02*
G75*
G03*
X209292786Y-135790000I-447214J0D01*
G01*
X209292786Y-135790000D02*
G75*
G03*
X210187214Y-135790000I447214J0D01*
G01*
D11*
%TO.C,Shift_Reg_2*%
X203700000Y-117100000D02*
X208700000Y-117100000D01*
X208700000Y-117100000D02*
X208700000Y-97390000D01*
X208700000Y-97390000D02*
X203700000Y-97390000D01*
X203700000Y-97390000D02*
X203700000Y-117100000D01*
X206950000Y-117100000D02*
G75*
G03*
X205450000Y-117100000I-750000J0D01*
G01*
D12*
%TO.C,7_Seg_Dis_1*%
X182660000Y-140425000D02*
X194260000Y-140425000D01*
X181550000Y-136505000D02*
X181550000Y-125075000D01*
X194370000Y-136505000D02*
X194370000Y-125075000D01*
X182960000Y-135790000D02*
X189960000Y-135790000D01*
X189960000Y-135790000D02*
X190960000Y-130790000D01*
X183960000Y-130790000D02*
X182960000Y-135790000D01*
X190960000Y-130790000D02*
X183960000Y-130790000D01*
X184960000Y-125790000D02*
X183960000Y-130790000D01*
X184960000Y-125790000D02*
X191960000Y-125790000D01*
X191960000Y-125790000D02*
X190960000Y-130790000D01*
X194260000Y-121155000D02*
X181660000Y-121155000D01*
X192407214Y-135790000D02*
G75*
G03*
X191512786Y-135790000I-447214J0D01*
G01*
X191512786Y-135790000D02*
G75*
G03*
X192407214Y-135790000I447214J0D01*
G01*
D11*
%TO.C,SW_Car3*%
X221000000Y-143500000D02*
X226000000Y-143500000D01*
X226000000Y-143500000D02*
X226000000Y-148500000D01*
X226000000Y-148500000D02*
X221000000Y-148500000D01*
X221000000Y-148500000D02*
X221000000Y-143500000D01*
%TO.C,Shift_Reg_3*%
X221100000Y-117100000D02*
X226100000Y-117100000D01*
X226100000Y-117100000D02*
X226100000Y-97390000D01*
X226100000Y-97390000D02*
X221100000Y-97390000D01*
X221100000Y-97390000D02*
X221100000Y-117100000D01*
X224350000Y-117100000D02*
G75*
G03*
X222850000Y-117100000I-750000J0D01*
G01*
D12*
%TO.C,PMOD_Connector1*%
X218012500Y-57940000D02*
X218012500Y-58940000D01*
X218012500Y-58940000D02*
X219012500Y-58440000D01*
X219012500Y-58440000D02*
X218012500Y-57940000D01*
X224632500Y-53230000D02*
X233752500Y-53230000D01*
X224632500Y-62740000D02*
X233752500Y-62740000D01*
X224632500Y-66840000D02*
X233752500Y-66840000D01*
X224632500Y-76350000D02*
X224632500Y-53230000D01*
X233752500Y-53230000D02*
X233752500Y-76350000D01*
X233752500Y-76350000D02*
X224632500Y-76350000D01*
%TD*%
M02*
