%TF.GenerationSoftware,KiCad,Pcbnew,7.0.10-7.0.10~ubuntu22.04.1*%
%TF.CreationDate,2024-02-07T13:24:06-05:00*%
%TF.ProjectId,CapController,43617043-6f6e-4747-926f-6c6c65722e6b,rev?*%
%TF.SameCoordinates,Original*%
%TF.FileFunction,Legend,Bot*%
%TF.FilePolarity,Positive*%
%FSLAX46Y46*%
G04 Gerber Fmt 4.6, Leading zero omitted, Abs format (unit mm)*
G04 Created by KiCad (PCBNEW 7.0.10-7.0.10~ubuntu22.04.1) date 2024-02-07 13:24:06*
%MOMM*%
%LPD*%
G01*
G04 APERTURE LIST*
%ADD10C,0.150000*%
G04 APERTURE END LIST*
D10*
X199570180Y-51228094D02*
X200570180Y-51228094D01*
X200570180Y-51228094D02*
X200570180Y-50989999D01*
X200570180Y-50989999D02*
X200522561Y-50847142D01*
X200522561Y-50847142D02*
X200427323Y-50751904D01*
X200427323Y-50751904D02*
X200332085Y-50704285D01*
X200332085Y-50704285D02*
X200141609Y-50656666D01*
X200141609Y-50656666D02*
X199998752Y-50656666D01*
X199998752Y-50656666D02*
X199808276Y-50704285D01*
X199808276Y-50704285D02*
X199713038Y-50751904D01*
X199713038Y-50751904D02*
X199617800Y-50847142D01*
X199617800Y-50847142D02*
X199570180Y-50989999D01*
X199570180Y-50989999D02*
X199570180Y-51228094D01*
X200570180Y-50037618D02*
X200570180Y-49942380D01*
X200570180Y-49942380D02*
X200522561Y-49847142D01*
X200522561Y-49847142D02*
X200474942Y-49799523D01*
X200474942Y-49799523D02*
X200379704Y-49751904D01*
X200379704Y-49751904D02*
X200189228Y-49704285D01*
X200189228Y-49704285D02*
X199951133Y-49704285D01*
X199951133Y-49704285D02*
X199760657Y-49751904D01*
X199760657Y-49751904D02*
X199665419Y-49799523D01*
X199665419Y-49799523D02*
X199617800Y-49847142D01*
X199617800Y-49847142D02*
X199570180Y-49942380D01*
X199570180Y-49942380D02*
X199570180Y-50037618D01*
X199570180Y-50037618D02*
X199617800Y-50132856D01*
X199617800Y-50132856D02*
X199665419Y-50180475D01*
X199665419Y-50180475D02*
X199760657Y-50228094D01*
X199760657Y-50228094D02*
X199951133Y-50275713D01*
X199951133Y-50275713D02*
X200189228Y-50275713D01*
X200189228Y-50275713D02*
X200379704Y-50228094D01*
X200379704Y-50228094D02*
X200474942Y-50180475D01*
X200474942Y-50180475D02*
X200522561Y-50132856D01*
X200522561Y-50132856D02*
X200570180Y-50037618D01*
M02*
